<svg width="48" height="48" viewBox="0 0 48 48" fill="none" xmlns="http://www.w3.org/2000/svg">
<rect width="48" height="48" rx="8" fill="#592472"/>
<path d="M6.11837 7.00113C6.48896 6.99108 6.88496 7.0465 7.20774 7.23991C7.69879 7.5344 7.8072 7.9884 7.94561 8.5043C8.47457 10.4743 8.83511 12.5239 9.27879 14.5176C9.67235 16.2856 10.2068 18.1298 10.417 19.9251C10.4681 20.3618 10.5626 20.8186 10.3188 21.2108C9.90064 21.8837 9.01071 21.9725 8.30126 22.1296C8.0734 22.1202 7.83678 22.0731 7.62887 21.9769C7.09143 21.728 6.88884 21.1243 6.69802 20.6094C6.11292 19.03 3.54967 9.12027 4.06901 8.12984C4.41333 7.47352 5.4711 7.19855 6.11837 7.00113Z" fill="#300C41"/>
<path d="M9.15663 19.6572L9.3173 19.6868C9.44394 19.8564 9.49793 20.008 9.53023 20.2188C9.55766 20.3967 9.52622 20.5664 9.41739 20.7117C9.16698 21.0463 8.51711 21.0711 8.13174 21.1314C7.91076 20.9615 7.80107 20.7587 7.66151 20.5209C7.65806 20.4001 7.62316 20.2797 7.69797 20.1761C7.98413 19.7809 8.7154 19.7379 9.15663 19.6572Z" fill="#CB9DEF"/>
<path d="M6.26652 8.05989C6.40852 8.04697 6.50214 8.07396 6.63739 8.11675C7.19521 8.73918 7.25379 9.90551 7.36091 10.6988L5.81394 11.0873C5.71056 11.1116 5.5967 11.1182 5.49102 11.1323C5.03213 10.597 4.96364 9.33979 4.84375 8.64787C5.31212 8.39387 5.75751 8.21884 6.26652 8.05989Z" fill="#CB9DEF"/>
<path d="M7.04431 11.8539C7.26083 11.8173 7.36191 11.7784 7.57154 11.8535C8.09419 12.9141 8.80952 17.1398 9.17164 18.6323C8.64354 18.7296 8.12305 18.8464 7.60084 18.971C7.49559 19.0162 7.43959 19.0043 7.32745 18.9971C6.87129 18.1504 5.83418 13.3806 5.54688 12.1685L7.04431 11.8539Z" fill="#CB9DEF"/>
<path d="M6.8296 12.25C7.00606 12.3743 7.07756 12.4871 7.15854 12.6872C7.50055 13.5309 8.28797 16.991 8.47678 18.0272C8.36737 18.2816 8.1609 18.3813 7.94208 18.5412C7.92585 18.5269 7.90948 18.5127 7.89354 18.498C7.26307 17.9126 6.31442 13.6504 6.27148 12.652C6.41622 12.4178 6.58766 12.3741 6.8296 12.25Z" fill="#300C41"/>
<path d="M38.8075 27.6383C39.2383 27.6034 39.6799 27.6239 40.082 27.7979C40.4573 27.9605 40.7702 28.2775 40.9112 28.6629C41.0483 29.0376 41.0075 29.4624 40.8207 29.813C40.5409 30.3382 40.1002 30.5322 39.5694 30.713C39.1394 30.7107 38.7468 30.6874 38.3455 30.5072C37.9096 30.3117 37.5101 29.9686 37.3516 29.5063C37.2425 29.1877 37.2686 28.8541 37.4237 28.5558C37.7143 27.9967 38.2483 27.8162 38.8075 27.6383Z" fill="#300C41"/>
<path d="M38.6118 28.6432C38.9262 28.6131 39.2575 28.5793 39.5625 28.6864C39.8107 28.7736 39.8692 28.8335 39.9866 29.0623C39.9609 29.3237 39.8673 29.4226 39.6931 29.6125C39.3837 29.6395 39.0664 29.6851 38.7713 29.5619C38.5391 29.4648 38.4389 29.3677 38.3496 29.1357C38.3872 28.9047 38.4626 28.8106 38.6118 28.6432Z" fill="#CB9DEF"/>
<path d="M38.1943 12.572C38.8174 12.5193 39.431 12.5397 40.0443 12.6669C41.319 12.9311 42.4582 13.5906 43.1701 14.7012C44.1284 16.1962 44.1487 17.9946 43.7697 19.6787C43.3985 21.328 41.4881 26.2631 40.1443 27.0376C40.1072 27.059 40.0688 27.0785 40.0296 27.0962C39.9904 27.1137 39.9504 27.1292 39.9096 27.1428C39.8688 27.1563 39.8275 27.1678 39.7855 27.1771C39.7436 27.1865 39.7013 27.1937 39.6586 27.1988C39.616 27.2039 39.573 27.2069 39.5301 27.2076C39.4872 27.2083 39.4444 27.207 39.4014 27.2034C39.3587 27.1998 39.3162 27.1942 39.2738 27.1863C39.2316 27.1784 39.1898 27.1685 39.1486 27.1565C38.665 27.0185 38.2206 26.6083 37.9945 26.1652C37.669 25.5275 37.95 24.8357 38.1411 24.2044C38.727 22.5259 39.5597 20.7926 39.5337 18.976C39.5291 18.6625 39.4826 18.2305 39.2299 18.0091C39.0939 17.8899 39.0599 17.9021 38.8924 17.9169C38.3407 18.5043 38.692 19.6995 38.3358 20.446C38.0724 20.998 37.5492 21.4031 36.97 21.5794C36.3769 21.76 35.718 21.7203 35.1731 21.4134C34.5832 21.0815 34.2454 20.4608 34.0808 19.8224C33.6939 18.3208 34.1406 16.1946 34.9428 14.8877C35.7108 13.6367 36.7821 12.9012 38.1943 12.572Z" fill="#300C41"/>
<path d="M38.135 13.5651C38.2578 13.5486 38.3754 13.536 38.4991 13.53C39.6666 13.4722 40.9388 13.7944 41.812 14.6025C42.6108 15.3417 43.0015 16.3687 43.0354 17.4443C43.1089 19.7817 41.9695 22.1184 40.9372 24.159C40.6028 24.8201 40.2908 25.5427 39.7806 26.0869C39.5506 26.2 39.4347 26.1979 39.1835 26.159C39.0568 26.0622 38.9784 26.0333 38.9158 25.8808C38.6152 25.1486 39.4389 23.5748 39.7157 22.8794C40.2243 21.4718 40.9306 19.1797 40.254 17.7499C40.0721 17.3651 39.7727 17.0904 39.3677 16.956C39.0535 16.8516 38.6591 16.8029 38.3576 16.9699C37.5363 17.4248 37.7236 19.0068 37.4655 19.7898C37.3512 20.1365 37.1442 20.4195 36.8046 20.5703C36.4963 20.7071 36.0719 20.7363 35.7563 20.6073C35.4309 20.4745 35.2223 20.1793 35.1048 19.8577C34.6643 18.6523 35.0695 16.7751 35.627 15.6632C36.1873 14.5458 36.9727 13.9576 38.135 13.5651Z" fill="#CB9DEF"/>
<path d="M37.2894 14.9688C37.4991 15.0278 37.6014 15.0769 37.7683 15.2167C38.0104 15.9246 37.3016 16.0308 37.112 16.6046C36.9981 16.9491 37.005 17.3271 36.9154 17.6764C36.842 17.9625 36.696 18.0143 36.4634 18.1632C36.2875 18.095 36.1174 18.0183 36.0209 17.8533C35.8332 17.5324 35.8819 17.1064 35.9744 16.7625C36.1704 16.0338 36.6284 15.3375 37.2894 14.9688Z" fill="#300C41"/>
<path d="M17.7768 12.6428C20.8451 12.4738 24.0415 12.5361 27.1069 12.7349C27.9563 12.7901 32.0688 13.1182 32.4963 13.6045C32.8946 15.2161 32.6796 17.8464 32.6834 19.5701C32.6918 23.5404 32.8231 27.5753 32.497 31.5341C34.1509 31.5165 36.607 31.3412 38.1784 31.8338C38.6156 31.9709 39.0561 32.2199 39.2486 32.6575C39.6351 33.5366 38.9489 34.9437 38.6347 35.7836C38.9655 35.849 39.3729 35.8981 39.6652 36.0705C39.8023 36.1515 39.9522 36.301 39.9787 36.4595C40.0935 37.1478 39.2158 38.7122 38.803 39.2176C38.6553 39.3985 38.2962 39.4372 38.0762 39.4581C37.157 39.5448 36.1928 39.4763 35.2661 39.4987C32.5363 39.5649 29.7584 39.5857 27.0433 39.8809C25.4047 40.0258 23.8401 40.8978 22.2312 40.8959C20.7879 40.8942 18.5776 39.8271 16.9112 39.5775C13.46 39.0605 9.93819 39.0972 6.46649 38.7944L6.30884 38.6827C5.61447 38.18 5.36119 37.4176 5.22924 36.6008C5.15271 36.1262 4.97984 35.5114 5.2772 35.0959C5.37397 35.0557 5.52129 35.0093 5.60026 34.9422C5.97113 34.6275 5.82941 32.7144 5.8376 32.151C5.84262 31.8118 5.82152 31.1268 6.09231 30.8889C6.72293 30.3347 10.6313 30.78 11.6243 30.8503C11.7956 29.0237 11.7205 27.1148 11.7544 25.2787C11.8171 22.8965 11.8988 20.5149 11.9992 18.1338C12.0486 16.6444 11.903 14.9362 12.323 13.5068C12.8502 12.9809 16.8656 12.7134 17.7768 12.6428Z" fill="#300C41"/>
<path d="M6.14453 36.1719C8.89989 36.3614 11.7246 36.4575 14.4512 36.8948C17.1951 37.3349 19.8405 38.1447 22.4586 39.0543C26.913 37.2246 31.7685 36.8852 36.5318 36.8382C37.1271 36.8324 38.3264 36.6658 38.8567 36.8856C38.8819 37.1281 38.7877 37.215 38.6686 37.4229C38.4236 37.7565 38.2088 38.1111 37.9878 38.4606C34.2061 38.507 30.2876 38.4725 26.5328 38.9269C25.0722 39.1037 23.6031 39.9359 22.1664 39.9442C21.2308 39.9497 19.7054 39.2236 18.7089 38.9719C17.4771 38.6609 16.2716 38.5021 15.0079 38.3968C13.7869 38.2952 7.35867 38.1253 6.76452 37.753C6.29357 37.458 6.22192 36.6743 6.14453 36.1719Z" fill="#CB9DEF"/>
<path d="M6.90629 31.5986C11.5755 31.6625 17.4487 32.3545 21.6362 34.5394C21.6353 35.5815 21.5572 36.6315 21.5351 37.6752C16.8476 35.7875 11.6981 35.5961 6.73097 35.2149C6.72279 34.0107 6.81583 32.7988 6.90629 31.5986Z" fill="#CB9DEF"/>
<path d="M32.1883 32.5694C33.7513 32.3783 35.67 32.4601 37.2344 32.6729C37.5939 32.7217 38.1149 32.7703 38.3465 33.0752C38.4471 33.9208 37.8763 35.0193 37.6121 35.8225C34.1878 35.9098 30.7715 35.9815 27.3916 36.5935C25.7566 36.8838 24.1147 37.3465 22.5547 37.9127C22.5716 36.7817 22.6104 35.6514 22.6711 34.5218C25.6956 33.1558 28.9067 32.7803 32.1883 32.5694Z" fill="#CB9DEF"/>
<path d="M17.958 13.6426C20.7275 13.3978 25.1574 13.4947 27.8879 13.795C29.1421 13.9328 30.3854 14.1862 31.6355 14.3624C31.7291 20.1018 31.686 25.8401 31.5062 31.5776C29.3926 31.7499 27.3986 31.9849 25.3339 32.4938C24.2928 32.8034 23.2695 33.1398 22.2852 33.6025C20.9285 33.1655 19.6054 32.6249 18.243 32.1977C16.3937 31.6178 14.5468 31.2593 12.6328 30.9666C12.6717 25.3962 12.8315 19.8292 13.1125 14.2658C14.7186 13.9875 16.3338 13.7797 17.958 13.6426Z" fill="#CB9DEF"/>
<path d="M14.0598 14.922C14.1838 14.9152 14.3456 14.8921 14.4665 14.9155C14.665 14.9538 14.7833 15.0693 14.8724 15.2453C15.065 15.6252 14.8232 16.2859 14.6805 16.6557C14.595 16.6764 14.4955 16.707 14.4062 16.7093C14.1686 16.7156 14.1099 16.6319 13.9568 16.4661C13.7771 16.003 13.8813 15.3731 14.0598 14.922Z" fill="#300C41"/>
<path d="M14.1714 17.8398C14.2835 17.8624 14.3888 17.8811 14.4901 17.9369C14.6922 18.0485 14.7938 18.2117 14.851 18.4339C14.9631 18.8701 14.8515 19.5074 14.6342 19.8952C14.4876 19.8661 14.283 19.8407 14.1608 19.7509C14.0234 19.65 13.9376 19.425 13.8972 19.2659C13.784 18.822 13.9395 18.219 14.1714 17.8398Z" fill="#300C41"/>
<path d="M25.0855 20.9597C25.9717 20.936 27.646 20.7065 28.4472 21.1205C28.6268 21.2132 28.6292 21.2397 28.6815 21.422C28.5586 21.6631 28.4572 21.7726 28.2386 21.9304C27.489 21.9225 25.2441 22.1257 24.6877 21.6963C24.5607 21.598 24.5931 21.5736 24.5762 21.4257C24.7047 21.1941 24.8656 21.0998 25.0855 20.9597Z" fill="#300C41"/>
<path d="M25.1353 27.7252C25.8954 27.7102 26.7549 27.6281 27.5037 27.7789C27.7635 27.8313 27.9225 27.8999 28.0628 28.1193C28.0289 28.3271 27.9829 28.429 27.8158 28.5696C27.605 28.7471 27.2149 28.6991 26.9536 28.6928C26.2222 28.684 24.406 28.8441 23.8538 28.5304C23.7109 28.4491 23.735 28.4246 23.6875 28.2804C23.7311 28.1752 23.7126 28.1915 23.7808 28.1176C24.1757 27.6893 24.5955 27.7296 25.1353 27.7252Z" fill="#300C41"/>
<path d="M17.7967 27.9678C18.7287 27.9488 21.1956 27.7121 21.9338 28.1052C22.1095 28.1988 22.1008 28.24 22.1473 28.4208C22.052 28.6808 21.9311 28.7759 21.7132 28.9409C20.5776 28.8448 19.0179 29.1626 18.0095 28.914C17.7732 28.8559 17.6936 28.7923 17.5637 28.5931C17.5508 28.3154 17.6432 28.1925 17.7967 27.9678Z" fill="#300C41"/>
<path d="M18.4211 20.9067C19.5807 20.8889 20.7591 20.8951 21.9178 20.9399C22.3642 20.9571 22.9009 20.9795 23.2204 21.3247C23.2256 21.5382 23.1931 21.6327 23.031 21.7836C22.8213 21.979 22.5533 21.9349 22.2866 21.9458C21.462 21.9328 18.2961 22.0184 17.7062 21.7007C17.4998 21.5896 17.4544 21.5106 17.3945 21.2913C17.4123 21.2657 17.4277 21.2381 17.4479 21.2144C17.6943 20.9261 18.0721 20.9281 18.4211 20.9067Z" fill="#300C41"/>
<path d="M17.8901 24.392C19.2167 24.369 20.5483 24.4725 21.8764 24.4613C22.8741 24.4528 23.884 24.3196 24.8799 24.3602C24.9892 24.3647 25.071 24.3973 25.1655 24.4487C25.2993 24.683 25.2939 24.7242 25.2851 24.9818C25.1053 25.2247 25.0472 25.2378 24.7777 25.3479C23.3554 25.3657 18.4675 25.6898 17.4466 25.1743C17.3019 24.9776 17.3101 24.9908 17.3404 24.7476C17.4918 24.5272 17.6442 24.4813 17.8901 24.392Z" fill="#300C41"/>
<path d="M17.7727 17.9182C19.0364 17.8424 27.2802 17.7198 28.0502 17.9224C28.2699 17.9802 28.3341 18.0804 28.4434 18.2662C28.4201 18.5469 28.3172 18.6554 28.1328 18.8611C27.0477 18.903 25.9414 18.8225 24.8532 18.8256C23.742 18.8288 18.5898 19.0202 17.952 18.8508C17.7756 18.8038 17.7512 18.7177 17.6557 18.5739C17.6281 18.3017 17.6613 18.1664 17.7727 17.9182Z" fill="#300C41"/>
</svg>
