<svg width="48" height="48" viewBox="0 0 48 48" fill="none" xmlns="http://www.w3.org/2000/svg">
<rect width="48" height="48" rx="8" fill="#592472"/>
<path d="M19.6422 5L19.8956 5.03843C20.446 5.36915 22.441 10.0536 23.0283 11.0679C23.3907 11.1329 23.7247 11.2347 24.072 11.3548C24.1609 11.2891 24.2096 11.2345 24.2683 11.1407C24.4394 10.8698 24.6123 10.6117 24.8086 10.358C25.6493 9.27353 26.6208 8.5329 28.0118 8.36695C28.0878 8.35772 28.1645 8.35033 28.2417 8.3448C28.3177 8.33926 28.3943 8.33573 28.4715 8.33405C28.5487 8.33254 28.6254 8.33271 28.7014 8.33489C28.7786 8.33707 28.8558 8.34127 28.933 8.34732C29.009 8.35352 29.0851 8.36141 29.1612 8.37131C29.2372 8.38121 29.3133 8.39296 29.3894 8.40671C29.4654 8.42031 29.5404 8.4359 29.6142 8.45335C29.6892 8.4708 29.7635 8.4901 29.8374 8.51141C29.9112 8.53255 29.9845 8.55555 30.0572 8.58055C30.1298 8.60538 30.202 8.63206 30.2736 8.66041C30.3453 8.68894 30.4163 8.71914 30.4867 8.75119C30.556 8.78324 30.6248 8.81697 30.6931 8.85254C30.7614 8.88794 30.8285 8.92519 30.8945 8.96395C30.9616 9.00271 31.027 9.04332 31.0908 9.08544C31.1557 9.12755 31.2188 9.17118 31.2804 9.21648C31.343 9.26179 31.404 9.3086 31.4633 9.35692C32.1059 9.87154 32.6748 10.6709 32.7687 11.5037C32.9046 11.4651 32.8476 11.4876 32.9785 11.4253C33.9668 10.9597 34.7722 10.657 35.8729 10.9298C36.935 11.1933 37.8042 11.9367 38.3478 12.8727C39.1063 14.1741 39.0912 15.4968 38.7304 16.918C39.3831 17.0008 39.8983 17.2043 40.4033 17.6355C41.1584 18.2808 41.5879 19.2252 41.655 20.2108C41.7423 21.4829 41.2373 22.498 40.4285 23.4355C40.9352 23.6965 41.3044 23.9905 41.6265 24.4647C42.2037 25.3126 42.3497 26.4067 42.1517 27.4006C41.9151 28.5991 41.2054 29.5577 40.1969 30.2284C40.3396 30.3175 40.4822 30.4103 40.608 30.5231C41.2054 31.0647 41.5208 31.9641 41.5795 32.7505C41.6785 34.0496 41.1701 35.4127 40.3177 36.3873C39.3244 37.5231 38.2807 37.6059 36.8713 37.6927C36.7974 38.2806 36.6867 38.8412 36.44 39.3834C36.0289 40.2846 35.3225 41.0197 34.3728 41.3518C32.3476 42.0609 31.1277 41.0655 29.4212 40.2737L29.3424 40.2379C29.3424 40.6495 28.9514 41.2033 28.6846 41.517C27.9581 42.3746 26.656 42.927 25.5469 42.9923C24.5284 43.0523 23.7716 42.7626 23.0115 42.0974C22.4914 41.3736 22.2279 40.6554 21.9762 39.804C21.1859 40.5737 20.2698 41.1539 19.1288 41.1477C18.1579 41.1422 17.2572 40.7172 16.5862 40.0262C15.587 38.9973 15.44 37.8321 15.4474 36.4524C15.3264 36.4601 15.2055 36.4658 15.0843 36.4693C13.9931 36.4992 12.9805 36.0659 12.1971 35.3127C11.4301 34.5753 10.9591 33.5692 10.94 32.5002C10.9182 31.2818 11.4501 30.2492 12.2887 29.3982C11.4866 28.9783 10.7708 28.502 10.2565 27.739C10.2232 27.6895 10.1909 27.6392 10.1599 27.588C10.1289 27.5368 10.0992 27.485 10.0708 27.4325C10.0424 27.3799 10.0154 27.3266 9.98976 27.2726C9.96409 27.2187 9.93976 27.1642 9.91677 27.109C9.89379 27.0538 9.87231 26.9979 9.85217 26.9417C9.83204 26.8855 9.81324 26.8287 9.79596 26.7715C9.77868 26.7143 9.76274 26.6566 9.74831 26.5987C9.73387 26.5406 9.72096 26.4823 9.70955 26.4237C9.69797 26.3651 9.68807 26.3062 9.67951 26.247C9.67096 26.1878 9.66391 26.1285 9.65838 26.069C9.65284 26.0094 9.64864 25.9498 9.64613 25.8901C9.64361 25.8304 9.64243 25.7706 9.64293 25.7109C9.64344 25.651 9.64528 25.5913 9.64864 25.5317C9.65216 25.4721 9.65703 25.4126 9.6634 25.353C9.66995 25.2936 9.67784 25.2344 9.68724 25.1753C9.69663 25.1164 9.70753 25.0577 9.71978 24.9991C9.96174 23.8596 10.6821 23.1772 11.6189 22.5681C11.2501 22.008 10.9073 21.4579 10.7619 20.7962C10.4559 19.4019 11.0183 18.2277 11.7367 17.0721C11.365 16.3818 8.91991 12.4879 8.51771 12.3168L8.28313 12.5022C7.4732 14.1758 9.22228 16.8402 9.28755 18.5856C9.30332 19.0071 9.22614 19.2926 8.91438 19.5883C8.56906 19.9157 8.163 20.04 7.69317 20.0326C7.2252 20.0252 6.67987 19.9412 6.34344 19.5824C5.34373 18.5166 6.82384 16.267 7.03274 15.0733C7.20272 14.1023 7.05389 12.9373 7.05892 11.9359C7.92507 11.1798 9.12378 10.6219 10.1217 10.0524C13.2567 8.26291 16.4473 6.67038 19.6422 5Z" fill="#300C41"/>
<path d="M7.66215 16.9629C7.89857 17.2191 8.08735 17.8383 8.12812 18.1812C8.17611 18.5824 8.07392 18.7282 7.83683 19.0234C7.79572 19.0101 7.75394 18.9986 7.71316 18.9836C7.50711 18.9079 7.31801 18.811 7.23428 18.5994C7.03746 18.1027 7.46365 17.4143 7.66215 16.9629Z" fill="#CB9DEF"/>
<path d="M19.2793 6.47363L19.4588 6.4988C20.0494 7.12903 21.1653 10.0577 21.6099 11.0549C17.9708 11.2458 15.1279 13.3763 12.5915 15.7654L12.4098 15.7388C11.4311 14.3836 10.5055 12.9929 9.63281 11.567C12.8524 9.86205 15.9994 8.06868 19.2793 6.47363Z" fill="#CB9DEF"/>
<path d="M27.859 9.58744C28.4782 9.51093 29.1024 9.51882 29.7047 9.68845C32.1478 10.3766 31.1813 12.0431 31.9498 13.4365C32.4532 13.6737 33.6546 12.347 34.3325 12.1267C34.9382 11.9303 35.5825 11.9741 36.1446 12.2735C36.8913 12.6706 37.5961 13.6143 37.831 14.4204C38.1934 15.6604 37.4702 16.4124 36.9417 17.418C36.8041 17.6788 36.7269 17.9447 36.8125 18.2333C37.6514 18.528 38.5676 17.9857 39.4988 18.4291C39.9385 18.6387 40.2556 19.023 40.3999 19.4852C41.1852 21.9781 39.232 22.431 38.5542 23.7307C38.675 24.4385 40.509 24.5274 41.0123 25.6105C41.2036 26.0194 41.212 26.4663 41.1583 26.9067C40.8664 29.3438 38.9032 28.807 38.4501 29.9738C38.623 30.5173 39.4233 31.02 39.8176 31.4415C40.2606 31.9164 40.571 32.551 40.5324 33.2121C40.4804 34.0619 40.1247 35.1464 39.4737 35.7137C38.2672 36.7643 37.1917 36.2355 35.8326 36.1238C35.3141 36.5062 35.6077 38.5122 35.252 39.2429C35.0053 39.7498 34.5875 40.0515 34.064 40.2326C32.7133 40.6985 31.5891 40.2634 30.5185 39.4241C30.2266 39.1956 29.8809 38.8664 29.5353 38.7276C29.3557 38.6563 29.1259 38.6021 28.9614 38.7325C28.2936 39.2652 28.3741 40.8519 26.619 41.6434C25.827 42.0003 24.9763 41.9162 24.1843 41.62C24.0568 41.3118 23.6709 41.0438 23.4813 40.7499C23.0433 40.0696 23.134 39.0766 22.988 38.3014C22.9309 37.9942 22.8739 37.8217 22.6222 37.6385C21.5315 37.8026 21.0365 39.6562 19.4459 39.9718C18.8765 40.0847 18.3237 40.0767 17.8324 39.7324C16.097 38.5164 16.9368 36.7649 16.5892 35.1261C15.5618 34.9014 14.6334 35.4479 13.5764 34.9877C12.9202 34.7017 12.5125 34.0663 12.2667 33.419C11.1399 30.45 14.1125 29.8381 14.5107 28.7399C14.5713 28.5731 14.5221 28.5518 14.4579 28.3991C13.7702 28.0298 12.8465 28.258 12.0945 27.9388C11.5639 27.7137 11.1696 27.2942 10.9691 26.7549C10.7282 26.1065 10.6736 25.2107 10.9983 24.5902C11.5279 23.5782 12.6048 23.5145 13.5583 23.1918C13.8281 23.1003 13.9444 23.049 14.081 22.7988C13.9058 21.9588 12.5224 21.6357 11.9987 20.9373C11.7853 20.6526 11.7156 20.375 11.7723 20.0242C12.1326 17.7954 13.9894 15.7713 15.7378 14.4964C17.6283 13.1178 20.4962 11.7582 22.899 12.2701C23.738 12.449 24.5266 12.9195 25.379 13.0215C25.7163 13.0621 25.9395 13.0598 26.2079 12.8561L26.2147 12.6596C25.9663 12.0867 25.7129 11.9196 25.1609 11.6567C25.3807 11.4729 25.5485 11.2154 25.7347 10.9964C26.3455 10.2714 26.9798 9.91632 27.859 9.58744Z" fill="#CB9DEF"/>
<path d="M21.0574 16.8012C21.6631 16.7667 22.2336 16.8722 22.7722 17.1573C23.6112 17.601 24.1851 18.3886 24.4518 19.2878C24.4708 19.3487 24.4882 19.4099 24.5039 19.4717C24.5195 19.5334 24.5336 19.5955 24.5458 19.6579C24.5581 19.7204 24.5688 19.7831 24.5777 19.846C24.5878 19.909 24.5956 19.9722 24.6012 20.0356C24.6079 20.0989 24.6129 20.1625 24.6163 20.2261C24.6185 20.2897 24.6196 20.3534 24.6196 20.417C24.6196 20.4806 24.618 20.5442 24.6146 20.6078C24.6112 20.6714 24.6067 20.735 24.6012 20.7983C24.5945 20.8617 24.5861 20.9249 24.576 20.9879C24.5671 21.0508 24.5559 21.1134 24.5424 21.1758C24.5302 21.2382 24.5161 21.3003 24.5005 21.3619C24.4849 21.4236 24.4674 21.4849 24.4485 21.5458C24.4295 21.6065 24.4094 21.6667 24.3881 21.7267C24.3658 21.7866 24.3423 21.8458 24.3176 21.9043C24.2929 21.9629 24.2668 22.021 24.2387 22.0783C24.2107 22.1356 24.1817 22.1923 24.1515 22.2482C23.6028 23.2311 22.7907 23.7064 21.7437 24.0164C20.9752 24.0669 20.3057 24.0724 19.606 23.6868C18.8838 23.289 18.3866 22.6108 18.1732 21.8188C17.8775 20.7216 18.102 19.4608 18.6777 18.4911C19.2318 17.5575 20.0154 17.0575 21.0574 16.8012Z" fill="#300C41"/>
<path d="M21.1207 17.9453C21.3875 17.9586 21.6425 17.9799 21.8959 18.0666C21.9686 18.0923 22.0402 18.1218 22.1107 18.1549C22.1812 18.1881 22.2494 18.2249 22.3154 18.265C22.3825 18.3051 22.4468 18.3485 22.5084 18.3953C22.5699 18.4421 22.6292 18.492 22.6862 18.5448C22.7433 18.5977 22.7975 18.6534 22.849 18.712C22.8993 18.7704 22.9468 18.8313 22.9916 18.8947C23.0364 18.9581 23.0777 19.0237 23.1158 19.0913C23.1539 19.159 23.1884 19.2283 23.2198 19.2996C23.2555 19.3835 23.2869 19.4689 23.3138 19.5558C23.3418 19.6427 23.3646 19.7308 23.3826 19.8201C23.4015 19.9093 23.4161 19.9993 23.4262 20.0899C23.4351 20.1805 23.4401 20.2714 23.4413 20.3625C23.4425 20.4537 23.4391 20.5446 23.4312 20.6354C23.4223 20.7262 23.4094 20.8164 23.3926 20.9059C23.3758 20.9955 23.3545 21.0839 23.3289 21.1713C23.3032 21.2587 23.273 21.3448 23.2383 21.4292C22.901 22.2459 22.3288 22.6848 21.5419 23.0125C21.1526 23.0184 20.7297 22.9999 20.3757 22.8261C19.879 22.583 19.5048 22.1266 19.3404 21.6019C19.0964 20.8283 19.2364 19.928 19.6089 19.216C19.968 18.5299 20.3858 18.1691 21.1207 17.9453Z" fill="#CB9DEF"/>
<path d="M21.2282 19.2881C21.2886 19.2973 21.349 19.3079 21.4094 19.3196C21.7835 19.3945 22.104 19.5428 22.3087 19.8821C22.4799 20.1643 22.5051 20.4886 22.4027 20.7992C22.2399 21.3016 21.9044 21.5207 21.4496 21.7449C21.2567 21.7233 21.0503 21.7088 20.8657 21.6483C20.6006 21.5613 20.364 21.3236 20.2466 21.0749C20.1039 20.7741 20.1106 20.4402 20.2348 20.1348C20.4294 19.6576 20.7667 19.4636 21.2282 19.2881Z" fill="#300C41"/>
<path d="M30.2085 16.8263C31.18 16.6713 32.0291 16.7046 32.9049 17.1986C32.9586 17.2295 33.0111 17.2617 33.0627 17.2953C33.1152 17.3287 33.1667 17.3636 33.217 17.3996C33.2674 17.4359 33.3165 17.4733 33.3647 17.5119C33.4129 17.5507 33.4603 17.5904 33.5073 17.6315C33.5531 17.6726 33.5979 17.7148 33.6415 17.7582C33.6863 17.8017 33.7293 17.8461 33.7707 17.8918C33.8132 17.9372 33.8541 17.9839 33.8932 18.0315C33.9323 18.0794 33.9704 18.128 34.0073 18.1775C34.0443 18.2272 34.08 18.2777 34.1147 18.329C34.1495 18.3806 34.1823 18.4327 34.2137 18.4859C34.2461 18.5391 34.277 18.593 34.306 18.6477C34.335 18.7024 34.3626 18.7578 34.3882 18.8138C34.4139 18.8699 34.4386 18.9266 34.462 18.9839C34.4855 19.0413 34.5074 19.0992 34.5275 19.1576C34.5476 19.2162 34.5666 19.2751 34.5845 19.3345C34.6013 19.394 34.6169 19.4538 34.6315 19.514C34.8664 20.478 34.7171 21.5784 34.1751 22.417C33.6248 23.2665 32.8076 23.8023 31.8243 24.0018C31.2035 24.1364 30.5995 24.0906 29.9988 23.8807C29.0977 23.5652 28.3846 22.8882 27.9802 22.0274C27.9522 21.9692 27.926 21.9104 27.9013 21.851C27.8767 21.7916 27.8538 21.7316 27.8325 21.671C27.8102 21.6104 27.7901 21.5493 27.7721 21.4878C27.7532 21.4262 27.7364 21.3641 27.7218 21.3015C27.7062 21.2391 27.6921 21.1763 27.6799 21.1131C27.6676 21.0498 27.6569 20.9864 27.648 20.9228C27.6391 20.859 27.6317 20.7951 27.6262 20.731C27.6194 20.6669 27.6149 20.6028 27.6127 20.5386C27.6106 20.4743 27.6094 20.4099 27.6094 20.3456C27.6105 20.2812 27.6132 20.2169 27.6178 20.1526C27.6211 20.0884 27.6267 20.0243 27.6345 19.9603C27.6413 19.8964 27.6497 19.8328 27.6597 19.7692C27.671 19.7058 27.6832 19.6425 27.6966 19.5796C27.7101 19.5167 27.7252 19.4543 27.7419 19.3922C27.7587 19.3299 27.7772 19.2684 27.7973 19.2071C27.8163 19.1459 27.8376 19.0853 27.8611 19.0252C28.3057 17.8951 29.1296 17.3027 30.2085 16.8263Z" fill="#300C41"/>
<path d="M30.5066 17.9797C31.1392 17.9059 31.6728 17.8804 32.2567 18.1994C32.2958 18.2207 32.3344 18.243 32.3725 18.2663C32.4115 18.2897 32.4496 18.3142 32.4866 18.3395C32.5235 18.3648 32.5592 18.391 32.5939 18.4184C32.6297 18.4455 32.6649 18.4737 32.6996 18.5028C32.7332 18.5318 32.7663 18.5618 32.7987 18.5927C32.831 18.6234 32.8629 18.6551 32.8943 18.6877C32.9245 18.7202 32.9542 18.7534 32.9832 18.7875C33.0123 18.8216 33.0403 18.8565 33.0671 18.892C33.0951 18.9274 33.1213 18.9637 33.146 19.0008C33.1716 19.0377 33.1963 19.0753 33.2198 19.1135C33.2433 19.1516 33.2656 19.1904 33.2869 19.2298C33.3082 19.2692 33.3284 19.3092 33.3473 19.3496C33.3663 19.3901 33.3842 19.431 33.401 19.4724C33.419 19.5139 33.4351 19.5557 33.4497 19.5979C33.4643 19.6402 33.4782 19.6829 33.4916 19.7258C33.5039 19.7688 33.5151 19.812 33.5252 19.8557C33.6812 20.5225 33.5856 21.2789 33.1913 21.8497C32.7986 22.4174 32.2802 22.7023 31.6157 22.8402C31.2617 22.8835 30.864 22.8833 30.5166 22.7941C29.9159 22.6397 29.4059 22.3115 29.0988 21.7633C28.7615 21.1621 28.6844 20.3903 28.8924 19.7339C29.176 18.834 29.7163 18.409 30.5066 17.9797Z" fill="#CB9DEF"/>
<path d="M30.6593 19.2388C31.0234 19.1974 31.322 19.1661 31.6559 19.3492C32.0184 19.5472 32.2835 19.8539 32.3993 20.2524C32.4949 20.5843 32.458 20.9443 32.2717 21.2389C32.0553 21.5834 31.7818 21.7052 31.4009 21.8034C31.2482 21.8351 31.0771 21.8493 30.9227 21.8339C30.6391 21.8054 30.3287 21.6983 30.1424 21.4723C29.9193 21.1996 29.879 20.852 29.9092 20.5108C29.9629 19.89 30.2196 19.6286 30.6593 19.2388Z" fill="#300C41"/>
<path d="M26.0685 28.0503C27.1407 28.0317 33.2484 27.7417 33.7333 28.1339C33.8843 28.257 33.9632 28.4755 33.9816 28.6673C34.1025 29.9512 33.1343 31.9304 32.3675 32.9408C31.2516 34.4144 29.859 35.0906 28.0535 35.3287C28.02 35.3324 27.9881 35.3367 27.9545 35.3396C26.1088 35.4966 24.3805 35.0574 22.9643 33.8268C21.7411 32.7623 20.4625 30.6115 20.4038 28.9675C20.3937 28.6889 20.4323 28.505 20.6203 28.2916C21.5113 27.8315 24.8839 28.073 26.0685 28.0503Z" fill="#300C41"/>
<path d="M23.2968 29.2044C26.3708 29.124 29.4464 29.1734 32.5204 29.1289C32.6798 29.6538 32.4784 30.2962 32.2905 30.7946C31.8995 31.8327 31.0925 32.9261 30.0672 33.3959C30.0555 33.4152 30.0471 33.436 30.0337 33.4536C29.7736 33.7795 28.9061 34.0105 28.5101 34.1028C28.4217 34.1241 28.3328 34.1433 28.2433 34.1602C28.1539 34.1771 28.0643 34.1917 27.9749 34.2042C27.8843 34.2167 27.7937 34.227 27.703 34.2349C27.6124 34.2427 27.5218 34.2485 27.4312 34.252C27.3394 34.2553 27.2483 34.2565 27.1577 34.2555C27.0671 34.2543 26.9765 34.251 26.8859 34.2454C26.7953 34.2399 26.7047 34.232 26.6141 34.2219C26.5235 34.2117 26.4333 34.1995 26.3439 34.1849C26.2533 34.1703 26.1639 34.1535 26.0754 34.1345C25.986 34.1156 25.8976 34.0943 25.8103 34.0708C25.7219 34.0474 25.6346 34.0218 25.5486 33.9939C25.4613 33.9662 25.3752 33.9364 25.2902 33.9043C25.2051 33.8723 25.1207 33.8382 25.0368 33.802C24.9541 33.7657 24.8719 33.7275 24.7902 33.687C24.7084 33.6467 24.6279 33.6045 24.5485 33.56C24.4692 33.5157 24.3908 33.4694 24.3136 33.4212C22.7934 32.4522 22.134 30.9434 21.748 29.2482L23.2968 29.2044Z" fill="#CB9DEF"/>
</svg>
