<svg width="48" height="48" viewBox="0 0 48 48" fill="none" xmlns="http://www.w3.org/2000/svg">
<rect width="48" height="48" rx="8" fill="#592472"/>
<path d="M22.4136 36.971V39.9261H28.3237L29.019 36.2757C30.1199 35.5804 32.4608 33.7378 33.0171 31.9299C33.5733 30.1221 32.2059 26.5412 31.4526 24.9767C29.7723 24.1076 26.1682 22.1955 25.1947 21.5001C24.2213 20.8048 26.1798 18.8927 27.2807 18.0235L32.3218 19.0665L33.0171 13.504L29.019 12.1133V7.76758H23.2826V12.8086C22.7032 12.8086 20.8838 13.2954 18.2415 15.2423C15.5993 17.1892 17.1406 20.8048 18.2415 22.3693C20.3275 23.4702 24.6385 26.124 25.1947 27.9318C25.751 29.7397 22.9929 29.844 21.5443 29.6701L17.0249 27.9318C16.1557 29.3225 14.5912 32.521 15.2866 34.1897C15.9819 35.8585 20.3276 36.7392 22.4136 36.971Z" fill="#CB9DEF"/>
<path d="M32.7805 26.1521C31.6634 23.7328 28.6819 23.5916 26.896 21.8213C26.2573 21.1882 25.7348 20.6981 26.2219 19.6958C26.8824 18.3357 28.2804 18.5794 29.4481 18.7327C30.512 18.8721 30.5919 19.1753 31.4072 19.3839C31.7027 19.4597 31.7983 19.5184 32.0744 19.4253C33.4699 18.9545 33.5571 14.7287 33.262 13.6492C33.0443 12.8524 32.5399 12.8229 31.8234 12.6271C30.7703 12.3393 29.7235 12.0917 28.6621 11.8181C28.8206 11.1218 28.9712 10.4264 29.0876 9.70852C29.1846 9.11124 29.6018 8.02063 29.2364 7.44491C28.9148 6.93871 28.3141 7.04962 27.8148 7.00755C26.5156 6.89804 25.0176 6.76419 23.7441 7.19772C23.2146 7.37781 22.836 7.57459 22.6747 8.14371C22.5075 8.7323 22.7932 9.47768 22.8141 10.0485C22.8308 10.4942 22.9935 12.2684 22.7613 12.4863C22.4689 12.7603 21.3863 12.6967 20.9246 12.8524C19.7241 13.2571 18.661 14.1113 17.7963 15.0162C16.1825 16.7052 15.895 18.9167 16.8267 21.0429C17.8895 23.4675 19.7947 24.4642 22.0152 25.6873C22.7814 26.1094 24.2124 26.7877 24.3859 27.7455C24.8507 30.3112 21.3644 29.0673 20.6186 28.6264C19.9125 28.2089 19.2986 27.6592 18.5758 27.2612C16.6984 26.2265 15.9555 27.913 15.2626 29.5119C14.7713 30.6453 14.4644 31.8854 14.2926 33.106C14.1574 34.0677 14.2711 34.2564 15.0738 34.8127C17.2289 36.3069 19.4043 36.7283 21.9463 36.8799C21.9651 37.927 21.5139 39.253 22.0837 40.1232C22.5527 40.8397 23.3943 40.7215 24.1582 40.7639C25.1247 40.8178 26.0932 40.7785 27.0594 40.8279C27.4672 40.8488 27.9407 40.999 28.3297 40.7845C28.9593 40.4375 28.8516 39.7745 28.8585 39.1383C28.8651 38.5399 28.6113 37.3461 28.9739 36.8343C29.2747 36.4098 30.5005 36.1171 30.9591 35.7868C31.9217 35.0929 32.6209 34.1316 33.0638 33.0389C34.032 30.6491 33.83 28.4248 32.7805 26.1521ZM31.9603 33.0111C31.1145 34.7894 29.8042 34.8568 28.4521 35.9415C28.061 36.2555 27.9456 36.3956 27.8239 36.882C27.6966 37.3895 27.8235 38.056 27.8235 38.5893C27.8235 39.5332 27.9981 39.7088 27.059 39.7894C25.9778 39.8823 23.3161 40.2456 22.8339 38.8939C22.5787 38.1784 22.8586 37.4059 22.7042 36.6372C22.8412 36.3368 22.6935 35.8831 22.2572 35.864C20.1722 35.7726 17.6128 35.6829 15.928 34.2679C14.4849 33.056 15.7636 30.2938 16.6004 28.9536C17.0947 28.1623 17.1399 27.9544 18.0233 28.2058C18.4847 28.3372 18.9346 28.7759 19.3156 29.0443C20.1889 29.6593 20.9221 30.121 21.9804 30.3355C23.0394 30.55 24.3834 30.3067 25.1 29.417C27.2221 26.7828 22.051 24.6412 20.5209 23.6695C18.0637 22.1092 16.009 18.8603 18.2121 16.1159C18.922 15.2314 19.9303 14.3665 20.9931 13.9635C21.7854 13.6632 22.6208 13.7664 23.3912 13.5078C23.5487 13.4549 23.7232 13.3263 23.751 13.1479C23.904 12.1672 23.839 11.0449 23.7935 10.0485C23.7583 9.27604 23.403 8.63878 24.3101 8.09991C24.6355 7.90661 25.634 7.90696 25.9823 7.88436C26.3842 7.85829 27.8732 7.69626 28.1628 7.95944C28.5821 8.34047 28.3033 8.9176 28.28 9.36226C28.2306 10.3086 28.0725 11.2643 27.9758 12.2134C27.9716 12.2374 27.9675 12.2614 27.9636 12.2854C27.9563 12.3281 27.9543 12.3688 27.9556 12.4085C27.9511 12.4561 27.9449 12.5037 27.941 12.5513C27.9282 12.706 28.0457 12.7985 28.175 12.8145C28.3297 12.9317 28.5366 12.9724 28.7031 12.9115C29.5076 13.1267 30.3142 13.3732 31.1242 13.5397C31.621 13.6419 32.001 13.5269 32.2962 14.0424C32.4241 14.266 32.292 15.4991 32.2857 15.7251C32.268 16.3784 32.2812 17.1644 32.001 17.7638C31.5737 18.6778 31.9162 18.2669 31.1343 18.1156C30.2088 17.9366 29.4408 17.7082 28.4271 17.6588C26.9888 17.5886 25.5498 18.2432 25.0499 19.711C24.5569 21.158 25.8881 22.517 26.9638 23.2704C27.7641 23.8312 28.7076 24.2643 29.582 24.6867C31.1565 25.4474 32.4425 26.9758 32.6539 28.8065C32.8138 30.192 32.558 31.755 31.9603 33.0111Z" fill="#333333"/>
<path d="M21.1452 14.9201C20.7367 15.145 20.5541 15.2611 20.2628 15.6133C19.7573 16.2238 19.0484 16.7074 18.7279 17.457C18.2923 18.4749 18.5322 20.4124 19.6468 20.9189C19.7771 20.9781 19.927 20.8543 19.8501 20.7159C19.1235 19.4066 18.5916 18.1603 19.726 16.868C20.2162 16.3093 20.7162 15.6526 21.3402 15.2538C21.5491 15.12 21.3638 14.7998 21.1452 14.9201Z" fill="#333333"/>
<path d="M20.6724 21.44C20.5156 21.7171 20.985 21.9205 21.0743 21.6093C21.1411 21.3757 20.7972 21.2196 20.6724 21.44Z" fill="#333333"/>
<path d="M24.3049 24.3809C23.8943 23.4624 22.8048 23.2527 22.0625 22.7184C21.9665 22.6492 21.8456 22.7827 21.904 22.8769C22.1445 23.2652 22.5026 23.5055 22.8767 23.7506C23.2988 24.0273 23.643 24.4362 24.114 24.6295C24.2674 24.6924 24.3571 24.4973 24.3049 24.3809Z" fill="#333333"/>
<path d="M22.6907 34.0312C20.9211 33.7221 18.9234 33.9206 17.2661 33.0762C17.086 32.9844 16.9345 33.2399 17.1072 33.348C18.7204 34.358 20.8008 34.7734 22.6907 34.4209C22.8822 34.3848 22.8847 34.0649 22.6907 34.0312Z" fill="#333333"/>
<path d="M24.2491 35.6205C24.2425 35.3413 23.824 35.3413 23.8153 35.6205C23.8097 35.7999 23.7711 35.9842 23.7975 36.1632C23.8254 36.3499 23.8869 36.4538 23.8473 36.6492C23.7934 36.9141 23.6467 37.2104 23.7774 37.4704C23.808 37.5312 23.8834 37.5521 23.9449 37.5386C24.2679 37.469 24.3986 37.0431 24.4431 36.757C24.5075 36.3454 24.2585 36.0266 24.2491 35.6205Z" fill="#333333"/>
<path d="M29.556 16.4818C29.0494 16.218 28.5102 16.2413 27.9515 16.2444C27.4029 16.2479 26.8025 16.147 26.2831 16.3609C26.1871 16.4005 26.1173 16.5343 26.2153 16.6174C26.4107 16.7833 26.5772 16.6835 26.8209 16.6578C26.838 16.656 26.8498 16.6473 26.8581 16.6365C27.7276 16.6362 28.6211 16.8264 29.483 16.753C29.6154 16.7419 29.6943 16.5541 29.556 16.4818Z" fill="#333333"/>
</svg>
