<svg width="48" height="48" viewBox="0 0 48 48" fill="none" xmlns="http://www.w3.org/2000/svg">
<rect width="48" height="48" rx="8" fill="#592472"/>
<path d="M19.2474 8.10588C22.439 8.0528 25.6308 8.03015 28.8227 8.03792C31.7097 8.03112 35.7208 7.81783 38.4698 8.48182C39.4491 8.71825 40.1828 9.34712 40.6979 10.1945C41.1541 10.9449 41.407 11.8073 41.5121 12.6751C41.6771 14.0386 41.5896 15.4695 41.5711 16.8413C41.5451 19.5233 41.464 22.2035 41.3281 24.8821C41.2748 26.1232 41.3879 27.613 41.0853 28.8071C42.3245 30.2018 46.3725 35.2067 46.448 36.7565C46.4793 37.3945 45.9323 38.0246 45.5099 38.4549C44.9629 39.0119 44.2502 39.5623 43.4882 39.7771C41.7173 40.2763 37.3424 40.1344 35.3172 40.1452L27.8917 40.2349L12.7164 40.7442C10.4897 40.821 7.87821 41.1126 5.68769 40.9529C4.99198 40.9023 4.37526 40.7451 3.75691 40.4152C3.03401 40.0292 2.25351 39.3882 2.03989 38.5651C1.52171 36.5685 6.20345 32.3418 7.29127 30.435L7.36554 30.3031C6.28533 27.8816 6.33421 24.7815 6.23225 22.1632C6.13289 19.6116 5.86619 14.247 6.3787 11.9175C6.57581 11.0212 6.96696 10.1165 7.60376 9.44405C7.66201 9.38175 7.72253 9.32155 7.78516 9.26345C7.84779 9.20552 7.91252 9.15001 7.97936 9.09693C8.04619 9.04369 8.11481 8.99304 8.18537 8.94497C8.25577 8.89691 8.32794 8.85144 8.4019 8.80871C8.47586 8.76583 8.5511 8.72585 8.62797 8.68863C8.70484 8.65141 8.78285 8.61711 8.86214 8.58571C8.9416 8.55416 9.02203 8.52567 9.10343 8.50026C9.18483 8.4747 9.2672 8.4522 9.35022 8.43278C10.7109 8.10103 12.2407 8.26351 13.6374 8.24506C15.5073 8.2203 17.3781 8.15718 19.2474 8.10588Z" fill="#0B0B0B"/>
<path d="M23.8624 34.6075C24.8842 34.5578 25.911 34.5713 26.934 34.5664C27.2994 35.1529 27.6391 35.7578 27.9889 36.3538L25.6545 36.3401C24.2282 36.3689 22.8149 36.4888 21.3945 36.6119C21.691 35.9403 22.0075 35.3034 22.3789 34.6701L23.8624 34.6075Z" fill="#CB9DEF"/>
<path d="M43.5386 37.2468C44.0595 37.2167 44.5851 37.2162 45.1069 37.2031C44.73 37.6386 44.2879 38.1223 43.7948 38.4253C43.4334 38.6473 43.0461 38.7724 42.6241 38.8049C37.4648 39.2024 32.2662 38.9695 27.0973 39.1077L12.0813 39.609C10.1999 39.6696 6.50275 40.0348 4.78525 39.6325C4.00928 39.3577 3.54871 38.9389 3.07617 38.2845C11.4148 38.0102 19.7783 38.0382 28.1211 37.8585C33.2645 37.7477 38.3994 37.4541 43.5386 37.2468Z" fill="#CB9DEF"/>
<path d="M39.7703 29.7496C39.919 29.7253 40.0687 29.7315 40.219 29.7305C41.624 30.5699 44.04 34.4757 44.8821 36.0661C39.7755 36.104 34.6429 36.5353 29.5354 36.7112C28.8455 35.7132 28.4527 34.3867 27.5136 33.5973C26.257 33.2509 22.9866 33.4 21.6433 33.6714C21.1264 33.9763 20.2887 36.2048 19.9466 36.8717L11.8867 37.0415C9.14079 37.0391 6.39534 37.0727 3.65039 37.1426C4.221 35.9399 5.22128 34.9414 6.05567 33.9183C6.87534 32.8996 7.68593 31.8736 8.48764 30.8407C18.9229 30.6987 29.3505 30.3349 39.7703 29.7496Z" fill="#CB9DEF"/>
<path d="M14.4058 34.2014C15.0384 34.1886 16.0031 34.0827 16.535 34.5118C16.6808 34.6296 16.6489 34.6216 16.6713 34.7838C16.484 34.9746 16.2497 35.0612 16.0102 35.1693C15.3399 35.2026 14.4782 35.3568 13.8663 35.0638C13.7261 34.816 13.7401 34.8074 13.7854 34.5232C14.0008 34.3017 14.1155 34.2888 14.4058 34.2014Z" fill="#0B0B0B"/>
<path d="M32.0853 33.6967C32.7828 33.6515 33.6397 33.5117 34.3253 33.6258C34.598 33.671 34.6962 33.7151 34.859 33.9349C34.8681 34.2061 34.7849 34.3377 34.6504 34.5597C34.0248 34.6887 33.1304 34.7654 32.5004 34.633C32.2067 34.5712 32.1227 34.518 31.9532 34.2799C31.9508 34.0349 31.9885 33.9142 32.0853 33.6967Z" fill="#0B0B0B"/>
<path d="M8.57331 34.2665L9.71081 34.2242C10.3033 34.2053 11.0232 34.1001 11.4815 34.5298C11.4997 34.8479 11.444 34.9182 11.3022 35.1942C10.6348 35.2865 9.85402 35.3491 9.18178 35.3104C8.80374 35.2887 8.58399 35.2439 8.33008 34.9661C8.33153 34.6278 8.40403 34.5503 8.57331 34.2665Z" fill="#0B0B0B"/>
<path d="M37.3352 33.2455C37.9958 33.2319 38.6574 33.1703 39.3181 33.174C39.7589 33.1763 40.1248 33.1733 40.4478 33.4988C40.4869 33.776 40.444 33.8933 40.3156 34.1393C39.7004 34.2591 38.9784 34.3157 38.3502 34.3154C37.9529 34.3152 37.5875 34.2727 37.2959 33.9873C37.1826 33.7033 37.2509 33.5308 37.3352 33.2455Z" fill="#0B0B0B"/>
<path d="M9.12209 31.8408C9.74173 31.8244 10.3609 31.7916 10.9807 31.7782C11.4592 31.7678 11.9962 31.7356 12.363 32.0861C12.4341 32.4121 12.3878 32.4658 12.2689 32.7661C11.6638 32.9043 10.903 32.9327 10.2793 32.9275C9.86003 32.9239 9.40868 32.8941 9.09732 32.5881C9.00638 32.2619 9.04635 32.1627 9.12209 31.8408Z" fill="#0B0B0B"/>
<path d="M30.2694 31.355C31.1151 31.3406 32.2554 31.2053 33.0629 31.4693C33.3081 31.5494 33.3718 31.6324 33.471 31.8598C33.4131 32.1378 33.3005 32.2467 33.1071 32.4372C32.3256 32.4614 31.4088 32.5513 30.6427 32.3983C30.3228 32.3344 30.17 32.2444 29.9922 31.9752C30.0197 31.6604 30.087 31.6031 30.2694 31.355Z" fill="#0B0B0B"/>
<path d="M36.8489 31.0781C37.4454 31.0314 38.0739 30.9556 38.6695 31.028C38.9515 31.0623 39.2569 31.0995 39.4398 31.3387C39.4299 31.5777 39.426 31.6355 39.2671 31.8177C38.9981 32.1263 38.5196 32.0973 38.1437 32.1112C37.4276 32.1292 36.6 32.2134 35.8967 32.0876C35.6339 32.0407 35.5322 31.9832 35.3926 31.7627C35.4105 31.6194 35.4659 31.5445 35.5612 31.4405C35.935 31.0325 36.3357 31.0843 36.8489 31.0781Z" fill="#0B0B0B"/>
<path d="M14.8609 31.8773C15.6898 31.8311 16.5584 31.752 17.3863 31.7981C17.7884 31.8205 18.1246 31.8523 18.3979 32.1644L18.3697 32.3954C18.1462 32.6798 18.0789 32.7136 17.7402 32.8476C16.9845 32.8733 14.8495 33.1363 14.2733 32.6383C14.1639 32.544 14.2099 32.4618 14.2154 32.3315C14.4611 32.0308 14.4925 31.9872 14.8609 31.8773Z" fill="#0B0B0B"/>
<path d="M23.3822 9.21624C25.7625 9.18015 37.9488 8.72476 39.396 10.1849C39.9569 10.7509 40.2807 11.683 40.4015 12.4538C40.6279 13.8993 40.4604 15.4786 40.4419 16.9439C40.3935 20.806 40.2108 24.6582 40.1215 28.5183C38.3454 28.8709 36.3266 28.8099 34.5148 28.8891L24.0552 29.3258C22.0299 29.4634 19.9831 29.464 17.9534 29.5152C14.7332 29.617 11.512 29.6785 8.29011 29.7C7.72176 27.7643 7.55831 25.9122 7.47254 23.9057C7.37836 21.5182 7.33046 19.1299 7.32901 16.7407C7.32399 15.3242 7.23174 13.7573 7.48549 12.3591C7.62887 11.5691 7.90172 10.7425 8.4733 10.1547C8.8604 9.75659 9.33521 9.55446 9.8762 9.46594C10.9867 9.28421 12.2054 9.46546 13.3364 9.43956L23.3822 9.21624Z" fill="#CB9DEF"/>
<path d="M26.9975 10.5317C28.8602 10.5044 36.5715 10.4637 37.8249 11.6055C38.7816 12.4771 38.9236 15.7417 38.9938 17.0287C39.1142 19.242 39.0444 21.452 38.9912 23.666C38.97 24.5562 39.0341 25.5425 38.8635 26.4156C38.7794 26.8466 38.6478 27.2029 38.3531 27.5314C36.9055 28.1135 31.0179 27.8368 28.9549 27.8897C26.3334 27.9569 23.7111 28.0697 21.0908 28.1736C19.4479 28.2197 11.0861 28.6951 10.2621 28.2721C9.6753 27.971 9.4565 26.4252 9.38287 25.8405C9.09012 23.5166 8.37774 12.9215 9.52479 11.6161C9.86107 11.2336 11.0295 11.1374 11.5197 11.0863C13.8018 10.8484 16.1917 10.9413 18.4892 10.8879C21.3261 10.8217 24.1618 10.6435 26.9975 10.5317Z" fill="#0B0B0B"/>
<path d="M13.8755 12.1485C18.8283 11.9862 23.8062 12.1897 28.7611 12.2461C31.0936 12.2724 33.4679 12.0444 35.792 12.1896C36.1868 12.2142 36.6705 12.2534 36.9767 12.5338C38.4555 13.8883 37.782 24.2203 37.8179 26.5534C36.5498 26.647 35.2866 26.7322 34.0151 26.7612C30.0444 26.7513 26.0752 26.8198 22.1073 26.9667C18.3641 27.0989 14.5725 27.3265 10.8281 27.1936C10.4474 26.0765 10.4271 24.8312 10.3363 23.661C10.0449 19.9053 9.95458 16.2133 10.3579 12.4628C11.5287 12.1796 12.6778 12.1755 13.8755 12.1485Z" fill="#CB9DEF"/>
<path d="M11.4554 13.0752L11.9172 13.1718C12.0415 13.2864 12.1375 13.3356 12.188 13.5026C12.3963 14.193 11.9655 15.7253 11.6169 16.3438C11.4586 16.3343 11.3008 16.2963 11.1448 16.2674C10.8862 16.0257 10.8234 15.8818 10.7982 15.5193C10.7469 14.7825 10.9715 13.635 11.4554 13.0752Z" fill="#0B0B0B"/>
<path d="M29.3139 13.841C30.4729 13.7577 31.4797 13.8701 32.4375 14.5817C32.4908 14.6213 32.543 14.6623 32.5943 14.7045C32.6455 14.7468 32.6956 14.7903 32.7447 14.8351C32.7937 14.8799 32.8415 14.9259 32.8882 14.9732C32.935 15.0204 32.9805 15.0688 33.0247 15.1183C33.0688 15.1678 33.1119 15.2185 33.1536 15.2701C33.1954 15.3217 33.2358 15.3745 33.2748 15.4282C33.3138 15.482 33.3514 15.5367 33.3878 15.5922C33.424 15.6478 33.4588 15.7043 33.4923 15.7618C33.5258 15.8192 33.5577 15.8773 33.5883 15.9364C33.6187 15.9954 33.6477 16.0552 33.6752 16.1155C33.7027 16.1759 33.7286 16.2371 33.753 16.2989C33.7775 16.3607 33.8003 16.423 33.8215 16.4859C33.8427 16.5489 33.8624 16.6123 33.8804 16.6763C33.8985 16.7402 33.915 16.8044 33.9298 16.8692C33.9445 16.9339 33.9578 16.9989 33.9692 17.0645C33.9807 17.1299 33.9906 17.1956 33.9989 17.2614C34.1466 18.386 33.8822 19.5215 33.1666 20.4134C32.3021 21.4908 31.0583 21.9839 29.7188 22.1367C29.2414 22.7509 28.8373 23.4477 28.3207 24.0264C28.089 24.286 27.9438 24.364 27.5985 24.3782C26.9297 24.0189 26.7419 23.2202 26.4756 22.5531C26.4089 22.4994 26.3553 22.4233 26.2757 22.3918C25.7028 22.1657 23.8227 22.5652 22.4096 21.943C21.5865 21.5807 20.995 20.8408 20.6824 20.0078C20.3306 19.07 20.3971 18.0405 20.8131 17.1347C21.3588 15.9466 22.4316 15.0481 23.6471 14.6016C24.8783 14.1491 26.4445 14.0473 27.6525 14.6147C28.1944 14.2886 28.7135 14.0413 29.3139 13.841Z" fill="#CB9DEF"/>
<path d="M27.6727 19.0917C27.6221 19.0917 27.5758 19.058 27.5619 19.0068C27.543 18.9372 27.5377 18.8655 27.5463 18.7937C27.5466 18.7913 27.5469 18.7889 27.5474 18.7866L27.632 18.3257C27.6293 17.489 27.301 16.7093 26.7068 16.1291C26.1129 15.5492 25.3185 15.2299 24.4698 15.2299C23.8824 15.2299 23.3122 15.3795 22.8208 15.6625C22.7658 15.6942 22.6955 15.6753 22.6638 15.6203C22.6321 15.5653 22.651 15.495 22.706 15.4633C23.2323 15.1602 23.8422 15 24.4698 15C25.3789 15 26.2303 15.3426 26.8674 15.9646C27.5087 16.5908 27.8619 17.433 27.8619 18.3361C27.8619 18.3431 27.8613 18.35 27.86 18.3569L27.7742 18.8243C27.7697 18.8655 27.7729 18.9066 27.7838 18.9466C27.8004 19.0079 27.7642 19.071 27.7029 19.0877C27.6929 19.0904 27.6827 19.0917 27.6727 19.0917Z" fill="#00000C" stroke="black" stroke-width="0.2"/>
<path d="M27.181 23.2292C27.1636 23.2292 27.1462 23.2285 27.1286 23.227L25.3467 23.0841C25.0404 23.0582 24.7441 22.9243 24.4893 22.697C24.253 22.4862 24.0681 22.2052 23.9686 21.9058C23.9672 21.9017 23.9661 21.8974 23.9652 21.8931L23.8931 21.5477C23.8801 21.4855 23.92 21.4246 23.9821 21.4117C24.0442 21.3987 24.1052 21.4386 24.1181 21.5007L24.1889 21.8395C24.376 22.3949 24.859 22.8121 25.3656 22.8549L27.1475 22.9978C27.2512 23.0066 27.3506 22.9737 27.4282 22.9055C27.5051 22.8378 27.5503 22.7444 27.5555 22.6422L27.5401 20.7909C27.5396 20.7313 27.5847 20.6812 27.644 20.6755L28.2068 20.6208C28.2549 20.6162 28.295 20.5889 28.3169 20.546C28.3389 20.503 28.3375 20.4545 28.3132 20.4128C28.3126 20.4119 28.3121 20.4109 28.3115 20.4099L27.606 19.1168C27.6055 19.1159 27.605 19.1149 27.6046 19.114C27.5872 19.08 27.5733 19.0438 27.5631 19.0066C27.5464 18.9453 27.5825 18.8821 27.6437 18.8654C27.705 18.8487 27.7682 18.8848 27.7849 18.9461C27.7908 18.9677 27.7988 18.9886 27.8087 19.0082L28.5127 20.2984C28.5755 20.4072 28.5789 20.5388 28.5217 20.6507C28.4641 20.7632 28.3547 20.8375 28.229 20.8497L27.7709 20.8942L27.7855 22.6435C27.7855 22.6455 27.7855 22.6475 27.7854 22.6495C27.7781 22.8159 27.7051 22.9681 27.58 23.0781C27.4681 23.1765 27.328 23.2292 27.181 23.2292Z" fill="#00000C" stroke="black" stroke-width="0.2"/>
<path d="M22.2823 23.8814C22.2341 23.8814 22.1892 23.8509 22.1732 23.8026L22.1578 23.7562C22.1531 23.7419 22.1512 23.727 22.1522 23.712C22.2078 22.9083 22.1594 22.1367 22.0083 21.4189C21.9953 21.3568 22.035 21.2958 22.0972 21.2828C22.1593 21.2697 22.2203 21.3094 22.2333 21.3716C22.3873 22.1034 22.4377 22.8884 22.3831 23.7052L22.3914 23.7302C22.4114 23.7905 22.3787 23.8555 22.3185 23.8755C22.3065 23.8795 22.2943 23.8814 22.2823 23.8814Z" fill="#00000C" stroke="black" stroke-width="0.2"/>
<path d="M26.3796 23.8809C26.3177 23.8809 26.2667 23.8317 26.2648 23.7695L26.2461 23.1595C26.2442 23.096 26.2941 23.043 26.3575 23.0411C26.4215 23.0393 26.474 23.089 26.476 23.1525L26.4946 23.7625C26.4965 23.8259 26.4466 23.8789 26.3832 23.8809C26.382 23.8809 26.3808 23.8809 26.3796 23.8809Z" fill="#00000C" stroke="black" stroke-width="0.2"/>
<path d="M23.4055 20.0869H21.4001C20.9663 20.0869 20.6133 19.7339 20.6133 19.3001V17.2947C20.6133 16.8608 20.9663 16.5078 21.4002 16.5078H23.4055C23.8394 16.5078 24.1924 16.8608 24.1924 17.2947V19.3001C24.1924 19.7339 23.8394 20.0869 23.4055 20.0869ZM21.4001 16.7377C21.093 16.7377 20.8432 16.9876 20.8432 17.2947V19.3001C20.8432 19.6072 21.093 19.857 21.4001 19.857H23.4055C23.7126 19.857 23.9625 19.6072 23.9625 19.3001V17.2947C23.9625 16.9876 23.7126 16.7377 23.4055 16.7377H21.4001Z" fill="#00000C" stroke="black" stroke-width="0.1"/>
<path d="M21.4099 16.7378C21.3464 16.7378 21.2949 16.6863 21.2949 16.6228V16.0075C21.2949 15.9441 21.3464 15.8926 21.4099 15.8926C21.4734 15.8926 21.5248 15.9441 21.5248 16.0075V16.6228C21.5248 16.6863 21.4734 16.7378 21.4099 16.7378Z" fill="#00000C" stroke="black" stroke-width="0.1"/>
<path d="M23.4411 16.7378C23.3776 16.7378 23.3262 16.6863 23.3262 16.6228V16.0075C23.3262 15.9441 23.3776 15.8926 23.4411 15.8926C23.5046 15.8926 23.5561 15.9441 23.5561 16.0075V16.6228C23.5561 16.6863 23.5046 16.7378 23.4411 16.7378Z" fill="#00000C" stroke="black" stroke-width="0.1"/>
<path d="M22.7634 16.7378C22.6999 16.7378 22.6484 16.6863 22.6484 16.6228V16.0075C22.6484 15.9441 22.6999 15.8926 22.7634 15.8926C22.8269 15.8926 22.8784 15.9441 22.8784 16.0075V16.6228C22.8784 16.6863 22.8269 16.7378 22.7634 16.7378Z" fill="#00000C" stroke="black" stroke-width="0.1"/>
<path d="M22.0857 16.7378C22.0222 16.7378 21.9707 16.6863 21.9707 16.6228V16.0075C21.9707 15.9441 22.0222 15.8926 22.0857 15.8926C22.1491 15.8926 22.2006 15.9441 22.2006 16.0075V16.6228C22.2006 16.6863 22.1491 16.7378 22.0857 16.7378Z" fill="#00000C" stroke="black" stroke-width="0.1"/>
<path d="M21.4099 20.7017C21.3464 20.7017 21.2949 20.6502 21.2949 20.5867V19.9714C21.2949 19.9079 21.3464 19.8564 21.4099 19.8564C21.4734 19.8564 21.5248 19.9079 21.5248 19.9714V20.5867C21.5248 20.6502 21.4734 20.7017 21.4099 20.7017Z" fill="#00000C" stroke="black" stroke-width="0.1"/>
<path d="M23.4411 20.7017C23.3776 20.7017 23.3262 20.6502 23.3262 20.5867V19.9714C23.3262 19.9079 23.3776 19.8564 23.4411 19.8564C23.5046 19.8564 23.5561 19.9079 23.5561 19.9714V20.5867C23.5561 20.6502 23.5046 20.7017 23.4411 20.7017Z" fill="#00000C" stroke="black" stroke-width="0.1"/>
<path d="M22.7634 20.7026C22.6999 20.7026 22.6484 20.6512 22.6484 20.5877V19.9724C22.6484 19.9089 22.6999 19.8574 22.7634 19.8574C22.8269 19.8574 22.8784 19.9089 22.8784 19.9724V20.5877C22.8784 20.6512 22.8269 20.7026 22.7634 20.7026Z" fill="#00000C" stroke="black" stroke-width="0.1"/>
<path d="M22.0857 20.7026C22.0222 20.7026 21.9707 20.6512 21.9707 20.5877V19.9724C21.9707 19.9089 22.0222 19.8574 22.0857 19.8574C22.1491 19.8574 22.2006 19.9089 22.2006 19.9724V20.5877C22.2006 20.6512 22.1491 20.7026 22.0857 20.7026Z" fill="#00000C" stroke="black" stroke-width="0.1"/>
<path d="M20.7303 19.4272H20.115C20.0515 19.4272 20 19.3757 20 19.3122C20 19.2487 20.0515 19.1973 20.115 19.1973H20.7303C20.7937 19.1973 20.8452 19.2487 20.8452 19.3122C20.8452 19.3757 20.7937 19.4272 20.7303 19.4272Z" fill="#00000C" stroke="black" stroke-width="0.1"/>
<path d="M20.7303 17.3969H20.115C20.0515 17.3969 20 17.3454 20 17.282C20 17.2185 20.0515 17.167 20.115 17.167H20.7303C20.7937 17.167 20.8452 17.2185 20.8452 17.282C20.8452 17.3454 20.7937 17.3969 20.7303 17.3969Z" fill="#00000C" stroke="black" stroke-width="0.1"/>
<path d="M20.7303 18.0737H20.115C20.0515 18.0737 20 18.0222 20 17.9587C20 17.8952 20.0515 17.8438 20.115 17.8438H20.7303C20.7937 17.8438 20.8452 17.8952 20.8452 17.9587C20.8452 18.0222 20.7937 18.0737 20.7303 18.0737Z" fill="#00000C" stroke="black" stroke-width="0.1"/>
<path d="M20.7303 18.7504H20.115C20.0515 18.7504 20 18.699 20 18.6355C20 18.572 20.0515 18.5205 20.115 18.5205H20.7303C20.7937 18.5205 20.8452 18.572 20.8452 18.6355C20.8452 18.699 20.7937 18.7504 20.7303 18.7504Z" fill="#00000C" stroke="black" stroke-width="0.1"/>
<path d="M24.7146 19.4272H24.0993C24.0358 19.4272 23.9844 19.3757 23.9844 19.3122C23.9844 19.2487 24.0358 19.1973 24.0993 19.1973H24.7146C24.7781 19.1973 24.8296 19.2487 24.8296 19.3122C24.8296 19.3757 24.7781 19.4272 24.7146 19.4272Z" fill="#00000C" stroke="black" stroke-width="0.1"/>
<path d="M24.7146 17.3969H24.0993C24.0358 17.3969 23.9844 17.3454 23.9844 17.282C23.9844 17.2185 24.0358 17.167 24.0993 17.167H24.7146C24.7781 17.167 24.8296 17.2185 24.8296 17.282C24.8296 17.3454 24.7781 17.3969 24.7146 17.3969Z" fill="#00000C" stroke="black" stroke-width="0.1"/>
<path d="M24.7146 18.0737H24.0993C24.0358 18.0737 23.9844 18.0222 23.9844 17.9587C23.9844 17.8952 24.0358 17.8438 24.0993 17.8438H24.7146C24.7781 17.8438 24.8296 17.8952 24.8296 17.9587C24.8296 18.0222 24.7781 18.0737 24.7146 18.0737Z" fill="#00000C" stroke="black" stroke-width="0.1"/>
<path d="M24.7146 18.7514H24.0993C24.0358 18.7514 23.9844 18.6999 23.9844 18.6364C23.9844 18.573 24.0358 18.5215 24.0993 18.5215H24.7146C24.7781 18.5215 24.8296 18.573 24.8296 18.6364C24.8296 18.6999 24.7781 18.7514 24.7146 18.7514Z" fill="#00000C" stroke="black" stroke-width="0.1"/>
<path d="M22.6557 19.3413C22.6102 19.3413 22.5672 19.3141 22.5491 19.2695L21.9615 17.8203L21.3739 19.2695C21.35 19.3283 21.283 19.3566 21.2241 19.3328C21.1653 19.3089 21.1369 19.2419 21.1608 19.1831L21.8549 17.4712C21.8725 17.4278 21.9147 17.3994 21.9615 17.3994C22.0083 17.3994 22.0504 17.4278 22.068 17.4712L22.7621 19.183C22.786 19.2419 22.7577 19.3089 22.6988 19.3328C22.6847 19.3385 22.67 19.3413 22.6557 19.3413Z" fill="#00000C" stroke="black" stroke-width="0.1"/>
<path d="M22.4087 18.8119H21.5114C21.448 18.8119 21.3965 18.7605 21.3965 18.697C21.3965 18.6335 21.448 18.582 21.5114 18.582H22.4087C22.4722 18.582 22.5237 18.6335 22.5237 18.697C22.5237 18.7605 22.4722 18.8119 22.4087 18.8119Z" fill="#00000C" stroke="black" stroke-width="0.1"/>
<path d="M23.1638 19.3409C23.1003 19.3409 23.0488 19.2895 23.0488 19.226V17.5046C23.0488 17.4411 23.1003 17.3896 23.1638 17.3896C23.2273 17.3896 23.2787 17.4411 23.2787 17.5046V19.226C23.2787 19.2895 23.2273 19.3409 23.1638 19.3409Z" fill="#00000C" stroke="black" stroke-width="0.1"/>
</svg>
