<svg width="48" height="48" viewBox="0 0 48 48" fill="none" xmlns="http://www.w3.org/2000/svg">
<rect width="48" height="48" rx="8" fill="#592472"/>
<path d="M19.8506 16.5948L18.863 22.0269L23.3074 17.0887L33.1838 16.5948V9.1875L16.3939 9.68132L15.4062 10.669C15.4062 11.9858 15.505 15.0146 15.9001 16.5948C16.2951 18.1751 18.6984 17.2533 19.8506 16.5948Z" fill="#CB9DEF"/>
<path d="M2.5663 35.3596C3.88316 32.3967 7.0107 26.1746 8.98599 24.9894V24.0017C8.32756 23.6725 7.0107 22.5203 7.0107 20.545C7.0107 18.0759 8.49217 16.1006 9.97364 16.1006C11.4551 16.1006 14.418 16.1006 14.418 18.0759C14.418 20.0512 14.418 23.0141 12.9366 23.5079C11.7514 23.903 11.4551 24.331 11.4551 24.4956L15.8995 32.3967L21.8254 31.9029L22.3192 32.3967V33.8782L20.3439 34.8658L24.7883 35.3596V33.8782L25.2821 32.3967L31.208 31.4091L33.1833 27.9523L35.1586 24.0017L34.6647 23.5079L34.1709 20.0512C34.5001 19.3927 35.4549 17.8783 36.64 17.0882C37.8252 16.2981 39.7676 17.0882 40.5906 17.5821C40.7552 18.0759 41.1832 19.4586 41.5782 21.0388C41.9733 22.619 40.0968 24.0017 39.1091 24.4956L40.0968 25.4832L44.0474 34.8658L44.5412 37.3349C42.4013 37.0057 38.0227 36.5448 37.6277 37.3349C37.2326 38.1251 28.9035 38.3226 24.7883 38.3226H9.97364H2.26562L2.5663 35.3596Z" fill="#CB9DEF"/>
<path d="M25.9185 13.9331C25.445 14.195 24.3671 14.9808 23.5209 15.6658C22.6747 16.3609 21.8688 17.0258 21.7277 17.1266C21.5968 17.2374 21.5162 17.3885 21.5867 17.4288C21.6371 17.4791 22.3322 16.9553 23.128 16.2804C24.3772 15.2125 25.2939 14.5174 26.6539 13.6611C27.2281 13.2783 26.7949 13.4596 25.9185 13.9331Z" fill="#300C41"/>
<path d="M36.5967 22.5957C36.0325 23.18 35.6195 23.6434 35.7203 23.6434C35.821 23.6434 36.3045 23.1699 36.8183 22.5957C37.322 22.0114 37.725 21.548 37.6947 21.548C37.6645 21.5379 37.1608 22.0114 36.5967 22.5957Z" fill="#300C41"/>
<path d="M25.7364 33.3546C25.6054 33.4351 25.5752 33.5157 25.6558 33.5157C25.7565 33.5157 25.9278 33.4351 26.0588 33.3546C26.1897 33.274 26.2401 33.1934 26.1393 33.1934C26.0688 33.1934 25.8673 33.284 25.7364 33.3546Z" fill="#300C41"/>
<path d="M17.7794 36.9214C17.0138 37.3948 16.6914 37.7273 16.9835 37.7273C17.0641 37.7273 17.1951 37.6467 17.2455 37.5459C17.316 37.4654 17.6988 37.1732 18.1018 36.9113C18.5249 36.6494 18.7969 36.4277 18.6961 36.4277C18.6155 36.4378 18.2025 36.6594 17.7794 36.9214Z" fill="#300C41"/>
<path d="M10.6165 27.22C10.3848 27.4013 10.1128 27.7035 10.0222 27.8949C9.91137 28.1266 10.0927 28.0057 10.5057 27.6028C10.8583 27.2603 11.1706 26.958 11.1706 26.9278C11.1706 26.817 11.0397 26.8976 10.6165 27.22Z" fill="#300C41"/>
<path d="M9.22591 27.4516C9.04458 27.6632 9.06473 27.6833 9.28636 27.5927C9.4274 27.5423 9.54828 27.4315 9.54828 27.3509C9.54828 27.1393 9.45761 27.1696 9.22591 27.4516Z" fill="#300C41"/>
<path d="M6.8774 29.5666C5.54764 30.3725 4.49994 31.1079 4.58053 31.1885C4.6309 31.2389 7.67326 29.3148 7.90496 29.073C8.08629 28.8715 7.78406 29.0327 6.8774 29.5666Z" fill="#300C41"/>
<path d="M11.9638 29.6376C11.7522 29.7988 11.6515 29.9499 11.7522 29.96C11.853 29.96 12.0645 29.819 12.2257 29.6376C12.5883 29.2145 12.4473 29.2145 11.9638 29.6376Z" fill="#300C41"/>
<path d="M37.8679 30.6555C36.6892 31.542 34.1304 33.8791 34.2211 33.9799C34.2715 34.0101 35.0472 33.3654 35.974 32.5393C36.9008 31.7032 37.9485 30.7864 38.291 30.5043C39.2279 29.7286 38.9256 29.8495 37.8679 30.6555Z" fill="#300C41"/>
<path d="M12.3985 30.3628C12.2172 30.4937 12.1063 30.6348 12.1567 30.675C12.1869 30.7254 12.3985 30.6146 12.6302 30.4534C12.8619 30.2721 12.9727 30.1311 12.872 30.1411C12.7914 30.1411 12.5597 30.2318 12.3985 30.3628Z" fill="#300C41"/>
<path d="M13.1933 31.0169C12.9314 31.2285 12.7904 31.3997 12.881 31.4199C12.9818 31.4199 13.2235 31.2385 13.4351 31.0169C13.9186 30.4931 13.828 30.4931 13.1933 31.0169Z" fill="#300C41"/>
<path d="M13.5785 31.5321C13.3669 31.794 13.387 31.8041 13.6389 31.5925C13.7799 31.4817 13.9109 31.3507 13.9109 31.3205C13.921 31.1896 13.79 31.2701 13.5785 31.5321Z" fill="#300C41"/>
<path d="M13.9793 32.7406L13.5059 33.2746L14.0398 32.8011C14.5233 32.3478 14.6341 32.2168 14.5132 32.2168C14.483 32.2269 14.2614 32.4686 13.9793 32.7406Z" fill="#300C41"/>
<path d="M4.00717 35.4302C2.54644 36.4175 2.19385 36.76 2.54644 36.76C2.62703 36.76 3.13074 36.4175 3.64451 35.9843C4.17843 35.5612 4.86345 35.0273 5.16567 34.7855C6.15292 34.0199 5.64923 34.3019 4.00717 35.4302Z" fill="#300C41"/>
<path d="M26.6843 9.35876C25.4855 9.4192 22.7453 9.54009 20.6097 9.60054L16.7413 9.71135L16.0462 10.2956C15.6633 10.618 15.3007 11.021 15.2503 11.1821C15.1093 11.6153 15.1395 13.0559 15.3007 15.1513C15.482 17.2265 15.6432 17.5287 16.7413 17.7907C17.4263 17.9519 18.9777 17.8209 19.4411 17.5791C19.834 17.3676 19.7937 17.6597 19.2497 18.9895C17.8695 22.3038 17.7084 22.9687 18.3128 23.0896C18.6855 23.1702 21.9092 20.1782 22.8965 18.8283L23.6419 17.8209L24.9515 17.7101C25.6769 17.6597 26.8656 17.6093 27.5708 17.6093C29.4345 17.6093 33.3029 17.1762 33.6252 16.9243C34.1088 16.5314 34.1289 16.4105 34.1289 13.2171C34.1289 10.2352 34.1088 10.0136 33.7864 9.6106L33.464 9.1875L31.1672 9.21772C29.9079 9.23787 27.8831 9.29832 26.6843 9.35876ZM33.1417 10.2352C33.4036 10.5475 33.323 16.1285 33.0611 16.2292C32.9503 16.2796 32.3358 16.3602 31.7011 16.4206C30.7441 16.5214 30.5527 16.4811 30.6534 16.3199C30.734 16.1889 30.6333 16.2091 30.3915 16.3702C30.1799 16.5214 29.8576 16.6422 29.6762 16.6422C29.4042 16.6221 29.4345 16.5616 29.9382 16.1083C30.2404 15.8363 30.7139 15.4233 30.9858 15.2218L31.4593 14.8289L30.9758 15.1211C30.7139 15.2621 30.2001 15.6248 29.8374 15.9169C29.4848 16.1889 29.0315 16.5214 28.83 16.612C28.4371 16.8236 27.6514 16.8739 27.6514 16.6825C27.6514 16.612 28.2659 16.1788 29.0114 15.6953C29.777 15.2218 30.4821 14.7282 30.5829 14.5972C30.6937 14.4663 29.918 14.9095 28.83 15.5845C27.6816 16.3098 26.7044 16.8135 26.4526 16.8135C26.2209 16.8135 26.0294 16.7631 26.0294 16.6825C26.0294 16.612 26.8757 16.0982 27.8931 15.5341C28.9106 14.9498 29.7266 14.4663 29.6863 14.4159C29.6359 14.3857 28.6386 14.8994 27.4398 15.5845C26.1403 16.3098 25.0624 16.8135 24.8004 16.8135C24.3773 16.8135 24.4478 16.7329 25.4653 15.9874C26.1 15.5543 27.057 14.9196 27.6211 14.6073C28.1752 14.2849 28.6285 13.9928 28.6285 13.9626C28.6285 13.7712 26.3317 15.111 25.2235 15.9371C24.5586 16.4408 23.783 16.9243 23.511 16.9848C23.1684 17.0855 22.8461 17.3877 22.4733 17.9619C21.9394 18.788 19.8037 21.0244 19.5418 21.0244C19.3806 21.0244 19.7231 20.007 20.1463 19.2313C20.3074 18.919 20.519 18.4556 20.6197 18.1634C20.7809 17.6597 21.1839 17.3273 24.9112 14.5066C26.1403 13.5798 26.4324 13.3078 25.9287 13.5697C25.7172 13.6704 24.4881 14.5569 23.1886 15.5442C21.1335 17.0956 20.7708 17.2971 20.6499 17.0654C20.5694 16.9042 20.5492 16.743 20.6499 16.6825C20.7305 16.6322 21.2443 16.2796 21.7984 15.8867C22.3524 15.514 23.2087 14.7987 23.7225 14.3051L24.6594 13.4186L23.3498 14.4562C20.9522 16.3501 20.1261 16.8538 19.2396 16.9142L18.4437 16.9646L18.8769 16.5919C19.1187 16.4005 20.0959 15.6852 21.0328 15.0002C21.9696 14.3152 22.8461 13.6402 22.977 13.4992C23.1987 13.207 19.4109 15.8262 18.8165 16.3702C18.6352 16.5516 18.3632 16.6825 18.2221 16.6825C18.0811 16.6825 17.9098 16.743 17.8695 16.8437C17.8192 16.9243 17.527 17.0049 17.255 17.0049L16.7413 16.9848L17.9199 15.8665C18.5646 15.252 19.6526 14.3756 20.3175 13.9223C20.9925 13.4891 21.466 13.1164 21.3854 13.1164C21.0932 13.1164 19.2799 14.3957 17.9703 15.5341C17.2248 16.1688 16.5599 16.6825 16.4793 16.6825C16.3987 16.6825 16.3383 16.5012 16.3383 16.2896C16.3383 16.0277 16.7413 15.524 17.6983 14.6174C18.4236 13.892 19.2396 13.1969 19.4814 13.0257C19.7231 12.8645 19.8743 12.7033 19.834 12.6529C19.7231 12.5522 18.5243 13.5294 17.2752 14.708L16.3383 15.5845V15.0203C16.3383 14.5469 16.5196 14.2547 17.3457 13.338L18.3531 12.2198L17.2852 13.2372L16.2375 14.2749L16.1267 13.6603C16.0159 13.0962 16.0461 13.0156 17.0334 12.0082C18.1012 10.89 17.9098 10.9202 16.7211 12.0384L16.026 12.6832V12.0989C16.026 11.6456 16.1368 11.4139 16.5801 11.0512L17.114 10.5676L22.1208 10.4367C24.871 10.3762 27.8528 10.2755 28.7394 10.1949C31.5399 9.98335 32.9301 9.99342 33.1417 10.2352Z" fill="#300C41"/>
<path d="M9.27488 16.3299C7.84437 16.8839 6.87727 18.3547 6.68587 20.2184C6.52468 21.7396 6.78661 22.5455 7.72349 23.4723C8.12645 23.8753 8.61001 24.2984 8.79134 24.3991C9.10363 24.5603 9.06333 24.6107 8.4186 25.1748C8.02571 25.4972 7.43134 26.162 7.06868 26.6355C6.71609 27.1191 6.03106 27.9451 5.56765 28.4791C4.47966 29.6879 3.52264 31.5013 2.79732 33.7377C1.91081 36.4577 2.10221 36.8808 3.60323 35.5006C4.05656 35.0775 4.88262 34.4328 5.46691 34.0399C6.0512 33.647 6.45417 33.3246 6.39373 33.3246C6.25269 33.3246 4.38901 34.5436 3.65361 35.1077C3.38162 35.3193 3.20028 35.3797 3.20028 35.2689C3.20028 35.0574 4.05656 34.1809 5.38633 33.0124C6.05121 32.4281 6.08144 32.3777 5.54752 32.7504C5.19493 33.0123 4.62071 33.4657 4.28827 33.7578C3.56294 34.4026 3.49242 34.4227 3.70397 33.8384C3.91553 33.2843 4.64086 32.5288 5.78929 31.6524C6.9075 30.8263 7.0989 30.6349 6.64557 30.8767C6.45417 30.9774 5.79937 31.4307 5.22515 31.8639C4.15731 32.69 3.94574 32.7404 4.44944 32.0251C4.61063 31.7934 4.74159 31.5214 4.76174 31.4106C4.84233 30.8565 5.47699 30.3226 7.25 29.2749C8.31785 28.6402 9.19429 28.0963 9.19429 28.0459C9.19429 27.9351 7.85446 28.6604 5.96055 29.8088L5.39639 30.1614L5.79936 29.6477C6.02099 29.3555 6.30307 29.1339 6.41388 29.1339C6.68588 29.1137 9.58718 27.24 9.87933 26.8975C9.99014 26.7564 9.64762 26.9176 9.1137 27.2903C8.57978 27.6429 7.78394 28.1466 7.33061 28.4085L6.52469 28.882L7.05861 28.1869C7.3709 27.8142 7.67312 27.512 7.75372 27.512C8.01564 27.512 9.7282 26.293 10.0808 25.88L10.4032 25.4871L10.0002 25.8296C9.25473 26.4441 8.04585 27.2198 7.94511 27.1292C7.88467 27.0788 8.25741 26.6254 8.74096 26.1419C9.45621 25.4266 9.7282 25.2554 10.1513 25.2554C10.4435 25.2554 10.6349 25.3158 10.5845 25.3964C10.5341 25.4669 10.6651 25.4972 10.8766 25.4669C11.6221 25.3259 12.1863 26.0815 13.8686 29.5469L15.4905 32.8512L16.1856 33.0426C16.8505 33.2239 18.6437 33.1735 21.273 32.9318C22.1494 32.831 22.2804 32.8713 22.3408 33.1232C22.4718 33.6873 22.2905 33.9795 21.5954 34.3018C21.142 34.5235 20.588 34.6443 19.9634 34.6443C19.4496 34.6443 18.0997 34.7551 16.9513 34.9063C15.8129 35.0473 14.7853 35.138 14.6544 35.0876C14.5234 35.0372 14.201 34.5335 13.929 33.9694C12.9519 32.015 11.7732 30.2823 11.3904 30.2823C10.9069 30.2823 10.8263 30.7054 11.2091 31.2696C12.5187 33.2441 13.5765 35.0876 13.5765 35.4502C13.5765 35.551 12.8008 35.6417 11.6826 35.6618L9.7685 35.7122L9.71814 37.2333C9.68791 38.2105 9.73828 38.825 9.85917 38.9661C10.0002 39.1474 10.8464 39.1877 14.2816 39.1877C16.5987 39.1675 19.7014 39.1071 21.1823 39.0265C22.6531 38.9459 26.038 38.7646 28.7076 38.6336C31.3772 38.4926 34.4699 38.2911 35.578 38.2004C37.3712 38.0393 37.6029 38.0594 37.7339 38.281C38.1167 38.9761 38.6607 38.281 38.6909 37.0319C38.6909 36.6591 38.7513 36.2058 38.8218 36.0245C38.9024 35.8431 38.8823 35.5711 38.7916 35.3898C38.6607 35.1279 38.7312 34.9969 39.1039 34.6746L39.5774 34.2817L38.9931 34.6242C38.6707 34.8156 38.2778 34.9163 38.1368 34.866C37.8749 34.7652 37.7842 34.4731 38.0059 34.4731C38.0663 34.4731 38.3786 34.2414 38.6909 33.9694C39.2248 33.4858 39.2248 33.4858 38.7715 33.7478C38.5096 33.9089 38.0562 34.2011 37.7641 34.4126C37.4921 34.6242 37.0891 34.7954 36.8776 34.7954C36.4545 34.7753 36.4444 34.8156 38.5297 32.9519C39.7084 31.9042 39.0938 32.3374 37.4417 33.7175C36.394 34.594 36.0213 34.8156 35.6586 34.7652C35.2355 34.7149 35.2557 34.6846 36.253 33.8888C37.5122 32.8814 38.5398 31.9747 38.1973 32.1359C38.0663 32.2064 37.3913 32.7303 36.6761 33.3045C34.6009 34.9667 34.8124 34.9063 31.6693 35.0171C30.128 35.0876 28.0931 35.1581 27.1058 35.2085C25.8566 35.279 25.3932 35.2387 25.5645 35.1279C25.6955 35.0271 26.2092 34.9667 26.6928 34.9868C27.1763 34.9868 28.8285 34.9063 30.3396 34.7954C33.5935 34.5738 34.2281 34.3623 34.9031 33.3246C35.3866 32.5792 36.9582 30.927 37.8648 30.2017C38.3484 29.7987 38.3685 29.7786 37.9454 30.0204C37.6835 30.1816 37.0388 30.6651 36.5351 31.1185C36.0213 31.5516 35.5982 31.8639 35.5982 31.8135C35.5982 31.3904 36.3739 30.3528 37.0589 29.8592C38.0663 29.1137 38.1267 28.9324 37.1395 29.6174C36.3436 30.1715 36.2933 30.1513 36.6358 29.4764C36.8776 29.0231 36.9279 28.328 36.7164 28.328C36.6559 28.328 36.394 28.5093 36.1321 28.7208C35.5679 29.1943 32.6364 31.0882 32.5659 31.0177C32.3745 30.8263 32.9689 30.242 34.6915 28.8921C35.7795 28.056 36.8171 27.2097 36.9884 26.9982L37.3007 26.6456L36.8171 26.9982C36.5552 27.1896 35.6385 27.9049 34.7923 28.5697C33.946 29.2346 33.2409 29.7383 33.2106 29.698C32.9991 29.5066 33.5229 28.8518 34.6814 27.8847C36.7063 26.1822 36.7365 26.152 36.7365 25.9908C36.7365 25.8901 36.4645 26.0915 36.1321 26.3938C35.4974 26.9781 34.218 28.0157 33.8654 28.2272C33.7043 28.328 33.6841 28.2474 33.8151 27.9049C33.9158 27.6631 34.0468 27.3911 34.1072 27.2903C34.1576 27.1896 34.2382 26.968 34.2483 26.8068C34.349 26.2426 34.9635 25.4166 35.3866 25.3158C36.1623 25.1043 36.0817 25.4972 35.1751 26.2023C34.6915 26.5952 34.3188 26.9277 34.3692 26.978C34.4195 27.0284 34.8426 26.7363 35.3262 26.3132C36.1019 25.6483 36.8977 25.336 36.8977 25.6987C36.8977 25.8397 38.3887 25.6785 38.842 25.5072C39.1946 25.3662 40.2322 26.2829 40.6553 27.0788C40.8366 27.4515 41.2698 28.1668 41.6123 28.6604C42.2067 29.5368 42.8917 31.2393 42.8917 31.8539C42.8917 32.015 43.1839 33.0829 43.5264 34.2313C44.0603 35.9943 44.2013 36.3569 44.4935 36.3871C44.9468 36.4677 44.9468 36.0345 44.433 34.3925C44.2114 33.6772 43.879 32.4683 43.7077 31.6725C43.335 29.9902 42.9925 29.1641 42.106 27.8545C41.7332 27.3206 41.4411 26.8068 41.4411 26.706C41.4411 26.6053 41.1489 26.2225 40.7963 25.8296C40.4437 25.4468 40.1516 25.0841 40.1516 25.0539C40.1516 25.0035 40.4438 24.7618 40.8165 24.5402C41.7433 23.9256 42.1261 22.9887 42.2268 21.1049C42.2772 20.2184 42.2268 19.4024 42.116 19.0599C41.8239 18.2036 41.028 17.5589 39.7688 17.166C37.8547 16.5817 36.7265 16.7731 35.4471 17.9316C34.3994 18.8886 34.1475 19.3923 33.9863 21.0042C33.8554 22.1728 33.8856 22.4649 34.1274 23.0492C34.2886 23.4018 34.5505 23.8148 34.6915 23.9357C35.0743 24.248 35.0441 24.3286 34.349 25.0237C33.8957 25.477 33.5531 26.0915 33.0998 27.2702C32.7573 28.1567 32.2133 29.4865 31.8708 30.2118L31.2563 31.5516H29.9164C27.9722 31.5718 26.2898 31.8236 25.5947 32.2165C24.5269 32.8109 24.1239 33.9694 24.7686 34.5436C25.5141 35.2286 24.9802 35.4301 22.6027 35.4301C21.1319 35.41 21.132 35.41 21.7767 35.1883C23.0863 34.7149 23.6404 33.5966 23.0662 32.5187C22.7438 31.8841 22.3912 31.8035 20.5779 32.0352C19.7216 32.1359 18.412 32.1964 17.6464 32.1661L16.2662 32.1158L14.7249 29.0432C13.788 27.1795 12.9418 25.7188 12.5691 25.336C12.2467 24.9834 11.9747 24.6711 11.9747 24.6409C11.9747 24.6107 12.1359 24.5905 12.3474 24.5905C12.9821 24.5704 14.0197 23.9961 14.4831 23.4119C15.0775 22.6059 15.3696 21.518 15.3696 20.027C15.3696 18.667 15.1279 17.982 14.3219 17.0149C13.4657 16.0176 10.9572 15.6751 9.27488 16.3299ZM13.0828 17.2365C13.4052 17.4279 13.8283 17.9014 14.1205 18.4555L14.604 19.3621L14.4227 20.6717C14.191 22.2433 13.8888 22.8779 13.1936 23.291C12.5791 23.6839 12.2366 23.7141 12.69 23.3514C12.8511 23.2205 12.7101 23.2507 12.3374 23.4521C11.9848 23.6436 11.4912 23.7745 11.2897 23.7443C10.9371 23.6939 10.9975 23.6133 11.874 22.9384C13.5463 21.6288 13.5463 21.6288 12.962 21.9511C12.6698 22.1123 11.9949 22.5858 11.471 22.9988C10.9572 23.432 10.3528 23.7745 10.1614 23.7745C9.81888 23.7745 9.83902 23.7242 10.4233 23.1096C10.7759 22.7369 11.3602 22.2332 11.7027 21.9813C12.0452 21.7194 12.2668 21.5079 12.1762 21.5079C11.9344 21.5079 10.8364 22.3541 10.2017 23.029C9.8894 23.3514 9.51666 23.6133 9.39577 23.6133C9.25474 23.6133 9.71813 23.029 10.4334 22.2836C11.743 20.9437 11.4509 21.0747 9.90953 22.5455C9.32524 23.0996 9.00288 23.3111 8.81148 23.2305C8.57978 23.1499 8.79134 22.8578 9.87933 21.8202C11.1587 20.5912 10.9975 20.6516 9.16406 22.1627C7.78393 23.2809 7.98542 22.6664 9.46629 21.1452L10.9069 19.6845L9.52674 20.9135C8.21712 22.0922 7.74365 22.3742 7.74365 21.9813C7.74365 21.8806 8.45889 21.1049 9.32526 20.2688L10.8968 18.7275L9.27488 20.1378C7.8343 21.3971 7.65298 21.518 7.60261 21.1855C7.55224 20.9538 7.66305 20.7523 7.92497 20.571C8.44882 20.2184 10.4334 18.2741 10.2722 18.2741C10.2118 18.2741 9.63754 18.7476 9.02303 19.3218C8.40852 19.9061 7.82422 20.3695 7.73356 20.3695C7.44141 20.3695 7.55223 19.755 7.86453 19.6543C8.02571 19.5938 8.4186 19.2815 8.72082 18.9592L9.27488 18.3648L8.50925 18.9793C7.58245 19.7046 7.4918 19.4629 8.26749 18.3346C8.99282 17.2365 9.86925 16.8336 11.3904 16.8739C12.1863 16.9141 12.7202 17.025 13.0828 17.2365ZM39.1946 17.9316C40.9878 18.4152 41.5418 19.2412 41.3605 21.0948C41.1489 23.1197 40.746 23.7544 39.2047 24.3487L38.57 24.6107L38.9629 24.2681C39.1744 24.0868 39.2752 23.9458 39.1744 23.9458C39.0737 23.9458 38.8621 24.1271 38.6909 24.3487C38.4793 24.6107 38.2073 24.7517 37.9152 24.7517H37.4619L38.157 24.0364C38.5297 23.6536 39.1241 23.1298 39.4867 22.8679C39.8292 22.6059 40.1214 22.3339 40.1214 22.2735C40.1214 22.1123 39.1341 22.8578 37.8749 23.976C37.3913 24.3991 36.9179 24.7517 36.8574 24.7517C36.5351 24.7517 36.8272 24.3286 37.9857 23.0996C38.6707 22.3843 39.0737 21.8705 38.8924 21.9713C38.701 22.072 38.0663 22.6865 37.4619 23.3111C36.394 24.4595 36.3739 24.4797 36.0515 24.1674C35.2758 23.4723 35.306 23.3716 36.7466 21.7899C37.4719 20.9639 37.9152 20.4501 37.7036 20.6214C37.2503 21.0042 35.7896 22.5153 35.4874 22.9182C35.296 23.1902 35.2557 23.1902 35.034 22.888C34.6512 22.3742 34.7217 21.9511 35.306 21.5582C35.578 21.3668 36.1422 20.843 36.5552 20.43C37.3208 19.624 37.0287 19.8154 35.6687 21.0243C34.9131 21.7094 34.8628 21.7194 34.8124 21.3971C34.7519 20.9135 34.8326 20.7825 36.2228 19.211L37.4216 17.8712L36.1925 19.0901C35.4974 19.755 34.9434 20.2386 34.9434 20.1781C34.9434 19.5636 36.4142 18.0424 37.1596 17.8611C37.4216 17.8107 37.6936 17.7503 37.7741 17.7201C38.0361 17.6193 38.0462 17.6193 39.1946 17.9316ZM35.3262 30.0405C35.1146 30.4737 34.8225 31.2393 34.6814 31.7531C34.3087 32.9318 33.6942 33.5866 32.7875 33.7075C32.4148 33.7578 31.0548 33.8485 29.7553 33.8989L27.408 33.9794L27.9722 33.4758L28.5363 32.9721L27.7606 33.4758C27.126 33.8989 26.8741 33.9795 26.1891 33.9291C25.222 33.8686 25.1414 33.6067 25.8969 33.0224C26.3503 32.6698 27.2569 32.5187 29.8157 32.4079C32.1327 32.2971 32.2738 32.2769 33.0192 31.8135C33.946 31.2292 34.0367 31.0882 33.2006 31.5214C32.858 31.6826 32.5155 31.8337 32.4349 31.8337C32.3543 31.8337 32.2234 31.9344 32.163 32.0654C32.0521 32.2467 32.0219 32.2467 32.0219 32.0654C32.0219 31.7229 32.3443 31.2192 32.5558 31.2192C32.6666 31.2192 33.4121 30.786 34.208 30.2521C35.0139 29.7182 35.6788 29.2749 35.6788 29.2749C35.6788 29.2749 35.5377 29.6174 35.3262 30.0405ZM37.2201 35.8734C36.8675 36.5382 35.9709 37.2031 35.306 37.3139C34.9132 37.3744 34.6109 37.3744 34.6109 37.3341C34.6109 37.2736 35.0945 36.8606 35.6788 36.4073C36.7869 35.5812 37.5324 35.3193 37.2201 35.8734ZM37.9555 35.8734C37.9253 36.0346 37.8447 36.4073 37.7741 36.6793C37.6734 37.183 37.623 37.2132 36.9985 37.2132H36.3336L36.8171 36.6793C37.0891 36.4073 37.4115 36.0345 37.5424 35.8834C37.8346 35.5308 38.0663 35.5107 37.9555 35.8734ZM34.762 35.823C34.7318 35.8734 34.1274 36.2763 33.4222 36.7296C32.3241 37.4449 32.0622 37.5557 31.4175 37.5255C30.9944 37.5053 29.5739 37.5759 28.224 37.6665C26.8943 37.7673 24.0131 37.9285 21.827 38.0191C19.641 38.0997 17.4247 38.2105 16.8908 38.2609L15.9338 38.3415L16.4879 37.7572C17.7975 36.4173 17.2635 36.508 24.5873 36.2159C28.1938 36.0748 31.1656 35.9741 31.1958 35.9942C31.2563 36.0446 29.2717 37.3039 28.9594 37.4147C28.768 37.4751 28.7781 37.5154 29.0098 37.5154C29.171 37.5356 29.856 37.1628 30.5108 36.7095C31.4981 36.0446 31.8204 35.9036 32.304 35.9439L32.8984 35.9942L31.9615 36.6088C31.4477 36.9513 31.0548 37.2736 31.1052 37.324C31.1555 37.3542 31.6089 37.0923 32.0924 36.7296C32.5961 36.3468 33.2409 35.9842 33.533 35.9237C34.1173 35.7726 34.8728 35.7222 34.762 35.823ZM36.0716 35.8028C36.0716 35.8331 35.6485 36.1957 35.1348 36.5987C34.4094 37.1527 34.0166 37.3442 33.4222 37.4046L32.6566 37.5053L33.9158 36.6289C34.6411 36.1252 35.3564 35.7726 35.6284 35.7726C35.8802 35.7525 36.0716 35.8028 36.0716 35.8028ZM11.7833 36.4677C11.7833 36.6491 10.655 37.183 10.5543 37.0319C10.3427 36.6894 10.655 36.3972 11.2192 36.3972C11.5214 36.4073 11.7833 36.4375 11.7833 36.4677ZM14.8559 36.4879C14.8559 36.508 14.3723 36.8304 13.7679 37.2031C13.1534 37.5759 12.5187 37.9687 12.3474 38.0997C12.156 38.2307 11.8639 38.281 11.6221 38.2105C11.2494 38.0997 11.2796 38.0695 12.2366 37.4147C12.7907 37.0319 13.244 36.6893 13.244 36.639C13.244 36.508 12.156 37.1729 11.4307 37.727C10.7155 38.2911 10.655 38.2911 10.655 37.8277C10.655 37.5658 10.8766 37.324 11.4609 36.9513C12.2064 36.5181 12.418 36.4476 13.5664 36.4476C14.2716 36.4375 14.8559 36.4576 14.8559 36.4879ZM16.236 36.5382C16.1353 36.6188 15.5913 37.0621 14.9868 37.5154C14.05 38.2307 13.788 38.3616 13.2037 38.3616L12.5086 38.3415L12.9821 37.9687C13.8686 37.2434 15.4301 36.4174 15.8935 36.4174C16.1756 36.4073 16.3166 36.4677 16.236 36.5382ZM16.6087 37.3945C15.8028 38.14 15.4804 38.3314 15.0674 38.3515C14.3925 38.3515 14.4025 38.2206 15.0876 37.6766C16.1554 36.8203 16.7901 36.4476 17.2132 36.4476C17.5859 36.4375 17.5154 36.5382 16.6087 37.3945Z" fill="#300C41"/>
<path d="M11.199 28.6605L10.8867 29.0333L11.2595 28.721C11.602 28.4288 11.6926 28.2979 11.5617 28.2979C11.5415 28.3079 11.3803 28.4691 11.199 28.6605Z" fill="#300C41"/>
</svg>
