<svg width="48" height="48" viewBox="0 0 48 48" fill="none" xmlns="http://www.w3.org/2000/svg">
<rect width="48" height="48" rx="8" fill="#592472"/>
<path d="M35.7734 7.81738H10.5605L12.1274 9.81162L12.4123 37.8734L14.9764 40.8647C22.9533 40.3899 39.1066 39.4118 39.9043 39.2978C40.702 39.1839 40.9964 36.2115 41.0439 34.7396H38.9072C37.8816 34.7396 37.7201 19.5454 37.7676 11.9483L35.7734 7.81738Z" fill="#CB9DEF"/>
<path d="M11.2557 13.7879C11.9905 13.8529 11.956 11.7555 12.0304 31.6913C12.0375 33.5819 12.156 35.4784 12.0389 37.3607C11.9503 38.7848 13.1588 40.6962 14.5397 41.0238C15.2072 41.1822 15.4887 41.2286 22.9622 40.9178C39.2377 40.2412 38.8033 40.5172 39.8699 39.525C41.1069 38.374 41.1978 36.8852 40.983 35.3587C40.8588 34.4758 40.6553 34.3815 39.7822 34.4035C39.0209 34.4223 39.2716 35.0955 38.9067 28.3199C38.0503 12.427 37.8762 16.32 38.062 15.0155C38.5774 11.396 37.7879 9.61569 36.2073 7.8941C35.4034 7.01863 36.856 6.8665 10.4663 7.68699C7.86725 7.76789 6.4502 9.96782 7.20003 12.2996C7.97465 14.7104 8.1396 13.5124 11.2557 13.7879ZM11.8663 12.9213C11.8657 13.1461 11.5802 13.0993 11.6087 12.9674C11.6566 12.7444 11.8668 12.6686 11.8663 12.9213ZM11.8423 12.192C11.1945 13.0552 11.1922 13.2552 10.6692 12.7082C10.5193 12.9498 10.3279 13.0646 10.0002 12.909C10.5777 12.0957 11.1401 11.304 11.7227 10.4835C12.0418 10.8897 11.6817 11.1849 11.6817 11.2698C11.7081 11.2427 12.1634 11.3854 11.8423 12.192ZM39.532 35.1539C40.1149 35.1345 40.2069 35.1673 40.269 35.6989C40.385 36.6929 40.2901 37.6786 39.8163 38.5788C39.2357 39.6817 39.1785 39.4315 30.8981 39.7708C10.8976 40.5899 18.7566 40.4004 16.3487 40.4004C17.8102 39.3537 18.1604 37.9974 18.0182 36.4501C17.9296 35.4938 15.6941 35.9427 39.532 35.1539ZM11.1942 8.02885C34.3077 8.02885 33.8439 7.48898 34.6476 8.04025C37.9412 10.3 36.7939 11.2142 38.2144 33.918C38.2645 34.72 39.2799 34.3972 26.7775 34.8992C15.1536 35.3658 17.3182 34.7283 17.1419 37.3225C16.8858 41.0902 13.0628 39.8429 12.9668 37.7467C11.8637 13.6691 14.0052 9.81882 11.1409 8.17073C11.1586 8.12344 11.1763 8.07614 11.1942 8.02885ZM9.5464 8.75247C8.93587 9.49689 8.34985 10.2111 7.72936 10.9672C7.80799 10.0447 8.75924 8.88865 9.5464 8.75247ZM7.88406 11.2515C10.0045 8.55846 9.90336 8.55048 10.0715 8.63509C10.278 8.73908 10.2609 8.64963 7.89859 12.1467C7.60857 11.8196 7.65529 11.5421 7.88406 11.2515ZM8.16012 12.6546C7.9567 12.5518 8.02992 12.3441 8.15784 12.1566C10.4797 8.75476 10.4259 8.52741 10.8575 9.03651C8.07949 12.9401 8.28775 12.719 8.16012 12.6546ZM8.56893 12.9996C8.49885 12.7954 8.66181 12.7136 8.73873 12.6051C11.4369 8.80205 11.0953 9.114 11.4144 9.58578C11.4745 9.76326 11.9295 9.79033 11.5204 10.357C9.28002 13.4594 9.64953 13.2594 8.98516 12.9629C8.93417 13.0142 8.74015 13.0586 8.56893 12.9996Z" fill="#300C41"/>
<path d="M9.63562 12.9801C9.1402 12.8665 8.8328 13.4365 11.3538 10.0515C11.4321 9.94633 11.515 9.85117 11.6675 9.90388C11.6618 9.73579 11.4612 9.72212 11.4151 9.58594C8.93992 13.0271 8.95901 12.963 8.98579 12.963C9.20031 13.0585 9.41255 13.23 9.63562 12.9801Z" fill="#300C41"/>
<path d="M11.6824 11.2695C11.3408 11.6111 10.9537 12.1376 10.6699 12.7079C10.7947 12.8381 10.8127 12.884 10.8127 12.8569C11.193 12.4738 11.3713 11.9339 11.7861 11.5513C11.9206 11.7812 11.8283 11.9903 11.8431 12.1917C12.0682 11.6271 12.0397 11.463 11.6824 11.2695Z" fill="#300C41"/>
<path d="M33.9541 30.6874C19.8782 31.1669 18.8845 30.8056 18.8828 31.6033C18.882 32.0833 19.5908 32.0751 20.0717 32.06C20.2312 32.0549 34.253 31.6024 34.4065 31.5204C34.784 31.319 34.7792 30.6595 33.9541 30.6874Z" fill="#300C41"/>
<path d="M33.6021 26.6386C19.9433 27.1055 18.6248 26.7212 18.6855 27.569C18.7399 28.3268 19.8125 27.9636 33.7346 27.534C34.1126 27.5223 34.4431 27.4861 34.4408 27.0728C34.4377 26.5722 33.9525 26.6266 33.6021 26.6386Z" fill="#300C41"/>
<path d="M18.8657 19.1182C18.2498 19.2795 18.2817 19.8401 18.8854 19.9606C19.4201 20.0672 33.7775 19.527 33.8042 19.5213C34.3396 19.406 34.2997 18.71 33.7872 18.6436C33.7604 18.6399 19.3597 18.9889 18.8657 19.1182Z" fill="#300C41"/>
<path d="M33.7329 22.5039C33.7062 22.5022 19.4505 22.878 19.0015 22.9575C18.2175 23.0962 18.2144 23.7227 18.9998 23.8477C19.4351 23.9173 33.7648 23.397 33.7919 23.3916C34.3512 23.2765 34.3064 22.5395 33.7329 22.5039Z" fill="#300C41"/>
<path d="M23.1957 11.467C22.2123 11.9162 22.1385 12.6627 22.4932 14.0971C22.7305 15.0569 23.2621 15.1614 24.6529 15.9574C25.7475 16.5839 25.7691 15.6529 26.8238 14.9039C27.7178 14.2686 27.3511 13.7387 27.2879 12.6353C27.1779 10.7211 24.2581 10.9815 23.1957 11.467ZM23.5672 12.186C23.4729 12.4709 23.3111 12.6193 23.1248 12.786C23.0507 12.3758 23.0507 12.3758 23.5672 12.186ZM23.4319 12.8453C23.7612 12.5262 23.8646 11.9348 24.5811 11.9262C24.1122 12.5037 23.6963 13.0159 23.2638 13.5484C23.0433 13.2002 23.2621 13.0096 23.4319 12.8453ZM23.3592 14.1358C23.1558 14.0068 23.3234 13.9222 24.7797 12.0319C24.9316 11.8348 25.1261 11.8296 25.4281 11.8721C23.4638 14.2056 23.5194 14.2375 23.3592 14.1358ZM23.976 14.4176C23.8718 14.5002 23.6866 14.3501 23.7863 14.235C24.8216 13.0427 25.9036 11.3453 26.015 12.0276C25.9945 12.055 24.0031 14.3962 23.976 14.4176ZM24.4347 14.731C24.2604 14.6461 24.1424 14.6127 24.2843 14.4401C26.2349 12.0698 26.2332 11.9481 26.4352 12.1026C26.6016 12.2296 26.5238 12.4345 26.3563 12.5951C25.4771 13.4404 24.6891 14.7116 24.4347 14.731ZM24.9347 14.6814C25.4558 14.0951 25.8996 13.441 26.5175 12.8595C26.8531 13.619 26.2569 13.5501 25.2216 14.8768C24.9746 15.1933 24.694 14.9523 24.9347 14.6814ZM25.3996 15.1526C25.666 14.5777 26.1366 14.1837 26.6198 13.8005C26.4683 14.4771 25.829 14.7218 25.3996 15.1526Z" fill="#300C41"/>
<path d="M16.7552 28.7922C17.2506 28.8053 17.8301 28.2355 17.846 27.7193C17.8611 27.2301 17.3711 26.7441 16.8583 26.7393C16.3794 26.735 15.8381 27.2934 15.8398 27.7897C15.8416 28.2452 16.3307 28.7808 16.7552 28.7922Z" fill="#300C41"/>
<path d="M16.498 24.6662C16.9931 24.6785 17.5723 24.1078 17.5877 23.5928C17.6022 23.1036 17.1125 22.6179 16.5997 22.6133C16.1193 22.609 15.58 23.166 15.582 23.6643C15.584 24.1198 16.0738 24.6557 16.498 24.6662Z" fill="#300C41"/>
<path d="M16.4988 20.7981C16.9948 20.8103 17.5734 20.2408 17.5893 19.7252C17.6044 19.2357 17.115 18.75 16.6019 18.7451C16.1236 18.7406 15.5817 19.2998 15.584 19.7958C15.5857 20.2522 16.0743 20.7875 16.4988 20.7981Z" fill="#300C41"/>
<path d="M16.9998 30.7846C16.5468 30.8128 16.0463 31.3758 16.0488 31.8547C16.0514 32.341 16.5178 32.8361 16.973 32.8358C18.3351 32.8347 18.3425 30.7011 16.9998 30.7846Z" fill="#300C41"/>
<path d="M24.5174 9.05681C27.9549 9.00012 27.1119 8.63888 26.9312 8.6517C23.2713 8.90981 19.6033 8.77448 15.9062 8.93573C16.2977 9.00838 22.7251 9.08616 24.5174 9.05681Z" fill="#300C41"/>
<path d="M29.3254 8.71871C28.9824 8.59478 28.9824 8.59479 28.6035 8.80902C28.922 8.86828 29.1226 8.91642 29.3254 8.71871Z" fill="#300C41"/>
<path d="M20.2598 36.5071C20.2615 37.1042 29.5914 36.3048 29.9706 36.2002C32.0041 35.6398 20.2868 36.5002 20.2598 36.5071Z" fill="#300C41"/>
<path d="M31.4146 35.9201C31.1385 35.9808 31.1895 36.3392 31.4568 36.3039C33.7442 35.9993 32.1066 35.768 31.4146 35.9201Z" fill="#300C41"/>
<path d="M34.0801 36.0067C34.077 36.23 34.4769 36.2651 34.5838 35.9463C34.3969 35.903 34.0829 35.8067 34.0801 36.0067Z" fill="#300C41"/>
</svg>
