<svg width="48" height="48" viewBox="0 0 48 48" fill="none" xmlns="http://www.w3.org/2000/svg">
<rect width="48" height="48" rx="8" fill="#592472"/>
<circle cx="23.9994" cy="24.0004" r="15.64" fill="#CB9DEF"/>
<path d="M23.9994 8.36035C15.3711 8.36035 8.35938 15.3721 8.35938 24.0004C8.35938 32.6286 15.3711 39.6404 23.9994 39.6404C32.6277 39.6404 39.6394 32.6286 39.6394 24.0004C39.6394 15.3721 32.6277 8.36035 23.9994 8.36035ZM23.9994 9.72035C31.8924 9.72035 38.2794 16.1074 38.2794 24.0004C38.2794 24.0489 38.2759 24.0967 38.2754 24.1451C37.8405 24.105 37.3379 24.0668 36.6989 24.0442C35.7954 24.0121 34.6565 24.0214 33.3653 24.0854C33.4132 23.7519 33.4468 23.4138 33.4477 23.0667C33.5135 21.7933 33.0859 20.602 32.3905 19.5498C32.5585 18.9693 32.7556 18.2307 32.8048 17.3929C32.861 16.438 32.7786 15.3792 32.012 14.6636L31.8154 14.4804H31.5471C29.7226 14.4804 28.4738 15.2441 27.7102 15.8496C26.6075 15.4228 25.3677 15.1604 23.9994 15.1604C22.6233 15.1604 21.3715 15.4265 20.2235 15.8523C19.4603 15.2465 18.2104 14.4804 16.3839 14.4804H16.117L15.9204 14.6623C15.1736 15.3557 15.1048 16.3855 15.1514 17.3358C15.1925 18.1738 15.3782 18.9358 15.5432 19.5445C14.836 20.6173 14.4116 21.8393 14.4116 23.0481C14.4116 23.396 14.444 23.7352 14.4913 24.0694C13.2634 24.0125 12.1688 24.0015 11.2998 24.0322C10.6608 24.0548 10.1583 24.0926 9.72336 24.1332C9.72295 24.0887 9.71938 24.0449 9.71938 24.0004C9.71938 16.1074 16.1064 9.72035 23.9994 9.72035ZM16.789 15.9293C18.1609 16.0593 19.1931 16.672 19.671 17.0968L19.9898 17.3783L20.3829 17.2176C21.4583 16.7748 22.6577 16.5204 23.9994 16.5204C25.341 16.5204 26.5408 16.7761 27.5348 17.211L27.9333 17.3863L28.2587 17.0968C28.7367 16.6718 29.7707 16.059 31.1434 15.9293C31.3259 16.2319 31.4845 16.6622 31.4462 17.3132C31.4003 18.0923 31.1919 18.9409 31.0345 19.4449L30.9322 19.7729L31.1354 20.0505C31.8082 20.968 32.1513 21.961 32.093 23.0109L32.0916 23.0295V23.0481C32.0916 24.745 31.4806 26.1031 30.1791 27.1095C28.8777 28.1158 26.8232 28.7604 23.9316 28.7604C21.0401 28.7604 18.9843 28.1158 17.6828 27.1095C16.3814 26.1031 15.7716 24.745 15.7716 23.0481C15.7716 22.0521 16.1313 20.9564 16.7956 20.0505L16.9948 19.7796L16.8992 19.4568C16.7416 18.9211 16.5485 18.0531 16.5101 17.2694C16.4781 16.6176 16.6324 16.2055 16.789 15.9293ZM13.041 24.695C13.5216 24.7011 14.0724 24.727 14.6241 24.7547C14.6769 24.9667 14.737 25.1753 14.8101 25.3789C12.5611 25.4264 10.8786 25.6525 9.84156 25.8464C9.79772 25.5062 9.76279 25.1632 9.74328 24.8158C10.5097 24.7431 11.5901 24.6764 13.041 24.695ZM34.9577 24.7056C36.4077 24.6872 37.4877 24.7539 38.2541 24.8264C38.2347 25.1688 38.2003 25.507 38.1572 25.8425C37.0831 25.6454 35.3552 25.4193 33.0479 25.3829C33.1195 25.1833 33.1791 24.9783 33.2312 24.7707C33.8399 24.738 34.4337 24.7122 34.9577 24.7056ZM15.0996 26.0536C15.5054 26.8668 16.0852 27.5928 16.8514 28.1853C17.899 28.9953 19.2609 29.5613 20.9234 29.864C20.7059 30.0875 20.5081 30.3329 20.3324 30.5918L20.2913 30.556C20.295 30.5517 19.9532 30.7227 19.4426 30.7685C18.932 30.8142 18.3021 30.8004 17.7439 30.8004C16.9109 30.8004 16.544 30.4068 15.9576 29.69C15.6328 29.2524 15.237 28.8979 14.8526 28.6289C14.459 28.3534 14.1232 28.1589 13.7077 28.0896L13.652 28.0804H13.5948C13.2775 28.0804 12.9704 28.1033 12.6838 28.431C12.5404 28.5948 12.4416 28.8981 12.5058 29.1548C12.57 29.4115 12.7324 29.5693 12.8777 29.6661C13.807 30.2857 13.9713 31.512 14.5538 32.6026C15.0977 33.6865 16.2716 34.2004 17.4716 34.2004H19.2394V37.4662C14.4575 35.7783 10.8514 31.6195 9.94516 26.5185C10.9862 26.3224 12.7294 26.0867 15.0996 26.0536ZM32.7597 26.0589C35.1823 26.0797 36.9745 26.3151 38.0549 26.5145C37.1499 31.6174 33.5425 35.7779 28.7594 37.4662V33.9281C28.7594 32.8506 28.4055 31.6624 27.7898 30.6715C27.6029 30.3707 27.383 30.0862 27.1377 29.8308C28.7121 29.5198 30.0054 28.9635 31.0119 28.1853C31.7764 27.5941 32.3549 26.8702 32.7597 26.0589ZM23.1148 30.1881H25.0194C25.5721 30.1881 26.1621 30.6286 26.6344 31.3887C27.1067 32.1488 27.3994 33.1696 27.3994 33.9281V37.8713C26.3096 38.137 25.1716 38.2804 23.9994 38.2804C22.8272 38.2804 21.6891 38.137 20.5994 37.8713V33.9281C20.5994 33.1864 20.9175 32.168 21.4215 31.4046C21.9255 30.6413 22.5621 30.1881 23.1148 30.1881ZM15.3692 30.9916C15.9579 31.6022 16.6707 32.1604 17.7439 32.1604C18.2737 32.1604 18.9351 32.1794 19.5634 32.1232C19.5657 32.123 19.5678 32.122 19.5701 32.1218C19.4873 32.3598 19.4255 32.5993 19.3735 32.8404H17.4716C16.633 32.8404 16.0405 32.5374 15.7677 31.9917L15.7623 31.9824L15.7584 31.9744C15.6466 31.7668 15.4998 31.3516 15.3692 30.9916Z" fill="black"/>
</svg>
