<svg width="48" height="48" viewBox="0 0 48 48" fill="none" xmlns="http://www.w3.org/2000/svg">
<rect width="48" height="48" rx="8" fill="#592472"/>
<path d="M30.301 5.19544C30.6266 5.16128 30.9731 5.11355 31.3003 5.13206C31.5366 5.14547 31.768 5.24493 31.9117 5.44192C32.7211 6.55027 33.9726 9.66173 34.6255 11.0234L39.0985 20.5072C40.093 22.6144 41.153 24.7133 42.0518 26.8628C42.2497 27.3353 42.6249 28.0029 42.5291 28.5142C42.5387 28.5441 42.5498 28.5733 42.5562 28.604C42.652 29.1218 42.2912 30.8058 42.2465 31.4816C42.1938 32.2928 42.2162 33.1119 42.2497 33.9238C42.2753 34.5566 42.4317 35.2965 42.047 35.8482C40.9503 36.4598 37.4846 37.386 36.1452 37.8256C32.4625 39.0339 28.8084 40.3185 25.1033 41.4543C22.8795 42.1356 20.4499 42.9924 18.1147 43.1198C17.1371 43.1736 16.109 42.9626 15.285 42.4198C14.4757 41.8865 14.0609 41.1465 13.6794 40.2776C13.0254 38.7882 12.6515 37.1284 12.1541 35.5784L9.23273 26.5394L7.33705 20.6247C6.90683 19.2863 6.42585 17.9369 6.14553 16.5582C5.85851 15.1462 5.95875 13.966 6.78423 12.7574C10.15 7.82911 24.5637 6.25398 30.301 5.19544Z" fill="#300C41"/>
<path d="M41.1085 29.4473C41.2585 29.4942 41.1963 29.4522 41.2968 29.5718C41.3511 29.851 41.3352 30.0141 41.1021 30.2094C40.6535 30.5883 39.742 30.8131 39.1801 31.001C37.3666 31.6078 35.5276 32.1312 33.6918 32.6694C32.568 32.9992 31.3324 33.2985 30.2724 33.7954C29.9819 33.9311 29.7759 34.0502 29.6195 34.3312C29.6881 34.6104 29.6865 34.6503 29.91 34.8513C30.1559 34.913 30.3363 34.909 30.5853 34.8546C31.0291 34.7574 31.4681 34.5328 31.8975 34.3834C32.6781 34.1126 33.505 33.9091 34.2968 33.6655C36.5237 32.981 38.7858 32.3852 40.9951 31.6528C41.0111 31.6823 41.0287 31.7106 41.0398 31.7417C41.1516 32.0473 41.1021 32.398 40.9632 32.6834C39.7228 33.2217 34.3735 34.6072 33.8227 35.108C33.7189 35.2031 33.6758 35.3642 33.679 35.5066C33.6854 35.7483 33.786 35.8709 33.9456 36.0335C34.9944 36.1785 39.3828 34.268 40.9792 34.0333C41.1947 34.1244 41.1835 34.1115 41.2745 34.3269C41.2649 34.5013 41.2585 34.6469 41.1628 34.7987C41.051 34.9763 40.8994 35.0977 40.7078 35.1793C40.0373 35.4635 39.2551 35.6368 38.5575 35.8619C37.2022 36.3003 35.8469 36.7827 34.4708 37.1503C34.4421 37.1674 34.4133 37.1866 34.383 37.2016C33.2017 37.7937 31.6804 38.1398 30.4193 38.5545C26.9232 39.705 22.1406 41.5242 18.5478 41.9833C17.8832 42.0682 17.1297 42.0395 16.5 41.7962C15.8982 41.5636 15.1638 40.9356 14.922 40.3272C14.6805 39.7194 14.8509 38.9822 15.1324 38.4178C15.5894 37.5015 16.419 36.95 17.3334 36.5579C19.8466 35.4804 22.7871 35.2023 25.4179 34.4661C27.5299 33.8748 29.5317 32.9921 31.6181 32.3375C34.7789 31.3469 37.9828 30.5564 41.1085 29.4473Z" fill="#CB9DEF"/>
<path d="M30.4433 36.2325L30.8584 36.2275C30.9701 36.2866 31.0643 36.3313 31.1361 36.4415C31.2702 36.6483 31.2447 36.6793 31.2 36.9095C30.5742 37.5686 29.088 37.7808 28.2228 38.0309L28.0584 38.0147C27.9306 37.9163 27.7838 37.8167 27.6928 37.6821C27.5747 37.5086 27.6082 37.4737 27.6497 37.2795C28.1909 36.6763 29.6707 36.4488 30.4433 36.2325Z" fill="#300C41"/>
<path d="M25.6156 35.4323C25.788 35.4042 25.9956 35.3602 26.1696 35.38C26.3787 35.4041 26.6245 35.5782 26.7554 35.7417C26.8528 35.8646 26.8656 35.8764 26.84 36.0341C26.4633 36.6084 21.7732 37.8168 20.8058 38.0772C20.5951 38.1003 20.4626 38.0877 20.2583 38.0307C20.0667 37.8326 20.022 37.8269 19.998 37.5416C20.4706 36.6214 24.3593 35.9629 25.5374 35.466C25.563 35.455 25.5901 35.4435 25.6156 35.4323Z" fill="#300C41"/>
<path d="M30.1886 6.39316C30.4888 6.36203 30.8208 6.28317 31.1002 6.4179C31.9159 7.7333 32.5497 9.22206 33.2233 10.6154C34.5962 13.4596 35.935 16.3201 37.2398 19.1966L39.8913 24.8442C40.3223 25.7623 40.8427 26.7033 41.1939 27.6525C41.2594 27.8318 41.2674 27.9349 41.2498 28.1215C40.1483 28.9481 33.1994 30.6851 31.3604 31.2751C29.4862 31.8765 27.6648 32.6572 25.7683 33.1871C23.1934 33.9061 20.5626 34.4104 17.9966 35.1579C17.3731 33.5667 16.7586 31.9173 16.2625 30.2833C15.8931 29.0669 15.6388 27.7682 15.1235 26.6034C15.0213 26.3725 14.926 26.2566 14.7137 26.123C14.4599 26.1321 14.4272 26.1476 14.2145 26.2883C13.8838 27.4455 16.3303 34.119 16.8801 35.5677C15.6236 36.0575 14.9131 36.5329 14.2559 37.7413L14.1449 37.9091L14.0094 37.8448C13.757 37.2548 13.694 36.6197 13.4915 36.0155C12.486 33.1058 11.5427 30.1762 10.6618 27.2263C9.60696 23.7909 8.30656 20.3872 7.3936 16.9143C7.2453 16.3501 7.02086 15.5267 7.12031 14.9444C7.37301 13.4628 8.3171 12.5974 9.49537 11.7777C10.1294 13.7179 12.4314 22.2887 13.3329 23.312C13.4882 23.4882 13.526 23.4769 13.7457 23.4819C13.8319 23.4076 13.8533 23.398 13.9222 23.2911C14.087 23.0357 14.0645 22.5585 13.9934 22.2785C13.6963 21.1081 13.17 19.9344 12.8041 18.7739C12.0227 16.224 11.2627 13.6679 10.5241 11.1053C12.0486 10.3124 13.8241 9.81032 15.4739 9.35105C20.3311 7.99878 25.2352 7.26748 30.1886 6.39316Z" fill="#CB9DEF"/>
<path d="M25.7951 8.08814C26.0202 8.06372 26.3666 7.98901 26.5821 8.05749C27.2207 8.25975 28.8537 12.67 29.4604 13.541C30.3112 14.7632 32.7074 14.6294 33.1831 15.581C33.6061 16.4269 31.8581 17.9188 31.5436 18.7272C31.9874 19.607 33.8152 19.2497 34.35 20.2002C34.35 20.4663 34.3548 20.5085 34.2127 20.73C33.6141 21.0151 32.5844 20.4767 31.9411 20.3384C31.997 20.4594 32.0113 20.5471 32.0145 20.6829C32.0273 21.2939 31.7064 22.2577 31.2626 22.6797C32.2588 22.9134 33.8471 23.6935 34.6086 24.3828C34.8688 24.6181 34.9582 24.7825 34.9853 25.1222L34.8209 25.2809C33.8855 25.4134 31.8613 23.9706 30.7183 23.6897L30.6002 23.6619C30.5794 23.7499 30.5762 23.7863 30.5203 23.8715C29.8387 24.9152 28.0061 25.7943 26.8519 26.1217C26.9301 26.1982 27.01 26.2759 27.0722 26.366C27.4553 26.9234 28.3238 28.8207 28.1529 29.4635C28.1003 29.6644 28.038 29.6703 27.8688 29.7624C27.5383 29.7336 27.3883 29.6435 27.1217 29.4498C27.1664 28.9042 26.1798 26.9648 25.8111 26.5176C24.4159 27.0776 22.7205 26.74 21.3253 26.3862C20.9023 27.0114 20.243 28.5319 19.5597 28.8165C19.3985 28.8837 19.3683 28.8641 19.2232 28.794C19.1745 28.6919 19.1228 28.5921 19.1051 28.4786C18.9645 27.5798 19.9333 26.5144 20.3867 25.7972C20.0131 25.3464 19.6667 24.9173 19.3889 24.3999C18.9701 24.3795 18.5425 24.3681 18.1267 24.3138C17.4313 24.223 16.6633 23.7942 16.2636 23.2195C16.0198 22.8693 15.9049 22.4388 15.9908 22.0153C16.1434 21.2646 16.7407 20.7104 17.3399 20.2968C16.4318 18.1714 15.5695 16.2163 15.0781 13.9372C17.5525 10.0989 21.6446 9.05538 25.7951 8.08814Z" fill="#300C41"/>
<path d="M30.6723 19.4668C30.7808 19.5417 30.8543 19.5872 30.9022 19.7147C31.0794 20.1785 30.907 20.9332 30.7409 21.3665C30.0832 23.0813 28.439 24.2899 26.8107 24.9934C24.9701 25.7892 23.3227 25.9166 21.4469 25.1795C21.2203 25.0196 21.0095 24.8711 20.8323 24.6535C20.711 24.5049 20.7126 24.5502 20.7334 24.3419L21.1947 24.2995C25.1297 23.9293 28.0989 22.5779 30.6723 19.4668Z" fill="#CB9DEF"/>
<path d="M25.7844 9.28711C25.9424 9.29685 26.0302 9.32558 26.1356 9.4493C26.4932 9.86547 27.8389 12.5446 27.7958 13.0205C24.1018 12.8395 20.6617 14.1097 17.8519 16.5055L17.2919 17.1003C16.8889 16.1438 16.5231 15.2016 16.3242 14.1798C18.8503 10.9291 21.9835 10.2104 25.7844 9.28711Z" fill="#CB9DEF"/>
<path d="M19.9991 12.0064C20.0534 12.0039 20.1061 11.9956 20.1604 11.9988C20.4397 12.0155 20.6584 12.0818 20.8356 12.289C20.8308 12.331 20.8276 12.3733 20.8213 12.4151C20.7079 13.1654 18.8873 14.1414 18.302 14.5533C18.0726 14.5989 17.8809 14.6227 17.6472 14.6195L17.543 14.4936C17.5682 14.2108 17.5921 13.9803 17.7815 13.758C17.8112 13.7232 17.8428 13.6901 17.8729 13.6559C18.4807 12.9697 19.2402 12.5063 19.9991 12.0064Z" fill="#300C41"/>
<path d="M25.8619 14.1753C26.6557 14.0943 27.4502 14.088 28.2452 14.1561C28.5278 14.2885 28.804 14.6122 29.0466 14.8192C29.9358 15.5778 30.6781 15.7878 31.7812 16.1005C31.762 16.3869 31.612 16.5534 31.4411 16.7727C28.879 20.0708 26.2306 22.5557 21.9029 23.0976C20.9499 23.1679 18.2838 23.4051 17.514 22.9128C17.3004 22.7761 17.2294 22.5344 17.1847 22.2972C17.0102 21.3688 18.2496 21.5362 18.6182 20.9631C18.7325 20.167 18.0914 19.2812 17.777 18.5602C17.8593 18.4355 17.9442 18.3124 18.0316 18.1911C19.8005 15.7384 22.998 14.6449 25.8619 14.1753Z" fill="#CB9DEF"/>
</svg>
