<svg width="48" height="48" viewBox="0 0 48 48" fill="none" xmlns="http://www.w3.org/2000/svg">
<rect width="48" height="48" rx="8" fill="#592472"/>
<path d="M35 7L10.5 8.5L12.5 39.5L37 37.5L35 7Z" fill="#CB9DEF"/>
<path d="M37.5561 34.1811L36.9688 31.8774L35.6825 6.9798C35.6708 6.75261 35.458 6.59889 35.2868 6.62372L30.4684 6.88877C16.6694 7.90825 17.6601 7.80157 17.5068 7.85467C17.0424 6.92188 15.7668 6.83002 15.3994 7.64791C15.3318 7.7975 15.3217 7.95205 15.359 8.09411L14.3847 7.96361C14.3844 7.96352 14.384 7.96389 14.3836 7.96379L12.238 7.67067C12.1271 7.6626 12.0442 7.72573 12.0273 7.82484L12.0133 7.90523C11.8711 7.89007 12.3138 7.88542 10.3893 7.98929C10.12 8.00371 10.0242 8.24854 10.0355 8.38428L10.074 9.11461L5.5298 10.2917C5.4318 10.3169 5.3682 10.4186 5.39471 10.5215L11.537 33.8679C11.5417 33.9434 11.5988 34.8692 11.5941 34.7936L11.8584 39.3116C11.8687 39.4984 12.0332 39.6654 12.2336 39.6654C12.2402 39.6654 12.2475 39.6654 12.2541 39.6647L13.0474 39.621L13.2739 40.4811C13.2997 40.5766 13.3955 40.641 13.503 40.6155L18.5104 39.3184L36.9225 38.2991C37.1296 38.2881 37.2882 38.1112 37.2772 37.9049L37.1037 34.493L37.4218 34.4094C37.5216 34.383 37.5818 34.281 37.5561 34.1811ZM16.2062 7.47097C16.599 7.42958 16.9481 7.66388 17.1225 7.93791C15.4984 8.02114 15.8919 7.98874 15.733 8.00647C15.7107 7.9313 15.9543 7.50211 16.2062 7.47097ZM14.3319 8.33657C14.3326 8.33657 14.333 8.33583 14.3337 8.33602C14.3341 8.33602 14.3344 8.33647 14.3348 8.33657C14.4103 8.34686 17.5148 8.77013 17.3174 8.74321C17.3157 9.25011 17.2035 9.95541 16.9426 10.6903C16.8354 10.9928 16.6372 11.3562 16.2958 11.3724C15.7837 11.416 15.3837 10.5145 15.5961 10.0663C15.7455 9.73958 16.3084 9.64901 16.3633 9.99068C16.3751 10.0685 16.331 10.0949 16.3142 10.1052C16.2253 10.1588 16.1974 10.2748 16.251 10.3636C16.3935 10.5979 16.7952 10.3347 16.7348 9.9334C16.5879 8.9838 14.7179 9.30228 15.2628 10.8952C15.639 11.9426 16.8241 12.1562 17.2965 10.8159C17.5193 10.1899 17.6796 9.46475 17.6909 8.79781C17.6917 8.7968 17.6929 8.79597 17.6937 8.79487L20.8618 9.22859C20.5895 9.43434 20.3281 9.65772 20.0893 9.90403C20.0533 9.94147 20.054 10.0009 20.0915 10.0369C20.2247 10.1648 20.2526 9.88259 21.1204 9.26401L21.3556 9.29622C20.7684 9.80382 20.2053 10.3491 19.6826 10.9231C19.6002 11.0142 19.7363 11.1417 19.822 11.0494C21.0782 9.67069 21.5506 9.45476 21.5665 9.32513L21.9908 9.38313C21.975 9.3868 21.9583 9.38864 21.946 9.40038L21.3491 9.97158C21.259 10.0582 21.3907 10.1922 21.4798 10.1067L22.0752 9.53694C22.1134 9.50096 22.1141 9.4415 22.0789 9.40406C22.0708 9.39562 22.0595 9.39598 22.0497 9.39121L23.4621 9.58467L23.3711 10.8384L21.2515 12.8943C21.1625 12.9798 21.2918 13.1162 21.3822 13.0294L23.3507 11.12L23.2991 11.8301C23.192 11.8056 23.2628 11.8283 22.1281 12.9949C22.0421 13.0845 22.1805 13.215 22.2647 13.1241L23.2833 12.0487L23.2 13.1973C23.1245 13.2158 23.284 13.0882 21.3029 15.3002C21.2684 15.3392 21.2721 15.3986 21.311 15.4331C21.3491 15.4665 21.4069 15.4648 21.4439 15.4251L23.1802 13.4712L23.1437 13.9762C23.1328 13.9815 23.1204 13.9824 23.1119 13.9919L22.3417 14.8774C22.2607 14.9707 22.4013 15.0932 22.4842 15.0007L23.1225 14.2667L23.0906 14.7079L21.3822 16.53C21.2968 16.6206 21.4334 16.748 21.5187 16.6592L23.0689 15.0057L22.9996 15.9613L22.1501 16.9176C22.0689 17.0092 22.2048 17.1354 22.2911 17.0424L22.9772 16.2699L22.9265 16.9685C22.8983 16.9641 22.8693 16.9685 22.8476 16.9903L21.3073 18.5299C21.2706 18.5666 21.2698 18.6261 21.3065 18.6628C21.3434 18.6996 21.4029 18.7001 21.4394 18.6635L22.9104 17.1931L22.8702 17.7465C22.8355 17.7324 22.7958 17.7326 22.7683 17.7619L22.0363 18.5321C21.9509 18.6229 22.0891 18.7518 22.1729 18.6613L22.856 17.9423L22.8101 18.5734L22.2294 19.187C22.1429 19.277 22.2831 19.4057 22.366 19.3162L22.7889 18.8694L22.6523 20.7507C22.649 20.7389 22.6501 20.7264 22.642 20.7163C22.6104 20.6766 22.551 20.6693 22.5099 20.703L21.2618 21.7199C21.1646 21.7976 21.2863 21.9439 21.3807 21.8653C22.7552 20.732 22.6117 20.8888 22.6479 20.813L22.6046 21.4104L22.0106 21.9299C21.9154 22.0109 22.0442 22.1531 22.134 22.0708L22.5853 21.676L22.4093 24.1045C18.4698 23.587 14.1134 23.0147 9.90182 22.4614C9.91497 22.3847 12.5362 7.09088 12.3665 8.06782L14.3319 8.33657ZM11.8872 8.65327L11.1127 13.1727C11.1072 13.0957 10.8152 8.97199 10.8306 9.18895L10.8056 8.71761L11.8872 8.65327ZM26.9212 38.1L27.8312 36.7999C27.9016 36.6979 27.7473 36.5891 27.677 36.6927L26.7578 38.0062C26.7351 38.0389 26.7424 38.0776 26.7633 38.1088L25.5863 38.1739L26.3151 37.3337C26.3489 37.294 26.3445 37.2353 26.3056 37.2008C26.2667 37.167 26.2072 37.1714 26.1727 37.2103L25.3244 38.1884L24.4525 38.2367L25.9238 36.3447C26 36.2455 25.8523 36.1327 25.7755 36.2287L24.2033 38.2505L23.1716 38.3076L23.5612 37.7881C23.5928 37.7463 23.584 37.6876 23.5429 37.6567C23.5025 37.6251 23.443 37.6347 23.4114 37.6751L22.9269 38.3211L21.8388 38.3814L23.363 36.4769C23.4411 36.3792 23.2919 36.2613 23.2161 36.3594C21.5626 38.4435 21.6174 38.3182 21.6211 38.3935L20.7677 38.4407L21.4005 37.3858C21.4646 37.2773 21.3006 37.1828 21.239 37.2889L20.5404 38.4533L19.642 38.503L20.4065 37.5943C20.486 37.4989 20.3416 37.379 20.2626 37.4739L19.3848 38.5173L18.678 38.5565L20.0159 36.8036C20.0474 36.7618 20.0394 36.703 19.9983 36.6714C19.9549 36.6413 19.8969 36.6472 19.8661 36.6891L18.4304 38.57L17.2877 38.6334L18.1804 37.3249C18.2098 37.2823 18.1988 37.2236 18.1555 37.1942C18.1129 37.1656 18.0542 37.1773 18.0248 37.2191L17.0509 38.6465L16.394 38.6829L17.1284 37.6545C17.1585 37.6127 17.1489 37.5539 17.1063 37.5238C17.0645 37.4937 17.0058 37.5033 16.9757 37.5459L16.1541 38.6961L15.5313 38.7307L16.9345 36.5349C17.0006 36.4307 16.8445 36.3281 16.776 36.4336L15.2999 38.7435L14.5046 38.7875L15.0294 37.9798C15.0976 37.8748 14.9395 37.7743 14.8722 37.877L14.2724 38.8003L13.6992 38.8321L14.2423 37.979C14.3084 37.8747 14.1517 37.7721 14.0837 37.8777L13.4681 38.8448L12.6567 38.8898L13.2585 37.9122C13.3239 37.8062 13.1623 37.7075 13.0985 37.8139L12.5733 38.6668L12.5295 37.9171L13.5874 36.1377C13.6516 36.0307 13.4866 35.9348 13.4259 36.0423L12.51 37.5828L12.4588 36.7065L12.7997 36.1385C12.8633 36.0307 12.7012 35.9359 12.6381 36.0415L12.4394 36.3728L12.3751 35.2738L13.064 34.0343C13.1235 33.9257 12.9616 33.835 12.8995 33.9433L12.3546 34.9236C12.35 34.848 12.2846 33.7757 12.2892 33.8513L13.3929 31.8017C13.4513 31.6901 13.2852 31.6042 13.2269 31.7121L12.2672 33.4944C11.578 22.6762 11.6853 23.2383 11.5719 23.0599L22.5583 24.5032C22.5664 24.5039 22.5745 24.5047 22.5826 24.5047C22.6259 24.5047 22.6677 24.49 22.7015 24.4621C22.7412 24.4298 22.7661 24.382 22.7698 24.3307L23.8498 9.43637C23.8571 9.33726 23.7866 9.24989 23.6882 9.23594L18.4519 8.52058L29.2484 7.7317L27.8092 9.48703C27.7289 9.58521 27.8791 9.69949 27.9546 9.60597L29.5066 7.71281L30.2325 7.65976L29.3179 8.68899C29.2367 8.78057 29.3726 8.90673 29.4589 8.8138C30.551 7.56864 30.4595 7.71726 30.4772 7.64187C30.5528 7.63766 31.5202 7.5837 31.4447 7.58791L29.862 9.35856C29.8058 9.41941 29.8534 9.51494 29.9317 9.51494C30.0109 9.51494 29.9145 9.56254 31.7088 7.57332L32.2873 7.54147L31.4162 8.34761C31.3251 8.43173 31.4522 8.57006 31.544 8.48564L32.5817 7.52515L33.3429 7.4833L31.621 9.31452C31.5356 9.40516 31.6722 9.53253 31.7576 9.44374L33.6151 7.46825L34.1352 7.43962L33.3794 8.22574C33.3215 8.28603 33.365 8.38505 33.447 8.38505C33.5253 8.38505 33.4656 8.39147 34.4106 7.42438L34.9513 7.39465L34.9654 7.66996L34.1709 8.56346C34.0874 8.6576 34.2296 8.77993 34.3118 8.68827L34.9792 7.93776L35.0372 9.06059L34.212 10.0296C34.1304 10.1253 34.2758 10.2458 34.3544 10.1515L35.0513 9.33316L35.0827 9.93904L33.4161 11.9554C33.3831 11.9957 33.3889 12.0552 33.4286 12.0883C33.4693 12.1205 33.5268 12.1158 33.5615 12.0758L35.097 10.2178L35.1445 11.1353L34.2112 12.2476C34.1596 12.3095 34.2052 12.4017 34.2832 12.4017C34.3678 12.4017 34.3443 12.3612 35.1587 11.4102L35.1948 12.1103C35.1888 12.1143 35.1811 12.1136 35.1759 12.1191L34.339 13.0397C34.2561 13.1314 34.3941 13.2569 34.4784 13.166L35.2079 12.3634L35.2442 13.0638L33.9983 14.7629C33.9242 14.8634 34.0762 14.9742 34.1495 14.8744L35.2594 13.3608L35.5812 19.5882L33.6951 22.4174C33.6665 22.4607 33.6782 22.5187 33.7215 22.5481C33.7674 22.5773 33.8245 22.5632 33.8515 22.5217L35.5975 19.9027L35.6416 20.7547L34.7729 21.8293C34.7241 21.8903 34.7674 21.982 34.8463 21.982C34.9319 21.982 34.9022 21.9473 35.6561 21.0359L35.6941 21.7706C35.6174 21.8192 35.7917 21.6279 34.7699 23.0407C34.6975 23.1415 34.8503 23.2507 34.9226 23.1494L35.7086 22.0498L35.7401 22.6623C35.6648 22.707 35.8138 22.5277 34.14 25.2807C34.076 25.3874 34.2376 25.4841 34.3015 25.3776L35.7559 22.9682C35.8328 24.4614 35.4775 17.5599 36.5077 37.5694L26.9212 38.1Z" fill="#300C41"/>
<path d="M14.4478 20.2229C14.4492 20.3169 14.5197 20.3955 14.613 20.4065C15.1414 20.4712 20.3901 21.1134 20.0562 21.0724C20.059 21.0724 20.0582 21.0724 20.0584 21.0724C20.1428 21.0724 20.2184 21.0159 20.2404 20.9322C20.6043 19.541 19.9792 18.0637 18.8271 17.3655C19.242 17.1581 19.6095 16.772 19.7878 16.2779C20.365 14.6831 18.741 13.1846 17.1877 13.8763C15.841 14.4729 15.675 16.2206 16.7039 17.0887C15.4296 17.4563 14.4215 18.7555 14.4478 20.2229ZM17.1628 17.3765C17.5559 17.5731 17.9221 17.6007 18.3117 17.5302C19.3568 17.9611 20.2085 19.2285 19.9115 20.677L14.8281 20.0534C14.8787 18.6175 15.9717 17.5393 17.1628 17.3765ZM18.1462 14.0921C18.151 14.0926 18.1555 14.0919 18.1605 14.0925C19.0385 14.1972 19.616 14.9991 19.5187 15.8259C19.4315 16.4796 18.8965 17.0003 18.343 17.1398C17.936 16.9904 17.6424 16.9603 17.2432 16.9948C15.7632 16.2277 16.402 13.9023 18.1462 14.0921Z" fill="#300C41"/>
<path d="M33.8401 26.8404L16.653 27.5657C16.446 27.5745 16.2852 27.75 16.2933 27.9578C16.3021 28.1597 16.4687 28.3175 16.6692 28.3175C16.7446 28.3175 33.795 27.598 33.8724 27.5922C34.3631 27.5713 34.3507 26.817 33.8401 26.8404Z" fill="#300C41"/>
<path d="M16.7461 31.6969C17.3034 31.6411 26.2464 31.3467 32.1742 31.161C32.3819 31.1544 32.5449 30.9811 32.5383 30.7733C32.5317 30.5656 32.3731 30.4224 32.1507 30.4092C16.5824 30.8974 16.5567 30.9209 16.4143 31.0523C16.1638 31.2836 16.327 31.705 16.6691 31.705C16.6947 31.705 16.7204 31.7021 16.7461 31.6969Z" fill="#300C41"/>
<path d="M32.505 34.1615L17.0168 34.9478C16.8097 34.9581 16.6497 35.135 16.6607 35.3421C16.671 35.5432 16.8369 35.6989 17.0359 35.6989C17.1111 35.6989 32.4673 34.9193 32.5432 34.9119C32.7502 34.9016 32.9103 34.7246 32.8993 34.5176C32.889 34.3106 32.7348 34.1314 32.505 34.1615Z" fill="#300C41"/>
<path d="M25.5495 18.5384C26.1515 18.5384 26.6419 18.048 26.6419 17.446C26.6419 16.8439 26.1515 16.3535 25.5495 16.3535C24.9475 16.3535 24.457 16.8439 24.457 17.446C24.457 18.048 24.9475 18.5384 25.5495 18.5384ZM25.5495 16.7294C25.9445 16.7294 26.2661 17.051 26.2661 17.446C26.2661 17.841 25.9445 18.1625 25.5495 18.1625C25.1545 18.1625 24.8329 17.841 24.8329 17.446C24.8329 17.051 25.1545 16.7294 25.5495 16.7294Z" fill="#300C41"/>
<path d="M25.78 19.4121C25.1779 19.4121 24.6875 19.9025 24.6875 20.5046C24.6875 21.1066 25.1779 21.597 25.78 21.597C26.382 21.597 26.8724 21.1066 26.8724 20.5046C26.8724 19.9025 26.382 19.4121 25.78 19.4121ZM25.78 21.2211C25.385 21.2211 25.0634 20.8996 25.0634 20.5046C25.0634 20.1096 25.385 19.788 25.78 19.788C26.1749 19.788 26.4965 20.1096 26.4965 20.5046C26.4965 20.8996 26.1749 21.2211 25.78 21.2211Z" fill="#300C41"/>
<path d="M37.998 7.62563C37.9922 7.41859 37.8189 7.27616 37.6111 7.26074C37.4034 7.26662 37.2404 7.43988 37.2462 7.64765L37.2991 9.41262L37.6765 9.453L38.0509 9.38985L37.998 7.62563Z" fill="#300C41"/>
<path d="M40.5646 8.37136L38.9127 10.27C38.7762 10.4263 38.7931 10.6642 38.9494 10.8C39.1041 10.9355 39.342 10.9212 39.4795 10.7633L41.1314 8.86473C41.268 8.70835 41.2511 8.47048 41.0947 8.33465C40.9383 8.19736 40.7004 8.21571 40.5646 8.37136Z" fill="#300C41"/>
<path d="M41.6632 11.7529C41.5875 11.7529 40.3137 11.779 40.3894 11.7794C40.1824 11.7838 40.0172 11.9556 40.0216 12.1633C40.026 12.3682 40.1934 12.5312 40.3975 12.5312C40.4732 12.5312 41.747 12.5051 41.6713 12.5047C41.8783 12.5003 42.0435 12.3285 42.0391 12.1208C42.0347 11.9159 41.8673 11.7529 41.6632 11.7529Z" fill="#300C41"/>
<path d="M27.9064 17.5231C27.9109 17.5231 27.9152 17.5231 27.9197 17.5223L33.0861 17.1494C33.1896 17.142 33.2674 17.0525 33.2601 16.9489C33.2527 16.8454 33.1624 16.7522 33.0596 16.7749L27.8932 17.1479C27.7897 17.1552 27.7119 17.2448 27.7192 17.3483C27.7258 17.4474 27.8088 17.5231 27.9064 17.5231Z" fill="#300C41"/>
<path d="M28.6848 19.5851C28.5827 19.6027 28.513 19.6996 28.5299 19.8017C28.5453 19.8934 28.6253 19.9588 28.7156 19.9588C28.7259 19.9588 28.7362 19.958 28.7464 19.9566L30.3337 19.693C30.4358 19.6761 30.5055 19.5792 30.4887 19.4764C30.4718 19.3744 30.3704 19.3061 30.2721 19.3215L28.6848 19.5851Z" fill="#300C41"/>
<path d="M15.5239 19.6461C15.7207 19.0044 16.1979 18.4443 16.8007 18.1484C16.9128 18.0941 16.8298 17.9247 16.7185 17.9795C16.0694 18.2982 15.5563 18.9002 15.3448 19.5918C15.3077 19.7102 15.4899 19.7654 15.5239 19.6461Z" fill="#300C41"/>
<path d="M16.5766 18.6623C16.3857 18.8165 16.2162 18.9957 16.0737 19.1968C16.001 19.2979 16.1552 19.4051 16.2264 19.3055C16.3593 19.119 16.5164 18.9516 16.6941 18.8092C16.7345 18.7761 16.7411 18.7174 16.7088 18.677C16.6758 18.6359 16.6163 18.63 16.5766 18.6623Z" fill="#300C41"/>
<path d="M11.3134 21.4621C11.3178 21.4629 11.3222 21.4629 11.3266 21.4629C11.4851 21.4629 11.3327 21.7307 12.5542 13.5917C12.5615 13.5403 12.5255 13.4934 12.4741 13.4853C12.4205 13.4743 12.375 13.5132 12.3677 13.5653L11.2334 21.3557C11.226 21.4071 11.262 21.4541 11.3134 21.4621Z" fill="#300C41"/>
<path d="M12.9539 18.1565C12.9576 18.1573 12.9613 18.1573 12.9649 18.1573C13.0119 18.1573 13.053 18.122 13.0582 18.0743L13.3944 15.1941C13.4003 15.1427 13.3636 15.0957 13.3122 15.0899C13.2601 15.0781 13.2131 15.1207 13.208 15.1721L12.8717 18.0523C12.8658 18.1037 12.9025 18.1507 12.9539 18.1565Z" fill="#300C41"/>
</svg>
