<svg width="48" height="48" viewBox="0 0 48 48" fill="none" xmlns="http://www.w3.org/2000/svg">
<rect width="48" height="48" rx="8" fill="#592472"/>
<path d="M10.4565 39.4837L9.88023 35.1616L7.86328 36.6023L11.8972 31.1277L10.7446 30.5515L14.2023 29.3989L14.7785 29.1108L16.5073 25.6543L10.1683 26.5187L15.0666 21.3323L19.1006 21.043C21.1175 18.4502 26.1311 13.034 30.0497 12.1119C33.9684 11.1899 37.6373 9.99818 38.9819 9.51758L36.3887 16.721C34.5638 20.7549 29.9345 28.8803 26.0158 29.1108L25.7277 33.1447L20.5412 37.1786L21.4057 30.5515L19.6768 30.8396C19.5808 31.2238 19.3311 31.9922 19.1006 31.9922C18.8701 31.9922 18.2362 31.8001 17.948 31.704L17.3718 32.5684C16.8915 34.0091 15.8158 36.8328 15.3548 36.6023C14.8938 36.3718 14.3944 35.93 14.2023 35.7379L14.2023 37.4667L12.7616 35.7379L10.4565 39.4837Z" fill="#CB9DEF"/>
<path d="M38.8893 9.54875C38.8547 9.47565 38.7829 9.42122 38.6803 9.44173C33.5532 10.4588 28.6745 12.4948 24.3833 15.4877C22.4181 16.8581 20.3455 18.4174 18.8901 20.3424C18.7236 20.5624 18.562 20.7927 18.4051 21.0313C18.3755 21.0037 18.336 20.9847 18.2804 20.9874C17.3124 21.035 16.2557 20.9828 15.2972 21.1346C14.5393 21.2547 14.2369 21.7058 13.7087 22.2722C12.3381 23.7418 11.0147 25.253 9.72691 26.7956C9.60982 26.936 9.78358 27.1217 9.93444 27.0964C12.0635 26.7391 14.1745 26.3029 16.2712 25.7903C16.1894 26.0858 16.1164 26.3789 16.0552 26.6673C16.0395 26.7406 16.064 26.8002 16.1045 26.8446C16.0902 26.852 16.0755 26.8563 16.0617 26.8679C15.7994 27.0872 15.4096 26.9413 15.125 27.2063C14.876 27.4381 14.77 27.8192 14.789 28.1479C14.8057 28.4341 14.9123 28.7164 15.0709 28.9907C13.6648 29.0432 12.3591 29.3972 11.1081 30.0807C10.9561 30.1635 10.9742 30.3886 11.1378 30.4458C11.5913 30.6044 12.0463 30.7319 12.5103 30.8356C10.5188 32.0022 9.09432 33.8158 8.42879 36.0552C8.36751 36.2617 8.59747 36.3692 8.75169 36.262C9.37153 35.8305 9.99122 35.3987 10.6108 34.9674C10.5013 36.4065 10.6725 37.7916 11.1403 39.1749C11.1904 39.3233 11.4072 39.4076 11.5015 39.2411C12.1976 38.0101 12.8937 36.7794 13.5898 35.5483C13.896 36.1942 14.2336 36.8146 14.6155 37.4232C14.6983 37.5552 14.9364 37.5749 14.9804 37.3937C15.1135 36.8471 15.2851 36.3299 15.4986 35.8181C15.8287 36.3589 16.1373 36.8479 16.7119 36.2643C17.668 35.293 18.0062 33.4285 18.1131 32.1195C18.4226 32.2845 18.7615 32.3639 19.1309 32.2742C19.8171 32.1077 20.0782 31.5247 19.9018 30.9254C19.926 30.9318 19.9503 30.9377 19.9797 30.9335C20.4245 30.8652 20.8645 30.7773 21.3024 30.6796C21.1012 31.2525 21.1195 32.0824 21.0425 32.5089C20.747 34.1445 20.4516 35.7801 20.1561 37.4158C20.1303 37.5582 20.3257 37.6807 20.4444 37.6031C22.2277 36.4388 24.0446 35.1894 25.5871 33.7144C25.987 33.332 26.0854 33.209 26.1532 32.7023C26.3086 31.5422 26.1894 30.262 26.2066 29.0939C26.2077 29.0211 26.1748 28.9697 26.1293 28.9361C28.4323 27.7546 30.5092 26.1367 32.2104 24.1489C35.6458 20.1348 37.1883 14.6442 39.0568 9.79622C39.1096 9.6567 39.0045 9.56081 38.8893 9.54875ZM10.3962 26.6114C11.3963 25.4237 12.4179 24.255 13.4694 23.112C14.1818 22.3374 14.6869 21.7012 15.7941 21.5039C16.5577 21.3678 17.4003 21.4177 18.1795 21.3856C17.4334 22.5971 16.8175 23.9898 16.3993 25.3522C14.4124 25.8431 12.4118 26.2605 10.3962 26.6114ZM17.7233 32.0252C17.6634 32.8075 17.5276 33.5791 17.2578 34.3181C16.9774 35.087 16.4212 36.4563 15.6422 35.3051C15.5413 35.156 15.3521 35.1718 15.2771 35.3348C15.0505 35.8273 14.8684 36.3202 14.7207 36.8331C14.3742 36.2479 14.0625 35.6512 13.7818 35.0268C13.7217 34.8931 13.5109 34.8825 13.4383 35.0105C12.7547 36.2197 12.0709 37.429 11.3868 38.638C11.0012 37.31 10.8846 35.9665 11.0417 34.5758C11.0636 34.3827 10.8374 34.33 10.7097 34.4188C10.1381 34.8168 9.56663 35.2145 8.99507 35.6126C9.75139 33.5593 11.1846 31.9396 13.165 30.9255C13.3553 30.8279 13.267 30.5838 13.0856 30.5512C12.6135 30.4665 12.162 30.3557 11.7121 30.217C12.8586 29.6632 14.0367 29.3891 15.3303 29.3779C15.805 30.0046 16.4795 30.5742 16.8881 31.0267C17.1425 31.3087 17.4406 31.6449 17.7805 31.9032C17.7502 31.9328 17.7273 31.9714 17.7233 32.0252ZM19.4935 30.9479C19.149 32.0623 18.577 32.2114 17.7777 31.3954C17.6214 31.2449 17.472 31.0878 17.329 30.9244C16.9755 30.5439 16.6342 30.151 16.289 29.7628C15.5943 28.9817 15.0455 28.6927 16.0233 27.3464C16.0185 27.3527 16.0907 27.3066 16.1668 27.2577C17.5004 28.2243 18.4649 29.6346 19.4852 30.9067C19.4881 30.9205 19.4877 30.9338 19.4935 30.9479ZM25.7722 31.6483C25.7554 32.7871 25.5955 33.1956 24.7386 33.9247C23.4327 35.0355 22.0562 36.0531 20.63 37.0025C20.8107 36.0023 20.9914 35.0022 21.1719 34.0018C21.2606 33.5111 21.3493 33.0203 21.4379 32.5299C21.4917 32.2322 21.5709 30.9071 21.8161 30.5606C23.1982 30.2141 24.5372 29.7217 25.81 29.0969C25.7973 29.9472 25.7847 30.7978 25.7722 31.6483ZM32.0592 23.7116C29.419 26.8711 25.8347 29.1035 21.8784 30.1322C21.8303 30.1078 21.7725 30.1019 21.7095 30.1336C21.6704 30.1534 21.6343 30.1775 21.6001 30.2051C21.0393 30.3422 20.4721 30.4563 19.8985 30.5443C19.8347 30.5541 19.7924 30.5862 19.7686 30.6281C18.7227 29.3231 17.7398 27.9049 16.3707 26.916C16.3652 26.9119 16.3595 26.9106 16.3539 26.9085C16.3527 26.9069 16.352 26.9051 16.3507 26.9034C16.3888 26.8828 16.4197 26.8467 16.4322 26.7884C16.885 24.6655 17.9082 22.2895 19.2243 20.5552C20.7826 18.5016 23.0679 16.8332 25.1887 15.4142C26.9613 14.2281 28.829 13.2053 30.7687 12.3484C30.775 13.6058 31.3767 14.7353 32.4001 15.5038C33.2256 16.1237 34.9246 16.871 36.0535 16.6638C35.0098 19.2046 33.7798 21.6523 32.0592 23.7116ZM36.2638 16.1495C36.2353 16.1437 36.2067 16.1408 36.1811 16.1451C36.1612 16.1484 36.141 16.1516 36.1212 16.1548C36.0032 16.1739 35.9608 16.2688 35.9718 16.3603C35.7827 16.2417 35.5719 16.1851 35.3371 16.1983C34.9731 16.1515 34.6155 16.0765 34.2641 15.9736C33.798 15.8333 33.3354 15.6517 32.9268 15.3842C31.8098 14.6531 31.1151 13.5226 31.1693 12.1771C33.5573 11.1552 36.0501 10.3801 38.6075 9.86203C37.8283 11.8998 37.1027 14.0498 36.2638 16.1495Z" fill="black" stroke="black" stroke-width="0.576271"/>
<path d="M21.2074 23.7892C20.5136 23.3377 19.5755 23.5936 19.1073 24.2367C19.1037 24.2415 19.1038 24.2465 19.1007 24.2511C19.0975 24.256 19.0933 24.2579 19.0903 24.2632C18.7036 24.9611 18.8699 25.9141 19.5702 26.3559C20.2448 26.7816 21.2368 26.5589 21.6656 25.8867C22.0957 25.2124 21.8758 24.2243 21.2074 23.7892ZM21.3312 25.6738C21.0191 26.166 20.2763 26.3314 19.7835 26.022C19.2724 25.7014 19.1417 24.9869 19.4242 24.4768C19.4271 24.4715 19.4266 24.4665 19.4292 24.4612C19.4328 24.4568 19.4375 24.4552 19.4412 24.4504C19.7845 23.9791 20.4871 23.7957 20.9936 24.1238C21.4837 24.441 21.6434 25.1815 21.3312 25.6738Z" fill="black" stroke="black" stroke-width="0.3"/>
<path d="M23.4508 20.6246C23.4279 20.6521 23.417 20.6799 23.4121 20.707C22.9874 21.1478 22.9658 21.8723 23.3948 22.3588C23.915 22.9484 24.8158 22.9981 25.3712 22.4355C26.617 21.1742 24.5929 19.2363 23.4508 20.6246ZM25.1217 22.1197C24.2345 23.1207 22.7462 21.4792 23.8602 20.8511C23.9347 20.8092 23.9609 20.7414 23.9585 20.6746C24.7332 20.1007 25.8461 21.3026 25.1217 22.1197Z" fill="black" stroke="black" stroke-width="0.3"/>
<path d="M29.7603 16.5894C29.1573 15.8614 28.069 15.9258 27.4201 16.5449C27.3387 16.6229 27.3479 16.7221 27.3972 16.7948C27.2757 16.9026 27.2013 17.0867 27.1694 17.2529C27.0957 17.6382 27.1845 18.0512 27.3975 18.3794C27.873 19.1134 28.8823 19.2374 29.5635 18.7101C30.2142 18.2065 30.2782 17.2145 29.7603 16.5894ZM29.6049 18.0477C29.3589 18.5338 28.7311 18.7741 28.2189 18.5752C27.9472 18.4698 27.7408 18.2382 27.6288 17.9736C27.5852 17.8705 27.5101 17.0614 27.6336 17.1041C27.8587 17.1819 27.9752 16.8617 27.795 16.7504C28.2253 16.4132 28.8351 16.3293 29.2941 16.6828C29.6917 16.9887 29.831 17.6009 29.6049 18.0477Z" fill="black" stroke="black" stroke-width="0.3"/>
</svg>
