<svg width="16" height="24" viewBox="0 0 16 24" fill="none" xmlns="http://www.w3.org/2000/svg">
<path d="M15.4513 3.64658C15.4518 3.61313 15.454 3.58024 15.4552 3.54679C15.4585 3.40184 15.3978 3.29871 15.3102 3.23181C14.9507 2.25065 14.5911 1.2695 14.2315 0.287782C14.1563 0.0826308 13.9773 0.00291202 13.8039 0.00848678C13.6718 -0.0160422 13.5241 0.0118312 13.4103 0.102142C9.24377 3.41745 5.07718 6.73276 0.911164 10.0486C0.783502 10.1506 0.760649 10.304 0.803574 10.4428C0.504767 10.4517 0.223804 10.7371 0.446237 11.037C0.906155 11.657 1.48591 12.8984 2.28924 13.1276C2.6332 13.2257 3.00562 13.1148 3.34512 13.0501C3.87082 12.9497 4.39541 12.846 4.92 12.7435C3.3953 14.8937 1.87003 17.0438 0.344773 19.1935C0.312439 19.2392 0.295171 19.2927 0.289039 19.349C0.0928071 19.4075 -0.0599357 19.5865 0.0231283 19.8385C0.311343 20.7081 0.675352 21.9346 1.56007 22.3014C3.01173 22.9035 4.52808 23.2474 5.95856 23.951C6.26239 24.1004 6.56508 23.8869 6.57623 23.5998C6.71894 23.5791 6.85275 23.495 6.90961 23.3194C7.53622 21.3849 8.47779 19.6166 9.72486 18.0172C9.76054 18.0434 9.79623 18.0696 9.84473 18.0858C11.1147 18.5111 12.3846 18.9365 13.6545 19.3624C13.8022 19.412 13.9254 19.3752 14.0146 19.296C14.1334 19.2331 14.2309 19.1266 14.2527 18.9643C14.9261 13.9454 15.3197 8.91194 15.4434 3.85061C15.4657 3.79152 15.4702 3.72351 15.4513 3.64658ZM2.96546 12.2746C2.23907 12.2802 1.7145 11.4033 1.29974 10.8007C2.75586 11.2087 4.17017 11.439 5.68874 11.5126C5.73389 11.5148 5.76959 11.5031 5.80694 11.4942C5.6804 11.6726 5.55383 11.851 5.42729 12.0293C5.33586 11.9156 5.1948 11.8404 5.01418 11.8755C4.37141 12.0009 3.61492 12.2702 2.96546 12.2746ZM4.11165 15.3246L6.5467 11.8917C6.79923 11.5354 6.37386 11.202 6.03771 11.3158C6.16202 11.0738 6.04888 10.6942 5.68819 10.6764C4.46175 10.6173 3.28994 10.4389 2.11812 10.1501C5.83147 7.19547 9.5448 4.24029 13.2582 1.28566C13.1288 6.18031 12.7731 11.0538 12.1911 15.9155C11.3192 15.1328 10.0755 13.9337 9.18858 14.0296C8.12492 14.1444 7.27253 16.2204 6.82377 16.9307C6.35381 17.6743 5.65807 19.7398 4.96736 20.2025C3.85631 20.9467 1.75463 19.9639 1.67603 18.7575C1.63087 18.0635 3.68239 15.9294 4.11165 15.3246ZM3.38748 21.9753C2.893 21.8075 2.22069 21.7322 1.79757 21.4284C1.37388 21.124 1.13417 20.5231 0.954104 19.9907C2.19672 20.6005 3.45439 21.1491 4.75164 21.6419C4.75889 21.6848 4.76502 21.7278 4.78788 21.7729L5.26393 22.7184C4.64847 22.4475 4.02635 22.1921 3.38748 21.9753ZM9.30563 17.1971C7.95096 18.8768 6.923 20.7304 6.22114 22.763C5.98421 22.2919 5.74673 21.8214 5.5098 21.3503C5.48025 21.2918 5.44288 21.2472 5.40163 21.2138C6.18656 19.6211 7.01109 17.9994 8.05747 16.5639C8.23419 16.3046 8.41089 16.046 8.58817 15.7867C8.68238 15.6095 8.77772 15.4718 8.87361 15.353C9.01855 15.9668 9.16293 16.5806 9.30788 17.1944C9.30732 17.1955 9.30619 17.196 9.30563 17.1971ZM10.1976 17.3243C10.0175 16.56 9.83746 15.7962 9.65684 15.0319C9.83914 15.0999 10.0242 15.2549 10.2132 15.5152C10.8142 15.7249 11.4742 16.3899 12.02 16.8588C12.0267 16.8688 12.0278 16.8788 12.0351 16.8889C12.3762 17.3164 12.6717 17.7697 12.9359 18.2413C12.0228 17.9358 11.1102 17.6303 10.1976 17.3243ZM13.572 17.6749C13.3769 17.3443 13.1656 17.0243 12.9382 16.7127C13.5391 11.9056 13.9048 7.08676 14.062 2.24842L14.6117 3.74859C14.5013 8.41132 14.149 13.0495 13.572 17.6749Z" fill="#300C41"/>
</svg>
