<svg width="48" height="48" viewBox="0 0 48 48" fill="none" xmlns="http://www.w3.org/2000/svg">
<rect width="48" height="48" rx="8" fill="#592472"/>
<path d="M32.3187 11.0274C34.7035 10.9099 37.4586 11.1633 39.7292 11.9309C40.1426 12.0707 40.7677 12.3236 40.9348 12.7564C41.1116 13.2124 40.7914 14.7127 40.5784 15.1568C41.1324 15.1657 41.7506 15.1238 42.2489 15.4003C42.3979 15.6247 42.4007 15.7479 42.416 16.0085C42.5511 18.4331 42.3074 21.5476 42.2434 24.0418C42.1557 27.4312 42.2211 31.2193 41.8578 34.5556L41.8063 34.512L41.8216 34.7404C40.4934 35.1539 36.9379 35.1595 35.4079 35.2486C32.7406 35.4038 30.076 35.636 27.4086 35.7665C27.3989 35.7929 27.3919 35.8215 27.378 35.8458C26.9074 36.6364 25.777 37.0585 24.9153 37.1464C23.5927 37.2813 22.6363 36.8018 21.6382 35.9771C19.3383 35.654 16.9332 35.709 14.6115 35.5437C13.2361 35.4684 7.55389 35.3098 6.62658 34.8095C6.59484 34.7191 6.56839 34.6408 6.55335 34.5458C6.41706 33.6869 6.44435 32.7427 6.41512 31.8718L6.26587 27.0637C6.1804 24.5399 6.11747 22.0153 6.0771 19.4904C6.05552 18.3534 5.95375 17.1519 6.02489 16.0235C6.0409 15.771 6.07807 15.6996 6.22522 15.492C6.61642 15.2965 7.09629 15.3429 7.52605 15.3347C7.44183 14.5807 7.16548 13.7172 7.23133 12.9641C7.24901 12.7626 7.3693 12.6391 7.51658 12.512C8.98558 11.2444 15.3821 10.9837 17.4063 11.1772C19.5931 11.3863 21.5686 12.0771 23.3491 13.3677C23.6623 13.5944 24.0368 13.8231 24.2832 14.1202C24.9041 13.8319 25.4526 13.2112 26.0067 12.7983C27.9321 11.3616 29.9994 11.1399 32.3187 11.0274Z" fill="#0B0B0B"/>
<path d="M30.6591 29.3906C32.3548 29.2892 36.6384 29.567 37.9554 30.5988C35.6249 30.9899 33.2541 31.3016 30.9125 31.6264C30.2248 31.9543 25.7003 32.5052 24.6826 32.5993C24.7355 32.5095 24.7453 32.5008 24.7842 32.3896C24.9012 32.0583 24.8733 31.4655 24.7299 31.1488C26.7639 30.6308 28.5291 29.6514 30.6591 29.3906Z" fill="#CB9DEF"/>
<path d="M15.9915 29.3846C17.8733 29.1142 22.0007 30.1479 23.7075 31.084C23.7576 31.1618 23.7687 31.1717 23.8021 31.274C23.926 31.6709 23.8829 32.3359 23.6769 32.6901C22.2634 32.4423 20.847 32.2087 19.428 31.9891C16.5475 31.5086 13.655 31.1324 10.7695 30.6887C12.4648 29.8986 14.1259 29.5008 15.9915 29.3846Z" fill="#CB9DEF"/>
<path d="M40.6854 16.1626C40.9973 16.1696 41.2172 16.16 41.4386 16.3915C41.5332 17.0933 41.4386 17.9046 41.4191 18.6178L41.3063 22.8774C41.1949 26.3944 41.2311 29.9725 40.9694 33.4786C40.9555 33.6668 40.9207 33.7744 40.8218 33.9355C36.1762 34.3168 31.4972 34.3912 26.8558 34.8344C26.7862 35.1341 26.3059 35.615 26.0623 35.7821C25.4859 36.1777 24.6116 36.2743 23.9323 36.1475C23.1582 36.003 22.6682 35.6815 22.2324 35.0356C17.3244 34.5041 12.3411 34.5248 7.41592 34.1298C7.2426 29.2189 7.12497 24.3065 7.06315 19.3928C7.06162 18.829 6.83275 16.6574 7.11703 16.3199C7.30664 16.2681 7.40297 16.2258 7.59384 16.3013C7.86099 17.4392 7.85877 18.7414 7.94383 19.9125C8.13942 22.4413 8.29451 24.9727 8.40908 27.5065C8.45614 28.4156 8.39725 30.4072 8.74821 31.1637C8.8142 31.3059 8.8419 31.3031 8.98153 31.3535C9.86527 31.6727 10.9587 31.7301 11.8911 31.8604C13.328 32.0604 14.7636 32.2694 16.1978 32.4874C17.8231 32.7395 19.4472 32.9997 21.07 33.2682C22.0515 33.4263 23.1262 33.6629 24.1188 33.6646C24.9471 33.666 25.82 33.473 26.64 33.3454L31.1812 32.6074C33.5534 32.2191 35.973 31.9592 38.3257 31.4764C38.7851 31.3822 39.2083 31.2658 39.6302 31.0572C40.2246 29.9538 40.2719 18.6274 40.6729 16.2332C40.6771 16.2097 40.6812 16.1861 40.6854 16.1626Z" fill="#CB9DEF"/>
<path d="M32.0191 11.9847C34.0502 11.9131 38.0861 12.018 39.8485 13.0125C39.8889 13.099 39.8987 13.1075 39.914 13.217C39.9905 13.7653 39.6703 16.2361 39.6272 16.9596C39.378 21.0486 39.2805 25.1838 38.8866 29.2598C38.8657 29.4767 38.8309 29.5943 38.7167 29.7785C37.6628 29.0514 33.446 28.4028 32.0121 28.3567C29.0301 28.1104 27.2788 29.5222 24.6602 30.1118C24.7632 29.9255 24.7896 29.7958 24.8008 29.5829C24.9609 26.2249 24.7799 22.7877 24.7646 19.4225C24.7576 17.9923 24.972 16.3615 24.8119 14.9684C25.4022 14.6504 25.927 14.064 26.4783 13.6583C28.1823 12.4035 29.9629 12.1111 32.0191 11.9847Z" fill="#CB9DEF"/>
<path d="M13.8555 12.1515C15.6752 11.9257 17.9576 12.0845 19.7073 12.5783C20.8363 12.8967 23.2072 14.047 23.7933 15.0849C23.8141 15.125 23.8531 15.1972 23.867 15.2451C24.0271 15.8071 23.835 18.3034 23.835 19.1202C23.8309 22.5452 24.023 26.0502 23.8378 29.4678C23.8267 29.6746 23.7821 29.8441 23.6805 30.0256C23.0582 29.4745 19.2241 28.5615 18.2102 28.4104C15.0957 28.1068 12.3068 28.8577 9.51424 30.1517C9.32602 24.4743 8.94151 18.729 8.26172 13.0909C9.97768 12.4548 12.0439 12.3 13.8555 12.1515Z" fill="#CB9DEF"/>
</svg>
