<svg width="48" height="48" viewBox="0 0 48 48" fill="none" xmlns="http://www.w3.org/2000/svg">
<rect width="48" height="48" rx="8" fill="#592472"/>
<path d="M13.3867 40.0262L19.5596 41.2608L20.7942 40.0262L27.1728 39.2032H34.1687V31.1784L30.8765 27.4747V25.4171C28.9561 24.7998 25.5267 23.5652 27.1728 23.5652C29.2304 23.5652 31.2881 16.3635 30.8765 12.6598C30.5473 9.6968 26.8985 8.27018 25.1152 7.92725C22.5774 8.2016 17.2551 10.0672 16.2674 15.3347C15.2797 20.6022 18.8737 23.0165 20.7942 23.5652L16.2674 28.5035L15.4443 30.1496L13.3867 40.0262Z" fill="#CB9DEF"/>
<path d="M34.0188 31.8177C33.6625 29.6984 32.6843 28.1642 31.1979 26.7979C31.3707 26.4062 31.4802 25.9823 31.2839 25.5629C31.0612 25.0864 30.6538 25.0169 30.2205 24.8234C29.8448 24.6555 27.5139 24.2819 27.4538 24.1136C27.439 24.0716 27.4106 24.0403 27.3781 24.0148C27.7126 23.8255 28.0377 23.6074 28.3468 23.3502C32.1139 20.2144 32.7514 14.0962 29.8723 10.2398C27.9419 7.6542 23.7369 6.19081 21.0706 8.36367C20.5871 8.54227 20.1151 8.76737 19.6714 9.11758C18.827 9.78425 18.027 10.7563 17.4011 11.6448C15.8348 13.8674 15.3689 16.2991 15.9685 18.9242C16.5048 21.272 18.2595 23.1403 20.4109 24.1358C20.3941 24.1872 20.3887 24.2345 20.3772 24.2839C20.2735 24.2605 20.1504 24.3057 20.1282 24.4226C19.6471 26.9774 20.0418 29.9868 20.076 32.5947C20.0933 33.9115 20.2628 35.226 20.3414 36.5416C20.376 37.1231 20.2998 37.7519 20.2591 38.375C20.1048 38.0832 19.9488 37.7931 19.7727 37.5268C19.1476 36.584 18.2722 35.6696 17.8369 34.5992C17.5418 33.8733 17.3764 32.5214 17.7331 31.8029C17.8858 31.4951 18.3455 31.3601 18.5225 31.0617C18.7965 30.5992 18.8698 30.5827 18.762 30.1091C18.5282 29.079 16.8957 29.1848 16.715 28.3971C16.501 27.4642 19.8274 25.802 20.0788 24.5325C20.1101 24.3753 19.9286 24.1708 19.769 24.2942C18.4002 25.3502 16.4982 26.4527 15.7266 28.0745C15.557 28.4309 15.3866 28.7004 15.5167 29.0877C15.5451 29.1724 15.5735 29.2403 15.6014 29.2992C14.8874 29.937 14.4155 31.3745 14.1657 31.9766C13.2632 34.1515 12.3903 37.377 12.9414 39.7449C13.2426 41.0396 14.1895 41.0618 15.3998 41.1902C16.8274 41.3412 19.2192 41.5182 20.3484 40.554C20.3743 40.5318 20.3912 40.5058 20.4093 40.4803C20.4529 40.4836 20.4965 40.4857 20.5393 40.4807C20.5801 40.5346 20.6262 40.5811 20.6797 40.6145C20.7562 40.6844 20.8426 40.7437 20.9393 40.7746C22.4649 41.2634 24.7365 40.5322 26.2357 40.2589C26.4521 40.2194 26.6315 40.1746 26.792 40.1231C26.8702 40.1684 26.9591 40.1795 27.0456 40.1482C28.204 40.7198 30.1826 40.1906 31.2703 40.0988C32.5863 39.9877 34.5044 40.1947 34.7477 38.6169C35.06 36.5914 34.3497 33.7856 34.0188 31.8177ZM16.4673 40.1215C15.2397 40.0836 14.0829 40.1853 13.9533 38.8058C13.6623 35.705 14.8858 32.3926 16.3101 29.6391C16.3879 29.6617 16.4727 29.7 16.5665 29.7675C18.1027 30.8716 16.5385 31.2198 16.2809 32.4375C16.1307 33.149 16.4155 33.7803 16.6673 34.4362C17.0899 35.5379 17.6644 36.556 18.3105 37.5428C18.7702 38.2449 19.1747 39.0647 19.6476 39.7853C18.5793 39.8453 17.5192 40.154 16.4673 40.1215ZM21.0752 9.6933C21.1645 9.68672 21.1669 9.55298 21.0752 9.55256C21.1599 9.52911 21.2492 9.5073 21.3431 9.48796C21.297 9.6608 21.2772 9.83487 21.2776 10.0028C21.1496 9.90977 21.0245 9.81429 20.906 9.71511C20.9603 9.70647 21.0147 9.69742 21.0752 9.6933ZM19.7768 10.4624C19.7825 10.4777 19.785 10.4929 19.7941 10.5077C19.9982 10.8489 20.2521 11.1731 20.5451 11.4526C20.42 11.3978 20.2941 11.3448 20.1714 11.2843C20.1031 11.2505 20.0278 11.2168 19.969 11.1682C19.9566 11.1559 19.9451 11.1431 19.9332 11.1308C19.9332 11.1275 19.9336 11.1266 19.9336 11.1229C19.957 10.8266 19.6327 10.7118 19.4122 10.8147C19.5323 10.6925 19.6541 10.576 19.7768 10.4624ZM20.706 25.5169C21.2838 26.135 22.4068 26.4411 23.2068 26.5584C22.6747 27.0173 22.3414 27.8066 21.9332 28.3165C21.6291 28.6967 21.4488 29.0663 21.1941 29.4679C21.1583 29.5243 21.1192 29.5696 21.0809 29.6177C21.0188 28.244 20.9126 26.8831 20.706 25.5169ZM23.2912 25.5769C22.3274 25.4399 21.504 25.1745 20.9908 24.3819C22.7291 25.0387 24.6669 25.1304 26.4114 24.4736C26.332 24.5531 26.2723 24.6584 26.2628 24.7992C26.2098 25.5662 23.5616 25.6152 23.2912 25.5769ZM24.1632 27.6313C24.0665 27.5963 23.9719 27.5675 23.8854 27.5514C23.811 27.5379 23.7373 27.5346 23.6645 27.5337C23.7538 27.3609 23.8353 27.1864 23.8978 27.0123C23.9694 27.23 24.0608 27.4346 24.1632 27.6313ZM25.3525 39.0708C24.1501 39.4034 22.6476 39.6778 21.3772 39.5437C21.6591 38.8589 21.5126 36.5313 21.4719 36.0597C21.3624 34.7836 21.1743 33.5111 21.1579 32.2268C21.1525 31.828 21.1426 31.4334 21.1328 31.0387C21.2352 31.0255 21.3365 30.986 21.4221 30.9062C21.5916 30.7486 21.6455 30.6325 21.6801 30.4687C21.8196 30.2926 22.0192 30.1272 22.1159 29.9292C22.2966 29.5597 22.5007 29.2597 22.7344 28.9432C22.7928 29.1078 22.8821 29.2309 22.9896 29.3181C22.9612 29.3872 22.9348 29.4584 22.9241 29.5403C22.8661 29.9733 22.9114 30.4778 22.9838 30.984C22.8817 31.5424 22.8357 32.1169 22.799 32.642C22.7151 33.8568 22.606 35.2284 22.7599 36.4371C22.8418 37.0803 23.5019 37.3996 24.02 36.9589C24.9176 36.1955 24.8715 34.9519 24.8344 33.8589C24.8093 33.1148 24.6735 32.3687 24.6032 31.6272C24.5715 31.2938 24.4521 30.6947 24.4003 30.1774C24.4822 29.9354 24.4883 29.7502 24.3986 29.4597C24.6661 29.3436 24.9085 29.1268 25.0237 28.8597C25.2027 29.0687 25.3892 29.2741 25.5776 29.4798C25.7311 29.6473 26.034 30.1268 26.3509 30.4189C26.2818 32.2136 26.1488 34.0424 26.3069 35.8239C26.3583 36.4017 26.4217 36.9544 26.4484 37.5293C26.5044 38.7445 26.4867 38.7573 25.3525 39.0708ZM26.3908 28.7037C26.0871 28.3992 25.7657 28.114 25.4735 27.7971C25.1044 27.3967 24.7982 26.9432 24.3904 26.5806C25.0752 26.514 25.897 26.3222 26.4892 25.9555C26.4098 26.8675 26.4019 27.786 26.3908 28.7037ZM21.3838 23.2337C18.6723 22.4823 17.2492 20.2497 16.9134 17.6106C16.6134 15.2509 17.5142 13.0081 19.0406 11.2184C19.1076 11.1398 19.1764 11.0694 19.2447 10.9962C19.2402 11.0077 19.2319 11.0155 19.2286 11.0279C19.0941 11.5234 19.4221 11.8625 19.7924 12.1349C19.9529 12.253 20.1801 12.3353 20.3184 12.4711C20.3636 12.5155 20.4031 12.604 20.4406 12.6662C20.5361 12.8238 20.6217 12.8946 20.792 12.9649C20.9546 13.032 21.1743 12.9205 21.2554 12.7765C21.4163 12.49 21.3517 12.1773 21.1813 11.9271C21.2147 11.9456 21.2439 11.9703 21.2776 11.9876C21.6447 12.1715 22.2081 12.3229 22.6542 12.2118C23.2023 12.3818 23.7533 12.4686 24.22 12.4612C24.8484 12.4513 26.5118 11.9801 26.9727 11.2406C27.0135 11.304 27.0596 11.3637 27.1126 11.418C27.2201 11.5275 27.3489 11.625 27.4867 11.6921C27.5616 11.7287 27.6419 11.7604 27.7238 11.7789C27.8192 11.8044 27.9147 11.8044 28.0102 11.7789C27.9542 11.7892 27.9587 11.79 28.0238 11.781C28.2435 11.7559 28.4402 11.6443 28.5019 11.4168C28.5373 11.2867 28.5201 11.1513 28.4522 11.0349C28.376 10.9044 28.2571 10.8517 28.1279 10.8036C28.0986 10.7851 28.0723 10.762 28.041 10.7447C27.946 10.6912 27.962 10.7007 27.8941 10.6378C27.7904 10.5415 27.7554 10.4768 27.6896 10.3921C27.6583 10.2398 27.5563 10.1476 27.432 10.0987C27.4303 9.95339 27.4134 9.8217 27.3879 9.63693C27.3871 9.63034 27.3838 9.6254 27.3826 9.61882C28.2365 10.2694 28.9336 11.19 29.4258 12.0452C31.2151 15.1522 30.4542 19.5061 27.8805 22.0605C26.2027 23.7247 23.5723 23.8403 21.3838 23.2337ZM27.4694 32.3198C27.4917 29.9091 27.6451 27.3683 27.2439 24.9741C27.2538 24.9169 27.2653 24.8605 27.2665 24.7996C27.2674 24.7378 27.2562 24.6852 27.2398 24.637C27.5587 24.9728 28.1065 25.2127 28.4476 25.3852C29.3052 25.8185 29.8871 25.4481 29.8464 26.4255C29.8102 27.2876 29.1521 27.4235 28.7702 28.1272C28.6237 28.3971 28.455 28.6761 28.4793 29.0004C28.5135 29.4556 28.9209 29.6103 29.0871 29.9683C29.9044 31.7288 29.5007 32.9362 28.6958 34.5169C28.3863 35.1243 28.055 35.7247 27.7452 36.3338C27.6497 34.9898 27.4575 33.628 27.4694 32.3198ZM32.5596 38.7009C32.2345 38.6972 31.9106 38.7169 31.5888 38.7601C30.618 38.8239 28.9666 39.2478 27.8863 38.9441C28.2081 38.2758 28.4287 37.5655 28.7731 36.8527C29.1464 36.0803 29.5983 35.356 29.9439 34.5799C30.3057 33.7679 30.8353 32.5741 30.9254 31.6782C31.0196 30.7428 30.569 30.4309 30.2913 29.6403C30.1505 29.4893 30.0094 29.3383 29.8686 29.1872C29.848 28.5946 30.074 28.1267 30.5472 27.7831C30.6007 27.6967 30.6637 27.6181 30.7279 27.5403C31.4131 28.6617 32.3024 29.6292 32.6789 30.993C33.1291 32.6231 33.1386 34.4531 33.3263 36.1358C33.381 36.6247 33.6197 37.7087 33.518 38.1387C33.6724 38.763 33.3526 38.9503 32.5596 38.7009Z" fill="black"/>
</svg>
