<svg width="48" height="48" viewBox="0 0 48 48" fill="none" xmlns="http://www.w3.org/2000/svg">
<rect width="48" height="48" rx="8" fill="#592472"/>
<path d="M16.5778 24.8945L18.775 36.2467L19.3243 37.8946C19.7638 39.213 23.4136 33.4392 25.1835 30.3875L27.7469 31.8523L35.8033 21.0494L45.3246 8.04932L6.69043 19.2184L16.5778 24.8945Z" fill="#CB9DEF"/>
<path d="M45.2336 7.51275C42.081 8.07999 39.0855 9.41405 36.0233 10.3039C32.9069 11.2092 29.7357 12.3964 26.538 12.9878C22.8364 13.6722 19.307 15.1656 15.6933 16.199C13.937 16.7011 12.1972 17.1954 10.4706 17.7777C9.28813 18.1765 7.82332 18.7328 6.57934 18.8056C6.41455 18.8151 6.35706 18.9638 6.40137 19.0777C6.23035 19.1165 6.19264 19.3458 6.34314 19.4487C9.02776 21.2826 11.8398 22.6731 14.7105 24.1862C15.2019 24.4451 15.7333 24.9406 16.2943 25.272C16.0017 27.3659 16.4481 29.9374 16.8088 31.9562C17.101 33.5924 17.5196 35.2 17.7375 36.8487C17.885 37.9667 17.9235 39.1993 18.4622 40.2203C18.6735 40.6209 19.2308 40.5645 19.4557 40.2203C19.493 40.1632 19.5253 40.1005 19.5586 40.039C20.7722 39.1283 21.7613 37.2548 22.5222 36.0075C23.5168 34.3776 24.4627 32.726 25.4112 31.0755C25.4577 30.9946 25.4789 30.9159 25.4837 30.8404C26.1989 31.3249 27.4817 32.6114 28.3404 32.4041C29.2427 32.1866 29.8466 30.4204 30.3285 29.7631C31.4832 28.1888 32.596 26.6181 33.7928 25.0728C36.0687 22.1337 38.2787 19.1312 40.5506 16.1792C41.5815 14.8397 42.5072 13.4558 43.4843 12.0756C44.22 11.036 45.7653 9.536 45.9462 8.22574C46.0085 7.77238 45.7023 7.42852 45.2336 7.51275ZM19.0704 33.5375C18.9855 34.5918 19.0239 35.6446 18.9086 36.7C18.8987 36.7905 18.891 36.9007 18.8844 37.0226C18.8456 36.6293 18.8068 36.2419 18.7452 35.8804C18.5032 34.4644 18.1095 33.083 17.8473 31.6691C17.4716 29.6444 17.2973 27.5856 16.9571 25.5576C17.1567 25.6071 17.3595 25.6206 17.5646 25.5785C18.6152 25.3639 20.0097 23.9767 20.9234 23.4154C23.3817 21.9044 25.8235 20.2778 28.2101 18.6504C30.6966 16.9545 33.4376 15.672 35.9643 14.0622C35.0379 14.7089 34.1612 15.4428 33.2673 16.1148C31.8878 17.1519 30.4398 18.126 29.123 19.2451C27.7399 20.4209 26.3728 21.7162 25.067 22.9799C24.031 23.9826 22.7841 24.8582 21.7199 25.8608C21.5177 25.9429 21.3555 26.1099 21.1955 26.2805C21.0812 26.4021 20.9 26.6335 20.7403 26.787C20.4876 26.6203 20.0676 26.6687 20.016 27.0254C19.701 29.2002 19.2477 31.3388 19.0704 33.5375ZM21.2208 30.7566C21.5372 30.0725 21.5126 29.2449 21.8583 28.5971C21.8755 28.5649 21.8821 28.5326 21.8836 28.5015C22.022 28.6059 22.1615 28.7058 22.3007 28.8069C22.0026 29.2053 21.8473 29.7056 21.6349 30.1593C21.3032 30.8672 20.9307 31.5629 20.6198 32.2796C20.555 32.429 20.4712 32.6037 20.3792 32.7934C20.6411 32.1031 20.9168 31.4135 21.2208 30.7566ZM20.414 31.0067C20.5836 29.9121 20.7711 28.8201 20.8784 27.716C21.1164 27.9094 21.3537 28.0932 21.5914 28.2763C21.5628 28.2865 21.535 28.3023 21.509 28.3279C21.2772 28.5561 21.2138 28.8406 21.1307 29.1479C20.9582 29.7839 20.729 30.3127 20.455 30.9181C20.4422 30.947 20.4279 30.977 20.414 31.0067ZM21.2358 32.54C21.7181 31.3755 22.0978 30.16 22.5596 28.9966C22.6907 29.09 22.8265 29.1768 22.9591 29.268C22.0879 29.9271 21.7041 31.9075 21.2702 32.852C20.8725 33.7173 20.5986 34.6156 20.2445 35.4989C20.1797 35.6604 20.1229 35.8013 20.0764 35.9332C20.0735 35.8295 20.0709 35.7248 20.068 35.6245C20.6019 34.6925 20.8333 33.5119 21.2358 32.54ZM23.2905 29.4932C23.3762 29.5503 23.4641 29.6056 23.5505 29.662C23.5326 29.6851 23.5132 29.7067 23.5007 29.7367C23.0441 30.8349 22.5698 31.9423 22.0696 33.0307C22.0934 32.9721 22.1161 32.9131 22.1403 32.8542C22.5925 31.7534 22.9716 30.628 23.2905 29.4932ZM20.0896 37.1702C20.128 37.198 20.1771 37.2094 20.2236 37.205C20.2133 37.2918 20.2122 37.3767 20.2126 37.461C20.1665 37.5346 20.1185 37.6085 20.0742 37.6811C20.0822 37.5115 20.087 37.3409 20.0896 37.1702ZM24.5059 30.5456C23.868 31.564 23.2656 32.5923 22.6764 33.636C23.1829 32.44 23.6267 31.218 24.0705 29.996C24.2723 30.1219 24.4752 30.2472 24.6836 30.3684C24.6173 30.4087 24.5561 30.4654 24.5059 30.5456ZM42.3267 11.7336C41.4475 12.975 40.636 14.2281 39.6868 15.4201C37.7631 17.837 35.7882 20.2781 33.9583 22.7665C32.1767 25.1889 30.0909 27.5871 28.5733 30.1912C28.0844 31.0298 28.5316 31.1015 27.4769 30.7218C26.9848 30.5445 26.3802 29.9813 25.9063 29.725C24.4734 28.9497 23.2308 27.9639 21.8872 27.084C22.7123 25.9685 24.2891 24.9724 25.2145 24.087C26.8016 22.5687 28.4078 20.9794 30.1147 19.5995C32.5766 17.6096 35.0148 15.4963 37.5251 13.5752C37.7309 13.4177 37.558 13.0896 37.3167 13.2185C37.1175 13.3251 36.922 13.439 36.7286 13.5572C36.9908 13.3789 37.2537 13.2024 37.5093 13.0138C37.6551 12.9065 37.5767 12.6183 37.3742 12.6934C34.5428 13.7462 31.7248 15.4663 29.1794 17.0684C27.9768 17.8253 26.7793 18.5665 25.6258 19.3875C24.4517 20.2236 23.0767 20.7113 21.8883 21.5573C20.651 22.438 19.2224 23.5435 17.807 24.1382C16.9608 24.4938 16.8579 24.1554 16.0394 23.649C15.4366 23.2758 14.8254 23.0085 14.1828 22.7203C12.6923 22.0516 11.2436 21.2255 9.76895 20.5085C9.00396 20.1364 8.20307 19.5186 7.36228 19.2282C9.73196 19.1854 12.3389 18.0871 14.5435 17.5254C18.4545 16.5293 22.2677 14.9378 26.2234 14.1648C29.5375 13.5173 32.8117 12.463 36.0427 11.508C38.8548 10.6767 41.6247 9.50781 44.4935 8.84828C43.9439 9.87255 42.8841 10.947 42.3267 11.7336Z" fill="#300C41"/>
<path d="M13.8951 27.3789C13.7706 27.562 13.3872 27.6297 13.1814 27.7312C12.7753 27.9311 12.3952 28.1893 12.0107 28.4269C11.3852 28.8133 10.674 29.0066 10.1277 29.497C9.99254 29.6182 10.0445 29.8302 10.1822 29.9196C11.0421 30.4788 11.9374 29.7804 12.6453 29.2571C13.058 28.9521 13.4579 28.6313 13.8812 28.3412C14.183 28.1347 14.4001 28.0011 14.5188 27.6414C14.6458 27.2566 14.1028 27.0738 13.8951 27.3789Z" fill="#300C41"/>
<path d="M7.74796 30.0348C7.40044 29.9802 7.1181 29.7136 6.76947 29.6389C6.3868 29.5569 5.95321 29.5331 5.56504 29.5111C4.81396 29.469 3.85819 29.5346 3.20196 29.9169C2.99982 30.0348 2.99835 30.3398 3.20196 30.4574C3.91935 30.8712 4.61879 30.7287 5.41124 30.7236C6.14804 30.7188 6.91047 30.9503 7.63225 30.8891C8.08158 30.851 8.26796 30.1168 7.74796 30.0348Z" fill="#300C41"/>
</svg>
