<svg width="27" height="25" viewBox="0 0 27 25" fill="none" xmlns="http://www.w3.org/2000/svg">
<path d="M3.45746 22.7448L3.05068 19.6939L1.62695 20.7109L4.47441 16.8465L3.66085 16.4397L6.10153 15.6261L6.50831 15.4227L7.72865 12.9828L3.25402 13.593L6.71165 9.932L9.55916 9.72782C10.9829 7.89757 14.5219 4.07437 17.288 3.42353C20.0541 2.77268 22.6439 1.93147 23.5931 1.59222L21.7625 6.67697C20.4744 9.52443 17.2066 15.26 14.4405 15.4227L14.2371 18.2702L10.5761 21.1176L11.1863 16.4397L9.96594 16.6431C9.89814 16.9143 9.72187 17.4566 9.55916 17.4566C9.39644 17.4566 8.94899 17.321 8.7456 17.2532L8.33882 17.8634C7.99983 18.8804 7.24051 20.8736 6.91509 20.7109C6.58966 20.5482 6.23712 20.2363 6.10153 20.1007L6.10153 21.321L5.08458 20.1007L3.45746 22.7448Z" fill="#CB9DEF"/>
<path d="M23.5276 1.61419C23.5032 1.56259 23.4525 1.52417 23.3801 1.53865C19.761 2.25659 16.3172 3.69378 13.2881 5.80637C11.9009 6.77371 10.4379 7.87438 9.41056 9.23327C9.29303 9.38856 9.17893 9.55108 9.06819 9.71949C9.04733 9.70001 9.01941 9.68665 8.98019 9.68857C8.2969 9.72213 7.55099 9.68526 6.87443 9.79247C6.33941 9.87721 6.12592 10.1957 5.75309 10.5954C4.78559 11.6328 3.85149 12.6996 2.94242 13.7885C2.85977 13.8875 2.98243 14.0186 3.08892 14.0007C4.59182 13.7486 6.08193 13.4406 7.56193 13.0788C7.5042 13.2874 7.45267 13.4943 7.40943 13.6979C7.3984 13.7496 7.41565 13.7917 7.44427 13.8231C7.43415 13.8283 7.42377 13.8313 7.41406 13.8395C7.22888 13.9943 6.95371 13.8913 6.75287 14.0784C6.57705 14.242 6.50224 14.511 6.51566 14.743C6.52743 14.945 6.60274 15.1443 6.71468 15.3379C5.72208 15.375 4.80047 15.6249 3.91736 16.1073C3.81009 16.1658 3.82284 16.3247 3.93833 16.3651C4.25849 16.477 4.57966 16.567 4.90715 16.6402C3.5014 17.4637 2.49589 18.7439 2.02611 20.3247C1.98285 20.4704 2.14518 20.5463 2.25404 20.4706C2.69157 20.166 3.129 19.8612 3.56638 19.5568C3.48903 20.5726 3.60992 21.5504 3.9401 22.5267C3.97548 22.6315 4.12851 22.691 4.19508 22.5735C4.68646 21.7045 5.1778 20.8358 5.66918 19.9668C5.88531 20.4227 6.12361 20.8607 6.39319 21.2903C6.45164 21.3835 6.61968 21.3973 6.65077 21.2694C6.74471 20.8836 6.86587 20.5185 7.01659 20.1573C7.24959 20.539 7.46743 20.8842 7.87298 20.4722C8.54789 19.7866 8.7866 18.4705 8.86206 17.5465C9.08054 17.663 9.31982 17.719 9.58055 17.6557C10.0649 17.5381 10.2492 17.1266 10.1247 16.7036C10.1418 16.7081 10.1589 16.7123 10.1797 16.7093C10.4936 16.6611 10.8042 16.599 11.1133 16.5301C10.9713 16.9345 10.9843 17.5203 10.9299 17.8214C10.7213 18.9759 10.5128 20.1305 10.3042 21.285C10.286 21.3856 10.424 21.472 10.5077 21.4172C11.7665 20.5954 13.049 19.7135 14.1378 18.6723C14.4201 18.4023 14.4896 18.3155 14.5374 17.9578C14.6472 17.139 14.563 16.2353 14.5752 15.4108C14.5759 15.3594 14.5527 15.3231 14.5206 15.2994C16.1462 14.4654 17.6123 13.3233 18.8131 11.9202C21.2381 9.08671 22.327 5.21099 23.6459 1.78888C23.6831 1.69039 23.609 1.6227 23.5276 1.61419ZM3.41487 13.6584C4.12079 12.82 4.84197 11.9951 5.5842 11.1883C6.08705 10.6415 6.44359 10.1924 7.22516 10.0531C7.76419 9.95708 8.35894 9.99228 8.90899 9.96963C8.38231 10.8248 7.94758 11.8079 7.65238 12.7695C6.2498 13.1161 4.83765 13.4107 3.41487 13.6584ZM8.58691 17.4799C8.54464 18.0321 8.44882 18.5768 8.25838 19.0984C8.06039 19.6412 7.66784 20.6078 7.11794 19.7951C7.0467 19.6899 6.91316 19.7011 6.86021 19.8161C6.70023 20.1638 6.57174 20.5117 6.46748 20.8737C6.22287 20.4606 6.00286 20.0395 5.80471 19.5987C5.76225 19.5043 5.61345 19.4968 5.56226 19.5872C5.07969 20.4407 4.59698 21.2943 4.11415 22.1478C3.84193 21.2104 3.75962 20.262 3.87054 19.2804C3.88597 19.144 3.7263 19.1068 3.63617 19.1695C3.23271 19.4505 2.82929 19.7312 2.42583 20.0122C2.95971 18.5628 3.97139 17.4195 5.36932 16.7037C5.50363 16.6348 5.44129 16.4625 5.31328 16.4395C4.98005 16.3797 4.66133 16.3014 4.34373 16.2035C5.15301 15.8126 5.98464 15.6192 6.89775 15.6113C7.23284 16.0536 7.70899 16.4557 7.99737 16.7751C8.17698 16.9742 8.38738 17.2115 8.6273 17.3938C8.60595 17.4147 8.58975 17.442 8.58691 17.4799ZM9.83651 16.7195C9.59333 17.5061 9.18957 17.6114 8.62535 17.0353C8.515 16.9291 8.40953 16.8182 8.30862 16.7029C8.05909 16.4343 7.81815 16.157 7.57452 15.8829C7.08409 15.3316 6.69669 15.1275 7.38692 14.1772C7.38354 14.1817 7.43449 14.1491 7.48821 14.1147C8.4296 14.7969 9.11042 15.7924 9.8306 16.6904C9.83266 16.7001 9.83236 16.7095 9.83651 16.7195ZM14.2685 17.2139C14.2567 18.0177 14.1438 18.3061 13.5389 18.8208C12.6171 19.6049 11.6455 20.3231 10.6387 20.9933C10.7663 20.2873 10.8938 19.5813 11.0213 18.8752C11.0839 18.5288 11.1464 18.1823 11.209 17.8362C11.247 17.626 11.3029 16.6907 11.476 16.4461C12.4516 16.2015 13.3967 15.8539 14.2952 15.4129C14.2863 16.0131 14.2773 16.6135 14.2685 17.2139ZM18.7064 11.6115C16.8427 13.8417 14.3127 15.4176 11.5199 16.1437C11.486 16.1264 11.4452 16.1223 11.4007 16.1447C11.3731 16.1586 11.3476 16.1757 11.3235 16.1951C10.9277 16.2919 10.5273 16.3725 10.1224 16.4346C10.0773 16.4415 10.0475 16.4642 10.0307 16.4938C9.2924 15.5725 8.5986 14.5715 7.63215 13.8734C7.62827 13.8705 7.62427 13.8696 7.62034 13.8682C7.61943 13.867 7.61893 13.8657 7.61802 13.8645C7.64493 13.85 7.66675 13.8245 7.67559 13.7833C7.99522 12.2848 8.71743 10.6077 9.64645 9.38342C10.7465 7.93388 12.3596 6.75613 13.8566 5.75447C15.1079 4.91728 16.4263 4.19527 17.7954 3.59044C17.7999 4.47796 18.2247 5.27531 18.947 5.81775C19.5297 6.25534 20.729 6.78285 21.5259 6.63658C20.7891 8.4301 19.9209 10.1579 18.7064 11.6115ZM21.6743 6.27357C21.6542 6.26948 21.634 6.26737 21.6159 6.27046C21.6019 6.27275 21.5877 6.27501 21.5737 6.2773C21.4904 6.29075 21.4605 6.35774 21.4683 6.42233C21.3347 6.33864 21.1859 6.2987 21.0202 6.30802C20.7633 6.27496 20.5108 6.222 20.2628 6.1494C19.9338 6.05038 19.6072 5.92216 19.3188 5.73334C18.5303 5.21725 18.04 4.41929 18.0782 3.46952C19.7639 2.74819 21.5235 2.20106 23.3287 1.83533C22.7787 3.27379 22.2665 4.79141 21.6743 6.27357Z" fill="black" stroke="black" stroke-width="0.40678"/>
<path d="M11.0462 11.6663C10.5565 11.3476 9.89431 11.5282 9.56387 11.9822C9.5613 11.9856 9.56137 11.9891 9.55921 11.9924C9.5569 11.9958 9.55393 11.9971 9.55185 12.0009C9.27887 12.4935 9.39629 13.1662 9.89063 13.4781C10.3668 13.7786 11.067 13.6214 11.3697 13.1469C11.6733 12.6709 11.5181 11.9734 11.0462 11.6663ZM11.1337 12.9966C10.9133 13.3441 10.389 13.4608 10.0412 13.2424C9.68036 13.0161 9.58814 12.5117 9.78752 12.1516C9.78961 12.1479 9.78926 12.1444 9.79108 12.1407C9.79362 12.1375 9.79697 12.1364 9.79954 12.133C10.0419 11.8004 10.5378 11.6709 10.8954 11.9025C11.2413 12.1264 11.354 12.6491 11.1337 12.9966Z" fill="black" stroke="black" stroke-width="0.211765"/>
<path d="M12.6299 9.43245C12.6138 9.45189 12.6061 9.47149 12.6026 9.49059C12.3028 9.80175 12.2876 10.3132 12.5904 10.6566C12.9576 11.0728 13.5935 11.1079 13.9855 10.7108C14.8649 9.82044 13.4362 8.45247 12.6299 9.43245ZM13.8094 10.4878C13.1831 11.1944 12.1326 10.0357 12.9189 9.59234C12.9715 9.56276 12.99 9.51491 12.9883 9.46773C13.5351 9.06265 14.3207 9.91103 13.8094 10.4878Z" fill="black" stroke="black" stroke-width="0.211765"/>
<path d="M17.0835 6.58406C16.6579 6.07017 15.8897 6.11564 15.4316 6.55269C15.3742 6.60769 15.3807 6.67771 15.4155 6.72908C15.3297 6.80513 15.2772 6.93513 15.2547 7.05243C15.2026 7.32442 15.2653 7.61594 15.4157 7.84762C15.7514 8.36571 16.4638 8.45327 16.9446 8.08105C17.404 7.72557 17.4491 7.02531 17.0835 6.58406ZM16.9738 7.61346C16.8002 7.95655 16.357 8.12619 15.9955 7.98582C15.8037 7.91139 15.658 7.74789 15.579 7.56118C15.5482 7.48838 15.4952 6.91721 15.5823 6.94736C15.7413 7.00233 15.8235 6.77631 15.6963 6.69769C16.0001 6.45968 16.4305 6.4005 16.7545 6.64996C17.0351 6.86596 17.1335 7.29807 16.9738 7.61346Z" fill="black" stroke="black" stroke-width="0.211765"/>
</svg>
