<svg width="48" height="48" viewBox="0 0 48 48" fill="none" xmlns="http://www.w3.org/2000/svg">
<rect width="48" height="48" rx="8" fill="#300C41"/>
<path d="M20.5325 15.3181C20.7842 15.4503 21.0863 15.5129 21.3597 15.4294C21.6474 15.339 21.8272 15.172 22.0071 14.9494C23.0717 13.609 24.1338 12.2709 25.1936 10.9351C25.0642 11.807 24.9419 12.6813 24.8268 13.5579C24.5343 15.7564 24.2993 17.9619 24.1219 20.1742C23.9444 22.3913 23.8245 24.6083 23.7622 26.8253C23.6999 29.0424 23.6951 31.2617 23.7478 33.4834C23.8006 35.7004 23.9109 37.9152 24.0787 40.1275C24.0979 40.4058 24.1195 40.6818 24.1434 40.9555C24.165 41.2337 24.2441 41.4912 24.4599 41.6929C24.647 41.8738 24.9491 42.013 25.2224 41.999C25.7691 41.9712 26.3445 41.5399 26.3014 40.9555C25.9993 37.282 25.8554 33.5878 25.8698 29.9074C25.8842 26.2409 26.0568 22.5745 26.3877 18.922C26.5651 16.9136 26.7929 14.9123 27.071 12.9179C27.33 11.0441 27.6321 9.17721 27.9774 7.31731C28.0709 6.80248 27.8767 6.30156 27.3516 6.08588C27.1358 6.0024 26.8768 5.96761 26.6467 6.03718C26.3661 6.12763 26.1863 6.28764 26.0065 6.51723C24.4815 8.43279 22.959 10.3483 21.4388 12.2639C21.0072 12.8066 20.5756 13.3492 20.144 13.8919C19.9858 14.0936 19.9714 14.4693 20.0361 14.6989C20.1009 14.9424 20.2951 15.1998 20.5325 15.3181Z" fill="#FAFAFA"/>
</svg>
