<svg width="48" height="48" viewBox="0 0 48 48" fill="none" xmlns="http://www.w3.org/2000/svg">
<rect width="48" height="48" rx="8" fill="#300C41"/>
<path d="M10.4094 41.5142C10.5764 41.6395 10.8268 41.7577 11.0425 41.7369C14.3261 41.3565 17.6097 40.9786 20.8933 40.6029C24.1769 40.2226 27.4606 39.8446 30.7442 39.4689C32.5808 39.2556 34.4174 39.0446 36.254 38.8359C36.5461 38.8011 36.7827 38.7385 36.9983 38.5298C37.1792 38.3489 37.3114 38.0497 37.2975 37.7923C37.2905 37.521 37.2001 37.2428 36.9983 37.0549C36.8035 36.874 36.5253 36.714 36.254 36.7488C32.975 37.1245 29.6937 37.5025 26.4101 37.8828C23.1265 38.2584 19.8429 38.6364 16.5592 39.0167C15.8682 39.0956 15.1772 39.1744 14.4861 39.2533C15.1122 38.7385 15.7244 38.2237 16.3366 37.7019C17.8254 36.4149 19.2794 35.0792 20.6359 33.653C22.0273 32.1921 23.3282 30.6408 24.483 28.985C25.5822 27.4128 26.5283 25.7362 27.2797 23.9761C28.0588 22.1674 28.6571 20.289 28.9702 18.3411C29.1302 17.3393 29.2345 16.3237 29.2485 15.301C29.2624 14.2783 29.1789 13.2627 29.0258 12.2539C28.7545 10.3895 28.0797 8.41377 26.5492 7.20328C25.8396 6.63978 25.0396 6.22237 24.1561 5.9928C23.3421 5.77714 22.4725 5.69366 21.6308 5.76323C20.782 5.82584 19.9333 5.99976 19.1472 6.31977C18.208 6.69544 17.3801 7.20328 16.5871 7.8294C15.1401 8.97727 13.9991 10.5008 13.0391 12.0661C12.8165 12.4371 12.5985 12.8128 12.3852 13.1931C12.1208 13.6731 12.2599 14.3549 12.7608 14.6192C13.2548 14.8836 13.9087 14.7584 14.1939 14.2505C14.7366 13.2627 15.3279 12.3096 16.0027 11.4121C16.6149 10.633 17.2967 9.91644 18.0758 9.30424C18.5906 8.92161 19.1402 8.58073 19.7315 8.31637C20.2603 8.10767 20.8029 7.96157 21.3594 7.87809C21.8951 7.81548 22.4377 7.80853 22.9804 7.87114C23.4117 7.9407 23.8361 8.05201 24.2465 8.21898C24.5526 8.35811 24.8425 8.52276 25.1161 8.71291C25.3758 8.92625 25.6124 9.1651 25.8257 9.42946C26.0553 9.74947 26.2501 10.0904 26.4101 10.4452C26.7231 11.2243 26.904 12.0452 27.0223 12.88C27.2101 14.3897 27.1962 15.9202 27.0084 17.4367C26.737 19.329 26.2014 21.1795 25.4709 22.9465C24.7265 24.6788 23.7943 26.3345 22.716 27.8859C22.4285 28.294 22.134 28.6975 21.8325 29.0963C20.5733 30.7034 19.1889 32.206 17.721 33.6252C16.2253 35.0722 14.6461 36.4288 13.0461 37.7506C12.1417 38.495 11.2234 39.2254 10.3051 39.9559C10.1799 40.0533 10.0755 40.262 10.0338 40.4151C9.97116 40.6446 9.99898 40.8812 10.0894 41.0968C10.159 41.2638 10.2633 41.396 10.4094 41.5142Z" fill="#FAFAFA"/>
</svg>
