<svg width="48" height="48" viewBox="0 0 48 48" fill="none" xmlns="http://www.w3.org/2000/svg">
<rect width="48" height="48" rx="8" fill="#300C41"/>
<path d="M20.0077 40.7554C21.2876 41.2841 22.6441 41.5554 24.0144 41.6806C25.4752 41.8197 26.9847 41.8127 28.4038 41.4162C31.541 40.5328 34.1426 38.0355 35.1652 34.9401C36.2156 31.768 35.5269 28.0395 33.5444 25.3753C32.5079 23.9841 31.1723 22.8363 29.6142 22.0642C29.3776 21.9482 29.1388 21.8416 28.8977 21.7442C30.2332 21.2086 31.4784 20.4782 32.5149 19.4417C33.607 18.3565 34.4556 16.9583 34.8104 15.4558C35.186 13.8976 35.0191 12.2907 34.2817 10.8717C33.0157 8.42311 30.2819 7.15709 27.729 6.51712C26.2821 6.1554 24.7866 5.96062 23.3049 5.84237C21.5798 5.69629 19.8199 5.72411 18.1295 6.1554C16.5574 6.5519 15.0827 7.33795 13.9628 8.5205C12.8637 9.68218 12.1194 11.143 12.0081 12.7429C11.9802 13.1603 12.0289 13.5568 12.0846 13.9672C12.1194 14.2106 12.3628 14.475 12.5646 14.5932C12.7872 14.7254 13.1141 14.7811 13.3645 14.6976C13.6219 14.6141 13.8654 14.4611 13.9906 14.2176C14.1297 13.9602 14.1367 13.7168 14.1019 13.4316C14.1112 13.5011 14.1204 13.5707 14.1297 13.6402C14.0833 13.2878 14.0787 12.9353 14.1158 12.5829C14.1714 12.2351 14.2688 11.8873 14.394 11.5603C14.5749 11.1569 14.7975 10.7882 15.0549 10.4334C15.3818 10.0369 15.7435 9.67522 16.147 9.34828C16.5713 9.03525 17.0235 8.77092 17.4965 8.55528C18.2338 8.26312 18.9921 8.06834 19.7781 7.95009C21.4824 7.74836 23.2145 7.88053 24.9118 8.10313C26.3726 8.30485 27.8264 8.63179 29.1968 9.18829C29.8576 9.47349 30.4976 9.8213 31.0749 10.2595C31.4228 10.5378 31.7497 10.8578 32.0349 11.2056C32.2575 11.5117 32.4476 11.8363 32.6053 12.1794C32.7398 12.5226 32.8372 12.8751 32.8975 13.2368C32.9392 13.631 32.9392 14.0251 32.8975 14.4193C32.8209 14.8993 32.6818 15.3654 32.5079 15.8245C32.2714 16.3392 31.9862 16.8331 31.6453 17.2922C31.2767 17.7444 30.8663 18.1618 30.4141 18.5235C29.7602 19.0104 29.0507 19.4139 28.3064 19.7338C26.8943 20.3112 25.3987 20.6312 23.8962 20.8468C23.7199 20.8654 23.5437 20.8863 23.3675 20.9094C23.0823 20.9442 22.8458 20.9999 22.6301 21.2155C22.4493 21.3964 22.3171 21.6955 22.3241 21.9529C22.338 22.2242 22.4284 22.5024 22.6301 22.6902C22.8249 22.8641 23.1032 23.0241 23.3675 22.9963C24.1466 22.9059 24.9257 22.9128 25.6978 23.0033C26.5256 23.1215 27.3395 23.3441 28.1116 23.6641C28.849 23.9841 29.5376 24.3875 30.1846 24.8675C30.748 25.3197 31.2628 25.8344 31.7219 26.4048C32.174 27.01 32.5497 27.6639 32.8557 28.3526C33.1548 29.0969 33.3705 29.876 33.4887 30.669C33.5792 31.4272 33.5861 32.1854 33.4957 32.9367C33.3913 33.6114 33.2174 34.2653 32.967 34.8914C32.6957 35.4965 32.3618 36.0669 31.9653 36.5956C31.534 37.1382 31.0402 37.6251 30.4976 38.0634C29.948 38.4738 29.3498 38.8216 28.7238 39.0998C28.1255 39.3433 27.4995 39.5172 26.8595 39.6146C25.7952 39.7328 24.6822 39.6842 23.611 39.552C22.5815 39.4059 21.5589 39.1485 20.592 38.759C19.8685 38.439 19.1799 38.0425 18.5469 37.5625C17.9556 37.0895 17.42 36.5539 16.947 35.9626C16.3557 35.1766 15.8827 34.3209 15.5001 33.4166C15.4027 33.194 15.0966 32.9993 14.874 32.9367C14.6236 32.8671 14.2897 32.9019 14.0741 33.041C13.8515 33.1871 13.6497 33.4027 13.5941 33.6671C13.5245 33.9592 13.5802 34.1957 13.6984 34.474C14.3106 35.9278 15.194 37.2843 16.3279 38.3903C17.3921 39.4268 18.6443 40.192 20.0077 40.7554Z" fill="#FAFAFA"/>
</svg>
