<svg width="48" height="48" viewBox="0 0 48 48" fill="none" xmlns="http://www.w3.org/2000/svg">
<rect width="48" height="48" rx="8" fill="#300C41"/>
<path d="M18.7242 34.5685C20.4728 34.4804 22.2192 34.3899 23.9633 34.2972C24.2555 34.2832 24.5454 34.2693 24.833 34.2554C24.7959 35.2202 24.7564 36.1873 24.7147 37.1567C24.6683 38.3256 24.6219 39.4945 24.5755 40.6634C24.5686 40.9208 24.7008 41.22 24.8817 41.4009C25.0626 41.5818 25.3618 41.721 25.6192 41.7071C25.8905 41.6931 26.1758 41.6027 26.3637 41.4009C26.5515 41.1922 26.6559 40.9487 26.6628 40.6634C26.7463 38.5807 26.8298 36.4981 26.9133 34.4154C26.918 34.3273 26.9226 34.2369 26.9272 34.1441C29.4134 34.0188 31.8996 33.8913 34.3858 33.7614C34.8172 33.7382 35.2463 33.7173 35.673 33.6988C35.9513 33.6779 36.2087 33.5875 36.4105 33.3927C36.5914 33.2118 36.7306 32.9126 36.7166 32.6551C36.7027 32.3838 36.6123 32.0985 36.4105 31.9107C36.2157 31.7298 35.9513 31.5906 35.673 31.6115C33.0105 31.746 30.3458 31.8828 27.6787 32.022C27.456 32.0313 27.2334 32.0429 27.0107 32.0568C27.0617 30.758 27.1128 29.4616 27.1638 28.1675C27.2102 26.9986 27.2566 25.8297 27.3029 24.6608C27.3099 24.4034 27.1777 24.1042 26.9968 23.9233C26.8159 23.7424 26.5167 23.6032 26.2593 23.6172C25.9879 23.6311 25.7096 23.7215 25.5218 23.9233C25.327 24.132 25.2226 24.3755 25.2156 24.6608C25.1322 26.7435 25.0487 28.8261 24.9652 30.9088C24.9466 31.3262 24.9304 31.7437 24.9165 32.1612C23.1724 32.2493 21.4284 32.3397 19.6843 32.4325C18.9886 32.4673 18.2858 32.509 17.5831 32.5369C17.0682 32.5577 16.5464 32.5508 16.0316 32.4951C15.7393 32.4464 15.4471 32.3768 15.1688 32.2725C15.0111 32.1983 14.8603 32.1125 14.7166 32.015C14.6191 31.9316 14.5264 31.8388 14.4382 31.7367C14.364 31.6301 14.2991 31.5164 14.2434 31.3958C14.1831 31.2288 14.1367 31.0572 14.1043 30.8809C14.0764 30.5887 14.0834 30.2965 14.1182 30.0043C14.2086 29.4059 14.3826 28.8145 14.5913 28.244C14.8487 27.5204 15.141 26.8107 15.4123 26.0941C16.0153 24.5495 16.6183 23.0026 17.2213 21.4533C18.4134 18.3734 19.6078 15.2958 20.8045 12.2205C21.4771 10.4904 22.1496 8.75794 22.8222 7.02317C22.9127 6.78661 22.8431 6.43177 22.7178 6.22304C22.5926 6.00735 22.3421 5.79862 22.0917 5.74296C21.8273 5.68034 21.5281 5.69426 21.2915 5.84733C21.048 6.00039 20.9158 6.20217 20.8115 6.47351C19.5452 9.73433 18.2789 12.9952 17.0126 16.256C15.7463 19.5075 14.4823 22.7614 13.2207 26.0175C12.671 27.423 12.0518 28.8424 12.0031 30.373C11.9752 31.1523 12.1353 31.9594 12.5388 32.6343C12.7406 32.9752 12.998 33.2952 13.3041 33.5457C13.6659 33.8449 14.0347 34.0536 14.4661 34.2276C15.134 34.4989 15.8646 34.5963 16.5742 34.6242C17.2909 34.6589 18.0075 34.6033 18.7242 34.5685Z" fill="#FAFAFA"/>
</svg>
