<svg width="27" height="13" viewBox="0 0 27 13" fill="none" xmlns="http://www.w3.org/2000/svg">
<g clip-path="url(#clip0_514_2049)">
<path d="M20.4408 8.03263C19.859 8.03263 19.2191 8.03263 18.6373 8.03263C13.5179 7.97536 8.34037 7.86082 3.22097 7.80355C2.63922 7.80355 2.11564 7.80355 1.53389 7.74628C0.777619 7.68901 -0.15318 7.5172 0.0213445 6.54362C0.0795195 6.14274 0.952144 5.68458 1.47572 5.62731C5.78067 5.39823 10.0274 5.22642 14.3324 5.05461C15.3214 4.99735 16.3103 5.05461 17.3575 4.53919C16.194 3.85195 14.9723 3.27926 13.867 2.53476C13.3434 2.19114 12.7617 1.3321 12.878 0.816671C13.1107 -0.214179 14.2742 -0.0996406 14.9723 0.243976C18.4628 1.73298 22.0115 3.22199 25.3856 4.99734C27.5381 6.14273 27.5381 7.86082 25.3856 9.00621C22.5351 10.5525 19.4518 11.6979 16.4849 12.9578C16.1358 13.1296 15.5541 12.7287 15.0887 12.6142C15.2632 12.156 15.2632 11.4688 15.6122 11.2397C16.3103 10.667 17.2411 10.3234 18.0556 9.86525C18.9282 9.40709 19.8008 8.94894 20.6153 8.49078C20.4989 8.37625 20.4408 8.20444 20.4408 8.03263Z" fill="white"/>
</g>
<defs>
<clipPath id="clip0_514_2049">
<rect width="13" height="27" fill="white" transform="translate(0 13) rotate(-90)"/>
</clipPath>
</defs>
</svg>
