<svg width="48" height="48" viewBox="0 0 48 48" fill="none" xmlns="http://www.w3.org/2000/svg">
<rect width="48" height="48" rx="8" fill="#592472"/>
<path d="M35.132 15.0646L45.4601 12.3411L42.0174 23.2353L40.0091 20.5117L38.2878 22.5544L25.3777 34.47L20.7875 29.3633L13.3283 37.8744L9.8856 34.8104L6.7298 38.2149L3.28711 34.8104L8.45115 28.342L12.7545 32.4273L20.7875 23.2353L26.2384 28.342L37.4271 16.7668L35.132 15.0646Z" fill="#CB9DEF"/>
<path d="M45.1906 12.0047C41.7804 12.7973 38.3844 13.6668 35.0026 14.6132C34.8475 14.6565 34.7973 14.9027 34.9091 15.0307C35.5783 15.7979 36.2839 16.3969 37.1039 16.9036C33.6376 20.7693 30.0434 24.4659 26.3218 27.9862C26.3105 27.9968 26.306 28.0092 26.2978 28.0205C25.4561 27.168 24.6115 26.3188 23.7624 25.4766C23.0684 24.7884 22.306 23.8016 21.5165 23.2722C20.3709 22.504 19.6275 24.1551 18.8431 25.0669L14.2479 30.4081C14.0076 30.6876 13.4479 31.6394 13.0992 31.7433C12.4766 31.9292 12.1821 31.3972 11.7475 30.9848C10.7609 30.0487 9.77435 29.1125 8.78777 28.1761C8.70277 28.0954 8.57091 28.0665 8.48846 28.1761C6.80556 30.4108 5.01509 32.5089 3.10969 34.4788C3.02809 34.563 3.0278 34.668 3.06818 34.7526C2.99081 34.8405 2.96456 34.9835 3.06847 35.0914C4.25751 36.3247 5.49765 37.4634 6.80274 38.5204C6.87587 38.5797 7.0004 38.5591 7.05942 38.4814C7.61963 37.7415 9.23391 35.0591 10.1626 35.2676C10.4983 35.3429 11.1269 36.1518 11.3841 36.379C12.0465 36.9637 12.7234 37.5233 13.4073 38.0717C13.4827 38.132 13.6024 38.1087 13.6639 38.0327C15.5868 35.6488 17.5095 33.2651 19.4324 30.8812C19.8172 30.4038 20.1733 29.5849 20.8035 29.7212C21.1833 29.8031 21.996 31.1943 22.2761 31.5405L25.2211 35.179C25.2799 35.2516 25.4047 35.282 25.4778 35.218C28.2684 32.7757 30.989 30.2259 33.6238 27.5534C34.9339 26.2245 36.2235 24.8666 37.4907 23.4811C38.1385 22.7732 39.4741 21.8107 39.8609 20.721C40.5716 21.7065 41.3292 22.6106 42.1653 23.4565C42.2904 23.5831 42.464 23.5304 42.5191 23.3462C43.5972 19.7549 45.0751 16.0534 45.4585 12.2456C45.4763 12.072 45.3103 11.9771 45.1906 12.0047ZM43.8473 17.4303C43.3058 19.2359 42.7636 21.0409 42.2215 22.8461C41.4043 21.9933 40.6558 21.0868 39.9578 20.0901C39.9205 20.0368 39.8773 20.0158 39.8344 20.0111C39.7954 19.9818 39.7562 19.9528 39.7172 19.9238C39.4859 19.7516 39.2733 20.184 39.5034 20.3553C39.5286 20.3739 35.3021 25.1575 34.8871 25.5919C33.3996 27.1467 31.8841 28.6638 30.3421 30.1426C29.6046 30.8499 28.8614 31.5484 28.112 32.2381C27.4925 32.8077 26.003 34.7276 25.1531 34.3715C24.8809 34.2576 24.2509 33.2568 24.0485 33.0069L20.7355 28.9136C20.6578 28.8177 20.5135 28.8174 20.4359 28.9136C18.8233 30.9132 17.2104 32.9123 15.5979 34.9118C15.0266 35.6201 14.0847 37.4174 13.211 37.3121C12.8688 37.2708 12.3004 36.5586 11.9969 36.2964C11.344 35.7327 10.7062 35.1464 10.0756 34.5484C9.98274 34.4604 9.86866 34.4494 9.77604 34.5484C9.30534 35.0504 8.84114 35.5595 8.39077 36.0872C8.09231 36.437 7.45952 37.5716 7.07692 37.7106C6.37806 37.9644 5.43017 36.7548 4.96088 36.3177C4.43907 35.8316 3.9342 35.3236 3.43469 34.8066C4.94789 33.2405 6.39952 31.5978 7.7704 29.8581C8.11913 29.4157 8.32441 28.8657 8.91173 28.9316C9.24775 28.9693 9.93614 29.9037 10.1801 30.1353L12.7169 32.5425C12.8067 32.6278 12.9278 32.6458 13.0165 32.5425C14.9947 30.2429 16.9732 27.9432 18.9518 25.6435C19.3256 25.2091 19.8237 24.3456 20.2922 24.0858C21.4665 23.4341 22.1078 24.4915 22.8589 25.2324C23.9355 26.2945 25.0048 27.3665 26.0696 28.4456C26.1888 28.5665 26.3373 28.4972 26.4031 28.3783C26.4714 28.4089 26.5514 28.4076 26.6222 28.3406C30.4054 24.762 34.0586 21.0032 37.578 17.0675C37.6568 16.9792 37.6554 16.8716 37.6144 16.7863C37.6141 16.7124 37.5862 16.6404 37.5105 16.5958C36.7642 16.1587 36.1139 15.634 35.5026 14.9894C36.9763 14.5793 38.4516 14.1798 39.9309 13.7994C40.7351 13.5925 41.5401 13.3903 42.346 13.1924C42.6899 13.1081 44.5386 12.4015 44.7659 12.6124C45.4532 13.2504 44.0775 16.6621 43.8473 17.4303Z" fill="black" stroke="black" stroke-width="0.618182"/>
</svg>
