<svg width="48" height="48" viewBox="0 0 48 48" fill="none" xmlns="http://www.w3.org/2000/svg">
<rect width="48" height="48" rx="8" fill="#592472"/>
<path d="M15.7796 32.6781L13.7026 40.063L21.0875 35.217L32.1649 18.3702L33.3187 17.9087L34.4726 16.524V14.4467L35.8573 11.9081L34.4726 9.83147C33.7034 9.52366 31.8418 8.86187 30.5494 8.67725C29.2571 8.49262 28.7801 10.2927 28.7032 11.2158L27.5493 11.9081C27.3185 12.2928 26.7647 13.1082 26.3954 13.2928C26.0262 13.4774 25.78 14.139 25.7031 14.4467L26.3954 15.3698L15.7796 32.6781Z" fill="#CB9DEF"/>
<path d="M33.6367 9.05666C31.4116 8.13177 28.7796 8.5215 28.1619 11.1858C28.1424 11.2703 28.1664 11.3402 28.2099 11.3934C27.4975 11.5525 26.8911 11.9667 26.5305 12.7745C26.4967 12.8502 26.504 12.9229 26.5321 12.9847C26.5267 12.9869 26.5207 12.9887 26.5155 12.9911C25.3102 13.5279 25.0086 14.8443 25.4566 15.9935C25.4967 16.0959 25.5756 16.1308 25.656 16.1235L15.3953 32.817C15.3703 32.8425 15.3491 32.8737 15.3365 32.916C14.6053 35.3635 13.9907 37.8374 13.4916 40.3434C13.4593 40.5047 13.5882 40.7092 13.7769 40.6496C15.3246 40.1601 16.6107 39.0599 17.9292 38.1423C18.9148 37.4567 20.602 36.716 21.2381 35.6916C21.2477 35.6912 21.2568 35.6918 21.2666 35.6902C21.3677 35.7909 21.5466 35.8149 21.638 35.6556C24.9272 29.9035 28.3508 24.232 31.9032 18.6404C31.9254 18.6483 31.9468 18.657 31.974 18.6581C32.9954 18.7053 33.7737 17.9863 33.8894 17.026C33.9011 17.0208 33.9122 17.0203 33.9239 17.0129C35.1269 16.249 35.0695 15.1637 34.5041 14.2014C34.5654 14.2102 34.6305 14.1928 34.6868 14.1299C35.4024 13.3329 36.215 12.3749 36.0247 11.2137C35.8321 10.0389 34.6175 9.46423 33.6367 9.05666ZM26.6103 15.495C26.6833 15.3763 26.6382 15.2624 26.5543 15.1938C27.1234 15.115 27.6884 15.1357 28.2313 15.241C28.2277 15.2458 28.2231 15.2475 28.2197 15.2527C24.546 20.9002 21.2866 26.7968 18.4564 32.915C18.4285 32.9751 18.4294 33.0332 18.4436 33.086C17.6739 32.818 16.8457 32.7033 15.9971 32.7623L26.6103 15.495ZM19.8847 33.8194C19.5492 33.5881 19.1941 33.3897 18.8219 33.2313C18.8391 33.2137 18.8559 33.1954 18.8686 33.1681C21.6988 27.0499 24.9581 21.1534 28.6318 15.5058C28.6682 15.45 28.6738 15.3957 28.6647 15.3456C29.3371 15.5377 29.9646 15.865 30.509 16.3065C30.4181 16.2806 30.317 16.303 30.2559 16.4106C26.9384 22.2493 23.4923 28.0121 19.9192 33.6968C19.8925 33.739 19.885 33.78 19.8847 33.8194ZM16.6905 38.3874C15.6227 39.0688 14.6143 39.686 14.0588 39.9885C14.2274 39.1676 14.4127 38.3512 14.6062 37.5371C15.3701 37.2627 16.2112 37.6093 16.6391 38.2659C16.6443 38.2891 16.6483 38.3122 16.6618 38.3366C16.6715 38.3533 16.6811 38.3705 16.6905 38.3874ZM20.7346 35.534C20.8149 35.6529 18.9541 36.9295 17.115 38.1154C16.6541 37.267 15.6631 36.8375 14.7314 37.0122C15.0393 35.7518 15.374 34.4983 15.7428 33.2526C15.7655 33.2561 15.7876 33.2614 15.8133 33.2583C17.7035 33.0388 19.5677 33.8006 20.7684 35.2641C20.6954 35.3279 20.6622 35.4271 20.7346 35.534ZM31.7223 18.019C28.131 23.659 24.6742 29.3823 21.3512 35.1856C21.338 35.159 21.3245 35.1325 21.3113 35.1059C21.2736 35.0309 21.2152 34.9948 21.1529 34.9843C20.8645 34.6335 20.5428 34.3226 20.1968 34.0501C20.2475 34.0364 20.2954 34.0074 20.3315 33.9503C23.9046 28.2655 27.3508 22.5028 30.6682 16.664C30.7086 16.5932 30.7081 16.5238 30.6853 16.4643C31.1443 16.8726 31.5399 17.361 31.838 17.9276C31.7948 17.9435 31.7534 17.9697 31.7223 18.019ZM32.1676 18.1763C32.1681 18.1731 32.1707 18.1699 32.1709 18.1668C32.3024 18.127 32.4104 17.9865 32.3313 17.8256C31.2128 15.5535 28.7325 14.3091 26.2539 14.748C25.9971 14.7936 26.0347 15.1285 26.2326 15.2055C26.2213 15.2177 26.2081 15.2259 26.1983 15.2422L25.88 15.7602C24.6469 12.5867 28.6927 13.3345 30.1775 13.8341C30.8403 14.0574 31.5125 14.3042 32.0891 14.7112C33.0889 15.4171 34.3817 18.1441 32.1676 18.1763ZM33.8786 16.4572C33.6838 15.0997 32.381 14.2081 31.2233 13.7102C30.0799 13.2185 28.4008 12.55 27.0514 12.8227C27.884 11.349 29.7636 11.7753 31.1066 12.2617C31.6379 12.4541 32.1736 12.6716 32.6589 12.965C33.5546 13.5077 35.4645 15.2468 33.8786 16.4572ZM34.3531 13.779C34.3229 13.8124 34.307 13.8488 34.2981 13.8851C33.8296 13.2346 33.1537 12.6684 32.5252 12.3398C31.4785 11.7925 29.929 11.2105 28.6228 11.3292C28.6232 11.3279 28.6239 11.3271 28.6242 11.3258C29.0891 9.32043 30.9333 8.68259 32.7739 9.2523C33.3914 9.44349 34.2851 9.70253 34.7455 10.1664C36.0619 11.4934 35.384 12.6304 34.3531 13.779Z" fill="black" stroke="black" stroke-width="0.461555"/>
</svg>
