<svg width="48" height="48" viewBox="0 0 48 48" fill="none" xmlns="http://www.w3.org/2000/svg">
<rect width="48" height="48" rx="8" fill="#592472"/>
<path d="M10.458 39.4839L9.88169 35.1619L7.86475 36.6026L11.8986 31.128L10.7461 30.5517L14.2037 29.3992L14.78 29.111L16.5088 25.6545L10.1698 26.5189L15.0681 21.3325L19.102 21.0432C21.119 18.4504 26.1325 13.0342 30.0512 12.1122C33.9698 11.1901 37.6388 9.99842 38.9834 9.51782L36.3902 16.7212C34.5653 20.7551 29.9359 28.8805 26.0173 29.111L25.7292 33.1449L20.5427 37.1788L21.4071 30.5517L19.6783 30.8399C19.5823 31.224 19.3325 31.9924 19.102 31.9924C18.8715 31.9924 18.2376 31.8003 17.9495 31.7043L17.3732 32.5687C16.893 34.0093 15.8173 36.8331 15.3563 36.6026C14.8953 36.3721 14.3958 35.9303 14.2037 35.7382L14.2037 37.467L12.7631 35.7382L10.458 39.4839Z" fill="#CB9DEF"/>
<path d="M38.8897 9.549C38.8552 9.47589 38.7834 9.42147 38.6808 9.44198C33.5537 10.4591 28.675 12.4951 24.3838 15.4879C22.4186 16.8583 20.346 18.4176 18.8906 20.3427C18.7241 20.5627 18.5624 20.7929 18.4056 21.0315C18.376 21.0039 18.3365 20.985 18.2809 20.9877C17.3129 21.0352 16.2562 20.983 15.2977 21.1349C14.5398 21.2549 14.2373 21.7061 13.7092 22.2724C12.3385 23.742 11.0152 25.2533 9.72739 26.7959C9.6103 26.9362 9.78407 27.1219 9.93493 27.0966C12.064 26.7394 14.175 26.3031 16.2717 25.7905C16.1899 26.086 16.1169 26.3791 16.0556 26.6675C16.04 26.7409 16.0645 26.8004 16.105 26.8449C16.0907 26.8523 16.076 26.8566 16.0622 26.8681C15.7999 27.0875 15.41 26.9415 15.1255 27.2066C14.8764 27.4384 14.7705 27.8195 14.7895 28.1482C14.8062 28.4343 14.9128 28.7166 15.0714 28.991C13.6652 29.0434 12.3596 29.3975 11.1086 30.0809C10.9566 30.1638 10.9746 30.3889 11.1383 30.4461C11.5918 30.6047 12.0468 30.7322 12.5108 30.8358C10.5193 32.0024 9.09481 33.8161 8.42928 36.0555C8.368 36.2619 8.59796 36.3694 8.75218 36.2622C9.37202 35.8307 9.9917 35.399 10.6113 34.9676C10.5018 36.4067 10.673 37.7919 11.1408 39.1751C11.1909 39.3236 11.4077 39.4079 11.502 39.2414C12.1981 38.0103 12.8942 36.7796 13.5903 35.5486C13.8965 36.1944 14.2341 36.8148 14.616 37.4235C14.6988 37.5555 14.9368 37.5751 14.9809 37.3939C15.114 36.8473 15.2856 36.3301 15.4991 35.8183C15.8292 36.3592 16.1378 36.8482 16.7124 36.2645C17.6685 35.2932 18.0067 33.4288 18.1135 32.1197C18.4231 32.2847 18.762 32.3641 19.1314 32.2745C19.8176 32.1079 20.0787 31.5249 19.9023 30.9256C19.9265 30.932 19.9508 30.938 19.9802 30.9337C20.425 30.8654 20.865 30.7775 21.3028 30.6799C21.1017 31.2528 21.12 32.0826 21.0429 32.5091C20.7475 34.1448 20.452 35.7804 20.1566 37.416C20.1308 37.5585 20.3262 37.6809 20.4449 37.6033C22.2282 36.4391 24.0451 35.1897 25.5876 33.7146C25.9875 33.3322 26.0859 33.2092 26.1537 32.7025C26.3091 31.5425 26.1899 30.2623 26.2071 29.0942C26.2082 29.0214 26.1753 28.97 26.1298 28.9363C28.4328 27.7548 30.5097 26.1369 32.2109 24.1492C35.6463 20.1351 37.1888 14.6445 39.0573 9.79646C39.11 9.65694 39.005 9.56105 38.8897 9.549ZM10.3967 26.6116C11.3967 25.4239 12.4184 24.2552 13.4699 23.1123C14.1823 22.3377 14.6874 21.7014 15.7946 21.5042C16.5582 21.3681 17.4008 21.418 18.18 21.3859C17.4339 22.5974 16.818 23.99 16.3998 25.3524C14.4128 25.8433 12.4123 26.2607 10.3967 26.6116ZM17.7238 32.0254C17.6639 32.8077 17.5281 33.5793 17.2583 34.3183C16.9778 35.0872 16.4217 36.4566 15.6427 35.3053C15.5418 35.1563 15.3526 35.1721 15.2776 35.335C15.0509 35.8276 14.8689 36.3205 14.7212 36.8333C14.3747 36.2481 14.063 35.6515 13.7823 35.027C13.7221 34.8933 13.5114 34.8827 13.4388 35.0108C12.7552 36.2199 12.0713 37.4292 11.3873 38.6383C11.0017 37.3103 10.8851 35.9667 11.0422 34.5761C11.0641 34.383 10.8379 34.3302 10.7102 34.419C10.1386 34.8171 9.56712 35.2148 8.99556 35.6128C9.75188 33.5596 11.1851 31.9399 13.1655 30.9257C13.3558 30.8281 13.2675 30.5841 13.0861 30.5515C12.614 30.4668 12.1625 30.3559 11.7126 30.2172C12.8591 29.6635 14.0372 29.3894 15.3308 29.3782C15.8055 30.0048 16.48 30.5745 16.8886 31.027C17.143 31.309 17.4411 31.6451 17.781 31.9034C17.7507 31.933 17.7278 31.9717 17.7238 32.0254ZM19.494 30.9482C19.1495 32.0626 18.5775 32.2117 17.7782 31.3956C17.6219 31.2452 17.4725 31.0881 17.3295 30.9247C16.976 30.5441 16.6347 30.1513 16.2895 29.763C15.5948 28.9819 15.0459 28.6929 16.0238 27.3466C16.019 27.353 16.0912 27.3068 16.1673 27.258C17.5009 28.2245 18.4654 29.6348 19.4856 30.907C19.4886 30.9207 19.4881 30.934 19.494 30.9482ZM25.7727 31.6485C25.7559 32.7873 25.596 33.1958 24.739 33.925C23.4332 35.0358 22.0567 36.0533 20.6305 37.0027C20.8112 36.0026 20.9919 35.0024 21.1724 34.0021C21.2611 33.5113 21.3497 33.0205 21.4384 32.5301C21.4922 32.2325 21.5714 30.9074 21.8166 30.5609C23.1987 30.2143 24.5377 29.722 25.8105 29.0971C25.7978 29.9474 25.7852 30.798 25.7727 31.6485ZM32.0597 23.7118C29.4195 26.8713 25.8352 29.1038 21.8789 30.1324C21.8308 30.108 21.773 30.1022 21.71 30.1339C21.6709 30.1536 21.6348 30.1777 21.6006 30.2053C21.0398 30.3425 20.4726 30.4566 19.899 30.5446C19.8351 30.5543 19.7929 30.5865 19.7691 30.6284C18.7232 29.3233 17.7403 27.9052 16.3712 26.9163C16.3657 26.9121 16.36 26.9108 16.3544 26.9088C16.3531 26.9071 16.3524 26.9053 16.3512 26.9037C16.3893 26.883 16.4202 26.8469 16.4327 26.7886C16.8855 24.6657 17.9087 22.2897 19.2248 20.5554C20.7831 18.5019 23.0684 16.8334 25.1892 15.4144C26.9618 14.2284 28.8295 13.2055 30.7692 12.3487C30.7755 13.606 31.3772 14.7356 32.4006 15.504C33.2261 16.124 34.9251 16.8713 36.054 16.664C35.0103 19.2049 33.7803 21.6526 32.0597 23.7118ZM36.2643 16.1498C36.2358 16.144 36.2072 16.141 36.1815 16.1454C36.1617 16.1486 36.1415 16.1518 36.1217 16.1551C36.0037 16.1741 35.9613 16.269 35.9723 16.3605C35.7832 16.242 35.5724 16.1854 35.3376 16.1986C34.9736 16.1517 34.616 16.0767 34.2646 15.9739C33.7985 15.8336 33.3359 15.6519 32.9273 15.3845C31.8103 14.6533 31.1156 13.5229 31.1698 12.1774C33.5578 11.1555 36.0506 10.3804 38.608 9.86227C37.8288 11.9001 37.1032 14.0501 36.2643 16.1498Z" fill="black" stroke="black" stroke-width="0.576271"/>
<path d="M21.2083 23.7895C20.5146 23.3379 19.5764 23.5938 19.1083 24.237C19.1047 24.2418 19.1048 24.2467 19.1017 24.2514C19.0984 24.2562 19.0942 24.2581 19.0913 24.2634C18.7046 24.9613 18.8709 25.9143 19.5712 26.3562C20.2457 26.7819 21.2378 26.5592 21.6665 25.8869C22.0967 25.2126 21.8767 24.2245 21.2083 23.7895ZM21.3322 25.674C21.02 26.1663 20.2773 26.3317 19.7845 26.0223C19.2733 25.7016 19.1427 24.9871 19.4251 24.477C19.4281 24.4718 19.4276 24.4668 19.4302 24.4615C19.4338 24.457 19.4385 24.4554 19.4422 24.4506C19.7855 23.9794 20.488 23.7959 20.9946 24.1241C21.4847 24.4412 21.6444 25.1817 21.3322 25.674Z" fill="black" stroke="black" stroke-width="0.3"/>
<path d="M23.4517 20.6251C23.4289 20.6526 23.4179 20.6804 23.4131 20.7074C22.9884 21.1483 22.9668 21.8728 23.3957 22.3593C23.916 22.9489 24.8168 22.9986 25.3722 22.436C26.618 21.1747 24.5939 19.2368 23.4517 20.6251ZM25.1227 22.1202C24.2355 23.1212 22.7472 21.4796 23.8612 20.8516C23.9356 20.8097 23.9618 20.7419 23.9595 20.6751C24.7342 20.1012 25.8471 21.3031 25.1227 22.1202Z" fill="black" stroke="black" stroke-width="0.3"/>
<path d="M29.7608 16.5896C29.1578 15.8616 28.0695 15.926 27.4206 16.5452C27.3391 16.6231 27.3484 16.7223 27.3977 16.7951C27.2762 16.9028 27.2018 17.087 27.1699 17.2532C27.0961 17.6385 27.185 18.0515 27.398 18.3797C27.8735 19.1136 28.8828 19.2377 29.564 18.7104C30.2147 18.2068 30.2786 17.2147 29.7608 16.5896ZM29.6053 18.048C29.3594 18.534 28.7316 18.7743 28.2194 18.5755C27.9477 18.47 27.7413 18.2384 27.6293 17.9739C27.5857 17.8708 27.5106 17.0616 27.6341 17.1043C27.8592 17.1822 27.9757 16.862 27.7955 16.7506C28.2258 16.4134 28.8356 16.3296 29.2946 16.683C29.6922 16.989 29.8315 17.6012 29.6053 18.048Z" fill="black" stroke="black" stroke-width="0.3"/>
</svg>
