<svg width="48" height="48" viewBox="0 0 48 48" fill="none" xmlns="http://www.w3.org/2000/svg">
<rect width="48" height="48" rx="8" fill="#592472"/>
<path d="M22.7955 7.5787C23.0601 7.78934 23.2222 8.04675 23.3282 8.36464C23.3808 8.36468 23.4335 8.36471 23.4878 8.36475C24.7778 8.3658 26.0677 8.36876 27.3577 8.37379C27.9815 8.37618 28.6054 8.37795 29.2292 8.37819C29.7739 8.3784 30.3185 8.37985 30.8631 8.38269C31.1507 8.38415 31.4382 8.38505 31.7258 8.38446C34.6796 8.37947 37.3128 8.99052 39.6098 10.9281C39.6538 10.9636 39.6977 10.999 39.743 11.0356C40.0581 11.2942 40.3196 11.585 40.5798 11.8981C40.6233 11.9486 40.6668 11.999 40.7116 12.051C42.3378 13.9928 43.0701 16.4957 42.8506 19.0045C42.8387 19.1087 42.8263 19.2128 42.8134 19.3169C42.6746 20.4372 43.0822 21.3722 43.5411 22.3637C44.3554 24.1301 44.3554 24.1301 44.1073 25.0528C43.9324 25.4608 43.589 25.8065 43.1847 25.9898C42.7657 26.088 42.3233 26.0506 41.8962 26.032C41.8976 26.093 41.8991 26.1541 41.9006 26.217C41.9054 26.4473 41.9088 26.6775 41.9114 26.9077C41.9128 27.0067 41.9147 27.1057 41.9171 27.2046C41.9364 28.0122 41.8519 28.7257 41.3265 29.3768C40.9013 29.7889 40.4274 29.9212 39.8512 29.9186C39.7646 29.9184 39.678 29.9182 39.5887 29.9179C39.4985 29.9174 39.4083 29.9168 39.3154 29.9162C39.1785 29.9157 39.1785 29.9157 39.0388 29.9152C38.8134 29.9144 38.5881 29.9133 38.3627 29.9119C38.3615 30.0313 38.3607 30.1507 38.36 30.2702C38.3595 30.3367 38.359 30.4032 38.3585 30.4717C38.3625 30.6636 38.3803 30.8477 38.406 31.0377C38.4482 31.4233 38.3847 31.7065 38.1765 32.038C37.8475 32.3671 37.4834 32.5298 37.017 32.553C36.9295 32.5527 36.9295 32.5527 36.8403 32.5525C36.7737 32.5525 36.7072 32.5525 36.6386 32.5525C36.5676 32.5521 36.4967 32.5518 36.4236 32.5514C36.3503 32.5513 36.2769 32.5512 36.2014 32.5511C35.9677 32.5507 35.7341 32.5498 35.5004 32.549C35.3418 32.5486 35.1832 32.5483 35.0245 32.548C34.6361 32.5473 34.2477 32.5461 33.8593 32.5446C33.8614 32.6001 33.8635 32.6555 33.8656 32.7126C33.9182 34.1172 33.9439 35.5053 33.8593 36.9095C33.9479 36.9063 34.0365 36.9031 34.1278 36.8998C34.2461 36.8972 34.3645 36.8946 34.4828 36.8922C34.541 36.8899 34.5991 36.8875 34.659 36.8851C35.0753 36.8787 35.386 36.9439 35.7299 37.1866C35.8726 37.3404 35.8726 37.3404 35.9681 37.4984C36.0173 37.5767 36.0173 37.5767 36.0674 37.6565C36.2989 38.1113 36.2847 38.6911 36.17 39.1791C35.8706 39.9955 35.2925 40.5409 34.5218 40.9106C33.5254 41.3382 32.4437 41.2854 31.3797 41.2886C31.2408 41.2893 31.1018 41.29 30.9629 41.2907C30.5846 41.2925 30.2063 41.294 29.828 41.2954C29.4245 41.2969 29.021 41.2988 28.6176 41.3007C27.66 41.305 26.7025 41.3087 25.7449 41.3123C25.298 41.314 24.8512 41.3158 24.4043 41.3176C22.4545 41.3253 20.5047 41.3323 18.5549 41.3388C17.5772 41.342 16.5995 41.3455 15.6217 41.3492C14.5085 41.3535 13.3953 41.3571 12.2821 41.3591C12.1785 41.3593 12.0748 41.3595 11.9711 41.3597C11.8953 41.3598 11.8953 41.3598 11.8179 41.36C11.4663 41.3606 11.1147 41.3619 10.7631 41.3633C10.2995 41.3652 9.83596 41.3661 9.3724 41.3661C9.20793 41.3663 9.04347 41.3668 8.879 41.3677C7.37333 41.3758 5.97259 41.2786 4.83402 40.1745C4.22742 39.5275 4.03138 38.8643 4.04782 37.9937C4.07971 37.5799 4.21223 37.3957 4.496 37.0957C4.68225 36.984 4.80569 36.9455 5.01481 36.9022C5.09898 36.8845 5.09898 36.8845 5.18486 36.8664C5.22761 36.8578 5.27036 36.8491 5.31441 36.8402C5.36209 35.6154 5.40194 34.3906 5.43349 33.1652C5.43788 32.997 5.44228 32.8288 5.44668 32.6605C5.45583 32.3096 5.4649 31.9587 5.47392 31.6078C5.48293 31.2573 5.49207 30.9068 5.50132 30.5563C5.57737 27.6755 5.63576 24.7947 5.67801 21.9132C5.67878 21.8613 5.67954 21.8094 5.68033 21.756C5.68179 21.6517 5.68313 21.5474 5.68437 21.4431C5.69856 20.2708 5.69856 20.2708 6.10747 19.826C7.11429 18.9421 9.20046 19.3035 10.4414 19.3071C11.1273 19.3086 11.8132 19.31 12.5199 19.3115C12.5199 17.871 12.5199 16.4306 12.5199 14.9466C12.4056 14.9009 12.2913 14.8551 12.1735 14.808C12.0536 14.6854 12.0536 14.6854 11.9527 14.5439C11.9019 14.4746 11.9019 14.4746 11.8501 14.404C11.5974 13.9927 11.5673 13.6188 11.6192 13.1452C11.7274 12.7452 11.9545 12.4925 12.2934 12.2624C12.7118 12.0305 13.1403 11.9125 13.6171 11.9934C14.0196 12.1096 14.3 12.3097 14.5248 12.6646C14.7299 13.0818 14.7965 13.5447 14.7037 14.0021C14.4804 14.6558 14.1977 14.7659 13.5592 15.0852C13.5363 16.4798 13.5134 17.8745 13.4899 19.3115C14.6788 19.3115 15.8677 19.3115 17.0926 19.3115C17.0698 18.7856 17.0469 18.2597 17.0233 17.7179C17.2633 17.3465 17.3863 17.183 17.7119 16.9255C17.8115 16.8371 17.8115 16.8371 17.9131 16.747C18.0753 16.6042 18.2398 16.4667 18.409 16.3323C18.3894 16.286 18.3698 16.2397 18.3496 16.192C18.3242 16.1306 18.2988 16.0691 18.2726 16.0059C18.2473 15.9453 18.222 15.8847 18.1959 15.8223C18.0617 15.4389 18.0775 15.0968 18.2401 14.7257C18.4832 14.2947 18.8598 14.0288 19.3097 13.838C19.7137 13.7866 20.1814 13.7545 20.5568 13.9376C20.9083 14.2379 21.2188 14.6386 21.2662 15.1117C21.2803 15.6328 21.2182 16.061 20.8583 16.4584C20.5808 16.7093 20.3221 16.8955 19.9341 16.8762C19.8581 16.8711 19.7821 16.8659 19.7038 16.8605C19.2008 16.8925 18.9251 17.0931 18.5606 17.4321C18.5121 17.4736 18.4636 17.5151 18.4137 17.5579C18.0542 17.9225 18.0268 18.2565 18.0145 18.7456C18.011 18.8373 18.011 18.8373 18.0074 18.9308C18.0018 19.0808 17.9975 19.2307 17.9933 19.3807C18.0705 19.3806 18.0705 19.3806 18.1492 19.3805C19.4029 19.379 20.6567 19.3779 21.9105 19.3772C22.5168 19.3768 23.1231 19.3763 23.7295 19.3755C24.2582 19.3748 24.7869 19.3744 25.3156 19.3742C25.5954 19.3741 25.8751 19.3739 26.1548 19.3734C26.4186 19.3729 26.6824 19.3728 26.9462 19.3729C27.0426 19.3729 27.1389 19.3727 27.2352 19.3725C27.7854 19.371 28.3236 19.3912 28.8709 19.45C28.8709 19.1757 28.8709 18.9013 28.8709 18.6186C28.7951 18.6229 28.7194 18.6272 28.6414 18.6316C28.3859 18.6186 28.3859 18.6186 28.2516 18.545C28.1341 18.3308 28.1482 18.1645 28.178 17.9258C28.2863 17.7915 28.2863 17.7915 28.4552 17.7179C28.6152 17.7179 28.7752 17.7179 28.9401 17.7179C28.9401 17.0778 28.9401 16.4376 28.9401 15.778C28.7115 15.778 28.4829 15.778 28.2473 15.778C28.0085 15.5392 28.0085 15.5392 28.0048 15.293C28.0138 15.0717 28.0184 15.0356 28.1867 14.8773C28.4046 14.8015 28.5725 14.792 28.8016 14.808C28.8018 14.7451 28.8018 14.7451 28.8021 14.6808C28.8252 14.18 28.9624 13.8087 29.2866 13.4223C29.7607 13.0375 30.3794 13.0557 30.958 13.1062C31.0707 13.1186 31.1833 13.1313 31.2958 13.1452C31.2922 13.0675 31.2922 13.0675 31.2885 12.9882C31.2866 12.92 31.2847 12.8518 31.2828 12.7815C31.2804 12.714 31.278 12.6464 31.2755 12.5769C31.2989 12.3533 31.3436 12.262 31.5036 12.106C31.807 12.0735 31.9398 12.0734 32.1965 12.2445C32.2658 12.4524 32.2658 12.4524 32.2658 13.1452C32.9059 13.1452 33.5461 13.1452 34.2057 13.1452C34.2057 12.8937 34.2057 12.6422 34.2057 12.3831C34.3183 12.1622 34.3183 12.1622 34.4828 12.0367C34.7272 11.9909 34.846 12.0076 35.0631 12.1276C35.2432 12.4254 35.1967 12.7365 35.1757 13.0759C35.2362 13.0723 35.2362 13.0723 35.298 13.0686C35.8608 13.05 36.4246 13.1152 36.9121 13.4137C37.2891 13.8272 37.3345 14.1785 37.3278 14.7214C37.3275 14.7697 37.3272 14.818 37.3268 14.8678C37.326 14.9865 37.3248 15.1051 37.3235 15.2237C37.3645 15.2205 37.4055 15.2173 37.4477 15.214C37.7309 15.201 37.9043 15.2011 38.1592 15.3363C38.2934 15.5009 38.2934 15.5009 38.3324 15.7087C38.2934 15.9166 38.2934 15.9166 38.1982 16.0811C38.0163 16.1937 38.0163 16.1937 37.3235 16.1937C37.3235 16.7196 37.3235 17.2454 37.3235 17.7872C37.5521 17.7872 37.7807 17.7872 38.0163 17.7872C38.1982 17.8955 38.1982 17.8955 38.2934 18.0644C38.3281 18.3112 38.3281 18.3112 38.2934 18.5493C38.142 18.7008 38.0517 18.7532 37.8377 18.7775C37.7766 18.7751 37.7155 18.7727 37.6526 18.7702C37.5599 18.7674 37.5599 18.7674 37.4653 18.7645C37.4185 18.7621 37.3717 18.7597 37.3235 18.7572C37.3271 18.8439 37.3271 18.8439 37.3308 18.9323C37.3452 19.531 37.3479 20.0276 36.9294 20.4849C36.4824 20.7633 36.0341 20.7866 35.5221 20.7751C35.4684 20.7744 35.4147 20.7738 35.3594 20.7732C35.2289 20.7716 35.0983 20.7691 34.9678 20.7664C34.9701 20.8549 34.9723 20.9434 34.9746 21.0346C34.9814 21.3028 34.9814 21.3028 34.8596 21.4636C34.6179 21.5565 34.4534 21.5235 34.2057 21.4593C34.0374 21.2068 34.0559 21.0635 34.0671 20.7664C33.9299 20.7664 33.7928 20.7664 33.6514 20.7664C33.6553 20.8555 33.6591 20.9446 33.663 21.0364C33.8123 24.5479 33.8786 28.06 33.8593 31.5747C34.3291 31.5683 34.7989 31.5608 35.2687 31.5527C35.4286 31.55 35.5885 31.5476 35.7484 31.5454C35.978 31.5423 36.2075 31.5383 36.4371 31.5341C36.5446 31.5329 36.5446 31.5329 36.6543 31.5316C36.7542 31.5296 36.7542 31.5296 36.856 31.5275C36.9439 31.5261 36.9439 31.5261 37.0336 31.5247C37.205 31.5142 37.2051 31.5142 37.3927 31.3668C37.3813 31.2796 37.3699 31.1925 37.3581 31.1027C37.2303 29.8874 37.2303 29.8874 37.6006 29.3576C37.9678 29.0002 38.2773 28.8624 38.7871 28.8639C38.8473 28.8638 38.9075 28.8636 38.9695 28.8634C39.1248 28.8726 39.1248 28.8726 39.2634 28.9419C39.7105 28.9767 40.1336 29.0073 40.5105 28.734C40.8073 28.429 40.9337 28.1115 40.9375 27.6874C40.9357 27.58 40.9331 27.4726 40.93 27.3651C40.9283 27.2478 40.9265 27.1304 40.9249 27.013C40.9214 26.8294 40.9175 26.6457 40.9129 26.4621C40.9087 26.2839 40.9063 26.1057 40.904 25.9275C40.9012 25.8452 40.9012 25.8452 40.8984 25.7613C40.8961 25.5175 40.906 25.3687 41.0455 25.165C41.2293 25.0451 41.3169 25.0316 41.5341 25.0422C41.5969 25.0441 41.6598 25.0459 41.7246 25.0478C41.7898 25.0511 41.855 25.0543 41.9222 25.0577C42.5274 25.0938 42.5274 25.0938 43.074 24.8541C43.2205 24.5611 43.1719 24.2651 43.0878 23.9602C42.8876 23.3815 42.6417 22.822 42.3982 22.2606C42.0549 21.4676 41.8139 20.8069 41.8182 19.9393C41.8184 19.8744 41.8185 19.8095 41.8186 19.7426C41.8209 19.3778 41.8328 19.0169 41.8615 18.6533C42.0379 16.4075 41.2266 14.2214 39.7784 12.5046C38.2593 10.7855 36.2006 9.76351 33.9286 9.47318C33.7751 9.46737 33.6214 9.46472 33.4678 9.46485C33.3779 9.46475 33.2881 9.46465 33.1955 9.46456C33.0971 9.4648 32.9988 9.46505 32.9004 9.46531C32.7959 9.46533 32.6914 9.46532 32.5869 9.46528C32.3042 9.46526 32.0215 9.46567 31.7389 9.46615C31.4431 9.46659 31.1473 9.46663 30.8515 9.46671C30.2918 9.46692 29.7321 9.46749 29.1724 9.46819C28.535 9.46896 27.8977 9.46934 27.2603 9.46969C25.9496 9.47041 24.6389 9.47163 23.3282 9.47318C23.2853 9.5504 23.2425 9.62762 23.1984 9.70718C23.0816 9.91792 22.9698 10.0523 22.7696 10.192C22.723 10.2254 22.6765 10.2588 22.6286 10.2932C22.2395 10.5313 21.7568 10.4931 21.3189 10.4431C20.9082 10.2764 20.6201 10.0073 20.4182 9.61174C20.2516 9.16167 20.1894 8.73623 20.3836 8.29102C20.5962 7.90874 20.9168 7.63482 21.3016 7.43364C21.8157 7.34466 22.3318 7.30818 22.7955 7.5787Z" fill="#020202"/>
<path d="M7.8618 20.266C7.91323 20.266 7.96466 20.266 8.01765 20.266C8.18597 20.2661 8.35427 20.2671 8.52258 20.2682C8.63995 20.2685 8.75731 20.2687 8.87467 20.2688C9.18232 20.2693 9.48995 20.2707 9.7976 20.2722C10.112 20.2737 10.4265 20.2743 10.7409 20.275C11.3569 20.2765 11.9729 20.2789 12.5889 20.2818C12.5889 20.8762 12.5889 21.4707 12.5889 22.0831C12.3261 22.0858 12.3261 22.0858 12.0579 22.0885C11.8873 22.0912 11.7167 22.0943 11.5461 22.0975C11.428 22.0995 11.3099 22.1009 11.1917 22.1019C11.0214 22.1034 10.8512 22.1066 10.6809 22.1102C10.6285 22.1103 10.5761 22.1104 10.5221 22.1105C10.1676 22.1202 9.9543 22.1876 9.67903 22.4296C9.40048 22.8304 9.43514 23.2664 9.4285 23.736C9.42644 23.8259 9.42438 23.9158 9.42226 24.0084C9.41665 24.2547 9.41228 24.501 9.40813 24.7473C9.40355 25.0075 9.39787 25.2676 9.39232 25.5277C9.38312 25.9663 9.37465 26.405 9.36669 26.8436C9.35561 27.4543 9.34316 28.065 9.33044 28.6756C9.32156 29.1054 9.31303 29.5351 9.30455 29.9648C9.30253 30.0671 9.30049 30.1694 9.29845 30.2716C9.28426 30.9832 9.27209 31.6947 9.26332 32.4064C9.26238 32.4805 9.26238 32.4805 9.26141 32.556C9.25767 32.8569 9.25484 33.1577 9.25319 33.4586C9.2523 33.5979 9.25076 33.7372 9.2492 33.8765C9.24895 33.9605 9.2487 34.0444 9.24845 34.1309C9.24773 34.2413 9.24773 34.2413 9.24699 34.354C9.26415 34.5643 9.30667 34.7129 9.40189 34.9006C9.69794 35.0861 10.033 35.0604 10.3714 35.0613C10.4346 35.062 10.4979 35.0627 10.5631 35.0634C10.7768 35.0655 10.9906 35.0667 11.2043 35.0679C11.3598 35.0692 11.5153 35.0706 11.6708 35.072C12.1 35.0757 12.5292 35.0784 12.9585 35.0809C13.2296 35.0825 13.5008 35.0843 13.7719 35.0862C15.1652 35.0958 16.5584 35.1023 17.9517 35.1078C18.1357 35.1085 18.3196 35.1092 18.5035 35.11C20.298 35.1171 22.0925 35.122 23.8869 35.1247C24.3521 35.1254 24.8173 35.1267 25.2824 35.1281C25.8543 35.1299 26.4261 35.1309 26.9979 35.1309C27.2931 35.1309 27.5883 35.1313 27.8835 35.1325C28.1559 35.1337 28.4284 35.1338 28.7008 35.1332C28.7999 35.1332 28.8989 35.1335 28.9979 35.1342C29.1328 35.1351 29.2676 35.1345 29.4025 35.1339C29.5151 35.1341 29.5151 35.1341 29.63 35.1342C29.9526 35.0947 30.1804 34.9744 30.4122 34.7491C30.6791 34.3201 30.6917 33.861 30.6835 33.3707C30.6831 33.3101 30.6827 33.2496 30.6822 33.1873C30.6806 32.9874 30.6779 32.7876 30.6752 32.5877C30.6738 32.4455 30.6723 32.3032 30.671 32.161C30.6679 31.8613 30.6644 31.5616 30.6604 31.2619C30.6556 30.8882 30.6518 30.5145 30.6483 30.1408C30.6298 28.1765 30.5773 26.2151 30.4727 24.2533C30.467 24.1471 30.4615 24.0408 30.4562 23.9345C30.4488 23.7899 30.4407 23.6453 30.4324 23.5007C30.428 23.4205 30.4235 23.3404 30.4189 23.2578C30.3721 22.8596 30.2063 22.6588 29.9272 22.3733C29.3667 21.996 28.7096 22.0642 28.0608 22.0674C27.9509 22.0674 27.8409 22.0674 27.7309 22.0673C27.4336 22.0673 27.1364 22.0681 26.8391 22.0691C26.5279 22.07 26.2168 22.07 25.9056 22.0702C25.317 22.0706 24.7284 22.0718 24.1397 22.0732C23.4693 22.0747 22.799 22.0755 22.1286 22.0762C20.7501 22.0776 19.3716 22.0801 17.9931 22.0831C17.9931 21.4887 17.9931 20.8942 17.9931 20.2818C19.3929 20.2776 20.7927 20.2771 22.1926 20.2804C22.5239 20.2812 22.8553 20.2819 23.1866 20.2824C23.9793 20.2835 24.772 20.2859 25.5647 20.291C25.9209 20.2933 26.2769 20.295 26.6331 20.2953C26.9719 20.2956 27.3107 20.2975 27.6496 20.3007C27.7747 20.3016 27.8998 20.3019 28.0249 20.3016C28.6775 20.3003 29.2144 20.3166 29.8101 20.6186C30.0751 20.7422 30.3315 20.7514 30.62 20.7538C30.6724 20.7555 30.7249 20.7572 30.7789 20.759C30.9049 20.763 31.0309 20.7651 31.157 20.7667C31.1596 20.8152 31.1621 20.8636 31.1648 20.9134C31.1694 20.9765 31.1739 21.0395 31.1786 21.1045C31.1826 21.1672 31.1866 21.2299 31.1908 21.2945C31.2116 21.4847 31.2116 21.4847 31.4341 21.5981C31.6841 21.5872 31.6841 21.5872 31.9191 21.5289C32.0034 21.3602 32.0105 21.2227 32.0273 21.0352C32.0331 20.9722 32.0389 20.9091 32.0449 20.8441C32.0491 20.7957 32.0533 20.7473 32.0576 20.6975C32.2634 20.6975 32.4692 20.6975 32.6812 20.6975C32.7405 21.3172 32.7685 21.9353 32.7851 22.5576C32.7879 22.6569 32.7908 22.7562 32.7936 22.8555C32.8027 23.1768 32.8112 23.4982 32.8198 23.8196C32.8228 23.9322 32.8258 24.0449 32.8288 24.1576C32.8486 24.8934 32.8673 25.6293 32.8853 26.3651C32.8888 26.5077 32.8923 26.6502 32.8959 26.7928C32.9789 30.1878 32.9657 33.5833 32.9583 36.9791C32.9144 36.9796 32.8704 36.9802 32.8251 36.9807C31.7553 36.9935 30.6856 37.0074 29.6158 37.0226C29.0985 37.0299 28.5812 37.0368 28.0638 37.0428C27.6129 37.0481 27.162 37.054 26.7111 37.0609C26.4723 37.0644 26.2336 37.0677 25.9948 37.07C25.7283 37.0727 25.4617 37.077 25.1951 37.0814C25.116 37.0819 25.037 37.0825 24.9555 37.083C24.8827 37.0845 24.8099 37.0859 24.735 37.0874C24.6404 37.0887 24.6404 37.0887 24.544 37.0899C24.3295 37.1236 24.1971 37.201 24.0207 37.3255C23.8718 37.5394 23.8572 37.7446 23.8389 38.0011C23.8311 38.1034 23.8311 38.1034 23.8232 38.2078C23.8198 38.2596 23.8164 38.3114 23.8129 38.3648C23.6052 38.3992 23.3974 38.4321 23.1893 38.4644C23.1339 38.4737 23.0784 38.4831 23.0213 38.4927C21.7444 38.6866 20.4236 38.6549 19.1353 38.6548C18.9083 38.6549 18.6813 38.6562 18.4542 38.6575C17.0484 38.6611 17.0484 38.6611 16.3995 38.5034C16.3964 38.4491 16.3932 38.3949 16.39 38.339C16.358 37.8012 16.358 37.8012 16.1224 37.3255C15.775 37.1065 15.439 37.0405 15.0334 37.0379C14.9696 37.0373 14.9058 37.0368 14.8401 37.0362C14.771 37.0359 14.7019 37.0356 14.6306 37.0353C14.5571 37.0347 14.4836 37.0341 14.4079 37.0335C14.2482 37.0323 14.0886 37.0313 13.9289 37.0304C13.675 37.0289 13.4211 37.027 13.1672 37.0251C12.6266 37.0209 12.086 37.0173 11.5454 37.0138C10.922 37.0096 10.2987 37.0053 9.67537 37.0005C9.42749 36.9987 9.17961 36.9972 8.93172 36.9958C8.0243 36.9895 7.12068 36.9647 6.21484 36.9098C6.21829 36.8211 6.21829 36.8211 6.2218 36.7305C6.3281 33.9833 6.42958 31.236 6.50064 28.4875C6.50207 28.4329 6.5035 28.3782 6.50497 28.3218C6.53775 27.0663 6.56356 25.811 6.57597 24.5551C6.57775 24.3756 6.57963 24.1961 6.58154 24.0166C6.58687 23.5048 6.59176 22.993 6.59391 22.4811C6.59495 22.2747 6.5968 22.0683 6.59883 21.8619C6.59958 21.7665 6.59996 21.671 6.59995 21.5756C6.59997 21.4453 6.60134 21.3149 6.60279 21.1846C6.60314 21.1118 6.60349 21.039 6.60385 20.964C6.6361 20.7257 6.68205 20.6041 6.8384 20.4203C7.17692 20.2831 7.50087 20.2622 7.8618 20.266Z" fill="#CB9DEF"/>
<path d="M10.3728 22.9836C11.0816 22.9836 11.7904 22.9836 12.5206 22.9836C12.5245 23.3389 12.5245 23.3389 12.5285 23.7013C12.5317 23.9306 12.5352 24.1599 12.5388 24.3892C12.5411 24.5486 12.5431 24.708 12.5446 24.8674C12.547 25.0965 12.5506 25.3256 12.5545 25.5547C12.5549 25.626 12.5553 25.6973 12.5558 25.7708C12.5579 25.8706 12.5579 25.8706 12.56 25.9725C12.5611 26.0602 12.5611 26.0602 12.5623 26.1496C12.5966 26.3476 12.6574 26.4436 12.7978 26.5863C13.0432 26.6268 13.0432 26.6268 13.2828 26.5863C13.4312 26.3637 13.4394 26.3002 13.4434 26.0432C13.4448 25.9743 13.4462 25.9054 13.4476 25.8345C13.4484 25.7622 13.4492 25.69 13.45 25.6156C13.4512 25.549 13.4525 25.4825 13.4537 25.4139C13.4581 25.1653 13.4613 24.9167 13.4646 24.668C13.4732 24.1122 13.4818 23.5563 13.4906 22.9836C14.6795 22.9836 15.8684 22.9836 17.0934 22.9836C17.1193 23.9406 17.1193 23.9406 17.1265 24.2417C17.1302 24.3591 17.1302 24.3591 17.1339 24.4789C17.1361 24.5591 17.1383 24.6392 17.1405 24.7218C17.1484 24.9368 17.1484 24.9368 17.3012 25.1314C17.5437 25.1602 17.5437 25.1602 17.7862 25.1314C17.9796 24.938 17.9464 24.8105 17.9534 24.5398C17.9561 24.4496 17.9588 24.3594 17.9616 24.2664C17.9637 24.1708 17.9659 24.0752 17.9681 23.9795C17.9707 23.8834 17.9734 23.7872 17.9762 23.691C17.9827 23.4552 17.9887 23.2194 17.994 22.9836C19.4527 22.9787 20.9113 22.9751 22.3699 22.9728C23.0472 22.9717 23.7244 22.9703 24.4017 22.9679C24.9919 22.9658 25.5821 22.9645 26.1723 22.964C26.4849 22.9638 26.7975 22.9631 27.1101 22.9616C27.4042 22.9602 27.6983 22.9598 27.9924 22.9601C28.1004 22.96 28.2085 22.9596 28.3165 22.9588C28.4639 22.9578 28.6112 22.958 28.7586 22.9586C28.8823 22.9583 28.8823 22.9583 29.0086 22.958C29.2375 22.986 29.3326 23.0308 29.4951 23.1914C29.5953 23.4913 29.5854 23.819 29.5995 24.1332C29.6023 24.1929 29.6052 24.2526 29.6081 24.3141C29.6173 24.5133 29.626 24.7126 29.6345 24.9119C29.6375 24.9814 29.6405 25.051 29.6437 25.1226C29.7144 26.7784 29.7392 28.4345 29.7545 30.0916C29.7583 30.5092 29.7637 30.9268 29.7694 31.3444C29.7736 31.67 29.7769 31.9957 29.7799 32.3213C29.7815 32.4756 29.7834 32.63 29.7856 32.7843C29.7887 32.9968 29.7903 33.2093 29.7917 33.4218C29.7929 33.4847 29.7941 33.5476 29.7953 33.6124C29.7954 33.6699 29.7955 33.7274 29.7956 33.7866C29.7963 33.8614 29.7963 33.8614 29.7971 33.9376C29.7641 34.1119 29.7062 34.1725 29.5644 34.2768C29.3649 34.2901 29.1819 34.2913 28.9833 34.282C28.9267 34.2801 28.8701 34.2783 28.8118 34.2764C28.6311 34.2703 28.4504 34.2628 28.2697 34.2552C28.1471 34.2508 28.0246 34.2465 27.902 34.2423C27.6016 34.2318 27.3013 34.22 27.0009 34.2075C27.0329 34.0758 27.0652 33.9441 27.0975 33.8124C27.1155 33.7391 27.1334 33.6657 27.1519 33.5901C27.2013 33.4043 27.2585 33.227 27.3257 33.047C27.4281 32.7478 27.4482 32.5143 27.4166 32.1983C27.3204 32.0031 27.3204 32.0031 27.2088 31.8519C27.2088 31.8062 27.2088 31.7604 27.2088 31.7133C27.1495 31.6841 27.1495 31.6841 27.0889 31.6544C26.9344 31.5762 26.783 31.494 26.6318 31.4097C26.5764 31.3789 26.521 31.348 26.464 31.3163C26.4068 31.2844 26.3496 31.2525 26.2908 31.2197C26.2325 31.1873 26.1743 31.1548 26.1143 31.1214C25.971 31.0417 25.8278 30.9618 25.6845 30.8819C25.9145 30.6109 26.1476 30.3449 26.3904 30.0852C26.6973 29.7376 26.8591 29.4943 26.8667 29.0156C26.8032 28.6675 26.6048 28.441 26.3774 28.1799C26.3282 28.1207 26.2789 28.0616 26.2282 28.0007C25.7116 27.3977 25.7116 27.3977 24.9744 27.1666C24.4039 27.1928 23.8989 27.6054 23.4369 27.9108C23.3289 27.972 23.3289 27.972 23.1903 27.972C23.1767 27.9318 23.1631 27.8917 23.1491 27.8503C23.0867 27.667 23.0238 27.4839 22.9608 27.3008C22.9394 27.2376 22.918 27.1744 22.896 27.1093C22.7136 26.5413 22.7136 26.5413 22.3199 26.1143C21.7969 25.9336 21.3098 26.0355 20.7827 26.1533C20.7328 26.1642 20.6828 26.175 20.6313 26.1862C20.1965 26.2911 19.829 26.4696 19.5876 26.8635C19.5172 27.0746 19.5046 27.2339 19.4964 27.4554C19.492 27.5669 19.492 27.5669 19.4876 27.6807C19.4848 27.7582 19.4821 27.8358 19.4793 27.9157C19.4748 28.0333 19.4748 28.0333 19.4702 28.1532C19.4629 28.3468 19.4558 28.5405 19.449 28.7341C19.3263 28.7127 19.2036 28.691 19.0809 28.6692C18.9784 28.6511 18.9784 28.6511 18.8739 28.6326C18.6869 28.5956 18.6869 28.5956 18.479 28.5263C18.0632 28.4948 17.6606 28.4758 17.2622 28.6086C16.9852 28.9282 16.8764 29.3061 16.7469 29.7041C16.7246 29.768 16.7023 29.8318 16.6793 29.8976C16.5322 30.3409 16.4666 30.7096 16.604 31.1677C16.8109 31.4561 17.0677 31.604 17.3705 31.7826C17.445 31.8268 17.5195 31.871 17.5962 31.9166C17.7974 32.0348 17.9993 32.1517 18.2019 32.2676C18.0921 32.5315 17.9225 32.7039 17.7256 32.9085C17.3419 33.3237 17.1364 33.6458 17.0241 34.2075C14.7377 34.2075 12.4513 34.2075 10.0957 34.2075C10.145 31.8567 10.145 31.8567 10.1662 30.862C10.1807 30.1786 10.1953 29.4953 10.2095 28.8119C10.2199 28.3139 10.2304 27.8159 10.2411 27.3179C10.2467 27.055 10.2523 26.7921 10.2577 26.5291C10.2821 25.3465 10.3163 24.1652 10.3728 22.9836Z" fill="#CB9DEF"/>
<path d="M21.8736 26.933C22.0169 27.241 22.1212 27.5461 22.2157 27.8726C22.3818 28.4525 22.3818 28.4525 22.8219 28.8339C23.4282 28.9369 23.8371 28.7482 24.3375 28.4182C24.3942 28.3822 24.4508 28.3462 24.5092 28.309C24.6475 28.2209 24.7851 28.1317 24.9221 28.0415C25.4779 28.5141 25.4779 28.5141 25.7189 28.743C25.7667 28.7875 25.8146 28.832 25.8639 28.8778C25.9613 29.0115 25.9613 29.0115 25.9452 29.1441C25.8848 29.3083 25.8149 29.3933 25.6931 29.5181C25.6534 29.5597 25.6136 29.6014 25.5726 29.6442C25.5308 29.6869 25.4891 29.7296 25.446 29.7736C25.3636 29.8585 25.2814 29.9436 25.1995 30.0291C25.1629 30.0665 25.1264 30.1039 25.0887 30.1425C24.8742 30.3983 24.8241 30.614 24.8366 30.9503C24.87 31.2375 24.9615 31.4243 25.1865 31.6091C25.5373 31.8513 25.9108 32.0429 26.2948 32.227C26.4463 32.3371 26.4463 32.3371 26.5132 32.487C26.5166 32.7656 26.4363 32.9977 26.3467 33.2594C26.3215 33.3364 26.3215 33.3364 26.2957 33.4149C26.2543 33.5409 26.2118 33.6665 26.1692 33.7921C25.8098 33.8014 25.5103 33.7809 25.1603 33.6881C24.5926 33.5396 24.5926 33.5396 24.0387 33.6751C23.8131 33.8443 23.6961 33.9365 23.6057 34.2078C21.7766 34.2078 19.9475 34.2078 18.063 34.2078C18.0401 34.1392 18.0173 34.0706 17.9937 33.9999C18.076 33.8778 18.076 33.8778 18.2016 33.7444C18.2461 33.6959 18.2907 33.6474 18.3366 33.5975C18.3835 33.5474 18.4304 33.4973 18.4787 33.4456C18.5672 33.3479 18.6553 33.2498 18.7429 33.1512C18.7819 33.108 18.8209 33.0647 18.8611 33.0202C19.0696 32.7583 19.1189 32.5551 19.1342 32.2188C19.068 31.8894 18.9429 31.6601 18.6725 31.4646C18.4894 31.3577 18.3041 31.2594 18.115 31.1636C18.0177 31.1124 18.0177 31.1124 17.9185 31.0601C17.7594 30.9765 17.5998 30.8941 17.4395 30.8129C17.4768 30.4656 17.5275 30.1467 17.6343 29.8126C17.6562 29.7412 17.6781 29.6699 17.7006 29.5963C17.7859 29.4272 17.7859 29.4272 17.9079 29.3622C18.1129 29.3565 18.2811 29.403 18.4787 29.4575C18.9452 29.5708 19.4692 29.6891 19.9345 29.513C20.1481 29.3821 20.2597 29.2404 20.3494 29.0115C20.3747 28.8105 20.3747 28.8105 20.3781 28.5904C20.3807 28.51 20.3834 28.4296 20.3862 28.3468C20.3894 28.2214 20.3894 28.2214 20.3927 28.0935C20.3953 28.0088 20.398 27.9241 20.4008 27.8369C20.4073 27.628 20.4132 27.4191 20.4187 27.2101C20.5188 27.1764 20.6189 27.1428 20.7191 27.1092C20.7748 27.0904 20.8306 27.0717 20.888 27.0524C21.2238 26.9432 21.5205 26.9261 21.8736 26.933Z" fill="#CB9DEF"/>
<path d="M30.3417 14.0252C30.3973 14.0259 30.4529 14.0266 30.5102 14.0272C30.5679 14.029 30.6257 14.0307 30.6852 14.0325C30.773 14.0339 30.773 14.0339 30.8626 14.0354C31.007 14.0378 31.1514 14.0415 31.2957 14.0455C31.3273 14.1853 31.3589 14.3252 31.3904 14.465C31.4277 14.6141 31.4277 14.6141 31.5729 14.7384C31.7837 14.7608 31.9282 14.7737 32.1141 14.6647C32.2354 14.4869 32.2354 14.4869 32.2657 14.0455C32.9287 14.0455 33.5918 14.0455 34.2749 14.0455C34.3092 14.2856 34.3092 14.2856 34.3442 14.5305C34.4789 14.6949 34.4789 14.6949 34.7253 14.6907C34.8053 14.6836 34.8853 14.6764 34.9678 14.6691C35.115 14.4482 35.1411 14.3043 35.1756 14.0455C35.9732 13.993 35.9732 13.993 36.3058 14.1624C36.4911 14.5262 36.4491 14.8924 36.4227 15.2926C36.3576 15.2977 36.3576 15.2977 36.2912 15.3029C36.2346 15.3081 36.1779 15.3133 36.1196 15.3186C36.0352 15.3258 36.0352 15.3258 35.9491 15.3332C35.7851 15.3501 35.7851 15.3501 35.6606 15.5005C35.6317 15.743 35.6317 15.743 35.6606 15.9855C35.8952 16.1634 35.8952 16.1634 36.3534 16.1933C36.3534 16.7192 36.3534 17.245 36.3534 17.7868C36.1477 17.8554 35.9419 17.924 35.7299 17.9947C35.6507 18.3097 35.6507 18.3097 35.7299 18.6096C35.9306 18.7225 36.1266 18.7354 36.3534 18.7568C36.3553 18.917 36.3566 19.0772 36.3578 19.2375C36.3586 19.3267 36.3594 19.4159 36.3602 19.5078C36.3534 19.7268 36.3534 19.7268 36.2841 19.7961C36.1911 19.802 36.0978 19.8035 36.0046 19.8028C35.9485 19.8026 35.8925 19.8024 35.8348 19.8021C35.7759 19.8016 35.717 19.801 35.6563 19.8004C35.5971 19.8001 35.5379 19.7998 35.477 19.7994C35.3303 19.7986 35.1837 19.7974 35.037 19.7961C35.0332 19.7247 35.0332 19.7247 35.0292 19.6518C35.0246 19.5894 35.0201 19.527 35.0154 19.4626C35.0114 19.4007 35.0074 19.3388 35.0032 19.2751C34.9627 19.0789 34.9201 19.0126 34.7599 18.8954C34.5521 18.855 34.5521 18.855 34.3442 18.8954C34.2043 18.991 34.2043 18.991 34.1364 19.1725C34.1135 19.3783 34.0906 19.5841 34.0671 19.7961C33.4269 19.7961 32.7867 19.7961 32.1271 19.7961C32.0928 19.5217 32.0928 19.5217 32.0578 19.2418C32.035 19.1732 32.0121 19.1046 31.9886 19.0339C31.8876 19.0283 31.7865 19.0243 31.6854 19.0209C31.601 19.0173 31.601 19.0173 31.5149 19.0136C31.4655 19.0203 31.416 19.027 31.365 19.0339C31.231 19.2349 31.2056 19.3039 31.1831 19.5319C31.1746 19.6191 31.166 19.7063 31.1572 19.7961C30.8196 19.9086 30.4652 19.9048 30.1266 19.809C29.9793 19.7268 29.9793 19.7268 29.8408 19.5189C29.8272 19.3016 29.8272 19.3016 29.8321 19.0556C29.834 18.933 29.834 18.933 29.8359 18.808C29.8375 18.7453 29.8391 18.6827 29.8408 18.6182C29.9197 18.6144 29.9197 18.6144 30.0002 18.6104C30.069 18.6058 30.1379 18.6013 30.2088 18.5966C30.2772 18.5926 30.3455 18.5885 30.4159 18.5844C30.6029 18.5623 30.6029 18.5623 30.7323 18.4577C30.8353 18.3297 30.8353 18.3297 30.7977 18.0899C30.7792 18.0128 30.7606 17.9356 30.7415 17.8561C30.4698 17.7203 30.1433 17.7451 29.8408 17.7175C29.8408 17.0774 29.8408 16.4372 29.8408 15.7776C30.1837 15.709 30.1837 15.709 30.5336 15.639C30.6944 15.4433 30.6944 15.4433 30.6592 15.219C30.6211 14.9949 30.6211 14.9949 30.395 14.8769C30.2371 14.8455 30.2371 14.8455 30.0703 14.8336C30.0143 14.8284 29.9583 14.8233 29.9006 14.8179C29.858 14.8145 29.8154 14.8111 29.7715 14.8076C29.8141 14.2872 29.8141 14.2872 29.9286 14.1419C30.0783 14.0217 30.1519 14.0212 30.3417 14.0252Z" fill="#CB9DEF"/>
<path d="M23.2 29.5138C23.7609 29.909 24.2079 30.411 24.3672 31.0897C24.4603 31.8377 24.3251 32.4472 23.8988 33.0692C23.5812 33.4595 23.2368 33.6743 22.7737 33.8611C22.7051 33.8911 22.6365 33.9211 22.5659 33.952C21.8821 34.1087 21.2334 33.971 20.6432 33.6013C20.0886 33.2009 19.7704 32.7236 19.5867 32.0597C19.4984 31.3651 19.5792 30.7777 20.0016 30.2126C20.8143 29.2595 22.0469 28.8421 23.2 29.5138Z" fill="#040404"/>
<path d="M40.0945 32.5752C40.3024 32.6142 40.3024 32.6142 40.4523 32.764C40.5996 32.9915 40.6121 33.1053 40.6066 33.3733C40.6057 33.4503 40.6048 33.5274 40.6039 33.6067C40.6016 33.6864 40.5992 33.7662 40.5968 33.8483C40.5956 33.9293 40.5943 34.0104 40.5931 34.0939C40.5898 34.2935 40.5852 34.4931 40.5795 34.6927C40.6347 34.6909 40.69 34.689 40.7468 34.6872C40.9971 34.68 41.2473 34.6755 41.4975 34.671C41.5844 34.6681 41.6713 34.6652 41.7609 34.6622C41.8861 34.6606 41.8861 34.6606 42.0139 34.6588C42.1293 34.6561 42.1293 34.6561 42.247 34.6533C42.4502 34.6927 42.4502 34.6927 42.6166 34.8542C42.7273 35.0391 42.7273 35.0391 42.7187 35.2599C42.658 35.4548 42.658 35.4548 42.5195 35.5934C42.2925 35.6732 42.0753 35.6706 41.8364 35.6694C41.7591 35.6692 41.6819 35.669 41.6023 35.6687C41.522 35.6682 41.4417 35.6676 41.359 35.667C41.2776 35.6667 41.1962 35.6664 41.1124 35.666C40.9117 35.6652 40.711 35.6641 40.5102 35.6626C40.5117 35.7203 40.5131 35.778 40.5146 35.8374C40.5194 36.0516 40.5228 36.2658 40.5255 36.4801C40.5275 36.6183 40.5311 36.7565 40.5346 36.8947C40.5355 36.9816 40.5364 37.0684 40.5373 37.1579C40.5388 37.2381 40.5402 37.3183 40.5417 37.4009C40.5102 37.6026 40.5102 37.6026 40.3832 37.7346C40.1673 37.8437 40.0446 37.8137 39.8174 37.7412C39.6602 37.5827 39.6127 37.4905 39.586 37.2672C39.587 37.1932 39.5881 37.1192 39.5893 37.0429C39.5899 36.9625 39.5906 36.8821 39.5913 36.7993C39.593 36.7157 39.5948 36.6321 39.5966 36.546C39.5975 36.4613 39.5984 36.3767 39.5994 36.2894C39.6019 36.0805 39.6053 35.8716 39.6096 35.6626C39.543 35.6637 39.543 35.6637 39.4751 35.6648C39.2731 35.6677 39.0711 35.6695 38.8691 35.6713C38.7993 35.6725 38.7295 35.6736 38.6576 35.6748C38.5561 35.6755 38.5561 35.6755 38.4526 35.6762C38.3905 35.6769 38.3285 35.6776 38.2646 35.6784C38.0646 35.6608 37.9182 35.6135 37.7389 35.5241C37.6321 35.3105 37.649 35.1355 37.6696 34.9005C37.8211 34.7457 37.9151 34.6967 38.1308 34.6691C38.2332 34.6707 38.2332 34.6707 38.3375 34.6724C38.4487 34.6734 38.4487 34.6734 38.5622 34.6744C38.6392 34.6762 38.7161 34.6779 38.7955 34.6797C38.9126 34.6811 38.9126 34.6811 39.032 34.6825C39.2246 34.685 39.417 34.6884 39.6096 34.6927C39.6081 34.6396 39.6066 34.5864 39.6052 34.5317C39.5994 34.2909 39.5958 34.0501 39.5922 33.8093C39.5899 33.7257 39.5876 33.6421 39.5852 33.556C39.5843 33.4756 39.5834 33.3952 39.5825 33.3124C39.581 33.2384 39.5796 33.1644 39.5781 33.0881C39.6291 32.7689 39.7818 32.6338 40.0945 32.5752Z" fill="#050505"/>
<path d="M7.91611 7.81055C8.18249 7.88804 8.22948 7.92254 8.36212 8.15697C8.38572 8.34743 8.38572 8.34743 8.38242 8.56292C8.38141 8.67881 8.38141 8.67881 8.38039 8.79703C8.37865 8.87732 8.37691 8.95761 8.37511 9.04033C8.37371 9.16238 8.37371 9.16238 8.37227 9.28688C8.36982 9.48764 8.3664 9.68833 8.36212 9.88906C8.41524 9.88797 8.46836 9.88688 8.52308 9.88576C8.76388 9.88144 9.00467 9.87873 9.24549 9.87607C9.32908 9.87432 9.41268 9.87258 9.49881 9.87079C9.57919 9.87012 9.65957 9.86945 9.74238 9.86876C9.85341 9.86713 9.85341 9.86713 9.96667 9.86546C10.1902 9.89226 10.2847 9.93595 10.4406 10.0969C10.4917 10.5057 10.4917 10.5057 10.3617 10.6997C10.1742 10.8307 10.0301 10.8132 9.80328 10.81C9.71955 10.8094 9.63582 10.8087 9.54955 10.808C9.46207 10.8063 9.37459 10.8045 9.28446 10.8027C9.15203 10.8013 9.15203 10.8013 9.01693 10.7999C8.79863 10.7974 8.58039 10.794 8.36212 10.7897C8.36357 10.8425 8.36502 10.8953 8.36652 10.9496C8.37229 11.1893 8.37589 11.429 8.37944 11.6688C8.38293 11.7933 8.38293 11.7933 8.38648 11.9203C8.38737 12.0005 8.38827 12.0807 8.38919 12.1632C8.39064 12.2369 8.39209 12.3105 8.39358 12.3864C8.35422 12.6425 8.26723 12.7565 8.08499 12.9375C7.87714 12.9765 7.87714 12.9765 7.66928 12.9375C7.47011 12.7864 7.3994 12.7072 7.36069 12.4572C7.36287 12.3418 7.36287 12.3418 7.36509 12.2241C7.36643 12.0989 7.36643 12.0989 7.36779 11.9711C7.37011 11.8842 7.37244 11.7973 7.37483 11.7078C7.37608 11.6198 7.37733 11.5318 7.37862 11.4412C7.38188 11.224 7.38644 11.0069 7.39215 10.7897C7.31508 10.7919 7.31508 10.7919 7.23645 10.7941C7.00401 10.7999 6.77158 10.8035 6.5391 10.8071C6.45822 10.8094 6.37735 10.8117 6.29403 10.8141C6.21655 10.815 6.13908 10.8159 6.05925 10.8168C5.98778 10.8183 5.9163 10.8197 5.84266 10.8212C5.66006 10.7897 5.66006 10.7897 5.53064 10.6652C5.41198 10.4344 5.45787 10.273 5.52149 10.0276C5.75699 9.87063 5.83765 9.87261 6.11338 9.87552C6.22491 9.87619 6.22491 9.87619 6.33869 9.87688C6.45504 9.87862 6.45504 9.87862 6.57374 9.8804C6.65211 9.88102 6.73048 9.88165 6.81122 9.88229C7.00488 9.88393 7.19851 9.88621 7.39215 9.88906C7.3907 9.83594 7.38925 9.78282 7.38775 9.72809C7.38199 9.4873 7.37839 9.24652 7.37483 9.00569C7.37251 8.9221 7.37019 8.8385 7.36779 8.75237C7.3669 8.67199 7.36601 8.59161 7.36509 8.5088C7.36364 8.43478 7.36218 8.36076 7.36069 8.2845C7.41622 7.93712 7.57026 7.81055 7.91611 7.81055Z" fill="#030303"/>
<path d="M22.7996 30.375C23.0684 30.5899 23.2887 30.8307 23.398 31.1585C23.4446 31.6746 23.4372 32.1172 23.1209 32.5442C22.7922 32.8729 22.4151 33.0372 21.956 33.0681C21.5354 33.0547 21.2265 32.8736 20.9038 32.6135C20.5678 32.2438 20.5289 31.8535 20.5335 31.3718C20.5799 30.9571 20.8042 30.6821 21.103 30.4051C21.6377 30.0414 22.2533 30.0274 22.7996 30.375Z" fill="#CB9DEF"/>
<path d="M13.4902 20.2812C14.6791 20.2812 15.868 20.2812 17.093 20.2812C17.093 20.8757 17.093 21.4702 17.093 22.0826C15.9041 22.0826 14.7152 22.0826 13.4902 22.0826C13.4902 21.4882 13.4902 20.8937 13.4902 20.2812Z" fill="#CB9DEF"/>
</svg>
