<svg width="48" height="48" viewBox="0 0 48 48" fill="none" xmlns="http://www.w3.org/2000/svg">
<rect width="48" height="48" rx="8" fill="#592472"/>
<path d="M31.9321 9.11934C32.3033 9.32495 32.6791 9.51851 33.059 9.7071C33.645 9.99793 34.2234 10.3016 34.8004 10.6096C34.9026 10.6641 35.0049 10.7185 35.1071 10.7729C36.1255 11.3157 37.1405 11.8648 38.1531 12.4184C38.2838 12.4899 38.4145 12.5613 38.5453 12.6328C38.61 12.6682 38.6748 12.7036 38.7416 12.74C39.2866 13.0374 39.8337 13.3309 40.3811 13.6238C41.2446 14.0856 42.107 14.5491 42.9668 15.0177C43.1634 15.1243 43.3606 15.2297 43.558 15.3349C43.6773 15.3993 43.7966 15.4637 43.9159 15.5282C43.9695 15.5563 44.023 15.5844 44.0782 15.6134C44.428 15.804 44.665 16.0034 44.8476 16.3685C44.8515 16.5112 44.8515 16.5112 44.8384 16.679C44.8336 16.7609 44.8336 16.7609 44.8287 16.8446C44.7196 17.2097 44.4848 17.416 44.1748 17.6146C44.0875 17.66 43.9996 17.7043 43.9113 17.7477C43.8639 17.772 43.8164 17.7963 43.7675 17.8214C43.6166 17.8985 43.465 17.974 43.3131 18.0491C43.2633 18.0738 43.2135 18.0985 43.1622 18.124C43.1127 18.1485 43.0632 18.1731 43.0122 18.1983C42.9384 18.235 42.9384 18.235 42.8632 18.2723C42.7642 18.3214 42.6651 18.3704 42.5661 18.4194C42.1949 18.6041 41.839 18.8089 41.4829 19.0212C41.2595 19.1495 41.0326 19.2646 40.8013 19.378C40.2906 19.6295 39.7918 19.9002 39.2929 20.1741C38.9023 20.3885 38.5111 20.6016 38.1185 20.8123C38.0753 20.8356 38.032 20.8588 37.9874 20.8827C37.775 20.9968 37.5625 21.1106 37.35 21.2243C37.2732 21.2655 37.1964 21.3068 37.1173 21.3492C37.049 21.3857 36.9808 21.4222 36.9106 21.4598C36.726 21.5594 36.726 21.5594 36.5176 21.7026C36.4784 21.8596 36.4784 21.8596 36.4745 22.0434C36.4679 22.1474 36.4679 22.1474 36.4613 22.2536C36.4572 22.328 36.4532 22.4023 36.4491 22.4789C36.3774 23.4891 36.1811 24.3715 35.7763 25.307C35.687 25.5861 35.7454 25.7081 35.8688 25.9649C35.9005 26.0247 35.9323 26.0845 35.965 26.1461C36.3309 26.8716 36.4016 27.6019 36.3395 28.4067C36.3357 28.736 36.4051 28.8688 36.6317 29.1055C36.6848 29.1583 36.7378 29.2112 36.7924 29.2656C37.3996 29.9427 37.623 30.8094 37.6093 31.6992C37.5375 32.8503 36.9379 33.8906 36.1111 34.6771C35.1008 35.5112 33.9794 35.8884 32.6814 35.901C32.0557 35.8977 32.0557 35.8977 31.5397 36.2207C31.4943 36.2732 31.4489 36.3258 31.4021 36.3799C30.9263 36.8894 30.0375 37.1595 29.3567 37.2665C29.1656 37.2714 28.9768 37.2734 28.7859 37.271C28.7352 37.2707 28.6846 37.2704 28.6324 37.27C28.5085 37.2692 28.3846 37.2679 28.2607 37.2665C28.2531 37.342 28.2456 37.4176 28.2378 37.4954C28.0931 38.3094 27.4779 38.9766 26.8287 39.4512C25.6175 40.2493 24.1905 40.8575 22.7131 40.5889C22.3503 40.4877 22.057 40.35 21.7574 40.1162C21.7122 40.0846 21.667 40.0529 21.6204 40.0203C21.4765 39.8044 21.5062 39.6376 21.5382 39.3855C21.6736 39.2042 21.8425 39.0707 22.0177 38.9288C22.5157 38.4994 22.8498 38.0777 23.1458 37.4857C23.1546 37.3519 23.1586 37.2178 23.1595 37.0838C23.1605 37.0122 23.1615 36.9406 23.1626 36.8669C23.1645 36.6695 23.1645 36.6695 22.9996 36.5358C22.9501 36.556 22.9006 36.5762 22.8496 36.5971C21.5124 37.1388 20.15 37.675 18.6885 37.7049C18.6051 37.7086 18.5218 37.7122 18.4359 37.716C16.9202 37.7557 15.4255 37.3838 14.2815 36.3394C13.8179 35.8414 13.5501 35.3072 13.5279 34.6223C13.5463 34.1857 13.6436 33.842 13.8659 33.4668C13.8332 33.4278 13.8005 33.3888 13.7668 33.3487C13.0505 32.4658 12.7046 31.5409 12.7698 30.3979C12.8559 29.5967 13.2724 28.8061 13.8836 28.2854C14.3464 27.9135 14.3464 27.9135 14.5235 27.9135C14.5 27.8534 14.4764 27.7933 14.4521 27.7314C14.3683 27.444 14.3493 27.1782 14.35 26.8814C14.3501 26.7998 14.3501 26.7998 14.3502 26.7165C14.3622 26.1494 14.5026 25.6472 14.7857 25.1538C14.9027 24.886 14.9024 24.7437 14.8709 24.4558C14.8579 24.3216 14.8579 24.3216 14.8446 24.1846C14.8351 24.0889 14.8256 23.9932 14.8158 23.8947C14.8009 23.691 14.7887 23.4872 14.7767 23.2833C14.7703 23.18 14.7639 23.0768 14.7574 22.9736C14.751 22.8696 14.7446 22.7656 14.7381 22.6616C14.7314 22.5536 14.7247 22.4456 14.718 22.3376C14.7018 22.0772 14.6857 21.8168 14.6696 21.5564C14.6329 21.5392 14.5961 21.5219 14.5583 21.5041C13.5964 21.0509 12.6426 20.5827 11.692 20.1064C11.6068 20.0637 11.6068 20.0637 11.5198 20.0202C11.1082 19.8139 10.6968 19.6074 10.2854 19.4009C9.86964 19.1921 9.45379 18.9834 9.03782 18.775C8.87347 18.6926 8.70922 18.61 8.54496 18.5274C8.44409 18.4769 8.34322 18.4263 8.24234 18.3757C8.17526 18.3419 8.17526 18.3419 8.10684 18.3074C7.81327 18.1606 7.51934 18.0327 7.2165 17.9029C7.19239 21.3993 7.16828 24.8957 7.14343 28.4981C7.38456 28.5463 7.62569 28.5945 7.87413 28.6442C8.69124 28.9585 9.12779 29.551 9.48167 30.3248C9.59781 30.6134 9.70232 30.9055 9.80506 31.1991C9.83374 31.2805 9.86242 31.3619 9.89196 31.4458C9.95197 31.6168 10.0117 31.7879 10.0712 31.9592C10.1619 32.2195 10.2546 32.4792 10.3472 32.7388C10.4056 32.906 10.4639 33.0732 10.5221 33.2405C10.5635 33.3555 10.5635 33.3555 10.6058 33.4728C10.7989 34.0383 10.9391 34.6154 10.6828 35.1794C10.394 35.4829 10.1051 35.6693 9.68593 35.6961C9.57086 35.6978 9.45576 35.6979 9.34069 35.6968C9.27741 35.6973 9.21413 35.6978 9.14894 35.6983C8.941 35.6996 8.73314 35.6987 8.5252 35.6978C8.37989 35.698 8.23458 35.6982 8.08927 35.6986C7.78516 35.699 7.48109 35.6984 7.17699 35.697C6.78821 35.6954 6.39948 35.6963 6.0107 35.6981C5.71074 35.6991 5.41079 35.6988 5.11083 35.698C4.96753 35.6979 4.82424 35.6981 4.68094 35.6988C4.48019 35.6995 4.27953 35.6984 4.07879 35.6968C4.0202 35.6973 3.96162 35.6979 3.90125 35.6985C3.39606 35.691 3.00528 35.544 2.64963 35.1794C2.38491 34.5728 2.5572 33.9585 2.78035 33.3652C2.80526 33.296 2.83017 33.2267 2.85584 33.1554C2.9351 32.936 3.01612 32.7174 3.09718 32.4987C3.14991 32.3532 3.20252 32.2078 3.25502 32.0622C3.40349 31.6525 3.55541 31.2441 3.70914 30.8363C3.7305 30.7794 3.75185 30.7224 3.77385 30.6637C3.83102 30.5121 3.88914 30.3609 3.94776 30.2098C3.97943 30.1278 4.01111 30.0458 4.04374 29.9613C4.34726 29.3152 4.83272 28.9502 5.46339 28.6485C5.70654 28.5625 5.93836 28.5315 6.19352 28.4981C6.19265 28.4042 6.19266 28.4042 6.19177 28.3085C6.17777 26.787 6.16499 25.2655 6.15358 23.7439C6.14803 23.0081 6.14207 22.2723 6.13513 21.5365C6.12909 20.8952 6.12382 20.254 6.11948 19.6127C6.11716 19.2731 6.11445 18.9335 6.11081 18.5939C6.10739 18.2743 6.10501 17.9547 6.10343 17.6351C6.10267 17.5178 6.10153 17.4004 6.09998 17.2831C6.09791 17.1229 6.09722 16.9628 6.09687 16.8026C6.09613 16.7129 6.09538 16.6233 6.09462 16.5309C6.12298 16.2723 6.18583 16.1374 6.33966 15.93C6.48559 15.8168 6.48559 15.8168 6.65592 15.7205C6.72096 15.6836 6.786 15.6467 6.85301 15.6087C7.21277 15.4149 7.57475 15.2259 7.93888 15.0404C8.61983 14.6933 9.29703 14.341 9.96576 13.9708C10.7171 13.5557 11.4806 13.1653 12.2448 12.7746C12.9558 12.4109 13.6617 12.0406 14.3606 11.654C14.9377 11.3364 15.5224 11.0341 16.1082 10.7329C16.1576 10.7076 16.2069 10.6822 16.2577 10.656C16.4512 10.5566 16.6446 10.4572 16.8381 10.3578C17.6108 9.96053 18.3781 9.55332 19.1449 9.1448C19.7474 8.82385 20.3503 8.50377 20.9537 8.18462C21.003 8.15852 21.0523 8.13242 21.1031 8.10553C21.3901 7.95374 21.6774 7.8026 21.9651 7.65233C22.0951 7.58433 22.2248 7.51582 22.3545 7.4473C25.9251 5.58995 28.739 7.34162 31.9321 9.11934Z" fill="#020202"/>
<path d="M25.3352 23.8188C25.4768 23.821 25.6183 23.8225 25.7599 23.824C27.3023 23.8492 27.3023 23.8492 27.7305 24.2915C27.8615 24.4876 27.8615 24.4876 27.968 24.6979C28.0069 24.7711 28.0458 24.8443 28.0859 24.9197C28.3334 25.426 28.3334 25.426 28.3334 25.6478C28.7264 25.6873 28.7264 25.6873 29.0732 25.5428C29.2136 25.1318 28.9855 24.6514 28.8449 24.2595C29.3268 24.3018 29.7721 24.3909 30.2377 24.5198C30.301 24.5369 30.3642 24.554 30.4294 24.5716C30.5833 24.6133 30.7371 24.6556 30.8908 24.6979C30.8433 24.7415 30.7959 24.7852 30.747 24.8301C30.5787 24.982 30.5787 24.982 30.562 25.214C30.5808 25.4303 30.5808 25.4303 30.7127 25.5702C31.0062 25.6981 31.2589 25.6092 31.5619 25.5365C32.7245 25.2731 33.601 25.4732 34.6174 26.0863C34.8657 26.2981 35.0235 26.4837 35.1471 26.785C35.1701 26.8393 35.1931 26.8937 35.2168 26.9497C35.4373 27.5539 35.418 28.2347 35.2165 28.8432C35.0601 29.1391 34.8126 29.3281 34.5443 29.5206C34.3194 29.414 34.1175 29.287 33.9095 29.1506C33.5666 28.944 33.2679 28.8284 32.8637 28.8629C32.6695 28.9247 32.6695 28.9247 32.5714 29.0821C32.5288 29.3013 32.5288 29.3013 32.5714 29.5206C32.7345 29.7345 32.8849 29.7757 33.1423 29.8311C33.5413 29.9402 33.7368 30.129 33.9598 30.4705C34.0906 30.7321 34.029 31.0623 34.0171 31.3516C34.0122 31.5971 34.0148 31.7557 34.143 31.969C34.179 32.005 34.215 32.0409 34.252 32.078C34.6185 32.0539 34.6185 32.0539 34.9097 31.8588C34.9952 31.6069 34.9739 31.3849 34.9557 31.1213C34.9151 30.4093 34.9151 30.4093 35.1212 30.1505C35.2908 30.0412 35.4535 29.9611 35.6404 29.8859C35.7489 29.8136 35.7489 29.8136 35.8596 29.7398C36.4139 30.33 36.6215 30.921 36.6105 31.7289C36.5277 32.558 36.1055 33.2801 35.4942 33.8317C35.4577 33.8668 35.4211 33.902 35.3835 33.9382C34.5182 34.7367 33.3749 34.9523 32.2335 34.9095C32.1726 34.9061 32.1118 34.9027 32.0491 34.8992C31.7303 34.8911 31.5971 34.8882 31.3418 35.0956C31.2894 35.1608 31.2371 35.2259 31.1831 35.2931C30.349 36.0359 29.4403 36.3577 28.3334 36.3161C28.3017 36.2302 28.3017 36.2302 28.2694 36.1425C28.1982 35.9437 28.1982 35.9437 28.0411 35.8046C27.7415 35.7693 27.7415 35.7693 27.4794 35.8945C27.3541 36.0634 27.3654 36.1539 27.3789 36.3617C27.3978 37.1288 27.172 37.7174 26.6625 38.2984C25.7758 39.1533 24.5508 39.6172 23.3281 39.6225C23.194 39.6179 23.06 39.6125 22.9262 39.6042C23.0311 39.3639 23.1626 39.2097 23.3463 39.0242C23.8758 38.4427 24.1882 37.709 24.1806 36.9203C24.1581 36.6161 24.0903 36.3206 24.0222 36.0238C24.0931 35.9861 24.1639 35.9484 24.2369 35.9096C24.4825 35.749 24.4825 35.749 24.5383 35.4712C24.5534 35.2298 24.5534 35.2298 24.4561 35.0784C24.2499 34.9654 24.1102 34.9807 23.8761 35.0008C23.6942 35.0798 23.5282 35.1613 23.3555 35.2566C21.361 36.3008 18.9335 37.1223 16.6724 36.5476C15.8481 36.2656 15.1149 35.9241 14.6584 35.1509C14.5869 34.9784 14.5767 34.8491 14.5779 34.6629C14.5776 34.6062 14.5772 34.5495 14.5768 34.491C14.5962 34.3432 14.5962 34.3432 14.7423 34.197C14.797 34.2323 14.8516 34.2675 14.9079 34.3038C14.9799 34.3499 15.0518 34.3961 15.126 34.4437C15.1972 34.4894 15.2684 34.5352 15.3417 34.5824C15.6793 34.8029 15.6793 34.8029 16.0667 34.841C16.2989 34.7999 16.2989 34.7999 16.423 34.5624C16.4452 34.3457 16.4452 34.3457 16.3499 34.124C16.1736 33.9673 15.974 33.857 15.7699 33.7404C14.7792 33.1331 14.1633 32.4598 13.7924 31.3473C13.7312 30.5102 13.7934 29.9196 14.3496 29.2694C14.4778 29.1308 14.6088 28.9965 14.7423 28.8629C14.9469 28.875 15.0192 28.9189 15.1571 29.0716C15.1965 29.1278 15.236 29.184 15.2767 29.242C15.4451 29.4744 15.5917 29.6351 15.8293 29.7946C16.0152 29.9426 16.0534 30.0085 16.0956 30.247C16.1038 30.4123 16.1099 30.5778 16.1138 30.7433C16.1435 31.1633 16.3334 31.6355 16.6422 31.9319C16.8434 32.0041 16.9636 32.0147 17.1719 31.9684C17.3213 31.8592 17.3213 31.8592 17.3774 31.6305C17.3727 31.3375 17.3521 31.2862 17.1948 31.0596C17.0215 30.8077 16.9507 30.6326 16.9718 30.3258C17.0596 29.9626 17.2594 29.6787 17.5555 29.4566C17.6806 29.4004 17.8071 29.3472 17.9346 29.2968C18.114 29.2368 18.114 29.2368 18.2497 29.0821C18.2426 28.7649 18.2426 28.7649 18.1036 28.4976C17.6841 28.4318 17.3722 28.4645 17.0166 28.7031C16.9149 28.7791 16.8144 28.8567 16.7152 28.936C16.6179 29.0092 16.5205 29.0823 16.423 29.1552C16.0522 28.7664 15.7596 28.4066 15.5461 27.913C15.5205 27.8632 15.4949 27.8134 15.4685 27.762C15.2111 27.2312 15.2724 26.5571 15.4593 26.0178C15.5534 25.7674 15.6301 25.5975 15.8384 25.4286C16.0089 25.3593 16.1743 25.2996 16.3493 25.2443C16.4 25.2277 16.4508 25.2111 16.503 25.194C16.6679 25.1405 16.8331 25.0881 16.9984 25.0359C17.0823 25.0091 17.0823 25.0091 17.1679 24.9817C17.8463 24.7654 18.5258 24.5562 19.2179 24.3874C19.2777 24.3725 19.3375 24.3576 19.3991 24.3422C19.7812 24.2549 20.0949 24.2244 20.4535 24.4176C20.7876 24.6742 21.027 24.9205 21.2456 25.2825C21.2456 25.3548 21.2456 25.4272 21.2456 25.5017C21.1171 25.601 21.1171 25.601 20.9442 25.7027C20.5269 25.9675 20.1166 26.3138 20.0034 26.817C20.0141 27.0869 20.0141 27.0869 20.0765 27.3285C20.2851 27.4328 20.4304 27.4281 20.661 27.4015C20.804 27.2555 20.804 27.2555 20.9076 27.059C21.1644 26.6571 21.4431 26.3987 21.9061 26.2612C22.4735 26.1471 22.9419 26.3346 23.4559 26.5521C23.6606 26.6173 23.6606 26.6173 23.867 26.5247C24.0421 26.3885 24.0421 26.3885 24.0633 26.1639C24.0112 25.8798 23.9653 25.816 23.73 25.6478C23.3545 25.4553 23.0389 25.3473 22.6156 25.3556C22.4335 25.3453 22.4335 25.3453 22.2686 25.2825C22.1193 25.0736 22.0244 24.8685 21.9289 24.6306C21.8268 24.398 21.7039 24.2311 21.5379 24.0403C21.6687 24.0171 21.7996 23.9944 21.9306 23.9718C22.0035 23.9591 22.0764 23.9464 22.1515 23.9333C23.2077 23.7763 24.2704 23.801 25.3352 23.8188Z" fill="#CB9DEF"/>
<path d="M29.9591 9.17411C30.1402 9.27022 30.3216 9.36564 30.5033 9.46064C31.2332 9.84254 31.9593 10.2315 32.6851 10.6212C33.4821 11.049 34.2831 11.4688 35.0858 11.8859C36.6413 12.6951 38.1873 13.523 39.7253 14.3649C40.0668 14.5518 40.4088 14.7378 40.7516 14.9223C41.4843 15.3168 42.2144 15.7149 42.9377 16.1263C43.0029 16.1632 43.0681 16.2001 43.1353 16.2382C43.2248 16.2895 43.2248 16.2895 43.3162 16.3418C43.3948 16.3867 43.3948 16.3867 43.4749 16.4325C43.6045 16.5145 43.6045 16.5145 43.7506 16.6606C43.3873 16.908 43.0132 17.1003 42.6135 17.2817C42.0253 17.5508 41.4676 17.8629 40.9071 18.185C40.3049 18.5295 39.6925 18.8508 39.0756 19.1682C38.5581 19.4349 38.0465 19.7101 37.5402 19.9975C37.1569 20.2141 36.7657 20.4122 36.3706 20.6064C36.3604 20.5616 36.3501 20.5168 36.3396 20.4707C36.0172 19.0846 35.6147 17.8029 34.5438 16.8067C34.4767 16.7378 34.4767 16.7378 34.4082 16.6675C33.0537 15.3449 30.4258 15.3005 28.6343 15.149C28.5829 15.1445 28.5316 15.1401 28.4787 15.1355C26.7477 14.9885 25.0107 14.9662 23.2745 14.9665C23.0716 14.9665 22.8688 14.9659 22.6659 14.965C21.2282 14.9571 21.2282 14.9571 19.7937 15.0419C19.7062 15.0499 19.7062 15.0499 19.617 15.058C18.1214 15.2191 16.5308 15.9159 15.5345 17.0605C14.9434 17.8491 14.8183 18.6926 14.7738 19.6519C14.7691 19.7478 14.7691 19.7478 14.7643 19.8456C14.7566 20.0017 14.7492 20.1579 14.7419 20.3141C14.506 20.3903 14.4608 20.3918 14.2167 20.2921C14.1234 20.244 14.0305 20.1949 13.9381 20.1451C13.8328 20.0904 13.7275 20.0357 13.6221 19.981C13.5387 19.9372 13.5387 19.9372 13.4536 19.8926C13.2195 19.771 12.9832 19.6541 12.7468 19.5372C12.2144 19.2736 11.686 19.0036 11.1614 18.7248C9.8497 18.0301 8.53178 17.3346 7.14258 16.8067C7.16425 16.6701 7.16425 16.6701 7.21565 16.5145C7.39915 16.3973 7.57393 16.2996 7.76824 16.2039C7.82446 16.1752 7.88068 16.1465 7.93861 16.117C8.11117 16.0292 8.28439 15.9428 8.45784 15.8568C8.55233 15.8096 8.64681 15.7623 8.74127 15.715C8.87976 15.6457 9.0183 15.5766 9.15698 15.5078C10.1285 15.0244 11.0885 14.5182 12.0383 13.9936C12.8591 13.5407 13.6946 13.1171 14.5296 12.6912C15.2944 12.3009 16.0551 11.9058 16.8065 11.4901C17.5693 11.069 18.3455 10.6736 19.1198 10.2741C19.4302 10.1134 19.7395 9.95071 20.0486 9.78746C20.8839 9.34676 21.7213 8.91027 22.5603 8.47677C22.6505 8.43002 22.6505 8.43002 22.7426 8.38232C25.4983 6.9579 27.3915 7.80938 29.9591 9.17411Z" fill="#CB9DEF"/>
<path d="M22.2642 29.4754C22.5572 29.6309 22.5956 29.788 22.7132 30.0873C22.8567 30.4391 23.0879 30.678 23.4242 30.8563C23.8398 30.9943 24.3391 30.9785 24.7486 30.8226C25.1274 30.5984 25.3382 30.3345 25.5569 29.9595C25.7822 29.8468 25.9667 29.8647 26.2145 29.8864C26.3607 30.0006 26.3607 30.0006 26.4338 30.1787C26.4429 30.6549 26.2165 30.9283 25.9223 31.2747C26.0374 31.5371 26.1612 31.6674 26.4201 31.8034C26.8435 31.9516 27.2981 31.9237 27.7033 31.736C27.8991 31.6254 28.0017 31.5312 28.16 31.3615C28.3336 31.2017 28.3336 31.2017 28.5619 31.2017C28.878 31.3116 28.878 31.3116 28.9912 31.4939C29.0463 31.731 29.0298 31.8693 28.9021 32.0779C28.5344 32.5376 28.0386 32.8443 27.4567 32.9553C26.7784 33.0168 26.1681 32.9386 25.6012 32.54C25.3535 32.3325 25.1769 32.1576 25.0454 31.8593C25.0056 31.8698 24.9657 31.8804 24.9247 31.8913C24.1264 32.0878 23.4259 32.0426 22.698 31.631C22.1647 31.2707 21.7747 30.8024 21.6111 30.1787C21.5682 29.7995 21.5682 29.7995 21.707 29.6078C21.9033 29.4697 22.0268 29.4451 22.2642 29.4754Z" fill="#050505"/>
<path d="M23.424 17.3682C23.7173 17.3969 23.7632 17.4598 23.9492 17.6833C24.0422 17.8561 24.1253 18.0252 24.205 18.2039C24.229 18.2562 24.2529 18.3086 24.2776 18.3625C24.3321 18.4814 24.3863 18.6004 24.4402 18.7196C24.5856 19.0395 24.7333 19.3584 24.8807 19.6774C24.9592 19.8472 25.0375 20.017 25.1156 20.187C25.1518 20.2655 25.1879 20.344 25.2251 20.4248C25.2573 20.495 25.2896 20.5651 25.3228 20.6374C25.377 20.7533 25.4342 20.8679 25.4961 20.9799C25.5966 21.208 25.5404 21.3935 25.4837 21.6291C25.2645 21.7752 25.2645 21.7752 25.0133 21.7752C24.753 21.7021 24.753 21.7021 24.5886 21.5195C24.4607 21.2637 24.4607 21.2637 24.2415 20.6061C23.7592 20.6061 23.277 20.6061 22.7801 20.6061C22.756 20.7266 22.7319 20.8472 22.707 20.9714C22.6519 21.0997 22.5923 21.2261 22.5289 21.3505C22.4974 21.4133 22.4658 21.4761 22.4333 21.5409C22.3417 21.7021 22.3417 21.7021 22.1955 21.8483C21.9444 21.8757 21.9444 21.8757 21.6841 21.8483C21.5379 21.7295 21.5379 21.7295 21.4648 21.556C21.4972 21.1735 21.6363 20.8568 21.7891 20.5102C21.9702 20.0916 22.1466 19.6719 22.3134 19.2474C22.3455 19.166 22.3775 19.0845 22.4105 19.0006C22.4731 18.8406 22.5354 18.6805 22.5973 18.5202C23.0329 17.4116 23.0329 17.4116 23.424 17.3682Z" fill="#CB9DEF"/>
<path d="M30.7242 11.5225C31.0372 11.531 31.2547 11.6236 31.5317 11.7733C31.599 11.809 31.599 11.809 31.6677 11.8453C31.7635 11.8962 31.859 11.9476 31.9543 11.9995C32.2059 12.1366 32.4595 12.2699 32.7128 12.4038C32.7632 12.4307 32.8137 12.4575 32.8657 12.4852C33.3071 12.7192 33.7552 12.9368 34.2076 13.1488C34.8012 13.4282 35.3834 13.7231 35.9607 14.0348C36.2445 14.1877 36.5338 14.328 36.8264 14.4635C36.9568 14.5417 36.9568 14.5417 37.103 14.7609C37.0699 15.2324 37.0699 15.2324 36.8837 15.4185C36.4381 15.4698 36.1513 15.3443 35.7665 15.147C35.7082 15.1181 35.6499 15.0893 35.5899 15.0595C35.3983 14.9643 35.2075 14.8676 35.0167 14.7709C34.8835 14.7042 34.7503 14.6375 34.617 14.571C34.3382 14.4315 34.0599 14.2913 33.7817 14.1506C33.4249 13.9701 33.0674 13.7911 32.7097 13.6125C32.4347 13.4751 32.16 13.3371 31.8855 13.199C31.7537 13.1327 31.6219 13.0666 31.49 13.0007C31.306 12.9085 31.1225 12.8157 30.939 12.7226C30.857 12.6817 30.857 12.6817 30.7733 12.64C30.5266 12.5139 30.3909 12.4383 30.2344 12.2034C30.2795 11.5608 30.2795 11.5608 30.7242 11.5225Z" fill="#050505"/>
<path d="M26.8774 17.0996C27.1265 17.1844 27.1794 17.2425 27.3112 17.465C27.3376 17.6416 27.3376 17.6416 27.3361 17.8402C27.3361 17.9148 27.3361 17.9894 27.3361 18.0662C27.3349 18.1463 27.3338 18.2263 27.3326 18.3087C27.3323 18.391 27.332 18.4733 27.3317 18.5581C27.3305 18.8209 27.3277 19.0837 27.3249 19.3465C27.3238 19.5247 27.3228 19.7029 27.3219 19.8811C27.3195 20.3179 27.3157 20.7547 27.3112 21.1915C26.9978 21.1915 26.6843 21.1915 26.3613 21.1915C26.3541 20.6558 26.3488 20.12 26.3453 19.5842C26.3438 19.4019 26.3418 19.2196 26.3393 19.0373C26.3357 18.7754 26.3341 18.5135 26.3328 18.2516C26.3313 18.17 26.3298 18.0884 26.3282 18.0043C26.3282 17.9283 26.3282 17.8522 26.3281 17.7739C26.3275 17.707 26.3268 17.6402 26.3262 17.5713C26.3891 17.25 26.5532 17.0996 26.8774 17.0996Z" fill="#CB9DEF"/>
<path d="M28.1876 10.2305C28.4677 10.2722 28.663 10.3501 28.9 10.5045C28.9854 10.5582 28.9854 10.5582 29.0724 10.6129C29.245 10.774 29.2678 10.8745 29.2837 11.1073C29.206 11.3083 29.206 11.3083 29.0645 11.4727C28.7989 11.5522 28.6666 11.5622 28.4074 11.457C28.3379 11.4154 28.2684 11.3739 28.1967 11.3311C28.1261 11.2897 28.0555 11.2484 27.9827 11.2058C27.9297 11.1733 27.8768 11.1408 27.8223 11.1073C27.918 10.7979 28.0374 10.5173 28.1876 10.2305Z" fill="#090909"/>
<path d="M23.438 18.999C23.5841 19.0721 23.5841 19.0721 23.6663 19.2456C23.7302 19.4374 23.7302 19.4374 23.7302 19.6567C23.5614 19.6567 23.3927 19.6567 23.2188 19.6567C23.2911 19.4396 23.3634 19.2226 23.438 18.999Z" fill="#1D1D1D"/>
</svg>
