<svg width="48" height="48" viewBox="0 0 48 48" fill="none" xmlns="http://www.w3.org/2000/svg">
<rect width="48" height="48" rx="8" fill="#592472"/>
<path d="M37.8644 16.965C38.2562 17.3688 38.4471 17.9026 38.6618 18.412C38.7007 18.5028 38.7396 18.5935 38.7787 18.6843C38.8552 18.8623 38.9316 19.0405 39.0077 19.2187C39.1272 19.4974 39.2515 19.7738 39.3775 20.0496C39.6781 20.7116 39.9664 21.379 40.2562 22.0457C40.5476 22.716 40.8412 23.385 41.1396 24.0521C41.343 24.5078 41.544 24.9641 41.7347 25.4252C41.7521 25.4672 41.7695 25.5092 41.7875 25.5525C41.9344 25.9129 42.0687 26.2782 41.9305 26.6655C41.7694 26.9994 41.5663 27.2363 41.299 27.4907C41.2623 27.5269 41.2255 27.563 41.1876 27.6003C40.9708 27.8116 40.7471 28.0115 40.5139 28.2044C40.4091 28.2982 40.3198 28.3983 40.2294 28.5059C40.0048 28.7707 39.7603 29.0127 39.5136 29.2566C39.2326 29.5349 38.9596 29.8147 38.7021 30.1153C38.3397 30.5378 37.9954 30.868 37.418 30.9256C37.1095 30.9001 36.8592 30.8013 36.573 30.688C35.9617 30.4546 35.3438 30.2632 34.713 30.0893C34.0232 29.8939 33.3778 29.6693 33.0012 29.0298C32.9678 28.9733 32.9345 28.9169 32.9 28.8587C32.8747 28.8154 32.8494 28.7722 32.8233 28.7276C32.8177 28.7835 32.8177 28.7835 32.8121 28.8406C32.6262 30.6679 32.3269 32.4822 31.8897 34.2666C31.8763 34.322 31.8629 34.3775 31.8491 34.4346C31.6668 35.176 31.4366 35.9025 31.1991 36.6277C31.1675 36.7242 31.1361 36.8207 31.1049 36.9173C30.627 38.3916 29.9674 39.9773 28.529 40.7391C28.325 40.8354 28.1203 40.9161 27.9066 40.9881C27.8322 41.0138 27.7577 41.0394 27.681 41.0659C25.8271 41.466 23.8415 40.4209 22.2432 39.6189C22.1701 39.5822 22.0969 39.5456 22.0216 39.5079C21.0334 39.011 20.0661 38.4853 19.1168 37.9169C18.9485 37.8163 18.7795 37.7168 18.6104 37.6176C17.4194 36.9158 16.2964 36.1322 15.2507 35.2265C15.1794 35.1648 15.1079 35.1035 15.0361 35.0425C14.675 34.7324 14.3374 34.4007 14.0008 34.0643C13.9454 34.0097 13.89 33.9551 13.8329 33.8988C13.4557 33.5223 13.1151 33.1274 12.7833 32.7107C12.7273 32.6432 12.6711 32.5759 12.6144 32.5089C12.2756 32.1076 11.9508 31.6973 11.6333 31.2792C11.5247 31.1366 11.4156 30.9945 11.3064 30.8524C11.0504 30.5187 10.796 30.1837 10.5428 29.8479C10.503 29.795 10.4631 29.7421 10.422 29.6876C10.3098 29.538 10.1986 29.3877 10.0877 29.2372C10.038 29.1709 10.038 29.1709 9.98725 29.1033C9.59571 28.5662 9.47502 28.0874 9.54705 27.4207C9.70011 26.8208 10.0227 26.4429 10.5428 26.1137C10.7314 26.0153 10.9244 25.9283 11.1185 25.8414C11.5743 25.6308 11.9961 25.4038 12.4099 25.1179C12.4879 25.0661 12.5659 25.0144 12.644 24.9628C13.163 24.6167 13.6488 24.2489 14.1162 23.8356C14.1862 23.7739 14.2567 23.7127 14.3275 23.6519C15.2421 22.8638 16.0761 22.0019 16.7664 21.0104C16.8089 20.9494 16.8089 20.9494 16.8523 20.8871C17.0861 20.5489 17.3143 20.2079 17.5203 19.8519C17.759 19.4426 17.9623 19.1242 18.3846 18.8943C18.422 18.8735 18.4595 18.8526 18.4981 18.8311C19.0399 18.5812 19.6405 18.6828 20.1972 18.8243C22.0474 19.289 24.1185 19.1934 25.9773 18.8321C26.0457 18.8191 26.1141 18.8061 26.1845 18.7927C27.1401 18.6057 28.0286 18.316 28.9333 17.9596C29.7099 17.6555 30.297 17.5585 31.0807 17.8986C31.109 17.8355 31.109 17.8355 31.1378 17.7712C31.44 17.1278 31.44 17.1278 31.8321 16.978C32.2322 16.8492 32.5951 16.8123 33.0139 16.8109C33.1101 16.8094 33.1101 16.8094 33.2083 16.808C33.4119 16.805 33.6155 16.8033 33.8191 16.8017C34.0862 16.7986 34.3533 16.7951 34.6203 16.7914C34.7174 16.7902 34.7174 16.7902 34.8164 16.789C35.2981 16.782 35.7778 16.7616 36.2585 16.7308C37.4664 16.6558 37.4664 16.6558 37.8644 16.965Z" fill="#CB9DEF"/>
<path d="M37.8644 16.965C38.2562 17.3688 38.4471 17.9026 38.6618 18.412C38.7007 18.5028 38.7396 18.5935 38.7787 18.6843C38.8552 18.8623 38.9316 19.0405 39.0077 19.2187C39.1272 19.4974 39.2515 19.7738 39.3775 20.0496C39.6781 20.7116 39.9664 21.379 40.2562 22.0457C40.5476 22.716 40.8412 23.385 41.1396 24.0521C41.343 24.5078 41.544 24.9641 41.7347 25.4252C41.7521 25.4672 41.7695 25.5092 41.7875 25.5525C41.9344 25.9129 42.0687 26.2782 41.9305 26.6655C41.7694 26.9994 41.5663 27.2363 41.299 27.4907C41.2623 27.5269 41.2255 27.563 41.1876 27.6003C40.9708 27.8116 40.7471 28.0115 40.5139 28.2044C40.4091 28.2982 40.3198 28.3983 40.2294 28.5059C40.0048 28.7707 39.7603 29.0127 39.5136 29.2566C39.2326 29.5349 38.9596 29.8147 38.7021 30.1153C38.3397 30.5378 37.9954 30.868 37.418 30.9256C37.1095 30.9001 36.8592 30.8013 36.573 30.688C35.9617 30.4546 35.3438 30.2632 34.713 30.0893C34.0232 29.8939 33.3778 29.6693 33.0012 29.0298C32.9678 28.9733 32.9345 28.9169 32.9 28.8587C32.8747 28.8154 32.8494 28.7722 32.8233 28.7276C32.8177 28.7835 32.8177 28.7835 32.8121 28.8406C32.6262 30.6679 32.3269 32.4822 31.8897 34.2666C31.8763 34.322 31.8629 34.3775 31.8491 34.4346C31.6668 35.176 31.4366 35.9025 31.1991 36.6277C31.1675 36.7242 31.1361 36.8207 31.1049 36.9173C30.627 38.3916 29.9674 39.9773 28.529 40.7391C28.325 40.8354 28.1203 40.9161 27.9066 40.9881C27.8322 41.0138 27.7577 41.0394 27.681 41.0659C25.8271 41.466 23.8415 40.4209 22.2432 39.6189C22.1701 39.5822 22.0969 39.5456 22.0216 39.5079C21.0334 39.011 20.0661 38.4853 19.1168 37.9169C18.9485 37.8163 18.7795 37.7168 18.6104 37.6176C17.4194 36.9158 16.2964 36.1322 15.2507 35.2265C15.1794 35.1648 15.1079 35.1035 15.0361 35.0425C14.675 34.7324 14.3374 34.4007 14.0008 34.0643C13.9454 34.0097 13.89 33.9551 13.8329 33.8988C13.4557 33.5223 13.1151 33.1274 12.7833 32.7107C12.7273 32.6432 12.6711 32.5759 12.6144 32.5089C12.2756 32.1076 11.9508 31.6973 11.6333 31.2792C11.5247 31.1366 11.4156 30.9945 11.3064 30.8524C11.0504 30.5187 10.796 30.1837 10.5428 29.8479C10.503 29.795 10.4631 29.7421 10.422 29.6876C10.3098 29.538 10.1986 29.3877 10.0877 29.2372C10.038 29.1709 10.038 29.1709 9.98725 29.1033C9.59571 28.5662 9.47502 28.0874 9.54705 27.4207C9.70011 26.8208 10.0227 26.4429 10.5428 26.1137C10.7314 26.0153 10.9244 25.9283 11.1185 25.8414C11.5743 25.6308 11.9961 25.4038 12.4099 25.1179C12.4879 25.0661 12.5659 25.0144 12.644 24.9628C13.163 24.6167 13.6488 24.2489 14.1162 23.8356C14.1862 23.7739 14.2567 23.7127 14.3275 23.6519C15.2421 22.8638 16.0761 22.0019 16.7664 21.0104C16.8089 20.9494 16.8089 20.9494 16.8523 20.8871C17.0861 20.5489 17.3143 20.2079 17.5203 19.8519C17.759 19.4426 17.9623 19.1242 18.3846 18.8943C18.422 18.8735 18.4595 18.8526 18.4981 18.8311C19.0399 18.5812 19.6405 18.6828 20.1972 18.8243C22.0474 19.289 24.1185 19.1934 25.9773 18.8321C26.0457 18.8191 26.1141 18.8061 26.1845 18.7927C27.1401 18.6057 28.0286 18.316 28.9333 17.9596C29.7099 17.6555 30.297 17.5585 31.0807 17.8986C31.109 17.8355 31.109 17.8355 31.1378 17.7712C31.44 17.1278 31.44 17.1278 31.8321 16.978C32.2322 16.8492 32.5951 16.8123 33.0139 16.8109C33.1101 16.8094 33.1101 16.8094 33.2083 16.808C33.4119 16.805 33.6155 16.8033 33.8191 16.8017C34.0862 16.7986 34.3533 16.7951 34.6203 16.7914C34.7174 16.7902 34.7174 16.7902 34.8164 16.789C35.2981 16.782 35.7778 16.7616 36.2585 16.7308C37.4664 16.6558 37.4664 16.6558 37.8644 16.965ZM29.2408 18.7426C26.482 19.971 22.8099 20.4233 19.8782 19.6256C19.4312 19.5043 19.1128 19.4555 18.6987 19.6774C18.466 19.862 18.3593 20.048 18.2212 20.3063C17.7236 21.1909 17.131 21.9967 16.4552 22.753C16.4264 22.7853 16.3976 22.8176 16.3679 22.8509C15.8503 23.429 15.3232 23.9842 14.7153 24.4688C14.5828 24.5746 14.4524 24.6814 14.3229 24.7907C13.3204 25.6279 12.1884 26.3234 11.0018 26.8683C10.7038 27.0339 10.4665 27.2762 10.3561 27.6074C10.2727 28.203 10.7062 28.7506 11.0135 29.2333C11.0619 29.3094 11.0619 29.3094 11.1112 29.3871C11.6278 30.1898 12.2145 30.9371 12.8456 31.6527C12.8842 31.6968 12.9229 31.7409 12.9627 31.7863C13.3287 32.199 13.7117 32.5927 14.1017 32.9826C14.2067 33.0878 14.3113 33.1934 14.4158 33.2992C14.8275 33.713 15.2507 34.0903 15.7084 34.4533C15.7763 34.5108 15.8438 34.5686 15.9107 34.6271C16.8759 35.4676 17.9345 36.1851 19.0069 36.8805C19.0519 36.9097 19.0969 36.9389 19.1433 36.969C19.7869 37.3842 20.4485 37.7626 21.1229 38.1252C21.1774 38.1546 21.2319 38.184 21.288 38.2142C24.35 39.964 24.35 39.964 27.7549 40.1751C28.8019 39.7866 29.3836 38.8433 29.8327 37.8818C30.1059 37.2737 30.3164 36.6432 30.5206 36.0092C30.5387 35.9532 30.5569 35.8973 30.5757 35.8396C31.4607 33.0776 32.0421 30.0728 32.0142 27.1717C31.6645 27.274 31.352 27.4332 31.0284 27.5974C30.9688 27.6274 30.9092 27.6573 30.8477 27.6882C30.6569 27.7842 30.4662 27.8805 30.2755 27.9769C29.3545 28.4417 28.4304 28.8981 27.4983 29.3402C27.2965 29.4359 27.095 29.5323 26.8936 29.6288C26.5674 29.7848 26.2413 29.9408 25.9151 30.0968C25.8943 30.2905 25.8943 30.2905 26.0359 30.4182C26.1167 30.494 26.1167 30.494 26.1991 30.5713C27.063 31.4108 27.063 31.4108 27.117 31.9833C27.0935 32.2604 27.0572 32.4723 26.9109 32.7107C26.5344 33.0266 26.0697 33.242 25.635 33.4653C25.574 33.4972 25.5129 33.529 25.45 33.5618C24.1854 34.2169 24.1854 34.2169 23.6095 34.041C23.2919 33.889 23.1804 33.6481 23.0522 33.3331C22.9881 33.1278 22.9393 32.9206 22.8928 32.7107C22.8797 32.6538 22.8666 32.5968 22.8531 32.5382C22.7553 32.1071 22.6713 31.6742 22.5933 31.2392C22.5487 31.0001 22.4934 30.767 22.4299 30.5324C22.3719 30.524 22.3139 30.5156 22.2541 30.5069C21.4517 30.3714 20.6616 30.0817 20.1622 29.3966C19.6391 28.6143 19.4397 27.8002 19.5969 26.8705C19.7872 26.1407 20.2377 25.427 20.8662 25.0012C21.5978 24.5923 22.4404 24.5744 23.2392 24.7987C23.5306 24.9085 23.7965 25.0551 24.0658 25.2098C24.2327 25.3105 24.2327 25.3105 24.4214 25.3669C24.4214 25.4079 24.4214 25.449 24.4214 25.4913C24.511 25.5642 24.6006 25.6369 24.691 25.7087C24.8623 25.8635 24.9783 26.0466 25.106 26.2382C25.3931 26.1976 25.6379 26.0844 25.8976 25.962C25.9448 25.9401 25.992 25.9182 26.0407 25.8956C26.1961 25.8234 26.3512 25.7507 26.5063 25.678C26.6144 25.6277 26.7225 25.5774 26.8307 25.5272C26.9984 25.4492 27.1661 25.3712 27.3337 25.2931C27.7218 25.1124 28.1104 24.933 28.4996 24.7547C28.5519 24.7308 28.6041 24.7068 28.6579 24.6821C28.8599 24.5896 29.0619 24.4972 29.2639 24.4048C29.4027 24.3413 29.5414 24.2777 29.6801 24.214C29.7202 24.1957 29.7603 24.1774 29.8016 24.1586C30.086 24.0281 30.3657 23.8897 30.645 23.7487C30.5665 23.5042 30.4786 23.2692 30.3744 23.0345C30.3471 22.9722 30.3197 22.91 30.2914 22.8458C30.2339 22.716 30.1764 22.5862 30.1188 22.4564C30.0915 22.3943 30.0642 22.3322 30.036 22.2682C30.0111 22.2119 29.9861 22.1556 29.9604 22.0976C29.7532 21.5855 29.7468 20.9808 29.9565 20.4697C30.0181 20.3378 30.082 20.207 30.1471 20.0768C30.2228 19.9233 30.2979 19.7695 30.3724 19.6154C30.4238 19.5094 30.4761 19.4038 30.5293 19.2987C30.5652 19.2256 30.5652 19.2256 30.6018 19.1511C30.6236 19.1076 30.6454 19.0641 30.6679 19.0193C30.7156 18.8679 30.7037 18.7916 30.645 18.6454C30.1927 18.3627 29.6802 18.532 29.2408 18.7426Z" fill="#030303"/>
<path d="M36.3534 17.5744C36.4872 17.5648 36.6208 17.5581 36.7548 17.5524C36.7982 17.5485 36.8415 17.5446 36.8862 17.5406C37.0142 17.5366 37.0142 17.5366 37.241 17.5874C37.3834 17.7337 37.4641 17.9026 37.5522 18.0853C37.5775 18.1341 37.6028 18.1828 37.6289 18.233C37.7152 18.4016 37.7974 18.5717 37.8789 18.7427C37.9104 18.8085 37.9419 18.8743 37.9744 18.9421C38.3938 19.8289 38.7784 20.7314 39.1675 21.6318C39.3597 22.0758 39.5561 22.5177 39.7538 22.9592C40.0292 23.5751 40.2954 24.1946 40.5558 24.8171C40.5818 24.8792 40.6078 24.9412 40.6346 25.0052C40.6722 25.0954 40.6722 25.0954 40.7106 25.1875C40.79 25.3706 40.8767 25.5491 40.9637 25.7287C41.0838 25.9935 41.1555 26.193 41.0996 26.4872C40.981 26.6505 40.981 26.6505 40.8196 26.7983C40.7624 26.8517 40.7052 26.905 40.6462 26.96C40.4692 27.1167 40.2915 27.2725 40.1121 27.4265C39.7032 27.792 39.3233 28.1886 38.9676 28.6056C38.7991 28.7953 38.6168 28.9706 38.4361 29.1485C38.3065 29.2801 38.1855 29.4157 38.0656 29.5562C37.7452 29.9236 37.7452 29.9236 37.5522 30.0346C37.2288 30.0077 36.9291 29.9239 36.6216 29.8253C36.5524 29.8035 36.5524 29.8035 36.4818 29.7813C36.3847 29.7507 36.2877 29.7198 36.1906 29.6889C36.0444 29.6422 35.8979 29.596 35.7515 29.55C33.9941 28.9949 33.9941 28.9949 33.6313 28.4787C33.515 28.2497 33.4141 28.0144 33.3124 27.7786C33.2635 27.667 33.2146 27.5554 33.1657 27.4439C33.1114 27.3197 33.0573 27.1955 33.0033 27.0712C32.8036 26.612 32.602 26.1537 32.4007 25.6953C32.3282 25.5301 32.2558 25.365 32.1834 25.1998C31.864 24.4712 31.5412 23.7443 31.2133 23.0195C30.4768 21.3877 30.4768 21.3877 30.6353 20.912C30.6601 20.8548 30.685 20.7976 30.7106 20.7386C30.739 20.6731 30.7674 20.6076 30.7967 20.54C30.9522 20.194 31.1104 19.8494 31.2716 19.506C31.3287 19.3843 31.3856 19.2625 31.4424 19.1407C31.5488 18.9129 31.6564 18.6858 31.7643 18.4587C31.7939 18.3954 31.8236 18.332 31.8542 18.2667C31.881 18.2109 31.9078 18.155 31.9354 18.0975C31.9582 18.0495 31.981 18.0015 32.0044 17.9521C32.0754 17.8364 32.0754 17.8364 32.2621 17.7119C32.3889 17.695 32.3889 17.695 32.536 17.693C32.5914 17.692 32.6467 17.691 32.7037 17.6899C32.7936 17.6891 32.7936 17.6891 32.8852 17.6883C32.9475 17.6873 33.0098 17.6862 33.074 17.6851C33.274 17.6818 33.4741 17.6793 33.6741 17.6769C33.935 17.6732 34.1958 17.6692 34.4567 17.665C34.52 17.664 34.5834 17.6629 34.6487 17.6619C35.2187 17.6515 35.785 17.6179 36.3534 17.5744Z" fill="#CB9DEF"/>
<path d="M31.0805 24.6198C31.1582 24.7429 31.1582 24.7429 31.223 24.903C31.2469 24.9607 31.2708 25.0183 31.2954 25.0777C31.3195 25.1384 31.3436 25.1991 31.3684 25.2616C31.4171 25.3807 31.4659 25.4997 31.5147 25.6187C31.5466 25.6983 31.5466 25.6983 31.5791 25.7795C31.6378 25.9262 31.6378 25.9262 31.7108 26.0588C31.7651 26.1757 31.7651 26.1757 31.7651 26.3624C31.0837 26.7064 30.4011 27.0468 29.7113 27.3737C29.1938 27.6192 28.6808 27.8728 28.1693 28.1307C27.3108 28.5633 26.4445 28.975 25.5702 29.3753C25.3477 29.4775 25.1256 29.5806 24.9036 29.684C24.8305 29.718 24.7573 29.752 24.682 29.787C24.5436 29.8513 24.4053 29.9158 24.2671 29.9803C23.9283 30.1372 23.5905 30.2824 23.2388 30.4077C23.2216 30.368 23.2043 30.3283 23.1865 30.2874C23.164 30.236 23.1414 30.1846 23.1182 30.1316C23.0958 30.0803 23.0735 30.029 23.0504 29.9762C23.0004 29.8511 23.0004 29.8511 22.9276 29.7854C22.7839 29.7667 22.6399 29.7502 22.4959 29.7348C21.9654 29.6706 21.4518 29.5543 21.0605 29.163C21.0605 29.1219 21.0605 29.0809 21.0605 29.0386C21.113 29.0148 21.1654 28.9911 21.2194 28.9667C22.1645 28.539 23.1087 28.1098 24.0479 27.6694C24.7298 27.3497 25.4141 27.0358 26.1001 26.725C26.7793 26.4174 27.4568 26.1065 28.1335 25.7936C28.2899 25.7214 28.4463 25.6493 28.6027 25.5772C29.0397 25.3757 29.4764 25.1737 29.9117 24.9684C30.0079 24.9235 30.0079 24.9235 30.1061 24.8776C30.2198 24.8244 30.3333 24.7707 30.4464 24.7164C30.519 24.6826 30.519 24.6826 30.5931 24.6482C30.6337 24.629 30.6743 24.6097 30.7162 24.5899C30.8661 24.5479 30.9388 24.5546 31.0805 24.6198Z" fill="#CB9DEF"/>
<path d="M31.1301 7.2578C31.5188 7.47043 31.7518 7.7354 31.9518 8.1274C31.9729 8.16736 31.994 8.20731 32.0157 8.24847C32.3115 8.94354 32.1885 9.92664 31.9518 10.6168C31.7516 11.1024 31.4595 11.3844 31.0261 11.6671C30.6765 11.7929 30.3561 11.7933 30.0147 11.6398C29.4341 11.3067 29.2313 10.8783 29.0559 10.2495C28.8698 9.41772 29.049 8.57632 29.4585 7.84734C29.8433 7.24242 30.4381 7.00363 31.1301 7.2578Z" fill="#050505"/>
<path d="M26.9756 12.9805C27.4734 13.2419 27.705 13.6475 27.9055 14.1642C28.0964 15.0339 27.9893 15.9732 27.5659 16.7599C27.3465 17.0719 27.0873 17.279 26.723 17.4005C26.3414 17.4345 25.9655 17.4639 25.6395 17.2383C25.1813 16.8365 24.8899 16.3986 24.847 15.7783C24.8097 14.8641 24.8622 14.0234 25.4783 13.2929C25.9239 12.844 26.3882 12.7288 26.9756 12.9805Z" fill="#040404"/>
<path d="M8.36429 19.5172C8.75168 19.8433 8.95339 20.334 9.04889 20.8241C9.10791 21.603 9.03061 22.5387 8.551 23.1891C8.21802 23.541 7.93244 23.7479 7.44243 23.7726C6.99263 23.7605 6.69847 23.5993 6.3883 23.2786C5.84802 22.5973 5.86027 21.7817 5.93709 20.9486C6.05585 20.3294 6.36526 19.7234 6.87063 19.3305C7.41739 19.069 7.88139 19.1979 8.36429 19.5172Z" fill="#040404"/>
<path d="M18.2659 13.0241C18.7159 13.3346 18.9662 13.7126 19.1061 14.2394C19.2087 14.9317 19.1824 15.683 18.9451 16.3426C18.9285 16.3889 18.9119 16.4353 18.8948 16.4831C18.73 16.8682 18.4336 17.1291 18.0823 17.3485C17.741 17.4821 17.3147 17.4684 16.9759 17.3366C16.5499 17.0751 16.2884 16.7292 16.1404 16.2541C16.0145 15.7099 16.0054 15.2137 16.0823 14.6622C16.0887 14.6118 16.0951 14.5614 16.1017 14.5095C16.197 13.9574 16.4569 13.3851 16.9135 13.047C17.3466 12.7713 17.8206 12.7704 18.2659 13.0241Z" fill="#030303"/>
<path d="M13.2958 7.36139C13.7569 7.74913 14.046 8.16119 14.1035 8.77741C14.1572 9.71257 14.1113 10.6234 13.467 11.3639C13.1405 11.6292 12.8376 11.7553 12.4167 11.7335C11.9723 11.6747 11.674 11.4755 11.3937 11.1306C11.0572 10.687 11.0083 10.1718 11.0164 9.633C11.0171 9.57274 11.0177 9.51247 11.0183 9.45038C11.0349 8.687 11.1736 8.08545 11.7056 7.51674C12.1915 7.06364 12.7216 7.06324 13.2958 7.36139Z" fill="#030303"/>
<path d="M37.1173 20.5747C37.4929 20.8486 37.6616 21.2853 37.8447 21.7001C37.8661 21.7482 37.8875 21.7963 37.9095 21.8459C37.9546 21.9473 37.9996 22.0489 38.0444 22.1504C38.1126 22.3046 38.1811 22.4586 38.2497 22.6126C38.2936 22.7116 38.3376 22.8107 38.3815 22.9098C38.4017 22.9552 38.4219 23.0007 38.4428 23.0475C38.8243 23.9127 38.8243 23.9127 38.8288 24.2544C38.8307 24.3034 38.8326 24.3523 38.8346 24.4027C38.7801 24.6313 38.6598 24.7798 38.4865 24.9312C38.3208 25.0313 38.1494 25.1026 37.9691 25.1724C37.9243 25.1915 37.8794 25.2106 37.8331 25.2303C37.5188 25.3565 37.2689 25.4117 36.9306 25.3669C36.6287 25.1572 36.4979 24.9851 36.359 24.6383C36.3428 24.5985 36.3265 24.5588 36.3097 24.5179C36.2577 24.3902 36.2071 24.2621 36.1565 24.1338C36.121 24.0461 36.0854 23.9585 36.0497 23.8709C35.9801 23.6997 35.9108 23.5285 35.8418 23.3571C35.728 23.0754 35.6073 22.797 35.4836 22.5196C35.3067 22.1221 35.2014 21.8204 35.2502 21.3838C35.4018 20.9972 35.7165 20.8796 36.0731 20.7116C36.4238 20.5602 36.7381 20.5252 37.1173 20.5747Z" fill="#010101"/>
<path d="M15.5958 30.4004C15.8847 30.4856 15.9928 30.609 16.1938 30.8253C16.8596 31.5194 17.7281 32.0899 18.5204 32.6297C18.6336 32.7109 18.6336 32.7109 18.7581 32.8354C18.7853 33.0143 18.7853 33.0143 18.7581 33.2088C18.6259 33.3605 18.6259 33.3605 18.4469 33.4577C18.0963 33.4456 17.8773 33.2862 17.6029 33.0882C17.5592 33.0573 17.5155 33.0264 17.4705 32.9946C17.3389 32.9009 17.2083 32.8061 17.0778 32.7109C17.0415 32.6848 17.0052 32.6586 16.9679 32.6317C15.5004 31.5686 15.5004 31.5686 15.1484 30.9683C15.1562 30.7427 15.1562 30.7427 15.2107 30.5326C15.3974 30.4082 15.3974 30.4082 15.5958 30.4004Z" fill="#040404"/>
<path d="M7.30538 20.0771C7.53733 20.0857 7.69094 20.1032 7.88106 20.2405C8.23717 20.7238 8.22638 21.2438 8.17668 21.8198C8.11101 22.2463 8.00709 22.5876 7.67879 22.8778C7.49597 22.9517 7.49597 22.9517 7.30538 22.94C6.96928 22.7202 6.85675 22.5295 6.76859 22.1504C6.70006 21.545 6.71659 20.8773 7.06032 20.3494C7.1809 20.2016 7.1809 20.2016 7.30538 20.0771Z" fill="#CB9DEF"/>
<path d="M17.6689 13.7129C17.9441 13.8112 18.0378 13.9218 18.1979 14.1641C18.4454 14.7859 18.3499 15.4189 18.1522 16.0411C18.0345 16.3051 17.919 16.4921 17.6455 16.5991C17.4288 16.5904 17.3297 16.5313 17.1644 16.3929C16.9102 16.0626 16.858 15.735 16.8637 15.331C16.8641 15.2848 16.8645 15.2386 16.865 15.1909C16.8792 14.7003 17.0038 14.2755 17.2838 13.8685C17.451 13.7284 17.451 13.7284 17.6689 13.7129Z" fill="#CB9DEF"/>
<path d="M12.7839 8.06547C13.0378 8.27098 13.2127 8.49137 13.2818 8.8123C13.3408 9.5226 13.2914 10.1671 12.8461 10.7416C12.7217 10.8661 12.7217 10.8661 12.5466 10.8933C12.2827 10.8571 12.2032 10.758 12.0371 10.5549C11.7776 10.1527 11.8126 9.58225 11.8504 9.12348C11.9392 8.73057 12.0519 8.35199 12.3483 8.06547C12.5227 7.97824 12.5994 8.00539 12.7839 8.06547Z" fill="#CB9DEF"/>
<path d="M26.4092 13.6904C26.6665 13.7429 26.7494 13.8354 26.9109 14.0405C27.084 14.3762 27.1299 14.6452 27.1249 15.0207C27.1244 15.0698 27.1239 15.1189 27.1234 15.1696C27.1098 15.6569 27.0338 16.1298 26.6698 16.4833C26.4753 16.5922 26.4753 16.5922 26.2808 16.5961C26.0745 16.5198 25.9854 16.4561 25.8529 16.281C25.7131 15.9546 25.7045 15.6501 25.7051 15.3008C25.7052 15.2454 25.7053 15.19 25.7054 15.1329C25.713 14.7272 25.7626 14.3924 25.9774 14.0405C26.0159 13.9763 26.0544 13.9121 26.0941 13.846C26.2263 13.7293 26.2263 13.7293 26.4092 13.6904Z" fill="#CB9DEF"/>
<path d="M30.644 7.99512C30.8778 8.08279 30.9862 8.18167 31.1419 8.37631C31.2736 8.68515 31.2882 8.96422 31.2858 9.29429C31.2855 9.34389 31.2852 9.39349 31.2849 9.44459C31.2756 9.91327 31.2132 10.3261 30.9396 10.7179C30.7685 10.8657 30.7685 10.8657 30.5506 10.9124C30.2591 10.85 30.1836 10.7375 30.0216 10.4923C29.7704 10.0101 29.8356 9.29812 29.9421 8.77987C30.0644 8.41747 30.214 8.01304 30.644 7.99512Z" fill="#CB9DEF"/>
<path d="M35.562 7.53223C35.7907 7.5751 35.853 7.63731 35.9977 7.81618C36.0293 7.96452 36.0293 7.96452 36.0299 8.13087C36.0307 8.19339 36.0315 8.25591 36.0323 8.32033C36.0315 8.42108 36.0315 8.42108 36.0308 8.52387C36.031 8.59323 36.0312 8.66259 36.0315 8.73405C36.0316 8.88069 36.0312 9.02733 36.0301 9.17396C36.0288 9.39826 36.0301 9.62244 36.0317 9.84675C36.0316 9.98925 36.0312 10.1318 36.0308 10.2743C36.0313 10.3413 36.0318 10.4083 36.0323 10.4774C36.0265 10.9405 36.0265 10.9405 35.8828 11.1884C35.7487 11.3014 35.7487 11.3014 35.562 11.3364C35.3334 11.2935 35.2711 11.2313 35.1264 11.0524C35.0948 10.9041 35.0948 10.9041 35.0942 10.7378C35.0934 10.6752 35.0926 10.6127 35.0918 10.5483C35.0923 10.4811 35.0928 10.414 35.0933 10.3448C35.0931 10.2754 35.0928 10.206 35.0926 10.1346C35.0924 9.98794 35.0929 9.8413 35.0939 9.69467C35.0953 9.47036 35.0939 9.24618 35.0924 9.02188C35.0925 8.87937 35.0928 8.73687 35.0933 8.59437C35.0928 8.52733 35.0923 8.46029 35.0918 8.39122C35.0976 7.92809 35.0976 7.92809 35.2413 7.68026C35.3753 7.56723 35.3753 7.56723 35.562 7.53223Z" fill="#070707"/>
<path d="M26.4136 7.53223C26.654 7.5773 26.7094 7.61421 26.8493 7.81618C26.8867 8.04732 26.8826 8.27656 26.8801 8.51025C26.8802 8.57823 26.8803 8.64621 26.8804 8.71625C26.8803 8.85996 26.8796 9.00367 26.8783 9.14737C26.8765 9.36715 26.877 9.58684 26.8778 9.80663C26.8774 9.9463 26.8769 10.086 26.8762 10.2256C26.8764 10.2913 26.8766 10.357 26.8768 10.4247C26.8722 10.7786 26.8638 11.0379 26.6003 11.3014C26.3803 11.3258 26.2694 11.3348 26.092 11.1954C25.9572 11.0264 25.9465 10.9512 25.9457 10.7378C25.945 10.6752 25.9442 10.6127 25.9434 10.5483C25.9439 10.4811 25.9444 10.414 25.9449 10.3448C25.9446 10.2754 25.9444 10.206 25.9442 10.1346C25.944 9.98794 25.9445 9.8413 25.9455 9.69467C25.9468 9.47036 25.9455 9.24618 25.9439 9.02188C25.9441 8.87937 25.9444 8.73687 25.9449 8.59437C25.9444 8.52733 25.9439 8.46029 25.9434 8.39122C25.9492 7.92809 25.9492 7.92809 26.0928 7.68026C26.2269 7.56723 26.2269 7.56723 26.4136 7.53223Z" fill="#070707"/>
<path d="M38.6741 7.53223C38.8608 7.56723 38.8608 7.56723 38.9953 7.69269C39.1413 7.92965 39.1424 8.12589 39.1362 8.39551C39.136 8.44549 39.1358 8.49548 39.1356 8.54698C39.1346 8.70665 39.1319 8.86624 39.1292 9.02589C39.1285 9.13103 39.1279 9.23618 39.1274 9.34132C39.1252 9.64214 39.1184 9.94268 39.1097 10.2434C39.1087 10.288 39.1077 10.3326 39.1066 10.3785C39.1034 10.5002 39.0983 10.6218 39.093 10.7435C39.0902 10.8112 39.0875 10.8789 39.0847 10.9487C39.0475 11.1147 39.0475 11.1147 38.9343 11.2317C38.7278 11.3377 38.5823 11.296 38.3629 11.2392C38.2272 11.0355 38.2223 10.9743 38.2203 10.7381C38.2196 10.6741 38.2188 10.6102 38.2179 10.5443C38.2178 10.4752 38.2177 10.4062 38.2175 10.335C38.2171 10.2641 38.2167 10.1931 38.2163 10.1199C38.2156 9.96975 38.2153 9.81955 38.2154 9.66935C38.2151 9.43932 38.2128 9.20936 38.2105 8.97933C38.2101 8.83351 38.2099 8.68768 38.2097 8.54186C38.2088 8.47294 38.208 8.40402 38.207 8.33301C38.2074 8.26884 38.2078 8.20467 38.2082 8.13856C38.2079 8.05399 38.2079 8.05399 38.2077 7.96772C38.2623 7.69873 38.4113 7.58151 38.6741 7.53223Z" fill="#060606"/>
<path d="M12.5617 13.2617C12.7834 13.2928 12.7834 13.2928 12.9205 13.3762C13.1011 13.6436 13.0608 13.9156 13.0518 14.2303C13.0507 14.2981 13.0495 14.3659 13.0484 14.4357C13.0456 14.5807 13.0422 14.7256 13.0382 14.8705C13.0323 15.1021 13.0291 15.3337 13.0263 15.5654C13.0233 15.7168 13.0201 15.8682 13.0168 16.0195C13.016 16.0915 13.0151 16.1634 13.0142 16.2375C13.0112 16.3382 13.0112 16.3382 13.0081 16.4409C13.0068 16.5 13.0054 16.5592 13.0041 16.6202C12.9601 16.8247 12.8866 16.902 12.7212 17.027C12.3344 17.0137 12.3344 17.0137 12.1611 16.8403C12.1448 16.7018 12.1448 16.7018 12.144 16.5273C12.1434 16.4621 12.1428 16.3969 12.1422 16.3297C12.1422 16.2589 12.1423 16.1882 12.1423 16.1153C12.1421 16.0429 12.1418 15.9704 12.1415 15.8958C12.1412 15.7423 12.1411 15.5888 12.1414 15.4353C12.1416 15.2002 12.1402 14.9652 12.1386 14.7301C12.1384 14.5812 12.1384 14.4322 12.1385 14.2833C12.1379 14.2128 12.1373 14.1423 12.1367 14.0697C12.1371 14.0041 12.1375 13.9385 12.1379 13.8709C12.1379 13.8132 12.1378 13.7555 12.1378 13.6961C12.181 13.4095 12.2765 13.3032 12.5617 13.2617Z" fill="#050505"/>
<path d="M7.52864 7.53223C7.73238 7.57924 7.79997 7.65287 7.92928 7.81618C7.95853 8.0008 7.95853 8.0008 7.95578 8.21658C7.95532 8.29622 7.95486 8.37586 7.95438 8.45791C7.95257 8.54351 7.95068 8.62911 7.94873 8.71471C7.94751 8.80189 7.94635 8.88907 7.94527 8.97625C7.94278 9.15064 7.93938 9.32498 7.93515 9.49934C7.92994 9.71786 7.92644 9.93633 7.9232 10.1549C7.92026 10.2713 7.91712 10.3876 7.91372 10.504C7.91287 10.5567 7.91201 10.6094 7.91113 10.6637C7.90173 10.8871 7.88491 11.0273 7.75376 11.2117C7.6181 11.3014 7.6181 11.3014 7.3925 11.2936C7.18245 11.2392 7.18245 11.2392 7.05798 11.1147C7.04092 10.9789 7.04092 10.9789 7.03891 10.8084C7.03792 10.7446 7.03692 10.6809 7.0359 10.6151C7.03556 10.546 7.03523 10.4768 7.03488 10.4055C7.03432 10.3346 7.03376 10.2637 7.03318 10.1906C7.03228 10.0403 7.03173 9.89001 7.0315 9.7397C7.03076 9.50979 7.0277 9.27997 7.02455 9.05008C7.02396 8.90417 7.02351 8.75827 7.02321 8.61236C7.022 8.54357 7.02078 8.47477 7.01953 8.4039C7.02234 7.92647 7.02234 7.92647 7.20577 7.67914C7.36916 7.56723 7.36916 7.56723 7.52864 7.53223Z" fill="#040404"/>
<path d="M12.5617 19.6104C12.7834 19.6415 12.7834 19.6415 12.9205 19.7246C13.1015 19.9929 13.0608 20.2671 13.0518 20.5828C13.0506 20.6508 13.0494 20.7188 13.0482 20.7889C13.0454 20.9334 13.042 21.0779 13.038 21.2223C13.0323 21.4476 13.0302 21.6727 13.0285 21.898C13.026 22.0431 13.0234 22.1881 13.0207 22.3332C13.0204 22.4016 13.02 22.4701 13.0197 22.5406C13.0045 23.0711 13.0045 23.0711 12.8238 23.266C12.659 23.3756 12.659 23.3756 12.4606 23.3717C12.2855 23.3134 12.2855 23.3134 12.1611 23.1889C12.1448 23.0504 12.1448 23.0504 12.144 22.8759C12.1434 22.8107 12.1428 22.7455 12.1422 22.6783C12.1422 22.6076 12.1423 22.5368 12.1423 22.464C12.1421 22.3915 12.1418 22.3191 12.1415 22.2444C12.1412 22.0909 12.1411 21.9374 12.1414 21.7839C12.1416 21.5488 12.1402 21.3138 12.1386 21.0787C12.1384 20.9298 12.1384 20.7808 12.1385 20.6319C12.1379 20.5614 12.1373 20.4909 12.1367 20.4183C12.1371 20.3527 12.1375 20.2871 12.1379 20.2195C12.1379 20.1618 12.1378 20.1042 12.1378 20.0447C12.181 19.7581 12.2765 19.6518 12.5617 19.6104Z" fill="#050505"/>
<path d="M30.6835 12.8615C30.8935 12.9199 30.8935 12.9199 31.018 13.1066C31.0347 13.2474 31.0347 13.2474 31.0361 13.4142C31.0373 13.508 31.0373 13.508 31.0385 13.6037C31.0387 13.7049 31.0387 13.7049 31.0389 13.8082C31.0393 13.8776 31.0397 13.9471 31.0402 14.0186C31.0408 14.1656 31.0411 14.3126 31.0411 14.4596C31.0413 14.6845 31.0436 14.9093 31.046 15.1341C31.0463 15.2769 31.0466 15.4197 31.0467 15.5625C31.0476 15.6297 31.0485 15.6969 31.0494 15.7662C31.0466 16.2302 31.0466 16.2302 30.9056 16.4789C30.7691 16.5918 30.7691 16.5918 30.5474 16.6268C30.3334 16.5918 30.3334 16.5918 30.2277 16.5038C30.1001 16.2502 30.1248 16.004 30.1312 15.7244C30.132 15.6627 30.1329 15.6011 30.1338 15.5376C30.136 15.4025 30.1387 15.2674 30.1418 15.1323C30.147 14.8963 30.1498 14.6603 30.1525 14.4242C30.1556 14.2612 30.1589 14.0981 30.1623 13.9351C30.1631 13.8567 30.164 13.7784 30.1649 13.6977C30.1669 13.6243 30.1689 13.551 30.171 13.4754C30.1723 13.4102 30.1736 13.345 30.175 13.2778C30.2365 12.9679 30.3722 12.8561 30.6835 12.8615Z" fill="#040404"/>
<path d="M7.49404 13.2578C7.72434 13.301 7.78653 13.3588 7.92969 13.5418C7.95894 13.7197 7.95894 13.7197 7.95619 13.9264C7.95572 14.0029 7.95525 14.0794 7.95477 14.1582C7.95291 14.2397 7.95105 14.3213 7.94914 14.4053C7.94795 14.4893 7.94684 14.5733 7.94581 14.6573C7.94223 14.9079 7.93601 15.1583 7.92969 15.4088C7.9283 15.481 7.92692 15.5532 7.92549 15.6275C7.92167 15.8179 7.91638 16.0082 7.91024 16.1985C7.90886 16.2549 7.90748 16.3113 7.90606 16.3695C7.90383 16.4211 7.9016 16.4727 7.8993 16.5259C7.89767 16.5704 7.89604 16.6149 7.89436 16.6608C7.85925 16.8138 7.80531 16.8709 7.68074 16.9647C7.30172 17.0053 7.30172 17.0053 7.1397 16.8892C7.03245 16.7426 7.03434 16.6512 7.03324 16.4704C7.03205 16.3766 7.03205 16.3766 7.03085 16.2809C7.03103 16.2134 7.03121 16.146 7.0314 16.0764C7.03107 16.007 7.03075 15.9375 7.03041 15.866C7.03001 15.719 7.03009 15.572 7.03062 15.4249C7.03115 15.2001 7.02937 14.9753 7.02739 14.7505C7.02729 14.6077 7.02732 14.4649 7.02751 14.3221C7.02681 14.2549 7.02611 14.1877 7.02539 14.1184C7.0297 13.6536 7.0297 13.6536 7.17312 13.4057C7.30733 13.2928 7.30733 13.2928 7.49404 13.2578Z" fill="#030303"/>
<path d="M22.554 13.2932C22.7125 13.4186 22.7931 13.4924 22.8326 13.6933C22.8319 13.7495 22.8311 13.8057 22.8304 13.8636C22.8301 13.9275 22.8299 13.9915 22.8296 14.0574C22.8279 14.1261 22.8263 14.1949 22.8245 14.2657C22.8235 14.3366 22.8226 14.4074 22.8215 14.4805C22.819 14.6303 22.8159 14.7801 22.8122 14.93C22.8068 15.1594 22.8044 15.3888 22.8023 15.6183C22.7995 15.7639 22.7966 15.9094 22.7934 16.0549C22.7929 16.1237 22.7924 16.1924 22.7918 16.2632C22.7768 16.7367 22.7768 16.7367 22.5939 16.9479C22.4295 17.0274 22.4295 17.0274 22.235 17.0313C22.0561 16.9651 22.0561 16.9651 21.9524 16.8493C21.8262 16.5525 21.8485 16.2706 21.856 15.9516C21.8571 15.8836 21.8581 15.8155 21.8592 15.7454C21.8617 15.6018 21.8647 15.4582 21.8682 15.3147C21.8732 15.0948 21.876 14.8749 21.8785 14.655C21.8812 14.5154 21.8841 14.3758 21.8871 14.2362C21.8878 14.1704 21.8884 14.1046 21.8891 14.0368C21.9027 13.5837 21.9027 13.5837 22.0472 13.3763C22.2315 13.2615 22.3408 13.2577 22.554 13.2932Z" fill="#020202"/>
<path d="M22.5549 7.56725C22.7179 7.70378 22.795 7.81507 22.8247 8.02761C22.8309 8.21713 22.8286 8.40484 22.8233 8.59439C22.8221 8.66381 22.821 8.73323 22.8198 8.80475C22.8171 8.95129 22.8137 9.09781 22.8097 9.24432C22.8039 9.46872 22.8007 9.69305 22.7978 9.91751C22.7948 10.0599 22.7916 10.2024 22.7883 10.3448C22.7874 10.4119 22.7866 10.4791 22.7857 10.5483C22.7826 10.6421 22.7826 10.6421 22.7795 10.7378C22.7782 10.7927 22.7769 10.8476 22.7756 10.9041C22.7306 11.1006 22.6487 11.1774 22.4927 11.3014C22.2951 11.3296 22.178 11.3379 22.0064 11.2314C21.7995 10.9047 21.8636 10.446 21.8691 10.0737C21.87 10.0099 21.8708 9.94609 21.8717 9.88035C21.8738 9.74592 21.8761 9.61148 21.8785 9.47705C21.882 9.27124 21.8837 9.06545 21.8855 8.85962C21.8877 8.72882 21.89 8.59803 21.8924 8.46724C21.8927 8.40571 21.893 8.34419 21.8932 8.2808C21.9038 7.8568 21.9038 7.8568 22.0478 7.65322C22.2336 7.53373 22.3385 7.52667 22.5549 7.56725Z" fill="#020202"/>
<path d="M17.6775 7.57491C17.8875 7.62936 17.8875 7.62936 18.012 7.75383C18.0286 7.89235 18.0286 7.89235 18.0301 8.06681C18.0313 8.16465 18.0313 8.16465 18.0325 8.26446C18.0327 8.37055 18.0327 8.37055 18.0329 8.47879C18.0333 8.55123 18.0337 8.62368 18.0341 8.69832C18.0348 8.85182 18.0351 9.00532 18.035 9.15882C18.0353 9.39392 18.0376 9.62894 18.0399 9.86402C18.0403 10.013 18.0406 10.1619 18.0407 10.3109C18.0416 10.3813 18.0425 10.4518 18.0434 10.5244C18.043 10.59 18.0426 10.6557 18.0422 10.7233C18.0424 10.7809 18.0426 10.8386 18.0428 10.898C18.0023 11.1008 17.9237 11.1751 17.763 11.3013C17.5677 11.3292 17.4494 11.3447 17.2864 11.2262C17.1744 11.0765 17.1789 10.9806 17.1778 10.7945C17.177 10.7293 17.1762 10.6641 17.1754 10.5969C17.1756 10.5265 17.1757 10.4561 17.1759 10.3835C17.1756 10.3112 17.1753 10.2388 17.1749 10.1643C17.1745 10.0111 17.1746 9.85802 17.1752 9.70489C17.1757 9.47034 17.1739 9.23589 17.1719 9.00135C17.1718 8.85269 17.1719 8.70403 17.172 8.55536C17.1713 8.48508 17.1706 8.4148 17.1699 8.34239C17.1705 8.27698 17.1711 8.21156 17.1717 8.14416C17.1717 8.08668 17.1717 8.0292 17.1717 7.96997C17.2328 7.66876 17.3789 7.56461 17.6775 7.57491Z" fill="#010101"/>
<path d="M33.8959 18.5026C33.9751 18.5014 33.9751 18.5014 34.0558 18.5002C34.141 18.5 34.141 18.5 34.2279 18.4997C34.2865 18.4993 34.345 18.4989 34.4053 18.4985C34.5291 18.4979 34.653 18.4976 34.7768 18.4976C34.9663 18.4973 35.1557 18.4951 35.3451 18.4927C35.4654 18.4923 35.5857 18.4921 35.706 18.492C35.7627 18.4911 35.8193 18.4902 35.8777 18.4893C36.2691 18.4921 36.2691 18.4921 36.4696 18.635C36.5893 18.8171 36.5899 18.9294 36.5581 19.143C36.4611 19.2708 36.4055 19.323 36.2467 19.3543C36.1754 19.3551 36.1754 19.3551 36.1028 19.3559C36.0488 19.3568 35.9948 19.3578 35.9391 19.3589C35.881 19.3589 35.8228 19.3589 35.7629 19.3589C35.703 19.3594 35.643 19.3598 35.5813 19.3603C35.4545 19.361 35.3278 19.3612 35.201 19.3609C35.007 19.3608 34.8132 19.3634 34.6192 19.3662C34.4961 19.3665 34.3729 19.3667 34.2498 19.3667C34.1627 19.3682 34.1627 19.3682 34.0739 19.3698C33.6731 19.3655 33.6731 19.3655 33.4698 19.1842C33.3841 19.0185 33.3841 19.0185 33.388 18.8202C33.4793 18.5461 33.6289 18.5053 33.8959 18.5026Z" fill="#010101"/>
<path d="M13.6545 27.7321C13.8522 27.9027 13.9941 28.0979 14.1368 28.3156C14.175 28.3725 14.2132 28.4295 14.2525 28.4882C14.3513 28.6907 14.363 28.8165 14.3391 29.0391C14.2418 29.1908 14.2418 29.1908 14.0901 29.288C13.884 29.3114 13.884 29.3114 13.6545 29.2258C13.4831 29.0337 13.3506 28.824 13.2188 28.6034C13.1837 28.5501 13.1485 28.4967 13.1123 28.4418C12.9971 28.2271 13.0334 28.0873 13.0943 27.8566C13.3116 27.7117 13.3988 27.7008 13.6545 27.7321Z" fill="#070707"/>
</svg>
