<svg width="48" height="48" viewBox="0 0 48 48" fill="none" xmlns="http://www.w3.org/2000/svg">
<rect width="48" height="48" rx="8" fill="#592472"/>
<path d="M35.9184 7.00547C36.0117 7.00475 36.1051 7.00373 36.1984 7.00239C36.9819 6.99186 37.917 6.99472 38.5702 7.48797C38.9187 7.87509 39.0473 8.30475 39.0667 8.82133C39.0699 8.89824 39.073 8.97515 39.0762 9.05439C39.0791 9.13812 39.082 9.22185 39.0849 9.30558C39.0883 9.39366 39.0918 9.48174 39.0953 9.56981C39.1045 9.80608 39.1132 10.0424 39.1217 10.2787C39.1307 10.5271 39.1404 10.7754 39.1499 11.0238C39.1671 11.4694 39.1837 11.9151 39.2001 12.3608C39.2151 12.7676 39.2305 13.1743 39.2461 13.581C39.2647 14.0667 39.283 14.5524 39.3011 15.038C39.3402 16.0861 39.38 17.1341 39.4201 18.1821C39.422 18.2319 39.4239 18.2817 39.4259 18.3329C39.4732 19.5684 39.522 20.8038 39.5774 22.0389C39.6199 22.9902 39.6563 23.9416 39.6913 24.8932C39.7155 25.5491 39.7398 26.2049 39.7698 26.8606C39.7732 26.9348 39.7732 26.9348 39.7766 27.0105C39.7813 27.1113 39.7859 27.2122 39.7905 27.313C39.7928 27.3634 39.7951 27.4138 39.7975 27.4657C39.7998 27.5159 39.8021 27.5661 39.8045 27.6179C39.8441 28.4914 39.8749 29.3652 39.9042 30.2391C39.9061 30.2969 39.9081 30.3546 39.9101 30.4141C39.9299 31.0043 39.9494 31.5945 39.9684 32.1848C39.9756 32.4085 39.9829 32.6322 39.9903 32.8559C39.9938 32.9611 39.9971 33.0663 40.0004 33.1716C40.005 33.3177 40.0098 33.4638 40.0147 33.6099C40.0159 33.6521 40.0172 33.6942 40.0185 33.7375C40.0274 33.9956 40.0496 34.2497 40.0811 34.506C40.1183 34.8508 40.1122 35.1999 40.1148 35.5463C40.1157 35.6419 40.1173 35.7374 40.1196 35.833C40.1483 37.0692 39.7341 37.9877 38.9805 38.9659C38.9544 39.0018 38.9282 39.0378 38.9013 39.0749C38.3009 39.8484 37.406 40.3109 36.4599 40.4899C36.1913 40.5144 35.9243 40.5177 35.6547 40.5188C35.5765 40.5197 35.4983 40.5207 35.42 40.5218C35.2524 40.5239 35.0848 40.5255 34.9172 40.5267C34.648 40.5286 34.3789 40.5317 34.1097 40.5349C33.6796 40.54 33.2494 40.5443 32.8192 40.5482C31.9237 40.5564 31.0281 40.566 30.1326 40.5763C30.0635 40.577 30.0635 40.5771 29.9929 40.5779C27.5219 40.6062 25.0505 40.6612 22.5858 40.849C19.1077 41.1075 19.1077 41.1075 17.878 40.2555C17.7138 40.1046 17.5599 39.9491 17.4088 39.7851C17.3054 39.6555 17.3054 39.6555 17.1746 39.6693C17.1432 39.7189 17.1117 39.7684 17.0793 39.8195C16.7846 40.2795 16.3471 40.5376 15.8362 40.6999C15.6575 40.7344 15.4845 40.7391 15.3025 40.7427C15.2318 40.7449 15.1612 40.7471 15.0884 40.7494C14.4512 40.718 13.8153 40.4013 13.2289 40.1712C13.1499 40.1404 13.071 40.1097 12.9921 40.079C12.3442 39.8259 11.6992 39.5655 11.0555 39.3019C10.6885 39.1516 10.3212 39.0027 9.95174 38.8585C9.88565 38.8326 9.81956 38.8067 9.75147 38.78C9.63 38.7325 9.50837 38.6854 9.38654 38.6389C8.34933 38.2323 8.34933 38.2323 8.0755 37.7876C7.88542 37.321 8.09314 36.7263 8.27059 36.2845C8.50236 35.7926 8.80921 35.3776 9.31976 35.1557C9.53355 35.1015 9.7462 35.0676 9.96456 35.0385C10.0173 34.5154 10.0342 33.9969 10.0337 33.4713C10.0337 33.411 10.0337 33.411 10.0337 33.3494C10.0324 32.4595 9.98239 31.5746 9.92132 30.6871C9.90786 30.4894 9.89516 30.2917 9.88236 30.0939C9.84261 29.484 9.80158 28.8742 9.75554 28.2647C9.70101 27.5405 9.64958 26.819 9.64975 26.0925C9.64948 25.9645 9.64731 25.8366 9.64514 25.7086C9.6359 24.534 10.0075 23.4871 10.7064 22.5425C10.7924 22.4258 10.8772 22.3082 10.9618 22.1903C11.1233 21.9655 11.2856 21.7412 11.4482 21.5171C11.6085 21.2959 11.7684 21.0744 11.9283 20.8529C11.9918 20.7649 12.0554 20.6769 12.119 20.5889C12.2454 20.4139 12.3716 20.2388 12.4977 20.0636C12.8268 19.6067 13.158 19.1515 13.4926 18.6987C13.7504 18.3498 14.006 17.9997 14.2571 17.6461C14.4953 17.3108 14.7367 16.9777 14.9785 16.645C15.0091 16.6027 15.0397 16.5605 15.0712 16.517C15.0982 16.4798 15.1251 16.4427 15.1529 16.4044C15.1817 16.3636 15.2105 16.3228 15.2402 16.2807C15.2802 16.2326 15.3201 16.1844 15.3613 16.1349C15.5286 15.8812 15.5048 15.619 15.4994 15.3244C15.4992 15.2343 15.4992 15.2343 15.499 15.1423C15.4982 14.944 15.4958 14.7457 15.4934 14.5473C15.4927 14.4089 15.4921 14.2705 15.4916 14.132C15.49 13.7674 15.4872 13.4029 15.4839 13.0383C15.4789 12.4561 15.4754 11.8738 15.4727 11.2916C15.4715 11.089 15.4695 10.8864 15.4674 10.6838C15.4666 10.5582 15.4658 10.4325 15.4651 10.3069C15.4643 10.2513 15.4635 10.1957 15.4627 10.1385C15.46 9.34119 15.6035 8.59905 16.1561 7.99355C17.6234 6.67185 20.7212 7.1842 22.5478 7.17903C22.903 7.17795 23.2581 7.17652 23.6133 7.17512C24.5893 7.17133 25.5652 7.16805 26.5412 7.1648C27.439 7.16181 28.3369 7.15871 29.2347 7.15516C29.656 7.15351 30.0773 7.15212 30.4986 7.15094C30.7606 7.15015 31.0226 7.14913 31.2845 7.14805C31.4054 7.1476 31.5263 7.14724 31.6472 7.14699C32.4595 7.14637 32.4595 7.14637 33.2697 7.09188C34.1458 7.00407 35.0383 7.0114 35.9184 7.00547Z" fill="#030303"/>
<path d="M38.0242 8.08879C38.3202 8.39828 38.2833 8.86387 38.2961 9.26659C38.2974 9.30729 38.2988 9.348 38.3002 9.38994C38.3031 9.47839 38.3059 9.56685 38.3086 9.65531C38.3131 9.79924 38.3178 9.94317 38.3226 10.0871C38.3295 10.2969 38.3364 10.5067 38.3431 10.7165C38.3618 11.2925 38.3814 11.8686 38.4013 12.4446C38.4044 12.5342 38.4044 12.5342 38.4076 12.6257C38.4494 13.8264 38.5013 15.0265 38.5555 16.2267C38.6629 18.6024 38.7522 20.9786 38.8375 23.3551C38.8391 23.3988 38.8407 23.4424 38.8423 23.4873C38.8486 23.6627 38.8549 23.8381 38.8612 24.0135C38.8781 24.4841 38.895 24.9546 38.9119 25.4251C38.9134 25.4665 38.9149 25.5079 38.9165 25.5505C38.976 27.2045 39.0408 28.8583 39.1121 30.5119C39.152 31.4541 39.1835 32.3957 39.2149 33.3385C36.8743 33.3385 34.5336 33.3385 32.1221 33.3385C31.9025 32.2404 31.9025 32.2404 31.9462 31.8145C31.9656 31.7951 31.9849 31.7758 32.0049 31.7558C32.1267 31.7561 32.2486 31.7568 32.3704 31.7597C32.9939 31.7741 33.6825 31.7888 34.1737 31.3455C34.6269 30.7842 34.6682 30.159 34.6537 29.4624C34.6525 29.3531 34.6525 29.3531 34.6513 29.2417C34.6492 29.0637 34.6463 28.8857 34.6427 28.7077C34.6901 28.7047 34.7375 28.7016 34.7864 28.6985C34.8804 28.6917 34.8804 28.6917 34.9763 28.6848C35.0382 28.6805 35.1001 28.6763 35.164 28.6719C35.576 28.6202 35.905 28.4467 36.1667 28.1215C36.3931 27.6575 36.3378 27.1082 36.1777 26.6304C36.0035 26.1866 35.7907 25.7588 35.576 25.3333C35.323 24.8231 35.143 24.3309 35.1556 23.7545C35.1561 23.7154 35.1566 23.6763 35.1571 23.636C35.1612 23.4192 35.1733 23.2038 35.1902 22.9876C35.3324 21.1182 34.6398 19.3139 33.4703 17.8634C33.4163 17.81 33.3623 17.7567 33.3066 17.7017C33.1772 17.5703 33.1772 17.5703 33.1772 17.453C33.1283 17.4331 33.1283 17.4331 33.0783 17.4127C32.9414 17.335 32.8507 17.2446 32.7417 17.1327C31.3305 15.7531 29.2439 15.1328 27.3097 15.1462C26.4315 15.1658 25.6201 15.3426 24.7948 15.6359C24.7355 15.6568 24.6762 15.6777 24.6151 15.6993C23.8496 15.994 23.1233 16.4429 22.5087 16.9841C22.436 17.0463 22.436 17.0463 22.3617 17.1098C21.6048 17.7706 21.0421 18.5334 20.5597 19.4094C20.5401 19.4448 20.5206 19.4803 20.5005 19.5168C20.3959 19.7168 20.3215 19.908 20.2657 20.127C20.1233 20.6746 20.1233 20.6746 19.9882 20.8529C19.7139 20.9711 19.4596 20.9895 19.1649 21.0132C18.556 21.0958 18.086 21.636 17.7355 22.0942C17.2148 22.8209 16.8321 23.6482 16.5297 24.4872C16.5103 24.4872 16.491 24.4872 16.4711 24.4872C16.4702 24.4405 16.4694 24.3938 16.4685 24.3457C16.4475 23.1988 16.4265 22.0519 16.4053 20.905C16.3951 20.3504 16.3849 19.7957 16.3748 19.241C16.3659 18.7564 16.357 18.2718 16.348 17.7872C16.3433 17.5317 16.3386 17.2761 16.334 17.0206C16.3136 15.8937 16.2897 14.767 16.2559 13.6404C16.2366 12.993 16.2274 12.346 16.229 11.6983C16.2293 11.535 16.229 11.3717 16.2286 11.2084C16.2277 9.08577 16.2277 9.08577 16.7717 8.52476C17.5466 7.82591 18.9293 8.00688 19.9087 8.00979C20.018 8.0099 20.1273 8.00999 20.2366 8.01004C20.5218 8.01027 20.8069 8.01084 21.092 8.01149C21.384 8.0121 21.676 8.01236 21.968 8.01265C22.539 8.01328 23.1101 8.01428 23.6811 8.01552C23.6857 8.09832 23.6857 8.09832 23.6904 8.1828C23.695 8.25583 23.6995 8.32885 23.7042 8.40409C23.7085 8.47622 23.7128 8.54835 23.7172 8.62266C23.7693 9.1176 23.9422 9.56558 24.3259 9.89129C24.9194 10.3097 25.5067 10.2949 26.2017 10.2897C26.3146 10.29 26.4276 10.2903 26.5406 10.2907C26.7763 10.2913 27.0119 10.2905 27.2476 10.2889C27.548 10.2869 27.8483 10.288 28.1487 10.2901C28.3816 10.2914 28.6145 10.291 28.8475 10.2901C28.9582 10.2898 29.0688 10.2901 29.1795 10.2909C29.8733 10.295 30.4511 10.2647 31.0071 9.7929C31.3875 9.41581 31.4868 8.88926 31.5128 8.37455C31.5163 8.31403 31.5163 8.31403 31.5199 8.25228C31.5256 8.15384 31.5308 8.05537 31.5359 7.9569C32.0124 7.93364 32.489 7.91069 32.9655 7.88811C33.1869 7.87761 33.4084 7.86702 33.6298 7.85618C37.4575 7.66904 37.4575 7.66904 38.0242 8.08879Z" fill="#CB9DEF"/>
<path d="M29.6609 16.2218C29.7037 16.2353 29.7465 16.2488 29.7906 16.2627C31.4456 16.7963 32.8645 17.9741 33.6697 19.5178C33.85 19.876 34.0055 20.2317 34.1159 20.6182C33.903 20.4986 33.73 20.3669 33.5517 20.2005C32.5571 19.2322 32.5571 19.2322 31.2773 18.8958C30.9161 18.9345 30.601 19.0697 30.2691 19.2113C30.1353 19.2665 30.0014 19.3215 29.8675 19.3762C29.8094 19.4008 29.7513 19.4253 29.6915 19.4506C29.5437 19.5044 29.5437 19.5044 29.3678 19.5044C29.3364 19.4694 29.305 19.4343 29.2726 19.3982C29.0726 19.214 28.8732 19.1379 28.6058 19.0941C28.2462 19.1109 27.941 19.2052 27.6679 19.4458C27.4264 19.7508 27.3968 20.0051 27.4108 20.391C27.4532 20.7067 27.5795 20.8881 27.8145 21.1054C28.1405 21.3255 28.3902 21.3692 28.7817 21.3216C29.0909 21.224 29.3162 21.0755 29.4851 20.794C29.4916 20.7548 29.4982 20.7156 29.505 20.6752C29.5343 20.5132 29.572 20.406 29.6609 20.2665C29.8781 20.1253 30.1061 20.0345 30.3497 19.948C30.4629 19.9076 30.5744 19.8641 30.6862 19.82C31.3884 19.5567 31.3884 19.5567 31.7712 19.6803C31.9165 19.7691 32.0361 19.8748 32.1595 19.9917C32.2312 20.0563 32.3028 20.1209 32.3745 20.1854C32.4106 20.2185 32.4467 20.2516 32.4838 20.2856C32.652 20.4383 32.8253 20.5848 32.9985 20.7318C33.2176 20.9191 33.436 21.1073 33.6534 21.2966C33.6933 21.3314 33.7332 21.3661 33.7743 21.4019C33.8514 21.469 33.9284 21.5363 34.0054 21.6037C34.0403 21.6341 34.0752 21.6644 34.1111 21.6957C34.1418 21.7226 34.1725 21.7494 34.2041 21.7771C34.3032 21.861 34.3032 21.861 34.4676 21.9664C34.4804 22.1449 34.4823 22.3115 34.4765 22.4896C34.4749 22.598 34.4732 22.7063 34.4716 22.8146C34.468 22.9849 34.464 23.1552 34.4596 23.3254C34.4329 24.439 34.704 25.2381 35.1806 26.2288C35.6321 27.1717 35.6321 27.1717 35.5814 27.5937C35.4598 27.7638 35.3718 27.8494 35.182 27.9344C34.9825 27.9516 34.7851 27.9488 34.5848 27.9454C34.5784 27.8938 34.572 27.8422 34.5654 27.789C34.5561 27.721 34.5468 27.6529 34.5372 27.5827C34.5284 27.5154 34.5195 27.4481 34.5104 27.3787C34.4473 27.0908 34.3749 26.9444 34.1251 26.7818C34.0541 26.7462 33.9826 26.7116 33.9107 26.6778C33.8714 26.6584 33.8321 26.6389 33.7916 26.6188C33.5152 26.486 33.2337 26.3747 32.9461 26.2684C32.875 26.2416 32.804 26.2147 32.7308 26.187C32.5886 26.1339 32.4456 26.0826 32.3019 26.0336C31.8128 25.85 31.8128 25.85 31.6894 25.6323C31.6458 25.4848 31.6198 25.3421 31.5953 25.1904C31.456 24.9117 31.3054 24.7689 31.0252 24.645C30.6929 24.5434 30.3717 24.5571 30.0529 24.6958C29.7601 24.8618 29.5901 25.1097 29.4851 25.4249C29.4392 25.8061 29.4952 26.1065 29.7195 26.4214C29.9773 26.6926 30.2103 26.7827 30.5805 26.7951C30.8419 26.7954 30.9872 26.7734 31.196 26.6155C31.3853 26.4752 31.3853 26.4752 31.5339 26.4961C31.5744 26.5116 31.6149 26.5272 31.6567 26.5432C31.7261 26.5692 31.7261 26.5692 31.7969 26.5957C31.8464 26.6155 31.896 26.6354 31.947 26.6558C31.9985 26.6759 32.05 26.6959 32.103 26.7166C32.2678 26.7816 32.4317 26.8485 32.5955 26.916C32.6783 26.9496 32.6783 26.9496 32.7628 26.9839C33.6249 27.3372 33.6249 27.3372 33.7642 27.4765C33.8601 28.1866 33.8942 28.9 33.8997 29.6161C33.9013 29.7172 33.9013 29.7172 33.9029 29.8204C33.9025 30.4169 33.9025 30.4169 33.7056 30.7005C33.4501 30.931 33.3157 31.0015 32.9756 30.9911C32.9114 30.9898 32.8473 30.9886 32.7812 30.9873C32.6461 30.9842 32.511 30.9804 32.3759 30.9758C31.9971 30.9698 31.7634 30.9684 31.4781 31.2281C31.4528 31.2593 31.4274 31.2905 31.4014 31.3226C31.2609 31.4378 31.163 31.4256 30.9829 31.4251C30.9166 31.4253 30.8502 31.4255 30.7819 31.4258C30.7091 31.4252 30.6362 31.4245 30.5612 31.4239C30.4846 31.4239 30.4079 31.4239 30.329 31.4239C30.1187 31.424 29.9085 31.423 29.6983 31.4217C29.4786 31.4206 29.2589 31.4205 29.0393 31.4203C28.6232 31.4198 28.2072 31.4183 27.7912 31.4166C27.3176 31.4146 26.8439 31.4136 26.3703 31.4128C25.396 31.4109 24.4217 31.4078 23.4474 31.4039C23.4474 31.1331 23.4474 30.8623 23.4474 30.5833C23.526 30.5857 23.6046 30.5881 23.6855 30.5906C24.0458 30.5878 24.3176 30.55 24.5795 30.2876C24.8033 30.0573 24.9861 29.8058 25.1693 29.5428C25.2362 29.4496 25.3033 29.3565 25.3704 29.2634C25.4818 29.108 25.5909 28.9515 25.6973 28.7927C25.9902 28.3841 25.9902 28.3841 26.2746 28.2992C26.4072 28.2811 26.5403 28.2667 26.6737 28.2564C26.979 28.225 27.1362 28.0736 27.3345 27.8538C27.5398 27.5574 27.5215 27.2386 27.4921 26.8903C27.4164 26.6899 27.4164 26.6899 27.3162 26.5386C27.2969 26.4806 27.2775 26.4225 27.2576 26.3628C27.1202 26.297 27.1202 26.297 26.9645 26.2455C26.9284 26.2254 26.8923 26.2053 26.855 26.1846C26.5581 26.0508 26.2217 26.104 25.9204 26.1979C25.6127 26.3728 25.4336 26.5542 25.3232 26.8903C25.3048 27.0481 25.3048 27.0481 25.3085 27.2091C25.3081 27.2887 25.3081 27.2887 25.3076 27.37C25.3139 27.5407 25.3139 27.5407 25.4038 27.7C25.4468 27.9195 25.4247 27.9459 25.3058 28.1252C25.2396 28.214 25.172 28.3018 25.1034 28.3887C25.0685 28.4348 25.0336 28.4809 24.9976 28.5284C24.8923 28.6671 24.7854 28.8045 24.6784 28.9419C24.6191 29.0199 24.5599 29.098 24.5009 29.1762C24.1287 29.6675 24.1287 29.6675 23.975 29.8212C23.8481 29.8198 23.8481 29.8198 23.7039 29.7992C23.656 29.7927 23.6081 29.7862 23.5587 29.7795C23.5036 29.7712 23.5036 29.7712 23.4474 29.7626C23.4416 29.686 23.4416 29.686 23.4357 29.6078C23.3482 28.9609 23.0917 28.7198 22.6067 28.321C21.6776 27.5321 20.9935 26.3067 20.6924 25.1318C20.6704 24.4945 21.0325 23.8547 21.3172 23.3013C21.4447 23.0374 21.4637 22.8273 21.4654 22.5343C21.4666 22.4385 21.4666 22.4385 21.4679 22.3408C21.4587 22.1032 21.4587 22.1032 21.3372 21.7319C21.9562 21.7126 22.5752 21.6932 23.2129 21.6733C23.329 21.8764 23.329 21.8764 23.4474 22.0836C23.6388 22.296 23.86 22.3952 24.1398 22.4427C24.4864 22.4601 24.7555 22.3501 25.0301 22.1423C25.3029 21.82 25.4096 21.5103 25.3818 21.0871C25.3006 20.7245 25.1623 20.5305 24.8542 20.3251C24.5555 20.1916 24.2767 20.152 23.9592 20.2482C23.6054 20.389 23.3862 20.5647 23.2129 20.9113C22.4198 20.9113 21.6267 20.9113 20.8096 20.9113C20.8701 20.5483 20.9781 20.2894 21.1357 19.9624C21.1622 19.9073 21.1887 19.8521 21.216 19.7954C21.4151 19.3907 21.6341 19.031 21.9233 18.6838C21.9707 18.6234 22.0181 18.563 22.0669 18.5008C23.0169 17.3095 24.2798 16.5481 25.7299 16.1119C25.7891 16.094 25.7891 16.094 25.8495 16.0758C27.0615 15.7321 28.4754 15.8389 29.6609 16.2218Z" fill="#CB9DEF"/>
<path d="M15.5326 17.2188C15.552 17.2188 15.5713 17.2188 15.5912 17.2188C15.638 18.5502 15.6626 19.881 15.676 21.2131C15.6814 21.7517 15.6877 22.2903 15.6938 22.8289C15.6944 22.8823 15.695 22.9358 15.6957 22.9908C15.7064 23.9302 15.7186 24.8695 15.7343 25.8088C15.7366 25.9498 15.7388 26.0909 15.741 26.2319C15.7439 26.4243 15.7472 26.6166 15.7506 26.809C15.7514 26.8637 15.7522 26.9184 15.753 26.9748C15.7577 27.2201 15.7668 27.4646 15.7864 27.7092C15.7897 27.7506 15.793 27.792 15.7963 27.8347C15.8341 27.9774 15.8826 28.0352 16.0016 28.1217C16.2153 28.1079 16.2153 28.1079 16.4119 28.0631C16.5142 27.7977 16.5589 27.5403 16.5989 27.2607C16.856 25.4865 17.4664 23.0984 18.9499 21.919C19.2978 21.6772 19.6331 21.6168 20.0462 21.6737C20.3152 21.7512 20.5086 21.8646 20.6617 22.1024C20.7896 22.4168 20.7917 22.6287 20.6594 22.9436C20.6191 23.0212 20.5783 23.0986 20.5371 23.1758C20.1342 23.9876 19.9345 24.8374 19.7934 25.7294C19.7794 25.8179 19.7794 25.8179 19.7651 25.9083C19.6138 26.9522 19.6295 28.0018 19.6459 29.0539C19.6628 30.2003 19.5375 31.2547 19.1669 32.3422C19.1467 32.4021 19.1264 32.4619 19.1056 32.5236C18.7616 33.4308 18.18 34.2159 17.5256 34.9214C17.4897 34.9614 17.4539 35.0014 17.4169 35.0425C17.2406 35.2301 17.051 35.3793 16.8421 35.5298C16.2958 35.9269 15.9943 36.3944 15.6499 36.973C14.6573 36.6527 13.6777 36.2981 12.6977 35.9418C12.4151 35.8391 12.1323 35.7373 11.8491 35.6363C11.7806 35.6118 11.7122 35.5874 11.6417 35.5622C11.5152 35.517 11.3887 35.472 11.2622 35.4271C11.2071 35.4074 11.152 35.3877 11.0953 35.3675C11.0238 35.342 11.0238 35.342 10.9509 35.3161C10.8432 35.2731 10.8432 35.2731 10.7846 35.2145C10.7902 35.0783 10.7994 34.9436 10.8102 34.8078C10.9041 33.4074 10.8123 32.0168 10.7141 30.6198C10.6972 30.3773 10.6809 30.1349 10.6646 29.8924C10.6164 29.1816 10.5674 28.4708 10.515 27.7603C10.5068 27.6495 10.5068 27.6495 10.4985 27.5365C10.4886 27.4022 10.4786 27.268 10.4683 27.1338C10.3181 25.0995 10.7023 23.7939 11.9504 22.1824C12.2368 21.8118 12.5071 21.4316 12.7755 21.0479C13.2127 20.4231 13.6641 19.8082 14.1157 19.1938C14.3303 18.9015 14.5435 18.6081 14.7559 18.3142C14.7882 18.2695 14.8205 18.2249 14.8538 18.1789C15.0609 17.8917 15.2648 17.6027 15.4639 17.3099C15.4866 17.2798 15.5093 17.2497 15.5326 17.2188Z" fill="#CB9DEF"/>
<path d="M39.2155 34.1005C39.2348 34.2485 39.2539 34.3965 39.2729 34.5445C39.2783 34.5859 39.2837 34.6272 39.2893 34.6699C39.338 35.0518 39.3542 35.4301 39.3547 35.8151C39.3562 35.8777 39.3576 35.9403 39.3591 36.0047C39.3626 36.9818 38.8934 37.9175 38.2227 38.6136C38.1441 38.6927 38.0643 38.7707 37.9845 38.8486C37.9258 38.9091 37.9258 38.9091 37.8659 38.9709C37.4209 39.4008 36.8024 39.6728 36.1871 39.6822C36.1471 39.6829 36.1072 39.6836 36.066 39.6843C35.9318 39.6865 35.7975 39.6884 35.6633 39.6902C35.5671 39.6917 35.4708 39.6933 35.3746 39.6948C35.1667 39.6982 34.9587 39.7014 34.7508 39.7044C34.4191 39.7093 34.0875 39.7147 33.7558 39.7201C32.9296 39.7335 32.1034 39.7463 31.2771 39.759C28.0415 39.7982 28.0415 39.7982 24.8076 39.9035C24.7586 39.9057 24.7096 39.908 24.6591 39.9103C23.9908 39.9419 23.3241 39.9922 22.6572 40.046C21.9105 40.106 21.1667 40.157 20.4174 40.1638C20.3489 40.1651 20.2804 40.1664 20.2099 40.1678C19.3697 40.1657 18.6386 39.8841 18.0251 39.3075C17.8053 39.0823 17.6612 38.8384 17.5195 38.5592C17.482 38.4865 17.482 38.4865 17.4438 38.4124C17.2198 37.9651 17.0615 37.516 16.9406 37.0314C16.9245 36.979 16.9084 36.9266 16.8919 36.8725C16.8581 36.7301 16.8442 36.6454 16.882 36.5039C17.0343 36.3157 17.2165 36.1792 17.4096 36.0349C18.0479 35.5269 18.0479 35.5269 18.5174 34.879C18.6788 34.5659 18.8528 34.2815 19.2027 34.169C19.6448 34.0976 20.0925 34.1175 20.5386 34.1322C20.7469 34.138 20.9553 34.1385 21.1636 34.1395C21.4833 34.1413 21.8029 34.1448 22.1226 34.1499C22.7864 34.1604 23.4498 34.1582 24.1137 34.1523C24.1672 34.1518 24.2207 34.1513 24.2759 34.1508C24.4958 34.1489 24.7157 34.147 24.9356 34.1449C25.5668 34.1392 26.1979 34.1362 26.8291 34.1332C26.9467 34.1326 27.0643 34.132 27.1818 34.1314C27.3588 34.1306 27.5357 34.1297 27.7127 34.1288C28.1224 34.1268 28.5321 34.1246 28.9418 34.1224C32.3664 34.1033 35.7909 34.097 39.2155 34.1005Z" fill="#300C41"/>
<path d="M20.4574 26.7148C20.6028 26.9003 20.7221 27.0947 20.8421 27.2974C21.2571 27.979 21.8891 28.9841 22.6263 29.3527C22.6636 30.7014 22.6923 32.048 22.6849 33.3973C21.6597 33.3973 20.6344 33.3973 19.5781 33.3973C19.6823 33.0846 19.7871 32.7757 19.9005 32.4667C20.2232 31.5618 20.3559 30.6929 20.3624 29.7316C20.3633 29.6533 20.3643 29.575 20.3654 29.4967C20.368 29.2934 20.3701 29.0901 20.372 28.8868C20.3747 28.5989 20.3779 28.3111 20.3815 28.0232C20.3834 27.8706 20.3849 27.7179 20.3862 27.5653C20.387 27.4963 20.3878 27.4274 20.3886 27.3564C20.3892 27.296 20.3897 27.2356 20.3903 27.1734C20.3984 27.0148 20.4219 26.8694 20.4574 26.7148Z" fill="#CB9DEF"/>
<path d="M29.1441 35.3503C29.5573 35.6419 29.7948 36.0081 29.8943 36.5037C29.9481 37.1319 29.9136 37.6358 29.5059 38.1303C29.1242 38.5332 28.7121 38.7322 28.1601 38.7513C27.6053 38.7597 27.2794 38.6669 26.8571 38.2915C26.8148 38.2432 26.7725 38.1948 26.7289 38.145C26.669 38.0833 26.669 38.0833 26.608 38.0204C26.2968 37.5586 26.1905 37.0764 26.2856 36.533C26.4192 35.9852 26.7637 35.6391 27.2338 35.3462C27.858 35.0183 28.5308 34.9817 29.1441 35.3503Z" fill="#CB9DEF"/>
</svg>
