<svg width="48" height="48" viewBox="0 0 48 48" fill="none" xmlns="http://www.w3.org/2000/svg">
<rect width="48" height="48" rx="8" fill="#592472"/>
<path d="M22.8541 6.99598C23.0714 7.12197 23.2618 7.25333 23.3672 7.48713C23.3778 7.60915 23.3861 7.73138 23.3929 7.85366C23.4218 8.11232 23.464 8.25363 23.6636 8.41698C23.8052 8.51932 23.9519 8.61002 24.1014 8.70012C24.3459 8.85145 24.5416 9.03687 24.6457 9.312C24.6904 9.7347 24.6451 10.1479 24.5945 10.568C24.5316 11.1062 24.4891 11.6461 24.4448 12.186C24.4388 12.2591 24.4388 12.2591 24.4327 12.3336C24.4096 12.6142 24.3869 12.895 24.3642 13.1757C24.9447 13.1757 25.5253 13.1757 26.1235 13.1757C26.0848 13.0596 26.0461 12.9434 26.0062 12.8238C25.976 12.6498 25.9724 12.534 26.0582 12.3764C26.1521 12.2458 26.2534 12.125 26.3581 12.0028C26.3876 11.9681 26.4172 11.9334 26.4477 11.8977C27.0424 11.2012 27.0424 11.2012 27.2378 11.0058C27.2209 10.8881 27.2008 10.7709 27.1791 10.654C27.145 10.3012 27.1844 10.1065 27.3896 9.81506C27.5686 9.59995 27.7498 9.53264 28.0185 9.48472C28.3146 9.46053 28.524 9.54293 28.7625 9.71564C29.0398 10.0143 29.0767 10.2106 29.072 10.6093C29.0413 10.9154 28.8911 11.0645 28.6636 11.2551C28.483 11.3505 28.4183 11.3651 28.2274 11.3833C27.816 11.4585 27.5698 11.8421 27.3152 12.1463C27.2193 12.2591 27.1164 12.3648 27.0142 12.4719C26.8696 12.6328 26.8696 12.6328 26.8895 12.8055C26.9168 12.8726 26.9168 12.8726 26.9445 12.9411C26.9648 13.0191 26.9845 13.0973 27.0032 13.1757C27.0947 13.1754 27.0947 13.1754 27.1881 13.175C28.6726 13.1698 30.1571 13.166 31.6416 13.1635C32.3594 13.1623 33.0773 13.1607 33.7952 13.158C34.4208 13.1556 35.0465 13.1541 35.6721 13.1536C36.0035 13.1533 36.3348 13.1526 36.6661 13.1509C36.9779 13.1493 37.2897 13.1488 37.6016 13.1491C37.716 13.1491 37.8305 13.1486 37.945 13.1477C38.1013 13.1465 38.2575 13.1468 38.4138 13.1475C38.4591 13.1468 38.5044 13.1461 38.5511 13.1454C38.9093 13.1494 39.111 13.2709 39.3671 13.5106C39.3947 13.5428 39.4222 13.575 39.4505 13.6082C39.4786 13.6401 39.5068 13.672 39.5357 13.7049C39.7194 13.9847 39.7452 14.2727 39.7529 14.6005C39.754 14.6419 39.7551 14.6832 39.7562 14.7258C39.7597 14.8623 39.7623 14.9988 39.7649 15.1353C39.7671 15.2326 39.7693 15.3298 39.7715 15.4271C39.795 16.5014 39.7996 17.5759 39.8017 18.6505C39.8019 18.7556 39.8022 18.8607 39.8024 18.9657C39.8035 19.4577 39.8044 19.9496 39.8049 20.4415C39.8054 21.0041 39.807 21.5666 39.8094 22.1292C39.8111 22.569 39.812 23.0089 39.8122 23.4487C39.8123 23.7095 39.8128 23.9703 39.8143 24.2312C39.8157 24.475 39.8159 24.7188 39.8153 24.9627C39.8153 25.0516 39.8157 25.1405 39.8165 25.2295C39.8258 26.3095 39.8258 26.3095 39.4488 26.7186C39.2066 26.9395 39.0075 27.0745 38.6735 27.0745C38.6912 27.1378 38.709 27.201 38.7273 27.2662C38.8079 27.554 38.8874 27.842 38.9667 28.1301C38.9795 28.1764 38.9924 28.2228 39.0056 28.2706C39.4711 29.9592 39.7413 31.6831 39.7474 33.4374C39.7476 33.4798 39.7477 33.5221 39.7479 33.5657C39.7481 34.2656 39.703 34.9558 39.6265 35.6513C39.6219 35.6948 39.6173 35.7383 39.6125 35.7832C39.5566 36.3001 39.4622 36.7776 39.3096 37.2765C39.2466 37.5023 39.2307 37.697 39.2269 37.9311C39.1926 38.8256 38.9229 39.5631 38.2666 40.1894C37.5396 40.7513 36.7649 40.9412 35.8585 40.856C35.2608 40.7282 34.6896 40.4346 34.2836 39.9688C34.1124 39.8194 33.9572 39.7964 33.7363 39.7491C32.8796 39.5405 32.2637 38.8967 31.7534 38.1987C31.4135 37.7572 30.9063 37.5334 30.4229 37.2787C29.3841 36.7134 28.8647 35.8124 28.3182 34.8066C27.9804 34.1863 27.6484 33.6152 27.1299 33.1275C26.9354 32.9281 26.7709 32.7069 26.6012 32.4865C26.4349 32.2715 26.2633 32.0657 26.0795 31.865C25.545 31.2789 25.1291 30.7687 25.1632 29.9378C25.22 29.5103 25.4336 29.2453 25.7643 28.9791C26.21 28.6693 26.6876 28.6593 27.2146 28.7399C28.1218 28.962 28.71 29.7749 29.2234 30.4956C29.3837 30.695 29.5287 30.8574 29.7822 30.9221C29.8267 30.9249 29.8712 30.9276 29.9171 30.9304C29.9621 30.9337 30.007 30.937 30.0534 30.9405C30.1313 30.9435 30.2093 30.945 30.2873 30.945C30.4289 30.4578 30.3419 29.9519 30.2305 29.4677C30.2188 29.4142 30.207 29.3607 30.195 29.3056C30.158 29.1372 30.12 28.969 30.082 28.8008C30.0442 28.6307 30.0066 28.4606 29.9691 28.2904C29.9458 28.1851 29.9223 28.0798 29.8986 27.9746C29.8181 27.615 29.8181 27.615 29.8181 27.485C29.7539 27.4889 29.6896 27.4928 29.6235 27.4968C28.9928 27.534 28.3629 27.5583 27.7314 27.573C27.6334 27.5754 27.5354 27.5777 27.4374 27.5801C27.1749 27.5865 26.9124 27.5926 26.6498 27.5986C26.4853 27.6023 26.3207 27.6061 26.1561 27.6099C24.4773 27.6485 22.7984 27.6782 21.1193 27.6992C20.9562 27.7012 20.7931 27.7034 20.63 27.7057C20.3732 27.7091 20.1163 27.7122 19.8594 27.715C19.7657 27.716 19.672 27.7172 19.5783 27.7185C19.0592 27.7255 18.5475 27.7169 18.0305 27.6609C18.0215 27.7667 18.0215 27.7667 18.0122 27.8747C17.9624 28.3236 17.8493 28.7614 17.7474 29.2007C17.5261 30.0223 17.5261 30.0223 17.6489 30.822C17.6781 30.8626 17.7072 30.9032 17.7373 30.945C18.1059 30.951 18.3369 30.8819 18.6037 30.6257C18.8091 30.3901 18.9898 30.1369 19.1744 29.8849C19.6161 29.288 20.0799 28.9522 20.7868 28.7165C21.352 28.6724 21.8215 28.7166 22.2713 29.0794C22.609 29.4037 22.7339 29.6794 22.7514 30.1497C22.7288 30.803 22.4001 31.2758 21.9421 31.7203C21.7195 31.9406 21.5363 32.1811 21.3513 32.4332C21.1443 32.7106 20.9421 32.9736 20.6879 33.2102C20.1664 33.7098 19.8334 34.3649 19.4966 34.9952C18.8322 36.2387 18.1214 36.9512 16.8808 37.6242C16.6613 37.7427 16.6613 37.7427 16.4713 37.9018C16.3885 37.9824 16.3885 37.9824 16.2712 37.9824C16.2555 38.016 16.2397 38.0495 16.2235 38.0841C16.1515 38.2216 16.0703 38.3416 15.978 38.4662C15.9326 38.5284 15.9326 38.5284 15.8863 38.5918C15.8585 38.6229 15.8307 38.6541 15.802 38.6862C15.7633 38.6862 15.7246 38.6862 15.6847 38.6862C15.6702 38.7201 15.6557 38.754 15.6407 38.789C15.3997 39.2221 14.9056 39.5136 14.4532 39.6831C14.3326 39.7116 14.2116 39.7385 14.0903 39.7637C13.784 39.8328 13.6455 39.9292 13.4418 40.1619C12.9957 40.6289 12.3052 40.8594 11.6737 40.8808C10.8333 40.8866 10.1257 40.6311 9.50504 40.046C8.93007 39.4268 8.75083 38.7861 8.71838 37.9632C8.70223 37.6821 8.64233 37.4325 8.56145 37.1639C8.45609 36.7818 8.41645 36.4006 8.37979 36.0068C8.36537 35.86 8.35086 35.7131 8.33627 35.5663C8.32941 35.4967 8.32255 35.4271 8.31548 35.3555C8.29959 35.2061 8.28124 35.0582 8.25838 34.9098C8.05637 33.5967 8.17378 32.2535 8.35414 30.945C8.36168 30.8896 8.36922 30.8342 8.37699 30.7771C8.50838 29.8506 8.73855 28.9454 8.96461 28.0385C8.9968 27.9094 9.02879 27.7802 9.06074 27.651C9.09395 27.5172 9.12761 27.3836 9.16222 27.2502C9.19106 27.1341 9.21341 27.0164 9.23381 26.8986C9.13583 26.737 9.13583 26.737 8.99923 26.6053C8.83993 26.2134 8.8617 25.8268 8.86361 25.4104C8.86366 25.3651 8.86371 25.3198 8.86376 25.2731C8.86642 24.1403 8.92341 23.0089 8.97466 21.8775C9.02518 20.7603 9.06646 19.6435 9.09155 18.5254C9.09344 18.4418 9.09344 18.4418 9.09536 18.3565C9.10764 17.8082 9.11907 17.2598 9.12913 16.7114C9.13295 16.5076 9.13714 16.3038 9.14139 16.1C9.14412 15.9615 9.14632 15.823 9.14848 15.6846C9.18178 13.9261 9.18178 13.9261 9.52703 13.5275C9.83878 13.2781 10.1154 13.1695 10.5151 13.1636C10.5855 13.1625 10.656 13.1613 10.7285 13.1601C10.8046 13.1591 10.8807 13.1581 10.959 13.1571C11.0377 13.1559 11.1163 13.1547 11.1949 13.1534C11.4017 13.1502 11.6085 13.1473 11.8153 13.1445C12.0264 13.1415 12.2375 13.1383 12.4486 13.135C12.8627 13.1287 13.2767 13.1228 13.6908 13.117C13.6952 13.0324 13.6952 13.0324 13.6997 12.9461C13.7109 12.733 13.7226 12.52 13.7345 12.307C13.7395 12.2155 13.7444 12.124 13.7491 12.0325C13.8373 10.3396 13.8373 10.3396 14.16 10.0089C14.5285 9.7382 15.2699 9.24648 15.7434 9.24648C15.7361 9.18963 15.7289 9.13278 15.7214 9.07421C15.7227 8.76031 15.8905 8.53426 16.0952 8.30816C16.3548 8.10469 16.6335 8.03085 16.9612 8.04724C17.3564 8.12671 17.6276 8.40224 17.8546 8.71868C17.9603 9.03573 17.9562 9.36117 17.8436 9.67532C17.6242 10.0007 17.4092 10.179 17.0336 10.3021C16.7088 10.3369 16.5055 10.2618 16.2125 10.1261C15.9998 10.0438 15.8708 10.0751 15.6659 10.1562C15.5717 10.1979 15.4777 10.2404 15.3842 10.2838C15.3366 10.3044 15.2891 10.3251 15.2401 10.3464C14.9093 10.4932 14.9093 10.4932 14.6878 10.7712C14.6537 10.9743 14.6537 10.9743 14.647 11.2031C14.6437 11.2655 14.6437 11.2655 14.6403 11.3293C14.6334 11.4621 14.6275 11.595 14.6218 11.7279C14.6154 11.8601 14.6088 11.9924 14.6021 12.1246C14.5979 12.2067 14.5941 12.2888 14.5905 12.371C14.5786 12.6252 14.5481 12.863 14.5118 13.117C16.1375 13.1364 17.7631 13.1557 19.438 13.1757C19.438 12.5564 19.438 11.9371 19.438 11.299C19.3412 11.2603 19.2445 11.2216 19.1448 11.1818C18.9145 10.9777 18.8043 10.8528 18.7789 10.541C18.7643 9.87534 18.7643 9.87534 19.0275 9.59835C19.344 9.30365 19.5421 9.22215 19.972 9.22609C20.3119 9.26692 20.5269 9.44923 20.7538 9.69364C20.9493 9.99079 20.9455 10.3096 20.9041 10.654C20.8017 10.9206 20.6839 11.0836 20.431 11.2205C20.2407 11.3423 20.2407 11.3423 20.2191 11.5512C20.2209 11.6261 20.2228 11.7011 20.2247 11.7783C20.2255 11.8515 20.2264 11.9248 20.2273 12.0002C20.2321 12.1394 20.2321 12.1394 20.237 12.2813C20.2443 12.5765 20.2515 12.8716 20.259 13.1757C21.3428 13.1757 22.4265 13.1757 23.5431 13.1757C23.5625 12.808 23.5818 12.4403 23.6018 12.0614C23.6345 11.6622 23.669 11.2633 23.7058 10.8644C23.7319 10.5794 23.7557 10.2943 23.7777 10.0089C23.7857 9.92481 23.7857 9.92481 23.7938 9.83905C23.8078 9.60726 23.8003 9.50695 23.6448 9.32895C23.5871 9.29206 23.5293 9.25516 23.4698 9.21716C23.4127 9.17905 23.3555 9.14095 23.2966 9.1017C23.157 9.02527 23.0548 8.97225 22.898 8.95325C22.8472 8.97261 22.7964 8.99196 22.7441 9.0119C22.3971 9.1147 22.0818 9.07521 21.7618 8.90927C21.5288 8.7096 21.3272 8.51549 21.3007 8.20095C21.2861 7.52952 21.2861 7.52952 21.5492 7.25256C21.9314 6.88837 22.3592 6.76967 22.8541 6.99598Z" fill="#030303"/>
<path d="M10.7179 13.9023C10.8306 13.9013 10.8306 13.9013 10.9457 13.9004C11.029 13.9012 11.1123 13.902 11.1957 13.9029C11.2844 13.9027 11.373 13.9024 11.4617 13.902C11.7057 13.9012 11.9497 13.9023 12.1937 13.9036C12.4571 13.9048 12.7205 13.9042 12.9839 13.9039C13.5016 13.9035 14.0193 13.9046 14.537 13.9063C15.1454 13.9082 15.7538 13.9084 16.3622 13.9086C17.455 13.9089 18.5478 13.9107 19.6407 13.9132C20.6876 13.9156 21.7345 13.9173 22.7814 13.918C22.8451 13.918 22.9089 13.9181 22.9745 13.9181C23.231 13.9183 23.4875 13.9185 23.7441 13.9186C26.6158 13.9206 29.4876 13.927 32.3593 13.937C32.6948 13.9382 33.0302 13.9392 33.3657 13.9401C34.2788 13.9427 35.1919 13.9462 36.1049 13.9522C36.3536 13.9539 36.6022 13.955 36.8508 13.9556C37.1267 13.9564 37.4025 13.9582 37.6784 13.961C37.7751 13.9618 37.8717 13.9622 37.9684 13.9622C38.0962 13.9622 38.2239 13.9636 38.3517 13.9655C38.4216 13.9659 38.4915 13.9664 38.5636 13.9669C38.7316 13.9972 38.7316 13.9972 38.8397 14.1018C38.9815 14.3732 38.9749 14.6299 38.9748 14.9315C38.9751 14.9788 38.9753 15.026 38.9755 15.0746C38.9761 15.233 38.9764 15.3914 38.9766 15.5498C38.977 15.6632 38.9774 15.7767 38.9778 15.8902C38.9788 16.1985 38.9794 16.5069 38.9799 16.8153C38.9802 17.0078 38.9805 17.2004 38.9809 17.3929C38.982 17.995 38.9829 18.5972 38.9834 19.1993C38.9839 19.895 38.9855 20.5907 38.9878 21.2863C38.9896 21.8238 38.9905 22.3612 38.9907 22.8987C38.9908 23.2198 38.9913 23.541 38.9928 23.8621C38.9942 24.164 38.9944 24.4659 38.9938 24.7678C38.9938 24.8788 38.9942 24.9897 38.995 25.1006C38.996 25.2518 38.9956 25.4029 38.9948 25.5541C38.9958 25.6203 38.9958 25.6203 38.9968 25.6878C38.9943 25.8901 38.9811 25.9997 38.8572 26.163C38.7159 26.2653 38.6106 26.2934 38.4384 26.3126C38.4236 26.2609 38.4089 26.2092 38.3937 26.1559C38.3379 25.961 38.2819 25.7661 38.2258 25.5713C38.2017 25.4875 38.1777 25.4038 38.1538 25.32C37.9387 24.3616 37.9387 24.3616 37.4414 23.5563C37.2218 23.4487 37.0435 23.4231 36.8 23.4243C36.7121 23.4239 36.7121 23.4239 36.6225 23.4234C36.4308 23.4402 36.2723 23.4888 36.0926 23.5563C36.0606 23.4702 36.0606 23.4702 36.028 23.3824C35.7805 22.7309 35.546 22.1715 34.9161 21.8116C34.5022 21.6455 34.0363 21.7038 33.6295 21.8556C33.6053 21.8131 33.5812 21.7706 33.5562 21.7268C33.2773 21.2599 32.9883 20.9095 32.4566 20.7413C32.2985 20.7272 32.1491 20.7196 31.9912 20.7193C31.9304 20.7172 31.9304 20.7172 31.8685 20.715C31.5111 20.7129 31.3112 20.8408 31.0565 21.0785C31.0347 21.1027 31.013 21.1269 30.9905 21.1518C30.9518 21.1361 30.9131 21.1204 30.8732 21.1042C30.8152 21.0812 30.7571 21.0582 30.6973 21.0345C30.6625 21.019 30.6278 21.0035 30.5919 20.9876C30.2067 20.825 29.8528 20.7977 29.4511 20.9246C29.1604 21.05 29.0005 21.2358 28.8811 21.5232C28.7041 22.0566 28.7625 22.514 28.88 23.052C28.8923 23.1104 28.9046 23.1687 28.9173 23.2288C28.9568 23.415 28.9968 23.6011 29.0369 23.7872C29.0758 23.9697 29.1146 24.1523 29.1534 24.3348C29.1774 24.4478 29.2015 24.5608 29.2258 24.6737C29.3718 25.3553 29.5057 26.0394 29.6417 26.7231C28.4823 26.7533 27.3228 26.7826 26.1633 26.811C26.1207 26.8121 26.0781 26.8131 26.0342 26.8142C21.8183 26.9177 21.8183 26.9177 19.7637 26.91C19.7231 26.9099 19.6825 26.9097 19.6407 26.9095C19.182 26.9077 18.7233 26.9045 18.2646 26.899C18.2968 26.5619 18.345 26.2351 18.4192 25.9048C18.4333 25.8405 18.4333 25.8405 18.4477 25.775C18.4677 25.6836 18.4879 25.5923 18.5082 25.501C18.5508 25.3086 18.5927 25.116 18.6346 24.9235C18.6666 24.7769 18.6986 24.6303 18.7306 24.4838C18.741 24.4365 18.7513 24.3891 18.762 24.3404C18.7817 24.2502 18.8015 24.16 18.8212 24.0699C18.8809 23.7974 18.9395 23.5248 18.9977 23.252C19.0126 23.1843 19.0276 23.1166 19.043 23.0468C19.1731 22.4314 19.2409 21.8437 18.9058 21.2815C18.7294 21.0452 18.5435 20.9409 18.2646 20.8586C17.8717 20.8124 17.5662 20.8687 17.209 21.0345C17.1703 21.0732 17.1316 21.1119 17.0917 21.1518C17.0337 21.1518 16.9756 21.1518 16.9158 21.1518C16.818 21.0541 16.7203 20.9563 16.6226 20.8586C16.3098 20.6427 15.9928 20.6245 15.6256 20.6827C14.9938 20.9048 14.5778 21.2655 14.2768 21.8556C14.2332 21.8362 14.1897 21.8169 14.1448 21.7969C13.6552 21.6663 13.2065 21.6827 12.7625 21.938C12.3214 22.2606 12.1441 22.7778 11.931 23.263C11.8925 23.3415 11.8537 23.4199 11.8137 23.4976C11.7701 23.4879 11.7266 23.4783 11.6817 23.4683C11.0319 23.3731 11.0319 23.3731 10.4323 23.5792C9.99835 24.0624 9.87716 24.9404 9.70247 25.5502C9.68312 25.5502 9.66377 25.5502 9.64383 25.5502C9.63788 24.9669 9.65285 24.3912 9.69514 23.8092C9.7592 22.8583 9.79247 21.9064 9.82343 20.9539C9.82593 20.8771 9.82843 20.8002 9.83101 20.7211C9.86349 19.7094 9.88768 18.6978 9.90454 17.6858C9.93455 15.9133 9.93455 15.9133 9.97501 15.1229C9.98081 15.0061 9.98536 14.8892 9.98985 14.7723C9.9939 14.7041 9.99794 14.636 10.0021 14.5657C10.0066 14.4787 10.0066 14.4787 10.0112 14.3898C10.1114 14.0226 10.3587 13.9018 10.7179 13.9023Z" fill="#CB9DEF"/>
<path d="M16.1538 21.4447C16.2675 21.5107 16.2675 21.5107 16.3298 21.6206C16.4042 21.9117 16.3683 22.1027 16.2782 22.3869C16.2661 22.426 16.2539 22.4651 16.2414 22.5054C16.2154 22.589 16.189 22.6724 16.1623 22.7557C16.1204 22.8867 16.0794 23.018 16.0387 23.1494C15.9847 23.3236 15.9304 23.4977 15.8758 23.6716C15.3454 25.3647 15.0159 27.0742 14.9296 28.8486C14.926 28.9139 14.9224 28.9792 14.9187 29.0465C14.9164 29.1073 14.9141 29.1681 14.9118 29.2307C14.9095 29.2844 14.9072 29.3381 14.9049 29.3934C14.9261 29.5694 14.9741 29.6472 15.0982 29.7723C15.2816 29.791 15.4015 29.7966 15.5674 29.7136C15.628 29.5318 15.6414 29.3852 15.6533 29.1943C15.6578 29.1256 15.6623 29.0569 15.6669 28.9862C15.6715 28.9129 15.6762 28.8397 15.681 28.7643C15.8146 26.8196 16.2037 24.9354 16.8026 23.0794C16.8204 23.0228 16.8382 22.9663 16.8566 22.9079C17.0143 22.4362 17.2662 21.918 17.6786 21.6206C17.8605 21.5846 18.0266 21.5718 18.2064 21.6206C18.3882 21.8085 18.4055 21.9482 18.4025 22.205C18.3928 22.6014 18.3261 22.9694 18.2357 23.3543C18.2123 23.4589 18.2123 23.4589 18.1884 23.5655C18.1544 23.717 18.1202 23.8683 18.0854 24.0196C17.9983 24.3993 17.9139 24.7797 17.8292 25.1601C17.7995 25.2937 17.7696 25.4273 17.7397 25.5609C17.6008 26.184 17.469 26.8083 17.3414 27.4338C17.3328 27.4757 17.3243 27.5176 17.3155 27.5607C17.3071 27.6019 17.2987 27.643 17.29 27.6854C16.9698 29.2547 16.9698 29.2547 16.8525 29.6174C16.7866 29.8801 16.7795 30.1221 16.7806 30.3917C16.7797 30.4401 16.7787 30.4884 16.7777 30.5382C16.7775 30.8385 16.8181 31.0331 16.9749 31.297C16.9942 31.3551 17.0136 31.4132 17.0335 31.473C17.138 31.5399 17.138 31.5399 17.2681 31.5903C17.3122 31.6104 17.3562 31.6305 17.4016 31.6512C17.7748 31.7829 18.2547 31.7657 18.6178 31.6029C19.1019 31.3065 19.4448 30.8683 19.7765 30.4183C20.1333 29.935 20.1333 29.935 20.4092 29.7576C20.4541 29.7283 20.4989 29.6989 20.5451 29.6687C20.8433 29.4952 21.1551 29.5102 21.4905 29.5377C21.7079 29.6283 21.8491 29.7387 21.9597 29.9482C22.0222 30.2958 21.9015 30.5125 21.7189 30.797C21.5708 30.9945 21.4007 31.1581 21.222 31.3277C21.0618 31.4916 20.9238 31.6674 20.7868 31.8505C20.6075 32.0898 20.4245 32.3187 20.2223 32.5396C19.624 33.1955 19.1795 33.895 18.7651 34.6774C18.2879 35.5745 17.8283 36.2018 16.9162 36.6924C16.7729 36.7723 16.6301 36.8532 16.4874 36.9343C16.4358 36.9633 16.4358 36.9633 16.3832 36.9929C16.1137 37.1461 15.8656 37.317 15.626 37.5134C15.6018 37.4594 15.5776 37.4054 15.5527 37.3498C14.7776 35.6403 13.6621 34.2926 11.8801 33.571C11.4782 33.4245 11.0583 33.3251 10.6412 33.2323C10.5712 33.2167 10.5712 33.2167 10.4998 33.2007C10.3399 33.1722 10.1865 33.1615 10.0243 33.1551C9.9644 33.1527 9.90449 33.1502 9.84276 33.1477C9.78089 33.1454 9.71901 33.1431 9.65526 33.1407C9.56075 33.1369 9.56075 33.1369 9.46432 33.133C9.30928 33.1268 9.15423 33.1208 8.99917 33.115C8.96822 30.9098 9.58135 28.7751 10.1501 26.6641C10.166 26.6047 10.1819 26.5453 10.1983 26.4842C10.3583 25.8889 10.5236 25.2962 10.7159 24.7105C10.7374 24.6442 10.7374 24.6442 10.7594 24.5766C10.8613 24.2741 10.8613 24.2741 10.9931 24.1424C11.3788 24.1762 11.3788 24.1762 11.4623 24.2597C11.492 24.695 11.408 25.0832 11.3136 25.5069C11.0926 26.5091 10.9449 27.5215 10.8073 28.5379C10.7916 28.6537 10.7757 28.7694 10.7597 28.8852C10.7295 29.1056 10.7 29.3261 10.6708 29.5466C10.6618 29.6122 10.6529 29.6777 10.6436 29.7452C10.5566 30.3737 10.5566 30.3737 10.5826 31.0038C10.7739 31.1314 10.8309 31.1377 11.0517 31.1211C11.1098 31.1017 11.1679 31.0824 11.2277 31.0625C11.2324 31.0255 11.2372 30.9886 11.2421 30.9505C11.2924 30.5594 11.3429 30.1682 11.3934 29.7771C11.4121 29.6319 11.4308 29.4867 11.4495 29.3416C11.5033 28.9235 11.5576 28.5056 11.6129 28.0878C11.629 27.9654 11.645 27.8431 11.6608 27.7207C11.7563 26.9861 11.8882 26.2696 12.0634 25.5498C12.0749 25.502 12.0864 25.4541 12.0982 25.4047C12.7028 22.8962 12.7028 22.8962 13.2839 22.493C13.4531 22.4426 13.5746 22.4174 13.7494 22.4417C13.8667 22.559 13.8667 22.559 13.8748 22.668C13.8336 23.0963 13.7112 23.491 13.5764 23.8976C12.979 25.7092 12.4034 27.7259 12.3896 29.6513C12.3887 29.7051 12.3879 29.7588 12.3871 29.8142C12.3875 29.9598 12.3875 29.9598 12.5179 30.0655C12.7555 30.0857 12.8432 30.0832 13.0457 29.9482C13.0892 29.7999 13.0892 29.7999 13.108 29.622C13.1173 29.553 13.1266 29.484 13.1361 29.4128C13.1587 29.2215 13.18 29.0301 13.2008 28.8386C13.4119 26.9288 13.9524 25.0662 14.5448 23.2444C14.5757 23.1474 14.5757 23.1474 14.6073 23.0484C14.8053 22.4507 15.0285 21.8672 15.5674 21.5034C15.7543 21.4099 15.9505 21.4222 16.1538 21.4447Z" fill="#CB9DEF"/>
<path d="M32.2223 21.445C32.835 21.7514 33.0947 22.3572 33.3021 22.9764C33.3929 23.2566 33.4786 23.5382 33.5638 23.8201C33.5791 23.8703 33.5944 23.9204 33.6101 23.9721C33.8612 24.7948 34.0921 25.6208 34.2968 26.4565C34.3304 26.5933 34.3655 26.7298 34.4008 26.8662C34.4487 27.0663 34.4735 27.2539 34.4892 27.4579C34.5075 27.6123 34.5075 27.6123 34.5628 27.7958C34.6747 28.2286 34.7054 28.6819 34.7542 29.1256C34.7678 29.2477 34.7823 29.3696 34.7969 29.4915C34.8051 29.5637 34.8132 29.636 34.8216 29.7104C34.862 29.8931 34.8838 29.9623 35.0372 30.0658C35.2156 30.0902 35.2156 30.0902 35.3891 30.0658C35.5538 29.9011 35.5232 29.7974 35.5233 29.5668C35.5196 29.0431 35.4407 28.5357 35.3524 28.0205C35.3445 27.9732 35.3366 27.9259 35.3285 27.8772C35.1905 27.0526 35.0206 26.2403 34.8026 25.4328C34.7853 25.3684 34.7679 25.304 34.7501 25.2376C34.4857 24.2521 34.4857 24.2521 34.1584 23.2864C34.0483 22.9954 34.0278 22.8043 34.0989 22.5006C34.305 22.4466 34.4258 22.4338 34.6304 22.5006C35.3271 22.975 35.5143 24.1389 35.7116 24.916C35.7228 24.9596 35.7339 25.0032 35.7454 25.048C36.1425 26.6127 36.3432 28.211 36.524 29.8129C36.5296 29.862 36.5353 29.9112 36.5411 29.9618C36.5516 30.0531 36.5618 30.1445 36.5716 30.2359C36.6021 30.5013 36.6467 30.7514 36.7379 31.0041C36.9036 31.1402 36.9036 31.1402 37.0934 31.1104C37.2831 31.0781 37.2831 31.0781 37.383 30.8868C37.3783 30.7327 37.3658 30.5884 37.3463 30.436C37.3379 30.3639 37.3379 30.3639 37.3292 30.2905C37.3161 30.1803 37.3027 30.0701 37.2889 29.96C37.2636 29.7552 37.2395 29.5503 37.2155 29.3453C37.0485 27.9411 36.8651 26.5337 36.534 25.1574C36.462 24.8506 36.4154 24.5754 36.4447 24.26C36.6343 24.1336 36.694 24.1152 36.9138 24.1427C37.0808 24.2736 37.1302 24.4031 37.189 24.6038C37.2065 24.6632 37.2241 24.7225 37.2422 24.7837C37.2609 24.8491 37.2795 24.9146 37.2987 24.982C37.3188 25.0512 37.3388 25.1204 37.3595 25.1917C37.626 26.121 37.8689 27.0569 38.1099 27.9931C38.1445 28.1272 38.1794 28.2613 38.2143 28.3953C38.6686 30.1405 38.6686 30.1405 38.7752 30.9994C38.7909 31.1248 38.8086 31.2499 38.8264 31.375C38.9061 31.9571 38.921 32.5283 38.9078 33.1153C38.8703 33.1159 38.8329 33.1164 38.7944 33.117C37.0616 33.1487 35.5522 33.5447 34.2162 34.6987C34.1724 34.734 34.1286 34.7693 34.0835 34.8057C33.2427 35.5056 32.6924 36.4923 32.3395 37.5137C32.1718 37.4355 32.0334 37.3464 31.8887 37.2314C31.6417 37.043 31.3821 36.8963 31.108 36.7513C30.1029 36.2196 29.6052 35.5205 29.0788 34.533C28.7426 33.9024 28.3943 33.3162 27.9016 32.7925C27.5688 32.4351 27.2609 32.053 26.9662 31.6639C26.8293 31.4849 26.6841 31.3263 26.5227 31.169C26.1955 30.8475 25.9742 30.5347 25.9473 30.0658C26.0131 29.8567 26.0819 29.7526 26.2405 29.604C26.549 29.4883 26.8771 29.4812 27.1932 29.5785C27.7353 29.8311 28.0711 30.2749 28.4114 30.7481C28.7278 31.1771 29.0966 31.6025 29.6419 31.7078C30.0726 31.7544 30.4623 31.7483 30.8148 31.4733C31.1543 31.0711 31.1998 30.6302 31.1667 30.1244C31.125 29.8529 31.0655 29.5861 31.0054 29.3181C30.9873 29.2353 30.9693 29.1526 30.9513 29.0698C30.8872 28.7761 30.8217 28.4826 30.7561 28.1892C30.7295 28.0694 30.7028 27.9496 30.6761 27.8299C30.6182 27.5696 30.5602 27.3094 30.5022 27.0491C30.472 26.9135 30.4418 26.778 30.4116 26.6424C30.3966 26.575 30.3816 26.5075 30.3661 26.4381C30.1675 25.546 29.9694 24.6539 29.7794 23.7599C29.7564 23.6523 29.7333 23.5447 29.7099 23.4371C29.6779 23.289 29.6465 23.1407 29.6153 22.9924C29.606 22.9501 29.5967 22.9077 29.5871 22.864C29.495 22.4176 29.4533 22.0227 29.7005 21.6209C29.7823 21.6145 29.8642 21.61 29.9461 21.6063C30.0145 21.6022 30.0145 21.6022 30.0842 21.598C30.3371 21.6382 30.4845 21.8044 30.6308 22.0061C30.875 22.4275 31.0502 22.8417 31.1923 23.307C31.2141 23.3767 31.2359 23.4465 31.2584 23.5183C31.4276 24.0706 31.5781 24.6274 31.7201 25.1873C31.7348 25.2447 31.7348 25.2447 31.7499 25.3033C31.873 25.787 31.9628 26.2648 32.0219 26.7596C32.0522 27.0054 32.0934 27.2487 32.1364 27.4925C32.2198 28.0094 32.2387 28.5169 32.2475 29.04C32.2493 29.1006 32.2511 29.1612 32.253 29.2237C32.2541 29.2784 32.2553 29.3332 32.2565 29.3896C32.2852 29.5643 32.3335 29.6467 32.4568 29.7726C32.639 29.7991 32.7526 29.812 32.9065 29.7038C33.0883 29.4543 33 29.0717 32.9846 28.7756C32.9821 28.7268 32.9796 28.678 32.9771 28.6277C32.8566 26.5042 32.3541 24.4659 31.6781 22.457C31.5811 22.1535 31.4856 21.8041 31.6358 21.5036C31.8285 21.4073 32.0148 21.4102 32.2223 21.445Z" fill="#CB9DEF"/>
<path d="M26.0356 21.6708C26.0982 21.6697 26.1607 21.6686 26.2251 21.6675C26.3336 21.6655 26.4421 21.6626 26.5505 21.6584C26.886 21.6534 27.1332 21.7267 27.4135 21.9142C27.8046 22.2966 27.9122 22.7328 27.9413 23.263C27.946 23.3339 27.946 23.3339 27.9507 23.4062C27.9666 23.8464 27.9006 24.2813 27.6298 24.6412C27.3048 24.9435 26.9372 24.9228 26.5172 24.9231C26.4572 24.9236 26.3973 24.924 26.3356 24.9245C26.1379 24.926 25.9403 24.9265 25.7426 24.9269C25.6049 24.9274 25.4671 24.9279 25.3294 24.9285C25.0408 24.9294 24.7522 24.9299 24.4636 24.93C24.0943 24.9304 23.7251 24.9326 23.3558 24.9353C23.0714 24.937 22.7869 24.9374 22.5024 24.9375C22.3663 24.9377 22.2302 24.9385 22.0941 24.9397C21.9034 24.9413 21.7129 24.941 21.5223 24.9402C21.4385 24.9415 21.4385 24.9415 21.3529 24.9429C20.9836 24.9388 20.7135 24.864 20.4348 24.6119C20.1275 24.1565 20.1295 23.6861 20.1269 23.1531C20.1257 23.0907 20.1245 23.0283 20.1233 22.9641C20.1215 22.6085 20.1258 22.3363 20.3175 22.0315C20.5857 21.7758 20.83 21.6951 21.2001 21.6996C21.2681 21.6987 21.2681 21.6987 21.3375 21.6977C21.4869 21.6961 21.6361 21.6964 21.7855 21.6968C21.8908 21.696 21.9961 21.6951 22.1014 21.6941C22.379 21.6918 22.6565 21.6912 22.934 21.691C23.2116 21.6904 23.4892 21.6882 23.7668 21.6862C24.2393 21.6828 24.7117 21.6816 25.1842 21.6812C25.4681 21.6807 25.7518 21.6773 26.0356 21.6708Z" fill="#010101"/>
<path d="M12.5681 36.2617C13.1073 36.628 13.4637 37.1044 13.6134 37.7439C13.6651 38.2508 13.6503 38.706 13.3451 39.1344C12.9005 39.6512 12.4292 39.9888 11.7477 40.0823C11.1496 40.1262 10.6287 39.9497 10.1716 39.5655C9.78124 39.2179 9.57257 38.7513 9.49402 38.2391C9.46072 37.5984 9.64675 37.0893 10.0633 36.6033C10.759 35.9418 11.7246 35.7715 12.5681 36.2617Z" fill="#CB9DEF"/>
<path d="M37.6184 36.3986C38.0141 36.6885 38.3234 37.1434 38.3994 37.6328C38.4617 38.3255 38.3548 38.8641 37.9043 39.4078C37.6443 39.6797 37.3829 39.8445 37.032 39.9759C36.9928 39.9909 36.9536 40.0059 36.9133 40.0213C36.3939 40.1845 35.8688 40.0559 35.3858 39.8376C34.9782 39.6093 34.5904 39.2728 34.3797 38.8491C34.2152 38.2569 34.2859 37.6223 34.5817 37.0913C34.9004 36.5673 35.3066 36.1905 35.9037 36.0213C36.5411 35.9098 37.0819 36.0468 37.6184 36.3986Z" fill="#CB9DEF"/>
<path d="M36.6209 37.2786C36.8384 37.3834 36.9458 37.4758 37.0863 37.6708C37.1693 37.9294 37.1664 38.1324 37.09 38.3929C36.9839 38.5852 36.8486 38.7126 36.6612 38.8291C36.3459 38.895 36.1134 38.8458 35.8365 38.6971C35.6516 38.543 35.5807 38.4331 35.5435 38.1954C35.5367 37.9393 35.5323 37.7486 35.6972 37.5425C35.9885 37.2778 36.2343 37.2249 36.6209 37.2786Z" fill="#040404"/>
<path d="M11.872 37.2785C12.0927 37.3828 12.1956 37.4739 12.3375 37.6707C12.4204 37.9289 12.4111 38.1319 12.3412 38.3928C12.1848 38.6694 11.9975 38.7715 11.6961 38.8619C11.4521 38.8735 11.2674 38.8288 11.0583 38.697C10.8647 38.4976 10.7976 38.3291 10.7871 38.0519C10.7914 37.7597 10.8794 37.6179 11.0799 37.4121C11.3091 37.2178 11.5865 37.2474 11.872 37.2785Z" fill="#040404"/>
<path d="M20.5529 18.4903C20.6107 18.4896 20.6685 18.4889 20.728 18.4882C21.2715 18.4904 21.2715 18.4904 21.4913 18.6882C21.5536 18.8898 21.5536 18.8898 21.5499 19.0987C21.4271 19.2634 21.3561 19.3257 21.1524 19.3636C21.0913 19.3639 21.0301 19.3642 20.9671 19.3644C20.8667 19.3649 20.8667 19.3649 20.7642 19.3654C20.6945 19.3645 20.6248 19.3635 20.5529 19.3626C20.4832 19.3635 20.4135 19.3644 20.3417 19.3654C20.2747 19.3651 20.2078 19.3648 20.1388 19.3644C20.0776 19.3642 20.0164 19.3639 19.9534 19.3636C19.7498 19.3257 19.6788 19.2634 19.556 19.0987C19.5523 18.8898 19.5523 18.8898 19.6146 18.6882C19.8837 18.4459 20.2121 18.4863 20.5529 18.4903Z" fill="#080808"/>
<path d="M16.7922 18.4975C16.8796 18.4957 16.8796 18.4957 16.9688 18.4938C17.5207 18.4908 17.5207 18.4908 17.7378 18.6881C17.8001 18.8897 17.8001 18.8897 17.7965 19.0986C17.6733 19.2643 17.6034 19.3259 17.3981 19.3616C17.3365 19.3612 17.275 19.3607 17.2116 19.3602C17.1444 19.36 17.0771 19.3597 17.0079 19.3595C16.9029 19.3573 16.9029 19.3573 16.7958 19.3551C16.7256 19.3551 16.6555 19.355 16.5831 19.3549C16.0618 19.3496 16.0618 19.3496 15.8612 19.2159C15.7705 18.8662 15.7705 18.8662 15.8758 18.6661C16.1214 18.438 16.4782 18.4991 16.7922 18.4975Z" fill="#080808"/>
<path d="M35.6237 18.4905C35.6814 18.4898 35.7392 18.4891 35.7987 18.4884C36.3376 18.4906 36.3376 18.4906 36.562 18.6884C36.6243 18.857 36.6243 18.857 36.6206 19.0403C36.5249 19.196 36.5249 19.196 36.3861 19.3335C36.2232 19.3705 36.2232 19.3705 36.0379 19.3704C35.9374 19.3706 35.9374 19.3706 35.8349 19.3707C35.7652 19.3693 35.6955 19.3679 35.6237 19.3665C35.5191 19.3675 35.5191 19.3675 35.4125 19.3684C34.9013 19.3641 34.9013 19.3641 34.7225 19.2272C34.6267 19.0989 34.6267 19.0989 34.623 18.89C34.6854 18.6884 34.6854 18.6884 34.7955 18.5892C35.0697 18.4743 35.3295 18.487 35.6237 18.4905Z" fill="#070707"/>
<path d="M31.8698 18.4905C31.9275 18.4898 31.9853 18.4891 32.0448 18.4884C32.5832 18.4906 32.5832 18.4906 32.8081 18.6884C32.8741 18.857 32.8741 18.857 32.8667 19.0403C32.7696 19.1903 32.7258 19.2497 32.5735 19.3335C32.3273 19.376 32.086 19.3717 31.8368 19.3665C31.7701 19.3671 31.7035 19.3678 31.6348 19.3684C31.1471 19.3641 31.1471 19.3641 30.9695 19.2272C30.8728 19.0989 30.8728 19.0989 30.8691 18.89C30.9315 18.6884 30.9315 18.6884 31.0416 18.5892C31.3158 18.4743 31.5755 18.487 31.8698 18.4905Z" fill="#080808"/>
<path d="M28.089 18.4827C28.1799 18.4813 28.1799 18.4813 28.2725 18.4799C28.5397 18.4813 28.7149 18.4844 28.9502 18.618C29.0567 18.7466 29.0567 18.7466 29.0897 18.9555C29.0567 19.1571 29.0567 19.1571 28.9592 19.256C28.6866 19.4091 28.3611 19.3605 28.0561 19.3587C27.9859 19.3598 27.9157 19.361 27.8434 19.3622C27.7762 19.3622 27.709 19.3621 27.6398 19.3621C27.5783 19.3622 27.5169 19.3623 27.4536 19.3624C27.2973 19.333 27.2973 19.333 27.1898 19.2249C27.095 19.0496 27.0887 18.9428 27.1214 18.7466C27.3842 18.4339 27.7124 18.477 28.089 18.4827Z" fill="#070707"/>
<path d="M13.0421 18.5017C13.1009 18.501 13.1597 18.5002 13.2202 18.4995C13.3052 18.4993 13.3052 18.4993 13.3919 18.4992C13.4436 18.4989 13.4953 18.4987 13.5486 18.4984C13.7019 18.5138 13.7959 18.5475 13.9254 18.63C14.0158 18.8108 14.0015 18.9589 13.9841 19.1578C13.854 19.2918 13.7712 19.3306 13.5857 19.3574C13.3849 19.3593 13.1843 19.3605 12.9835 19.3594C12.9133 19.3605 12.8431 19.3617 12.7708 19.3629C12.7036 19.3629 12.6364 19.3628 12.5672 19.3628C12.5058 19.3629 12.4443 19.363 12.381 19.3631C12.2247 19.3337 12.2247 19.3337 12.1167 19.2258C12.0249 19.0546 12.0244 18.9387 12.0488 18.7473C12.281 18.4266 12.6886 18.5019 13.0421 18.5017Z" fill="#070707"/>
<path d="M24.3062 18.4871C24.3639 18.4867 24.4217 18.4863 24.4812 18.4859C24.8122 18.4888 25.0571 18.5013 25.3031 18.7474C25.3259 18.9526 25.3337 19.059 25.2066 19.2264C25.0322 19.3621 24.9374 19.3633 24.7183 19.3629C24.651 19.3629 24.5838 19.363 24.5145 19.363C24.4445 19.3618 24.3746 19.3607 24.3025 19.3595C24.2323 19.3599 24.1621 19.3603 24.0898 19.3607C23.5761 19.357 23.5761 19.357 23.4362 19.2568C23.318 19.0857 23.3398 18.9474 23.3678 18.7474C23.6257 18.4404 23.9363 18.4796 24.3062 18.4871Z" fill="#070707"/>
<path d="M31.8708 15.7309C31.9468 15.7297 32.0229 15.7286 32.1012 15.7274C32.1739 15.7274 32.2467 15.7274 32.3216 15.7275C32.4217 15.7273 32.4217 15.7273 32.5239 15.7271C32.6918 15.7566 32.6918 15.7566 32.8031 15.8645C32.8962 16.0469 32.8704 16.1507 32.8091 16.343C32.5364 16.6086 32.199 16.5468 31.8414 16.5446C31.7745 16.5458 31.7076 16.547 31.6387 16.5482C31.5744 16.5481 31.51 16.5481 31.4437 16.548C31.385 16.5482 31.3263 16.5483 31.2659 16.5484C31.0661 16.5111 30.9967 16.4434 30.8738 16.2844C30.8478 16.1024 30.8345 15.99 30.9402 15.8354C31.1891 15.6563 31.5763 15.7293 31.8708 15.7309Z" fill="#030303"/>
<path d="M16.7656 15.7307C16.8383 15.7295 16.9111 15.7283 16.9861 15.7271C17.0909 15.7272 17.0909 15.7272 17.1978 15.7272C17.2618 15.7271 17.3258 15.727 17.3918 15.7269C17.5997 15.7631 17.6704 15.8234 17.7955 15.9909C17.7955 16.1705 17.7955 16.1705 17.7369 16.3428C17.4638 16.6081 17.1271 16.5466 16.7692 16.5443C16.7023 16.5455 16.6354 16.5467 16.5665 16.5479C16.5022 16.5479 16.4378 16.5478 16.3716 16.5478C16.3129 16.5479 16.2542 16.548 16.1937 16.5481C15.994 16.5108 15.9245 16.4431 15.8016 16.2841C15.7755 16.1017 15.7619 15.9895 15.869 15.8351C16.1105 15.6598 16.4789 15.729 16.7656 15.7307Z" fill="#020202"/>
<path d="M20.5493 15.7342C20.6638 15.7321 20.6638 15.7321 20.7806 15.7299C20.8536 15.7296 20.9265 15.7294 21.0017 15.7292C21.1024 15.7285 21.1024 15.7285 21.2052 15.7277C21.374 15.7562 21.374 15.7562 21.4836 15.866C21.5672 16.0233 21.5807 16.1083 21.5499 16.284C21.4267 16.4404 21.3566 16.5106 21.1588 16.5489C21.1005 16.5492 21.0421 16.5495 20.982 16.5497C20.918 16.55 20.8539 16.5503 20.7879 16.5507C20.7213 16.5498 20.6546 16.5488 20.586 16.5479C20.4863 16.5493 20.4863 16.5493 20.3847 16.5507C19.9036 16.5484 19.9036 16.5484 19.6563 16.4128C19.556 16.284 19.556 16.284 19.5597 16.0714C19.6905 15.6003 20.1373 15.7346 20.5493 15.7342Z" fill="#020202"/>
<path d="M35.1735 15.7245C35.2462 15.7242 35.319 15.7239 35.3939 15.7236C35.4699 15.7245 35.546 15.7254 35.6243 15.7264C35.7384 15.725 35.7384 15.725 35.8548 15.7236C35.9639 15.7241 35.9639 15.7241 36.0752 15.7245C36.1419 15.7248 36.2087 15.7251 36.2775 15.7254C36.4454 15.7557 36.4454 15.7557 36.5569 15.8637C36.6489 16.0446 36.6196 16.1509 36.5627 16.3422C36.4921 16.4394 36.4921 16.4394 36.3867 16.5181C36.2359 16.5409 36.2359 16.5409 36.0571 16.5415C35.9926 16.5417 35.928 16.5419 35.8616 16.5421C35.7942 16.5415 35.7268 16.5408 35.6573 16.5401C35.5902 16.5408 35.523 16.5414 35.4538 16.5421C35.3569 16.5418 35.3569 16.5418 35.258 16.5415C35.199 16.5413 35.1399 16.5411 35.079 16.5409C34.8968 16.5147 34.8169 16.47 34.686 16.3422C34.6247 16.1499 34.5989 16.0461 34.692 15.8637C34.8497 15.7107 34.9564 15.7254 35.1735 15.7245Z" fill="#010101"/>
<path d="M12.5977 15.7331C12.6707 15.7329 12.7437 15.7327 12.8189 15.7324C12.9334 15.7334 12.9334 15.7334 13.0502 15.7345C13.1267 15.7338 13.2033 15.7331 13.2821 15.7324C13.355 15.7326 13.4279 15.7329 13.5031 15.7331C13.5701 15.7333 13.6372 15.7335 13.7063 15.7337C13.7595 15.7412 13.8127 15.7487 13.8675 15.7565C14.0124 15.9737 14.0123 16.0861 13.9848 16.3429C13.7582 16.5731 13.5255 16.5434 13.2199 16.5458C13.153 16.5454 13.0861 16.5449 13.0172 16.5445C12.9503 16.5457 12.8834 16.5469 12.8144 16.5481C12.7501 16.548 12.6858 16.548 12.6195 16.548C12.5608 16.5481 12.5021 16.5482 12.4416 16.5483C12.2419 16.511 12.1725 16.4433 12.0495 16.2843C12.0236 16.1023 12.0103 15.9899 12.1158 15.8351C12.276 15.7202 12.4022 15.7337 12.5977 15.7331Z" fill="#020202"/>
<path d="M27.654 15.7331C27.7241 15.7329 27.7941 15.7327 27.8663 15.7324C27.9396 15.7331 28.0128 15.7338 28.0883 15.7345C28.1616 15.7338 28.2348 15.7331 28.3103 15.7324C28.4154 15.7328 28.4154 15.7328 28.5227 15.7331C28.587 15.7333 28.6512 15.7335 28.7175 15.7337C28.88 15.7565 28.88 15.7565 28.9887 15.8331C29.1033 16.0023 29.0805 16.1463 29.056 16.3429C28.9273 16.4734 28.846 16.5153 28.6639 16.5416C28.5758 16.5419 28.5758 16.5419 28.486 16.5422C28.4217 16.5425 28.3573 16.5427 28.2911 16.5429C28.2242 16.5422 28.1572 16.5416 28.0883 16.5408C27.988 16.5419 27.988 16.5419 27.8856 16.5429C27.8212 16.5427 27.7569 16.5425 27.6906 16.5422C27.6319 16.542 27.5732 16.5418 27.5128 16.5416C27.3306 16.5153 27.2494 16.4734 27.1207 16.3429C27.0774 15.9964 27.0774 15.9964 27.1879 15.8331C27.3443 15.7229 27.464 15.7337 27.654 15.7331Z" fill="#010101"/>
<path d="M23.9001 15.7331C23.9702 15.7329 24.0402 15.7327 24.1124 15.7324C24.1857 15.7331 24.2589 15.7338 24.3344 15.7345C24.4077 15.7338 24.4809 15.7331 24.5564 15.7324C24.6615 15.7328 24.6615 15.7328 24.7688 15.7331C24.833 15.7333 24.8973 15.7335 24.9636 15.7337C25.1261 15.7565 25.1261 15.7565 25.2348 15.8351C25.3416 15.9897 25.3281 16.1019 25.3021 16.2843C25.1791 16.4433 25.1097 16.511 24.91 16.5483C24.8513 16.5482 24.7926 16.5481 24.7321 16.548C24.6356 16.548 24.6356 16.548 24.5371 16.5481C24.4702 16.5469 24.4033 16.5457 24.3344 16.5445C24.2341 16.5451 24.2341 16.5451 24.1317 16.5458C23.5627 16.5414 23.5627 16.5414 23.3668 16.3429C23.3235 15.9964 23.3235 15.9964 23.434 15.8331C23.5904 15.7229 23.7101 15.7337 23.9001 15.7331Z" fill="#010101"/>
</svg>
