<svg width="48" height="48" viewBox="0 0 48 48" fill="none" xmlns="http://www.w3.org/2000/svg">
<rect width="48" height="48" rx="8" fill="#592472"/>
<path d="M23.8202 7C24.0376 7.07562 24.0826 7.11376 24.1906 7.31519C24.2133 7.4997 24.2084 7.68125 24.2024 7.86678C24.2015 7.91676 24.2007 7.96673 24.1998 8.01822C24.1976 8.14111 24.1942 8.26399 24.1906 8.38685C24.2389 8.38465 24.2873 8.38246 24.3371 8.3802C25.4158 8.35389 26.4899 8.56088 27.5316 8.82812C27.5795 8.84035 27.6275 8.85258 27.6769 8.86518C29.6632 9.38561 31.4927 10.331 33.0889 11.6141C33.5357 12.0036 33.5357 12.0036 34.0916 12.1258C34.181 12.123 34.181 12.123 34.2723 12.1202C34.4068 12.1104 34.5411 12.0975 34.6752 12.0822C35.0618 12.0396 35.3427 12.0177 35.6897 12.2071C35.887 12.3811 35.9713 12.5464 36.0017 12.8072C36.0006 12.8762 35.9996 12.9452 35.9985 13.0162C35.9982 13.0851 35.998 13.1539 35.9977 13.2248C35.9781 13.4371 35.9254 13.6085 35.8527 13.8082C35.781 14.2146 35.9496 14.4458 36.1691 14.771C36.275 14.9167 36.3845 15.056 36.4988 15.195C37.4366 16.373 38.1249 17.923 38.5043 19.3674C38.515 19.408 38.5258 19.4486 38.5369 19.4905C38.8741 20.7699 39.0719 22.0589 39.0686 23.3826C39.0685 23.4657 39.0685 23.4657 39.0684 23.5505C39.0682 23.6861 39.068 23.8217 39.0677 23.9574C39.1074 23.9568 39.1471 23.9563 39.188 23.9557C39.6011 23.9501 40.0142 23.9463 40.4274 23.9435C40.5816 23.9423 40.7358 23.9405 40.89 23.9383C41.1116 23.9353 41.3331 23.9339 41.5547 23.9327C41.6238 23.9314 41.6928 23.9301 41.7639 23.9288C41.8282 23.9288 41.8926 23.9288 41.9589 23.9287C42.0154 23.9282 42.072 23.9276 42.1303 23.927C42.3332 23.9674 42.4082 24.0491 42.5348 24.2095C42.563 24.4074 42.5786 24.5272 42.459 24.6925C42.3057 24.8066 42.2076 24.7997 42.0175 24.7983C41.9506 24.7983 41.8838 24.7983 41.8149 24.7983C41.7067 24.7968 41.7067 24.7968 41.5963 24.7953C41.5225 24.7951 41.4486 24.7948 41.3724 24.7945C41.136 24.7935 40.8997 24.7911 40.6633 24.7887C40.5032 24.7877 40.3431 24.7869 40.183 24.7861C39.7902 24.784 39.3974 24.7809 39.0046 24.7769C39.0017 24.8145 38.9987 24.8521 38.9956 24.8909C38.9383 25.6017 38.8801 26.3032 38.717 26.999C38.6926 27.1049 38.6926 27.1049 38.6677 27.2129C38.1509 29.3636 37.1976 31.3875 35.7897 33.098C35.7618 33.1323 35.7339 33.1665 35.7051 33.2019C35.001 34.0633 34.2226 34.8873 33.3312 35.5565C33.2901 35.5874 33.249 35.6183 33.2066 35.6502C32.6123 36.0951 32.0093 36.5145 31.3627 36.88C31.2552 36.9409 31.1485 37.0033 31.0418 37.0657C29.8921 37.7132 28.639 38.1776 27.3581 38.4852C27.2367 38.5144 27.1158 38.5456 26.995 38.5771C25.988 38.8312 24.9744 38.9317 23.9384 38.8975C23.9397 38.9516 23.9411 39.0056 23.9424 39.0613C23.9467 39.2624 23.9499 39.4636 23.9523 39.6647C23.9535 39.7517 23.9552 39.8386 23.9574 39.9255C23.9605 40.0507 23.9618 40.1759 23.963 40.3011C23.9644 40.3764 23.9657 40.4516 23.967 40.5292C23.9384 40.7256 23.9384 40.7256 23.8248 40.8763C23.6239 41.0235 23.4873 41.013 23.245 40.9778C23.0899 40.8306 23.0578 40.743 23.0344 40.5292C23.0354 40.4539 23.0364 40.3786 23.0374 40.3011C23.038 40.2194 23.0386 40.1378 23.0392 40.0536C23.0408 39.9677 23.0424 39.8817 23.0441 39.7958C23.045 39.7089 23.0459 39.622 23.0466 39.535C23.0489 39.3225 23.052 39.11 23.0559 38.8975C22.9807 38.8993 22.9807 38.8993 22.904 38.9011C22.4112 38.9077 21.9425 38.8734 21.4563 38.7951C21.3506 38.7783 21.3506 38.7783 21.2429 38.7612C19.0039 38.3882 16.8302 37.5363 15.014 36.16C14.4124 35.6765 14.4124 35.6765 13.6695 35.5868C13.5264 35.6203 13.5264 35.6203 13.3479 35.6825C13.0191 35.7136 12.7458 35.7373 12.4575 35.5643C12.2728 35.3551 12.2683 35.2348 12.2652 34.9606C12.2629 34.8571 12.2629 34.8571 12.2606 34.7515C12.2579 34.6062 12.256 34.4609 12.2547 34.3156C12.2403 33.7441 12.0961 33.4793 11.701 33.0704C9.70585 30.8793 8.54694 27.3987 8.62004 24.4617C8.55294 24.4633 8.48585 24.465 8.41672 24.4667C8.16708 24.4724 7.91745 24.476 7.66777 24.479C7.55984 24.4806 7.45192 24.4827 7.34402 24.4855C7.18861 24.4893 7.0333 24.4911 6.87786 24.4925C6.80584 24.4949 6.80584 24.4949 6.73237 24.4974C6.4773 24.4975 6.36467 24.4728 6.16232 24.3123C6.03546 24.1465 6.03546 24.1465 6 23.9849C6.04869 23.774 6.11405 23.7094 6.28761 23.5791C6.47416 23.5571 6.6365 23.5496 6.82246 23.5545C6.87387 23.5549 6.92528 23.5552 6.97826 23.5556C7.14207 23.557 7.3058 23.5602 7.46959 23.5634C7.58081 23.5646 7.69203 23.5658 7.80325 23.5668C8.07555 23.5696 8.34778 23.574 8.62004 23.5791C8.61812 23.5009 8.61812 23.5009 8.61616 23.421C8.60824 22.8404 8.65429 22.2795 8.73036 21.7037C8.73609 21.6595 8.74182 21.6152 8.74773 21.5696C9.0158 19.512 9.66117 17.5321 10.6373 15.6993C10.6736 15.6303 10.6736 15.6303 10.7107 15.5599C12.4551 12.2624 15.4949 10.1206 19.0201 9.02164C20.2315 8.66035 21.5068 8.36933 22.7761 8.38291C22.8535 8.38333 22.8535 8.38333 22.9324 8.38377C23.0576 8.3845 23.1828 8.38563 23.308 8.38685C23.3044 8.30786 23.3007 8.22888 23.2969 8.1475C23.294 8.04342 23.2911 7.93934 23.2883 7.83526C23.2857 7.78325 23.283 7.73125 23.2803 7.67766C23.2725 7.29152 23.2725 7.29152 23.4545 7.08963C23.6232 7 23.6232 7 23.8202 7Z" fill="#030303"/>
<path d="M24.1904 9.20605C26.2135 9.27349 28.1793 9.74019 29.9899 10.6559C30.0416 10.6817 30.0934 10.7075 30.1467 10.7341C30.9824 11.1526 31.7372 11.6103 32.456 12.212C33.0944 12.7256 33.5622 13.0303 34.4026 12.9884C34.6567 12.9553 34.9077 12.9122 35.1591 12.8623C35.1501 12.9516 35.1408 13.0409 35.1315 13.1302C35.1264 13.1799 35.1212 13.2297 35.116 13.2809C35.096 13.4296 35.096 13.4296 35.0635 13.5498C35.0227 13.7264 35.0174 13.8946 35.0133 14.0758C35.0109 14.1437 35.0086 14.2117 35.0061 14.2816C35.0645 14.7594 35.3521 15.1112 35.6437 15.4784C35.9859 15.9235 36.2695 16.3793 36.5307 16.8756C36.6198 17.0432 36.7115 17.2093 36.8032 17.3755C37.1434 17.9991 37.4472 18.5805 37.5879 19.2809C37.6236 19.4463 37.6661 19.6094 37.7089 19.7731C38.0696 21.1687 38.2245 22.5165 38.1849 23.9571C37.698 23.4762 37.245 22.9622 36.7981 22.4442C36.7676 22.4143 36.737 22.3845 36.7056 22.3538C36.4081 22.0465 36.3475 21.7773 36.2938 21.3607C36.0117 19.5676 35.2983 17.7653 34.1756 16.3274C34.0874 16.2033 34.0874 16.2033 34.0874 16.0773C33.9955 16.0722 33.9036 16.0685 33.8116 16.0654C33.7604 16.0632 33.7092 16.061 33.6565 16.0588C33.6115 16.0649 33.5664 16.071 33.5201 16.0773C33.3897 16.2728 33.3665 16.3484 33.408 16.5754C33.4694 16.7411 33.5578 16.8553 33.6658 16.9953C34.4695 18.0514 34.9635 19.2817 35.3341 20.5463C35.3586 20.6297 35.3586 20.6297 35.3836 20.7147C35.4124 20.8747 35.4004 20.9681 35.3482 21.1203C35.2931 21.0745 35.238 21.0287 35.1812 20.9815C33.9995 20.0105 32.7006 19.1819 31.3137 18.5358C31.2505 18.5062 31.2505 18.5062 31.1861 18.476C29.8647 17.8678 28.3961 17.3478 26.964 17.0859C26.9189 17.0775 26.8737 17.0691 26.8272 17.0604C22.1128 16.2007 16.929 17.1835 12.9392 19.8859C12.7804 19.9856 12.7804 19.9856 12.6543 19.9856C13.1045 18.3973 13.7821 16.8987 14.8606 15.636C14.9237 15.5599 14.9868 15.4837 15.0498 15.4075C15.0914 15.3581 15.133 15.3087 15.1758 15.2578C15.4328 15.2906 15.5457 15.4207 15.7195 15.6045C15.966 15.8767 15.966 15.8767 16.3066 15.9709C16.5021 15.9697 16.5021 15.9697 16.6218 15.8448C16.7101 15.6527 16.693 15.584 16.6257 15.3838C16.5117 15.252 16.4015 15.1357 16.2751 15.0174C16.2423 14.9858 16.2095 14.9541 16.1757 14.9215C16.0951 14.8439 16.0138 14.7671 15.9323 14.6904C16.0292 14.4115 16.2492 14.2755 16.4799 14.1112C16.5222 14.0809 16.5644 14.0506 16.6079 14.0193C18.4924 12.6837 20.9697 11.7015 23.3078 11.7906C23.3109 11.8658 23.314 11.941 23.3172 12.0184C23.3219 12.1172 23.3267 12.2159 23.3315 12.3146C23.3344 12.3889 23.3344 12.3889 23.3374 12.4647C23.3398 12.5125 23.3422 12.5602 23.3447 12.6094C23.3467 12.6533 23.3487 12.6972 23.3508 12.7424C23.3659 12.8828 23.3659 12.8828 23.4969 13.0514C23.7901 13.0754 23.7901 13.0754 24.0643 12.9884C24.1423 12.7543 24.1498 12.5274 24.1628 12.2831C24.1669 12.2122 24.1669 12.2122 24.171 12.1399C24.1777 12.0235 24.1841 11.9071 24.1904 11.7906C24.7527 11.7736 25.2773 11.8141 25.8294 11.9207C25.903 11.9347 25.9767 11.9487 26.0526 11.9632C27.7707 12.3068 29.5813 13.0415 30.9421 14.1701C31.0701 14.2722 31.0701 14.2722 31.294 14.2334C31.4921 14.2081 31.4921 14.2081 31.5659 14.1231C31.5922 13.9104 31.5922 13.9104 31.5659 13.6818C29.9325 11.7226 26.5659 11.1888 24.1904 10.9081C24.1904 10.3464 24.1904 9.78475 24.1904 9.20605Z" fill="#CB9DEF"/>
<path d="M9.56627 25.3438C9.81868 25.5532 10.0569 25.7681 10.2873 26.0017C10.4617 26.1779 10.6373 26.3498 10.8231 26.5139C10.8844 26.5686 10.8844 26.5686 10.947 26.6245C11.0778 26.735 11.0778 26.735 11.2331 26.819C11.7391 27.135 11.8509 27.5584 12.0225 28.1004C12.354 29.1478 12.8434 30.1634 13.5222 31.0327C13.6007 31.1433 13.6007 31.1433 13.6007 31.2694C13.8088 31.2694 14.0168 31.2694 14.2311 31.2694C14.3126 30.902 14.3126 30.902 14.1868 30.5577C14.1343 30.4868 14.0807 30.4168 14.0263 30.3474C13.7342 29.9455 13.5017 29.528 13.2816 29.0827C13.2516 29.0224 13.2215 28.9621 13.1906 28.9C12.961 28.4312 12.961 28.4312 12.9073 28.1805C13.1696 28.2749 13.3969 28.408 13.6323 28.5548C14.7304 29.2222 15.8643 29.7489 17.0679 30.1977C17.1173 30.2165 17.1667 30.2352 17.2176 30.2545C18.8765 30.8774 20.7687 31.282 22.5453 31.2777C22.6025 31.2778 22.6597 31.2779 22.7186 31.2779C22.8387 31.278 22.9589 31.2779 23.079 31.2776C23.2601 31.2773 23.4411 31.2776 23.6221 31.278C24.504 31.2784 25.3677 31.2454 26.24 31.1039C26.306 31.0932 26.372 31.0825 26.4401 31.0715C27.7073 30.8571 28.9665 30.5604 30.1799 30.1347C30.2201 30.1208 30.2604 30.107 30.3019 30.0928C31.8233 29.566 33.3305 28.8826 34.6482 27.9512C34.7817 27.8653 34.7817 27.8653 34.9078 27.8653C34.5442 29.1377 33.7678 30.2954 32.8905 31.2694C32.6364 31.1835 32.4751 31.0698 32.2799 30.8872C32.0138 30.6327 32.0138 30.6327 31.6613 30.5602C31.5521 30.568 31.5521 30.568 31.4407 30.5759C31.298 30.7519 31.298 30.7519 31.3148 30.9433C31.3966 31.2036 31.5492 31.3358 31.7519 31.5058C31.804 31.5512 31.804 31.5512 31.8572 31.5976C31.9491 31.6778 32.0415 31.7573 32.1341 31.8367C32.1757 31.8783 32.2173 31.9199 32.2602 31.9628C31.5244 32.7547 30.6749 33.3799 29.7386 33.917C29.67 33.9575 29.6014 33.9981 29.5308 34.0399C28.5494 34.6033 27.4374 34.9964 26.3345 35.2408C26.2577 35.2588 26.1809 35.2767 26.1018 35.2952C25.3855 35.4477 24.6697 35.4747 23.9391 35.493C23.9355 35.4075 23.9355 35.4075 23.9319 35.3203C23.9278 35.246 23.9236 35.1716 23.9194 35.095C23.9139 34.9842 23.9139 34.9842 23.9083 34.8712C23.8912 34.6769 23.8912 34.6769 23.7928 34.554C23.6134 34.436 23.4525 34.4618 23.2456 34.4843C23.1026 34.6989 23.0965 34.8099 23.0802 35.0635C23.0755 35.132 23.0707 35.2005 23.0659 35.2711C23.0612 35.3497 23.0612 35.3497 23.0565 35.4299C20.9953 35.541 18.6063 34.6171 17.0275 33.3117C16.8395 33.2003 16.7156 33.2024 16.5005 33.2236C16.3692 33.2814 16.3692 33.2814 16.3114 33.4127C16.2876 33.615 16.2852 33.6784 16.3744 33.854C16.8711 34.3476 17.5878 34.666 18.2026 34.9886C18.2604 35.0194 18.3183 35.0501 18.3779 35.0818C18.8329 35.3173 19.292 35.4992 19.7785 35.6584C19.8526 35.6828 19.9267 35.7072 20.0031 35.7323C21.0093 36.0552 22.0072 36.2109 23.0565 36.3125C23.0565 36.8949 23.0565 37.4774 23.0565 38.0775C22.1723 38.0192 21.328 37.9564 20.4708 37.7317C20.3519 37.7009 20.2323 37.6727 20.1127 37.6446C18.3981 37.2257 16.8422 36.4291 15.4218 35.3977C14.7049 34.8764 14.7049 34.8764 13.8568 34.7286C13.7604 34.7284 13.7604 34.7284 13.6621 34.7281C13.4875 34.7359 13.3293 34.7601 13.1595 34.7995C13.1559 34.7013 13.1559 34.7013 13.1523 34.6011C13.1217 33.9013 13.0862 33.3164 12.5921 32.7823C12.5921 32.7407 12.5921 32.6991 12.5921 32.6562C12.5505 32.6562 12.5089 32.6562 12.466 32.6562C12.3535 32.5314 12.2497 32.4066 12.1469 32.2741C12.116 32.2343 12.0851 32.1946 12.0533 32.1536C11.2969 31.1615 10.7687 30.0328 10.3227 28.8739C10.303 28.8278 10.2832 28.7817 10.2628 28.7342C10.083 28.3093 9.97303 27.8818 9.87359 27.4319C9.85774 27.3629 9.84189 27.2939 9.82557 27.2228C9.54221 25.9693 9.54221 25.9693 9.56627 25.3438Z" fill="#CB9DEF"/>
<path d="M21.72 21.5466C21.7638 21.546 21.8075 21.5454 21.8525 21.5448C22.0792 21.5463 22.1678 21.5588 22.3622 21.6884C22.5413 21.666 22.6951 21.6195 22.8665 21.5623C23.6663 21.4847 24.3979 21.5109 25.0584 22.0093C25.5744 22.4513 25.9251 22.9088 26.0815 23.5796C26.1003 23.8544 26.0972 24.1242 26.0815 24.3991C26.0542 24.3406 26.0542 24.3406 26.0263 24.2809C25.9594 24.1385 25.9594 24.1385 25.8293 24.0208C25.6087 23.9998 25.6087 23.9998 25.3881 24.0208C25.2391 24.1431 25.2391 24.1431 25.2411 24.3641C25.25 24.7073 25.3594 25.0149 25.4708 25.3368C25.4903 25.3966 25.5097 25.4564 25.5298 25.518C25.6337 25.864 25.6337 25.864 25.8924 26.1011C26.3159 26.0861 26.6668 25.948 27.0547 25.7859C27.112 25.7627 27.1693 25.7394 27.2284 25.7155C27.4931 25.6234 27.4931 25.6234 27.7205 25.4707C27.7363 25.2527 27.7363 25.2527 27.7205 25.0295C27.5994 24.8804 27.5994 24.8804 27.3856 24.8916C27.1943 24.9013 27.0235 24.9215 26.838 24.9664C26.8484 24.8871 26.8588 24.8078 26.8695 24.7261C26.9721 23.7588 26.8488 22.8608 26.2391 22.0701C26.1662 21.9844 26.0924 21.8993 26.0185 21.8145C26.0185 21.7729 26.0185 21.7313 26.0185 21.6884C26.654 21.7104 27.2798 21.7877 27.9096 21.8736C27.9893 21.8843 28.069 21.895 28.1511 21.906C28.3653 21.936 28.5787 21.9685 28.7922 22.0036C28.8406 22.0112 28.8891 22.0188 28.9391 22.0267C29.0569 22.0514 29.0569 22.0514 29.2334 22.1297C29.6679 22.8047 29.6969 23.6866 29.6747 24.4621C29.6149 24.4803 29.5551 24.4985 29.4935 24.5173C29.2932 24.5736 29.2932 24.5736 29.1704 24.7143C29.1389 24.9007 29.1389 24.9007 29.1704 25.0925C29.3131 25.2352 29.4192 25.2805 29.6117 25.3447C29.5654 26.8027 28.6754 28.0976 27.6597 29.077C26.4306 30.2283 24.9276 30.498 23.3071 30.4588C21.6515 30.3882 20.1718 29.439 19.0451 28.2841C18.8009 28.0143 18.5914 27.7281 18.3908 27.4249C18.3334 27.3386 18.3334 27.3386 18.2748 27.2506C18.0459 26.8839 17.878 26.5107 17.7328 26.1051C17.7165 26.0595 17.7001 26.014 17.6833 25.9671C17.6035 25.7324 17.5514 25.53 17.5713 25.2816C17.663 25.2543 17.663 25.2543 17.7565 25.2265C17.9562 25.1781 17.9562 25.1781 18.0126 25.0295C18.0283 24.8403 18.0283 24.8403 18.0126 24.6512C17.8231 24.4617 17.6454 24.4876 17.3822 24.4621C17.3538 23.6147 17.4358 22.7933 17.7604 22.0036C18.3628 21.4012 20.8468 21.5545 21.72 21.5466Z" fill="#CB9DEF"/>
<path d="M23.3074 9.20613C23.3074 9.76781 23.3074 10.3295 23.3074 10.9082C23.1884 10.922 23.0695 10.9358 22.9469 10.95C20.2945 11.2718 17.3212 12.0404 15.3645 13.9971C15.0486 13.9808 14.8539 13.7019 14.6418 13.4947C14.4718 13.3585 14.3819 13.3175 14.1668 13.3036C14.0261 13.3269 14.0261 13.3269 13.9147 13.3667C13.874 13.5957 13.8544 13.7139 13.9147 13.934C14.1234 14.1747 14.3571 14.3692 14.6081 14.5644C14.5078 14.7978 14.361 14.9651 14.1944 15.1554C12.9455 16.6299 12.0911 18.5492 11.693 20.4319C11.6198 20.7527 11.5158 20.9084 11.267 21.1204C11.2035 21.179 11.1401 21.2377 11.0769 21.2967C11.009 21.3588 10.941 21.4209 10.873 21.4829C10.2539 22.0485 10.2539 22.0485 9.69107 22.6688C9.64946 22.7195 9.60786 22.7702 9.56499 22.8225C9.54419 22.8225 9.52339 22.8225 9.50195 22.8225C9.63132 19.5882 10.8434 16.2059 12.9691 13.7449C13.0223 13.6832 13.0755 13.6214 13.1304 13.5578C15.3635 11.0183 19.001 9.48754 22.3281 9.22042C22.6541 9.20413 22.9809 9.20613 23.3074 9.20613Z" fill="#CB9DEF"/>
<path d="M16.8151 22.1926C16.8022 22.25 16.7893 22.3075 16.7759 22.3667C16.6237 23.0842 16.5823 23.7929 16.5629 24.525C16.5227 24.5334 16.4825 24.5417 16.4411 24.5503C16.389 24.5615 16.3369 24.5726 16.2832 24.5841C16.2313 24.5951 16.1794 24.606 16.1259 24.6173C15.9971 24.6389 15.9971 24.6389 15.9326 24.7141C15.9168 24.9321 15.9168 24.9321 15.9326 25.1554C16.0898 25.3127 16.1641 25.3041 16.3817 25.3208C16.4391 25.3256 16.4965 25.3303 16.5556 25.3351C16.5996 25.3382 16.6436 25.3413 16.689 25.3445C16.7076 25.4271 16.7076 25.4271 16.7265 25.5114C17.0523 26.8515 17.6795 28.0114 18.6432 29.0007C18.6885 29.0492 18.7337 29.0976 18.7804 29.1475C19.1225 29.5048 19.4965 29.7928 19.904 30.0724C19.7065 30.1382 19.6597 30.1357 19.4672 30.0881C19.4177 30.076 19.3683 30.0639 19.3173 30.0514C19.2639 30.0375 19.2105 30.0236 19.1554 30.0093C19.0995 29.995 19.0436 29.9806 18.986 29.9658C15.6472 29.0864 12.4099 27.2709 10.1133 24.6629C10.0694 24.6131 10.0254 24.5633 9.9801 24.5119C9.94735 24.4746 9.9146 24.4373 9.88086 24.3989C9.90166 24.3365 9.92246 24.2741 9.9439 24.2098C10.0915 24.1396 10.2328 24.0821 10.3862 24.0276C10.4314 24.0108 10.4767 23.9941 10.5233 23.9769C10.6714 23.9224 10.8198 23.8691 10.9683 23.8158C11.0708 23.7785 11.1733 23.7413 11.2758 23.7039C11.5243 23.6138 11.7731 23.5247 12.0221 23.436C12.1315 23.397 12.2407 23.3576 12.3499 23.3181C13.4166 22.9338 14.5184 22.657 15.6174 22.3817C15.6946 22.3623 15.7718 22.3429 15.8513 22.3229C15.923 22.3056 15.9946 22.2882 16.0685 22.2704C16.1619 22.2477 16.1619 22.2477 16.2572 22.2245C16.4467 22.1908 16.6231 22.1869 16.8151 22.1926Z" fill="#CB9DEF"/>
<path d="M37.9951 25.0918C38.0159 25.0918 38.0367 25.0918 38.0581 25.0918C38.1461 27.9782 36.5255 31.0045 34.6541 33.0977C34.6242 33.1311 34.5943 33.1645 34.5636 33.1989C34.3652 33.4199 34.1637 33.6376 33.9606 33.8542C33.9241 33.8941 33.8877 33.934 33.8501 33.9751C33.5204 34.3229 33.1355 34.6087 32.7553 34.8984C32.6784 34.9571 32.6018 35.0162 32.5255 35.0756C31.8476 35.6038 31.1248 36.034 30.3674 36.4387C30.3194 36.4646 30.2713 36.4904 30.2218 36.517C28.3192 37.523 26.0872 38.0777 23.9375 38.0777C23.9375 37.5161 23.9375 36.9544 23.9375 36.3757C24.1026 36.3207 24.2139 36.3017 24.3842 36.2922C27.4714 36.086 30.1556 34.9269 32.4742 32.9044C32.6293 32.7693 32.7806 32.6446 32.952 32.5303C32.984 32.5576 33.016 32.585 33.049 32.6131C33.3274 32.8397 33.3274 32.8397 33.6651 32.944C33.832 32.9177 33.832 32.9177 33.9567 32.8416C34.0395 32.7121 34.0395 32.7121 34.0315 32.5106C33.938 32.2041 33.7742 32.0816 33.5194 31.9C33.6599 31.6525 33.8222 31.4363 34 31.2144C34.7217 30.2917 35.246 29.2398 35.6824 28.157C35.7132 28.0807 35.7132 28.0807 35.7446 28.0027C35.8465 27.7436 35.9317 27.4892 36.0015 27.2196C36.0933 26.9057 36.2121 26.7707 36.4625 26.5614C36.4963 26.5323 36.5301 26.5032 36.565 26.4732C36.6624 26.3897 36.7614 26.3081 36.8604 26.2265C37.2275 25.9176 37.5517 25.5877 37.8688 25.228C37.9313 25.1606 37.9313 25.1606 37.9951 25.0918Z" fill="#CB9DEF"/>
<path d="M30.242 22.3184C31.23 22.5013 32.1842 22.7725 33.1418 23.0748C33.1854 23.0886 33.2291 23.1023 33.274 23.1165C34.6245 23.5436 35.9406 24.0218 37.2393 24.5877C37.1367 24.8022 37.0198 24.9766 36.8611 25.1551C36.8195 25.1551 36.7779 25.1551 36.735 25.1551C36.7206 25.1904 36.7061 25.2258 36.6912 25.2622C36.0743 26.35 34.4383 27.1834 33.394 27.8027C33.345 27.8319 33.296 27.8612 33.2455 27.8913C32.0466 28.5984 30.7723 29.1146 29.4501 29.5402C29.4086 29.5536 29.3671 29.567 29.3243 29.5807C28.8771 29.7237 28.433 29.8535 27.9727 29.946C28.129 29.7483 28.2677 29.5839 28.4651 29.426C28.9916 29.0005 29.3411 28.3805 29.6747 27.8027C29.7039 27.7531 29.733 27.7036 29.7631 27.6525C30.1331 26.9739 30.3647 26.1594 30.4738 25.3969C30.4942 25.2812 30.4942 25.2812 30.5572 25.2181C30.6994 25.2028 30.8415 25.194 30.9842 25.1851C31.1532 25.149 31.214 25.1062 31.3137 24.966C31.3089 24.7381 31.3089 24.7381 31.2507 24.5247C31.1059 24.4523 30.9937 24.4423 30.833 24.4262C30.7815 24.4209 30.73 24.4156 30.6769 24.4102C30.6177 24.4045 30.6177 24.4045 30.5572 24.3986C30.5503 24.3353 30.5434 24.272 30.5363 24.2068C30.4793 23.708 30.4039 23.2263 30.279 22.7389C30.242 22.5705 30.242 22.5705 30.242 22.3184Z" fill="#CB9DEF"/>
<path d="M21.291 22.1925C21.5305 22.4647 21.6089 22.7907 21.7165 23.1302C21.7476 23.223 21.7476 23.223 21.7793 23.3176C21.9639 23.895 21.9639 23.895 21.8583 24.2098C21.725 24.3526 21.6395 24.3922 21.4486 24.4304C21.2256 24.3858 21.1625 24.2669 21.0388 24.0837C20.9954 24.7459 21.1838 25.2768 21.6118 25.7857C22.0639 26.2591 22.6601 26.5739 23.3215 26.6136C23.6177 26.6125 23.8971 26.5849 24.1907 26.5422C24.6311 26.5062 24.6311 26.5062 24.8211 26.6131C24.9159 26.7909 24.9125 26.9114 24.8842 27.1095C24.7117 27.3484 24.5336 27.415 24.2538 27.4878C23.5265 27.5565 22.7773 27.5575 22.1105 27.2356C22.052 27.2096 21.9936 27.1836 21.9334 27.1568C21.1838 26.7908 20.6351 26.1747 20.3319 25.4013C20.1064 24.7283 20.0555 24.091 20.1563 23.3903C20.119 23.4023 20.0817 23.4143 20.0433 23.4267C19.6381 23.5404 19.6381 23.5404 19.3959 23.4218C19.2737 23.2642 19.2737 23.2642 19.2383 23.0751C19.2818 22.8428 19.3486 22.7856 19.5259 22.6338C19.7462 22.5223 19.979 22.4448 20.2114 22.3619C20.2733 22.3385 20.3351 22.3151 20.3988 22.2909C20.9934 22.0755 20.9934 22.0755 21.291 22.1925Z" fill="#040404"/>
</svg>
