<svg width="41" height="43" viewBox="0 0 41 43" fill="none" xmlns="http://www.w3.org/2000/svg">
<path d="M2.03068 3.00751C1.74432 2.62311 1.49002 2.24951 1.19821 1.89903C0.917627 1.56207 0.605094 1.24398 0.293434 0.927084C0.0762093 0.706261 -0.136763 0.494273 0.111867 0.196025C0.352864 -0.093062 0.696804 0.00899856 1.00039 0.0589427C1.29712 0.107687 1.5078 0.301471 1.71564 0.485872C2.31824 1.02032 2.74059 1.66086 3.19543 2.28538C4.47871 4.0475 6.04137 5.63143 7.51887 7.27065C9.14522 9.07485 10.8996 10.7852 12.6046 12.5321C13.4137 13.3612 14.1248 14.2565 14.9524 15.0764C16.0067 16.121 17.0301 17.1917 18.0004 18.2942C18.6805 19.0672 19.3779 19.8267 20.0892 20.5775C20.6482 21.1676 20.7202 21.164 21.3204 20.6417C22.7912 19.3617 24.2955 18.1089 25.7296 16.7992C27.3474 15.3219 28.998 13.8725 30.6344 12.4112C31.5489 11.5945 32.2856 10.6634 32.9864 9.70886C33.2291 9.37812 33.4793 9.05108 33.7384 8.72972C34.2264 8.12406 34.7539 7.54479 35.1762 6.89704C35.8588 5.84996 36.8613 4.99589 37.6362 3.99842C37.969 3.57008 38.579 3.32593 39.1115 3.05855C39.371 2.92823 39.6433 2.97228 39.849 3.15668C40.026 3.31545 40.0793 3.51239 39.969 3.73147C39.7675 4.13114 39.5766 4.53473 39.3704 4.95915C39.6214 5.12523 39.8344 4.92883 40.0527 4.92545C40.346 4.92098 40.5953 4.98532 40.7334 5.21301C40.879 5.45303 40.6476 5.58159 40.4909 5.74069C39.9548 6.28528 39.1545 6.494 38.5135 6.90664C37.8356 7.34305 37.3237 7.89091 36.8086 8.45741C35.7367 9.63634 34.7473 10.8726 33.5723 11.981C32.5428 12.9522 31.5007 13.9162 30.4958 14.9036C29.8324 15.5555 29.2392 16.282 28.6809 17.0105C27.6603 18.3421 26.5383 19.6038 25.3514 20.8252C24.6642 21.5325 23.9524 22.2222 23.2558 22.9228C22.7171 23.4647 22.6642 23.6435 23.2011 24.1812C24.7781 25.7601 26.0861 27.5061 27.4928 29.1901C28.681 30.6127 29.8135 32.0694 30.987 33.501C32.1766 34.9523 33.3129 36.4353 34.5531 37.8568C35.4526 38.8877 36.3002 39.952 37.1701 41.002C37.3651 41.2375 37.5482 41.4669 37.1728 41.7142C36.8207 41.9463 36.5866 41.9665 36.2563 41.6881C35.9331 41.4157 35.6024 41.1329 35.3638 40.8067C34.7365 39.9494 33.9002 39.2277 33.2753 38.3708C32.9613 37.9402 32.5508 37.5752 32.1525 37.2025C31.7886 36.8619 31.5076 36.4734 31.2205 36.0819C30.8542 35.5821 30.3778 35.1425 29.9632 34.6679C29.3737 33.9929 28.768 33.3287 28.1955 32.6419C27.5716 31.8933 26.8985 31.17 26.1858 30.4825C25.6322 29.9485 25.0826 29.4201 24.6497 28.8073C24.583 28.7128 24.4908 28.6206 24.3345 28.5964C24.1574 28.7382 24.3394 28.8446 24.4081 28.9354C25.6511 30.5785 26.8407 32.2552 28.1692 33.8462C29.545 35.4942 30.896 37.1571 32.2169 38.8361C33.0261 39.8648 33.8688 40.8817 34.5532 41.9811C34.8327 42.43 34.8038 42.5186 34.3196 42.8393C33.9616 43.0764 33.8311 43.056 33.4192 42.7459C33.0172 42.4433 32.7899 42.0507 32.6653 41.6236C32.5382 41.1879 32.246 40.8317 32.0282 40.4389C31.5731 39.6188 30.7461 38.999 30.3088 38.2165C29.8382 37.3742 29.0522 36.7347 28.6172 35.8872C28.4175 35.4982 28.0412 35.1718 27.7749 34.7966C27.2048 33.9933 26.5779 33.2207 25.8858 32.4906C25.4241 32.0036 25.1079 31.4395 24.7327 30.9096C23.9948 29.8676 23.0573 28.9457 22.3461 27.8903C22.0115 27.3939 21.6429 26.9142 21.3167 26.414C21.2217 26.2683 21.0904 26.161 20.9783 26.0344C20.746 25.7719 20.5302 25.762 20.2582 26.0055C19.4598 26.7204 18.6285 27.4087 17.8438 28.1343C15.98 29.8578 14.0821 31.548 12.0251 33.1069C10.1324 34.5414 8.38221 36.105 6.66361 37.6919C5.78751 38.5008 4.84413 39.2562 4.03325 40.1169C3.76553 40.4011 3.49815 40.6858 3.24352 40.9786C3.07853 41.1683 2.87777 41.3209 2.63852 41.4268C2.40156 41.5316 2.11149 41.658 1.90299 41.439C1.71532 41.242 1.62001 40.9611 1.86057 40.7386C2.37255 40.2647 2.70231 39.6686 3.27471 39.2342C3.5542 39.0221 3.78048 38.7586 4.0339 38.5207C4.16629 38.3964 4.27359 38.2599 4.21961 38.0863C4.12463 37.781 4.31339 37.5328 4.47228 37.3076C5.01392 36.5396 5.50398 35.7402 6.19851 35.0579C6.81649 34.4509 7.29183 33.7469 7.89236 33.1353C8.73803 32.2739 9.48796 31.3351 10.4633 30.5737C11.5795 29.7023 12.5134 28.6894 13.5274 27.7396C14.2887 27.0265 15.0986 26.3529 15.8436 25.6295C16.6396 24.8566 17.5784 24.1921 18.2054 23.2861C18.4611 22.9167 18.4036 22.6457 18.1165 22.3502C17.687 21.9081 17.2863 21.4495 16.9929 20.9271C16.9354 20.8248 16.8642 20.7009 16.7583 20.6506C16.0855 20.3301 15.7588 19.7336 15.3881 19.2304C14.553 18.0967 13.4724 17.127 12.638 15.9999C11.6019 14.6002 10.4454 13.2695 9.24184 11.9799C8.18363 10.846 7.35901 9.57833 6.31225 8.45186C5.4234 7.49529 4.69157 6.44613 3.78549 5.50428C3.55594 5.26568 3.28496 5.08587 2.97079 4.95206C2.7022 4.83767 2.46252 4.69755 2.25282 4.51358C2.00593 4.29712 1.76842 4.11892 1.34291 4.20169C1.01293 4.26581 0.700838 4.11969 0.625376 3.78524C0.552096 3.46016 0.851652 3.3569 1.10552 3.22376C1.3656 3.08701 1.68009 3.13553 2.03068 3.00751ZM19.7127 21.8565C19.5519 21.3018 19.0654 20.9546 18.7223 20.5208C18.3634 20.0671 17.9557 19.6421 17.5717 19.2029C17.2014 18.7794 16.8437 18.3473 16.4628 17.9309C16.0843 17.5172 15.6827 17.119 15.2934 16.7126C14.8844 16.2857 14.5029 15.8368 14.063 15.435C13.6658 15.0723 13.519 14.5033 12.8754 14.3396C14.9695 16.9743 17.2175 19.5016 19.7127 21.8565ZM7.3806 35.4647C7.99378 34.9411 8.76475 34.5597 9.23813 33.8842C9.60737 33.3574 10.1123 32.8974 10.5832 32.4271C11.6647 31.3474 12.7634 30.2806 13.8514 29.2056C13.9873 29.0714 14.0813 28.9146 14.0847 28.6636C11.695 30.8729 9.33518 33.0121 7.3806 35.4647ZM19.7827 24.7726C18.5631 25.6892 17.6175 26.8159 16.5865 27.8793C17.7278 26.9028 18.9721 26.007 19.7827 24.7726Z" fill="black"/>
</svg>
