<svg width="29" height="29" viewBox="0 0 29 29" fill="none" xmlns="http://www.w3.org/2000/svg">
<path d="M22.5209 0H6.61086C3.03205 0 0.130859 2.90119 0.130859 6.48V22.39C0.130859 25.9688 3.03205 28.87 6.61086 28.87H22.5209C26.0997 28.87 29.0009 25.9688 29.0009 22.39V6.48C29.0009 2.90119 26.0997 0 22.5209 0Z" fill="#0B86CA"/>
<path d="M8.1319 12.0004H11.1319V21.6804H8.1319V12.0004ZM9.6619 7.19043C10.0056 7.19044 10.3416 7.29224 10.6275 7.48299C10.9135 7.67375 11.1365 7.94491 11.2685 8.26227C11.4005 8.57963 11.4355 8.92897 11.3692 9.26623C11.3028 9.60348 11.1381 9.91353 10.8958 10.1573C10.6534 10.401 10.3443 10.5675 10.0074 10.6358C9.67058 10.704 9.32105 10.671 9.00293 10.5408C8.68482 10.4107 8.41239 10.1892 8.22 9.90438C8.02761 9.61956 7.92388 9.28414 7.9219 8.94043C7.92059 8.71109 7.96462 8.48375 8.05147 8.27149C8.13833 8.05923 8.26628 7.86623 8.42799 7.70359C8.58969 7.54096 8.78196 7.4119 8.99372 7.32383C9.20548 7.23576 9.43256 7.19043 9.6619 7.19043Z" fill="white"/>
<path d="M13.051 12.0002H15.941V13.3202C16.2303 12.8265 16.6482 12.4206 17.1502 12.1459C17.6521 11.8711 18.2192 11.7379 18.791 11.7602C21.791 11.7602 22.401 13.7602 22.401 16.3702V21.6802H19.401V17.0002C19.401 15.8802 19.401 14.4302 17.841 14.4302C16.281 14.4302 16.041 15.6502 16.041 16.9102V21.7002H13.041L13.051 12.0002Z" fill="white"/>
</svg>
