<svg width="20" height="20" viewBox="0 0 20 20" fill="none" xmlns="http://www.w3.org/2000/svg">
<g clip-path="url(#clip0_352_2371)">
<path d="M17.9935 6.00381C17.8985 5.65164 17.713 5.33048 17.4554 5.07228C17.1978 4.81408 16.8771 4.62786 16.5251 4.53214C15.2201 4.17381 9.9993 4.16798 9.9993 4.16798C9.9993 4.16798 4.7793 4.16214 3.47346 4.50464C3.12174 4.60476 2.80165 4.79362 2.54394 5.05309C2.28622 5.31255 2.09954 5.63391 2.0018 5.98631C1.65763 7.29131 1.6543 9.99798 1.6543 9.99798C1.6543 9.99798 1.65096 12.718 1.99263 14.0096C2.1843 14.7238 2.7468 15.288 3.4618 15.4805C4.78013 15.8388 9.9868 15.8446 9.9868 15.8446C9.9868 15.8446 15.2076 15.8505 16.5126 15.5088C16.8647 15.4133 17.1858 15.2275 17.444 14.9698C17.7023 14.7121 17.8888 14.3915 17.9851 14.0396C18.3301 12.7355 18.3326 10.0296 18.3326 10.0296C18.3326 10.0296 18.3493 7.30881 17.9935 6.00381ZM8.3293 12.5055L8.33347 7.50548L12.6726 10.0096L8.3293 12.5055Z" fill="white" fill-opacity="0.65"/>
</g>
<defs>
<clipPath id="clip0_352_2371">
<rect width="20" height="20" fill="white"/>
</clipPath>
</defs>
</svg>
