<svg width="167" height="132" viewBox="0 0 167 132" fill="none" xmlns="http://www.w3.org/2000/svg">
<path d="M132 1H1.5L29.5 64.5L1.5 131H137L166 64.5L132 1Z" fill="#F4E6FF" stroke="#300C41"/>
<path d="M89.301 47.0675C89.6266 47.0333 89.9731 46.9856 90.3003 47.0041C90.5366 47.0175 90.768 47.117 90.9117 47.314C91.7211 48.4223 92.9726 51.5338 93.6255 52.8955L98.0985 62.3793C99.093 64.4865 100.153 66.5854 101.052 68.7349C101.25 69.2074 101.625 69.875 101.529 70.3863C101.539 70.4162 101.55 70.4454 101.556 70.476C101.652 70.9939 101.291 72.6779 101.247 73.3536C101.194 74.1649 101.216 74.984 101.25 75.7959C101.275 76.4287 101.432 77.1686 101.047 77.7203C99.9503 78.3319 96.4846 79.2581 95.1452 79.6977C91.4625 80.906 87.8084 82.1906 84.1033 83.3264C81.8795 84.0077 79.4499 84.8645 77.1147 84.9919C76.1371 85.0457 75.109 84.8346 74.285 84.2919C73.4757 83.7585 73.0609 83.0186 72.6794 82.1497C72.0254 80.6603 71.6515 79.0004 71.1541 77.4505L68.2327 68.4115L66.3371 62.4968C65.9068 61.1584 65.4259 59.809 65.1455 58.4302C64.8585 57.0182 64.9588 55.8381 65.7842 54.6295C69.15 49.7012 83.5637 48.1261 89.301 47.0675Z" fill="#300C41"/>
<path d="M100.108 71.3191C100.259 71.366 100.196 71.324 100.297 71.4436C100.351 71.7228 100.335 71.886 100.102 72.0812C99.6535 72.4602 98.742 72.6849 98.1801 72.8728C96.3666 73.4796 94.5276 74.003 92.6918 74.5412C91.568 74.871 90.3324 75.1703 89.2724 75.6673C88.9819 75.8029 88.7759 75.922 88.6195 76.203C88.6881 76.4822 88.6865 76.5221 88.91 76.7231C89.1559 76.7849 89.3363 76.7809 89.5853 76.7264C90.0291 76.6292 90.4681 76.4046 90.8975 76.2552C91.6781 75.9844 92.505 75.7809 93.2968 75.5373C95.5237 74.8528 97.7858 74.257 99.9951 73.5246C100.011 73.5542 100.029 73.5824 100.04 73.6135C100.152 73.9191 100.102 74.2698 99.9632 74.5552C98.7228 75.0935 93.3735 76.479 92.8227 76.9798C92.7189 77.0749 92.6758 77.236 92.679 77.3784C92.6854 77.6201 92.786 77.7427 92.9456 77.9053C93.9944 78.0503 98.3828 76.1398 99.9792 75.9051C100.195 75.9963 100.184 75.9833 100.274 76.1987C100.265 76.3732 100.259 76.5187 100.163 76.6706C100.051 76.8481 99.8994 76.9696 99.7078 77.0511C99.0373 77.3353 98.2551 77.5087 97.5575 77.7337C96.2022 78.1721 94.8469 78.6545 93.4708 79.0222C93.4421 79.0392 93.4133 79.0584 93.383 79.0734C92.2017 79.6655 90.6804 80.0116 89.4193 80.4263C85.9232 81.5768 81.1406 83.396 77.5478 83.8551C76.8832 83.9401 76.1297 83.9113 75.5 83.668C74.8982 83.4355 74.1638 82.8074 73.922 82.1991C73.6805 81.5912 73.8509 80.854 74.1324 80.2897C74.5894 79.3734 75.419 78.8218 76.3334 78.4298C78.8466 77.3522 81.7871 77.0741 84.4179 76.3379C86.5299 75.7466 88.5317 74.864 90.6181 74.2093C93.7789 73.2188 96.9828 72.4282 100.108 71.3191Z" fill="#CB9DEF"/>
<path d="M89.4433 78.1046L89.8584 78.0996C89.9701 78.1587 90.0643 78.2034 90.1361 78.3135C90.2702 78.5204 90.2447 78.5514 90.2 78.7816C89.5742 79.4407 88.088 79.6529 87.2228 79.903L87.0584 79.8867C86.9306 79.7884 86.7838 79.6888 86.6928 79.5542C86.5747 79.3807 86.6082 79.3457 86.6497 79.1516C87.1909 78.5483 88.6707 78.3209 89.4433 78.1046Z" fill="#300C41"/>
<path d="M84.6156 77.3043C84.788 77.2762 84.9956 77.2321 85.1696 77.2519C85.3787 77.276 85.6245 77.4502 85.7554 77.6136C85.8528 77.7366 85.8656 77.7484 85.84 77.9061C85.4633 78.4803 80.7732 79.6887 79.8058 79.9491C79.5951 79.9723 79.4626 79.9596 79.2583 79.9027C79.0667 79.7045 79.022 79.6988 78.998 79.4135C79.4706 78.4934 83.3593 77.8349 84.5374 77.3379C84.563 77.3269 84.5901 77.3154 84.6156 77.3043Z" fill="#300C41"/>
<path d="M89.1887 48.2652C89.4888 48.2341 89.8208 48.1552 90.1002 48.29C90.9159 49.6054 91.5497 51.0941 92.2233 52.4874C93.5962 55.3317 94.935 58.1922 96.2397 61.0687L98.8913 66.7163C99.3223 67.6343 99.8427 68.5754 100.194 69.5246C100.259 69.7038 100.267 69.807 100.25 69.9936C99.1483 70.8202 92.1994 72.5572 90.3604 73.1472C88.4862 73.7485 86.6648 74.5293 84.7683 75.0591C82.1934 75.7781 79.5626 76.2824 76.9966 77.03C76.3731 75.4388 75.7586 73.7894 75.2625 72.1554C74.8931 70.9389 74.6388 69.6403 74.1235 68.4754C74.0213 68.2446 73.926 68.1287 73.7137 67.9951C73.4599 68.0042 73.4272 68.0197 73.2145 68.1603C72.8838 69.3175 75.3303 75.9911 75.8801 77.4398C74.6236 77.9296 73.9131 78.405 73.2559 79.6134L73.1449 79.7812L73.0094 79.7168C72.757 79.1268 72.694 78.4918 72.4915 77.8876C71.486 74.9779 70.5427 72.0483 69.6618 69.0983C68.607 65.663 67.3066 62.2592 66.3936 58.7863C66.2453 58.2222 66.0209 57.3988 66.1203 56.8164C66.373 55.3349 67.3171 54.4695 68.4954 53.6497C69.1294 55.59 71.4314 64.1608 72.3329 65.1841C72.4882 65.3603 72.526 65.349 72.7457 65.3539C72.8319 65.2797 72.8533 65.2701 72.9222 65.1632C73.087 64.9077 73.0645 64.4306 72.9934 64.1506C72.6963 62.9801 72.17 61.8065 71.8041 60.6459C71.0227 58.0961 70.2627 55.54 69.5241 52.9774C71.0486 52.1844 72.8241 51.6824 74.4739 51.2231C79.3311 49.8708 84.2351 49.1396 89.1887 48.2652Z" fill="#CB9DEF"/>
<path d="M84.7951 49.9602C85.0202 49.9358 85.3666 49.8611 85.5821 49.9296C86.2207 50.1318 87.8537 54.5421 88.4604 55.4131C89.3112 56.6352 91.7074 56.5015 92.1831 57.453C92.6061 58.299 90.8581 59.7909 90.5436 60.5993C90.9874 61.4791 92.8152 61.1218 93.35 62.0723C93.35 62.3384 93.3548 62.3805 93.2127 62.6021C92.6141 62.8872 91.5844 62.3488 90.9411 62.2105C90.997 62.3315 91.0113 62.4192 91.0145 62.555C91.0273 63.1659 90.7064 64.1298 90.2626 64.5517C91.2588 64.7854 92.8471 65.5656 93.6086 66.2549C93.8688 66.4902 93.9582 66.6546 93.9853 66.9943L93.8209 67.153C92.8855 67.2855 90.8613 65.8427 89.7183 65.5617L89.6002 65.534C89.5794 65.6219 89.5762 65.6583 89.5203 65.7436C88.8387 66.7873 87.0061 67.6664 85.8519 67.9938C85.9301 68.0703 86.01 68.148 86.0722 68.238C86.4553 68.7955 87.3238 70.6928 87.1529 71.3356C87.1003 71.5364 87.038 71.5423 86.8688 71.6344C86.5383 71.6057 86.3883 71.5155 86.1217 71.3219C86.1664 70.7762 85.1798 68.8368 84.8111 68.3897C83.4159 68.9497 81.7205 68.6121 80.3253 68.2583C79.9023 68.8834 79.243 70.404 78.5597 70.6886C78.3985 70.7558 78.3683 70.7362 78.2232 70.6661C78.1745 70.5639 78.1228 70.4642 78.1051 70.3507C77.9645 69.4519 78.9333 68.3865 79.3867 67.6693C79.0131 67.2184 78.6667 66.7893 78.3889 66.272C77.9701 66.2515 77.5425 66.2402 77.1267 66.1859C76.4313 66.0951 75.6633 65.6663 75.2636 65.0916C75.0198 64.7414 74.9049 64.3108 74.9908 63.8873C75.1434 63.1367 75.7407 62.5825 76.3399 62.1688C75.4318 60.0435 74.5695 58.0884 74.0781 55.8093C76.5525 51.971 80.6446 50.9274 84.7951 49.9602Z" fill="#300C41"/>
<path d="M89.6723 61.3384C89.7808 61.4132 89.8543 61.4587 89.9022 61.5863C90.0794 62.05 89.907 62.8048 89.7409 63.238C89.0832 64.9529 87.439 66.1615 85.8107 66.865C83.9701 67.6608 82.3227 67.7881 80.4469 67.0511C80.2203 66.8912 80.0095 66.7427 79.8323 66.5251C79.711 66.3765 79.7126 66.4218 79.7334 66.2135L80.1947 66.171C84.1297 65.8008 87.0989 64.4495 89.6723 61.3384Z" fill="#CB9DEF"/>
<path d="M84.7844 51.1592C84.9424 51.1689 85.0302 51.1977 85.1356 51.3214C85.4932 51.7375 86.8389 54.4167 86.7958 54.8926C83.1018 54.7116 79.6617 55.9818 76.8519 58.3776L76.2919 58.9724C75.8889 58.0159 75.5231 57.0737 75.3242 56.0519C77.8503 52.8012 80.9835 52.0825 84.7844 51.1592Z" fill="#CB9DEF"/>
<path d="M78.9991 53.878C79.0534 53.8755 79.1061 53.8672 79.1604 53.8703C79.4397 53.8871 79.6584 53.9534 79.8356 54.1606C79.8308 54.2026 79.8276 54.2449 79.8213 54.2867C79.7079 55.037 77.8873 56.013 77.302 56.4248C77.0726 56.4705 76.8809 56.4943 76.6472 56.4911L76.543 56.3651C76.5682 56.0824 76.5921 55.8519 76.7815 55.6295C76.8112 55.5947 76.8428 55.5617 76.8729 55.5275C77.4807 54.8413 78.2402 54.3778 78.9991 53.878Z" fill="#300C41"/>
<path d="M84.8619 56.0473C85.6557 55.9664 86.4502 55.96 87.2452 56.0282C87.5278 56.1605 87.804 56.4843 88.0466 56.6913C88.9358 57.4499 89.6781 57.6598 90.7812 57.9726C90.762 58.2589 90.6119 58.4254 90.4411 58.6448C87.879 61.9429 85.2306 64.4277 80.9029 64.9697C79.9499 65.04 77.2838 65.2772 76.514 64.7849C76.3004 64.6482 76.2294 64.4065 76.1847 64.1693C76.0102 63.2409 77.2496 63.4083 77.6182 62.8352C77.7325 62.0391 77.0914 61.1533 76.777 60.4322C76.8593 60.3075 76.9442 60.1845 77.0316 60.0631C78.8005 57.6105 81.998 56.517 84.8619 56.0473Z" fill="#CB9DEF"/>
</svg>
