<svg width="167" height="132" viewBox="0 0 167 132" fill="none" xmlns="http://www.w3.org/2000/svg">
<path d="M131.5 1H1L29 64.5L1 131H136.5L165.5 64.5L131.5 1Z" fill="#F4E6FF" stroke="#300C41"/>
<path d="M83.1953 47C83.2983 47.0096 83.4304 47.0129 83.5302 47.0495C83.7502 47.1306 83.8899 47.3143 83.9646 47.5299C84.1277 48.0006 83.9052 48.6689 83.7048 49.0973C83.5538 49.0988 83.3839 49.1117 83.2428 49.051C83.0528 48.9694 82.9713 48.8305 82.8997 48.6431C82.718 48.1678 82.9886 47.4279 83.1953 47Z" fill="#300C41"/>
<path d="M71.913 49.8481C72.0475 49.8535 72.1815 49.8642 72.3133 49.8934C72.8102 50.004 73.7463 51.126 73.9612 51.5896C74.0908 51.869 74.012 52.0173 73.9267 52.2902C73.7507 52.2908 73.5766 52.2905 73.4065 52.2386C72.8653 52.0734 72.179 51.2256 71.9218 50.7391C71.7357 50.387 71.8012 50.2018 71.913 49.8481Z" fill="#300C41"/>
<path d="M96.6469 63.9844C96.6612 63.9878 96.6755 63.9916 96.6898 63.9951C97.3958 64.162 98.4951 64.8673 98.8354 65.5183C98.9763 65.7881 98.8514 66.0057 98.7663 66.2691C98.61 66.2619 98.473 66.2499 98.3207 66.2078C97.7385 66.0466 96.7678 65.3412 96.5302 64.7721C96.4111 64.4866 96.5509 64.2527 96.6469 63.9844Z" fill="#300C41"/>
<path d="M74.9471 72.4766C75.2027 72.6219 75.3023 72.6884 75.4143 72.9625C75.335 73.7914 74.406 74.9414 73.8265 75.5307C73.7337 75.4939 73.6315 75.4585 73.544 75.4088C73.3262 75.2851 73.3034 75.2084 73.2324 74.9729C73.3754 74.1005 74.2341 72.9927 74.9471 72.4766Z" fill="#300C41"/>
<path d="M93.9698 69.9912C94.0914 70.0148 94.2104 70.0395 94.3226 70.0946C94.9132 70.3841 96.0601 71.8049 96.2383 72.4273C96.3176 72.7044 96.1897 72.8779 96.0699 73.1125C95.9538 73.1068 95.8402 73.1048 95.7288 73.0669C95.0808 72.8462 94.0956 71.3938 93.8367 70.7341C93.7313 70.4659 93.8559 70.233 93.9698 69.9912Z" fill="#300C41"/>
<path d="M66.6141 56.5334C67.4547 56.8037 69.1085 57.38 69.6079 58.094C69.6311 58.4044 69.5499 58.4726 69.3951 58.735C68.7362 58.6288 68.0162 58.3329 67.4032 58.0662C66.9697 57.8776 66.5029 57.6317 66.3184 57.1759C66.3281 56.8797 66.4316 56.7595 66.6141 56.5334Z" fill="#300C41"/>
<path d="M93.5326 48.3789C93.6128 48.394 93.6481 48.3976 93.7306 48.4291C93.9622 48.5173 94.0172 48.6056 94.1149 48.823C94.0389 49.6022 92.5213 51.3586 91.9697 52.0147C91.8328 51.968 91.6973 51.8893 91.5664 51.8267C91.4432 51.6441 91.3874 51.5905 91.4058 51.3595C91.477 50.4663 92.8709 48.9683 93.5326 48.3789Z" fill="#300C41"/>
<path d="M99.3983 55.885C99.675 55.9037 99.8319 55.9512 100.075 56.0842C100.13 56.191 100.182 56.2163 100.13 56.3399C99.8077 57.1141 97.5753 57.8385 96.8359 58.1581C96.6245 58.1245 96.3464 58.0431 96.2012 57.8777C96.0905 57.7514 96.1364 57.7049 96.1497 57.547C96.7193 56.7726 98.5064 56.2573 99.3983 55.885Z" fill="#300C41"/>
<path d="M69.7072 65.0342C69.8557 65.0538 69.9172 65.101 70.042 65.1789C70.1888 65.4329 70.2157 65.4713 70.2071 65.7787C69.8711 66.3449 67.3414 67.264 66.6054 67.6309C66.4077 67.594 66.2768 67.5038 66.1123 67.3965C66.0533 67.2743 65.9661 67.1873 66.0136 67.049C66.2638 66.3212 68.9356 65.3851 69.7072 65.0342Z" fill="#300C41"/>
<path d="M83.1463 50.7272C85.5966 50.5366 88.0838 51.5446 90.0275 52.9755C92.1907 54.568 93.53 56.8691 93.9047 59.5262C94.3444 62.6437 93.7072 66.2263 91.6656 68.705C90.9815 69.5355 90.0739 70.3145 89.6626 71.3246C89.3985 71.9733 89.4003 72.7081 89.4029 73.3983C89.4077 74.7511 89.9724 80.0187 89.2055 80.9074C88.9091 81.2509 88.3784 81.2215 87.9633 81.2501C87.0498 82.1782 85.3469 84.4549 84.3493 84.9904C84.0775 85.0251 83.9578 84.9679 83.7198 84.8394C82.6425 83.8504 81.3372 82.836 80.4537 81.6664C79.9664 81.6023 79.3444 81.5787 78.9562 81.247C78.4795 80.8396 78.493 79.912 78.4717 79.3355C78.4126 77.7315 78.4944 73.2416 78.023 71.9787C77.7705 71.3025 77.1162 70.7659 76.6073 70.2819C74.2601 68.0492 72.5853 65.9746 72.2989 62.6221C72.0504 59.7148 73.0604 56.9904 74.9497 54.7928C77.1004 52.2911 79.8929 50.9729 83.1463 50.7272Z" fill="#300C41"/>
<path d="M87.4101 60.5996C87.6218 60.6654 87.7906 60.7126 87.9275 60.8977C88.1493 61.1973 88.1625 61.6271 88.1027 61.9808C87.9731 62.7486 87.5551 63.3962 86.9274 63.8414C86.7183 63.8867 86.6466 63.9213 86.4401 63.8508C86.2735 63.495 86.3189 63.1173 86.3775 62.7374C86.5009 61.9362 86.7315 61.0872 87.4101 60.5996Z" fill="#CB9DEF"/>
<path d="M79.4891 61.4688C79.8607 61.4772 80.1267 61.5218 80.4169 61.77C80.9426 62.2195 81.4113 63.1583 81.4168 63.8447C81.4189 64.1038 81.3965 64.2345 81.2237 64.4189L80.7264 64.3829C80.1004 64.1554 79.5376 63.8787 79.0819 63.375C78.8392 63.1067 78.6791 62.7724 78.7273 62.4044C78.7882 61.9394 79.1403 61.7207 79.4891 61.4688Z" fill="#CB9DEF"/>
<path d="M85.2096 81.3104L86.4294 81.2703C85.6895 82.0602 84.961 82.9271 84.1358 83.6255C83.9016 83.6043 83.6314 83.2901 83.448 83.1292C82.8336 82.5914 82.2424 82.0439 81.6641 81.4674C82.8432 81.4785 84.0322 81.3763 85.2096 81.3104Z" fill="#CB9DEF"/>
<path d="M86.0452 74.9309C86.8225 74.8677 87.6124 74.8762 88.3923 74.8589C88.4374 75.4226 88.4731 75.987 88.4991 76.552C86.2272 76.591 83.9574 76.6823 81.6897 76.8257L79.4457 76.9365L79.4414 75.0621C81.6363 75.1202 83.8516 75.0204 86.0452 74.9309Z" fill="#CB9DEF"/>
<path d="M88.0306 77.6758L88.3615 77.692C88.7186 78.1659 88.4746 79.4847 88.4284 80.0746C85.6283 80.3236 82.7744 80.2876 79.9607 80.487L79.7016 80.3358C79.4426 79.6533 79.5077 78.7508 79.4805 78.0275C82.3291 77.9482 85.177 77.7494 88.0306 77.6758Z" fill="#CB9DEF"/>
<path d="M82.8168 51.8017C83.0207 51.7813 83.225 51.7695 83.43 51.7662C85.9505 51.7389 88.5097 52.7493 90.2858 54.5439C93.6679 57.961 93.7336 63.583 91.2636 67.5347C90.5323 68.7046 89.2917 69.5355 88.7227 70.815C88.302 71.7611 88.3646 72.7842 88.3642 73.7954C87.6342 73.7887 86.9055 73.8418 86.177 73.8845C86.2118 70.9133 86.244 67.9515 86.1696 64.9803C86.2728 64.9726 86.3758 64.9624 86.479 64.9554C87.0484 64.9171 87.4032 64.8427 87.8695 64.4944C88.6472 63.9138 89.0732 63.0079 89.1921 62.0608C89.2833 61.3332 89.1226 60.6274 88.6507 60.0559C88.3734 59.7201 87.9817 59.4143 87.5287 59.395C87.1444 59.3784 86.787 59.6061 86.5185 59.8602C84.5837 61.6915 85.1629 66.7098 85.1675 69.1399C85.1705 70.7228 85.0729 72.306 85.0643 73.8898L83.5538 73.8958L83.0806 73.8919C83.0282 73.8602 82.9545 73.8497 82.9235 73.797C82.6672 73.3605 82.8409 65.6875 82.5691 64.1296C82.3976 63.1478 82.0926 62.1538 81.4826 61.3506C81.1065 60.8555 80.5918 60.45 79.9563 60.3812C79.8914 60.3746 79.8263 60.3715 79.761 60.3716C79.6957 60.3718 79.6306 60.3752 79.5656 60.3822C79.5007 60.3889 79.4362 60.3991 79.3723 60.4127C79.3084 60.4264 79.2454 60.4432 79.1832 60.4632C79.1211 60.4831 79.0602 60.5064 79.0004 60.5327C78.9407 60.5591 78.8825 60.5885 78.8257 60.6208C78.7689 60.6532 78.714 60.6884 78.661 60.7265C78.608 60.7646 78.557 60.8053 78.5081 60.8486C78.0545 61.2462 77.7988 61.8107 77.7671 62.4099C77.7282 63.141 77.9992 63.9055 78.5097 64.4331C79.2304 65.1779 80.478 65.5359 81.4932 65.528L81.6377 65.5261C81.8284 68.338 81.6204 71.1552 81.8188 73.9721L79.324 74.0057C79.291 73.1535 79.2907 72.3017 78.9585 71.5003C78.5847 70.5984 77.895 70.0197 77.1926 69.3768C75.1839 67.5381 73.6945 65.6317 73.3772 62.8327C73.3602 62.6784 73.347 62.5239 73.3376 62.369C73.3283 62.2141 73.3226 62.0591 73.3209 61.9039C73.3192 61.7488 73.3214 61.5937 73.3272 61.4386C73.3332 61.2835 73.3429 61.1287 73.3566 60.9741C73.3701 60.8194 73.3876 60.6653 73.4088 60.5116C73.4301 60.3579 73.4551 60.2047 73.4838 60.0523C73.5126 59.8999 73.545 59.7481 73.5814 59.5972C73.6177 59.4464 73.6577 59.2965 73.7014 59.1477C73.7451 58.9987 73.7925 58.851 73.8434 58.7044C73.8944 58.558 73.949 58.4128 74.0072 58.2689C74.0654 58.1249 74.127 57.9826 74.1923 57.8418C74.2576 57.701 74.3262 57.562 74.3982 57.4245C74.4704 57.2872 74.5458 57.1516 74.6246 57.0179C74.7034 56.8842 74.7855 56.7525 74.8707 56.6229C74.956 56.4933 75.0444 56.3659 75.1361 56.2407C75.2278 56.1155 75.3223 55.9926 75.42 55.872C77.3208 53.5005 79.8119 52.1463 82.8168 51.8017Z" fill="#CB9DEF"/>
</svg>
