<svg width="167" height="132" viewBox="0 0 167 132" fill="none" xmlns="http://www.w3.org/2000/svg">
<path d="M132 1H1.5L29.5 64.5L1.5 131H137L166 64.5L132 1Z" fill="#F4E6FF" stroke="#300C41"/>
<path d="M75.7149 63C77.3149 68.2 86.3816 69.1667 90.7149 69L92.2148 72L93.2148 67.5H94.2148C97.7148 66.5 99.7148 57.5 99.2148 55.5C98.7148 53.5 92.7149 50 84.2149 50C75.7149 50 73.7149 56.5 75.7149 63Z" fill="#CB9DEF"/>
<path d="M99.6203 54.4935C98.4273 52.2475 96.1645 50.7297 93.7729 49.9903C91.2692 49.2958 88.6591 48.7525 86.0491 49.1166C84.4584 49.3966 82.8229 49.3294 81.2546 49.7439C79.4007 50.2088 77.5524 50.9929 76.1745 52.3596C74.7575 53.855 73.9902 55.8602 73.6821 57.8709C73.4693 59.1368 73.8053 60.4082 74.287 61.5732C73.2452 61.6348 72.1922 61.8644 71.2961 62.4189C69.9238 63.2367 69.0165 64.6145 68.2323 65.97C67.3026 67.6223 66.5521 69.5154 66.8209 71.4477C67.1178 73.5201 68.3556 75.458 70.1367 76.5726C71.3353 77.3792 72.8139 77.5136 74.2198 77.564C74.3486 79.0483 73.8949 80.975 75.2784 82C76.1185 81.3895 76.3594 80.3253 77.0371 79.5804C77.3676 79.2219 77.7316 78.7178 78.2861 78.8186C80.0784 79.0259 81.8932 79.1995 83.6911 78.9979C85.7578 78.757 87.707 77.4968 88.6423 75.6205C89.7569 73.7665 89.9978 71.5485 89.7625 69.437C90.0594 69.437 90.3674 69.437 90.6755 69.4426C91.0956 70.5684 91.4373 71.7446 92.0982 72.764C92.255 72.988 92.591 73.3577 92.8767 73.0944C93.2968 72.5567 93.392 71.8566 93.504 71.2069C93.6608 70.1203 93.8232 69.0337 94.1033 67.9695C94.6858 67.7511 95.2739 67.527 95.8284 67.2358C97.996 66.054 99.3066 63.7744 100.012 61.478C100.724 59.1984 100.466 56.7003 99.6203 54.4935ZM88.0655 74.8363C87.2533 76.5614 85.5618 77.8161 83.6855 78.1241C81.882 78.3593 80.0672 78.1633 78.2749 77.9505C76.7962 77.76 76.1185 79.3115 75.3792 80.2861C75.2728 79.0931 75.3736 77.8721 75.2 76.6847C74.6007 76.2926 73.7717 76.511 73.0884 76.4158C69.6718 76.371 66.9441 72.7135 67.7003 69.4202C68.0979 67.6054 69.0501 65.9588 70.1367 64.4689C71.1505 63.0743 72.7411 62.1165 74.4718 61.9653C75.2336 63.4215 76.0401 64.9002 77.2835 66.0092C78.6166 67.247 80.3585 67.8855 82.0444 68.4848C83.9711 69.1681 86.0211 69.4258 88.0598 69.4314C88.3455 69.4482 88.6648 69.3978 88.9448 69.5154C89.1072 71.3189 88.9896 73.2344 88.0655 74.8363ZM99.3514 60.6882C98.7801 63.3319 97.1334 66.0204 94.4338 66.8661C93.9969 67.0566 93.3248 67.0678 93.2352 67.6559C92.8767 68.9049 92.7423 70.2099 92.5126 71.4925C92.031 70.6076 91.7733 69.633 91.3756 68.72C91.1404 68.2384 90.5019 68.3112 90.0594 68.2552C87.5278 68.2328 84.9457 68.2048 82.5205 67.387C81.0138 66.8717 79.4399 66.3844 78.1797 65.3707C76.9587 64.4073 76.1465 63.0407 75.4464 61.6796C74.8639 60.5034 74.4382 59.1592 74.7127 57.8429C74.9759 56.3531 75.4744 54.8744 76.421 53.6758C77.4908 52.2587 79.0927 51.357 80.7226 50.7353C82.6829 50.0464 84.7889 49.6879 86.8612 49.9399C89.0456 49.9231 91.1572 50.528 93.252 51.0881C95.4588 51.7715 97.6375 53.0317 98.8249 55.0817C99.4522 56.8684 99.8051 58.8231 99.3514 60.6882Z" fill="#300C41"/>
<path d="M88.9442 69.5156C88.6642 69.398 88.3449 69.4484 88.0592 69.4316C86.0205 69.426 83.9705 69.1683 82.0438 68.485C80.3579 67.8857 78.616 67.2472 77.2829 66.0094C76.0395 64.9004 75.233 63.4217 74.4712 61.9655C72.7405 62.1167 71.1499 63.0745 70.1361 64.4691C69.0495 65.959 68.0973 67.6056 67.6997 69.4204C66.9435 72.7137 69.6712 76.3712 73.0878 76.416C73.7711 76.5112 74.6001 76.2928 75.1994 76.6848C75.373 77.8723 75.2722 79.0933 75.3786 80.2863C76.1179 79.3117 76.7956 77.7602 78.2743 77.9507C80.0666 78.1635 81.8814 78.3595 83.6849 78.1243C85.5612 77.8163 87.2527 76.5616 88.0648 74.8365C88.989 73.2346 89.1066 71.3191 88.9442 69.5156ZM75.4906 72.0136C75.1042 72.5065 74.4768 72.0528 74.2528 71.644C73.8607 71.1343 73.8159 70.3109 74.3536 69.8965C74.8689 69.6388 75.6643 69.7844 76.0115 70.2549C76.0675 70.871 75.8379 71.5039 75.4906 72.0136ZM79.0808 73.5987C78.4703 73.2515 77.8935 72.7418 77.7814 72.0136C78.0727 71.5655 78.5151 71.1567 79.0864 71.1623C79.3609 71.2351 79.6241 71.3359 79.893 71.4367C79.9154 72.2377 79.6353 73.0162 79.0808 73.5987ZM82.6991 73.806C81.8645 73.2346 81.1924 72.2713 81.2932 71.2295C81.8253 70.6134 83.1584 70.4902 83.5897 71.2855C83.6457 72.1929 83.3432 73.1506 82.6991 73.806Z" fill="#CB9DEF"/>
<path d="M82.2417 57.255C82.505 56.7604 83.1457 56.7924 83.6184 56.6562C83.824 56.7559 84.0334 56.854 84.2468 56.9554C84.6798 57.9871 84.1869 59.124 83.4986 59.916C83.1636 60.1457 82.7564 59.8343 82.4809 59.6489C81.9802 58.9807 81.7449 57.9893 82.2417 57.255Z" fill="black"/>
<path d="M74.2749 69.5987C74.5382 69.1042 75.1789 69.1361 75.6516 69C75.8572 69.0997 76.0667 69.1977 76.28 69.2991C76.713 70.3308 76.2201 71.4678 75.5318 72.2598C75.1968 72.4894 74.7897 72.178 74.5141 71.9926C74.0134 71.3244 73.7781 70.333 74.2749 69.5987Z" fill="black"/>
<path d="M86.429 58.2284C86.75 57.6381 87.4865 57.6577 88.0533 57.498C88.3328 57.7075 88.7753 57.847 88.8134 58.2603C88.9052 58.9605 88.6201 59.6667 88.2348 60.2397C88.0052 60.5948 87.4507 60.7466 87.1493 60.3971C86.5864 59.8762 85.958 58.9941 86.429 58.2284Z" fill="black"/>
<path d="M77.1654 71.7304C77.4863 71.14 78.2228 71.1596 78.7896 71C79.0691 71.2095 79.9619 71.0866 80 71.5C80.0919 72.2001 79.3565 73.1687 78.9711 73.7417C78.7415 74.0968 78.187 74.2486 77.8857 73.8991C77.3228 73.3782 76.6943 72.496 77.1654 71.7304Z" fill="black"/>
<path d="M91.4325 58.2408C91.8273 58.0733 92.2586 58.0055 92.6793 57.9014C93.5233 58.1226 93.5513 59.0843 93.3374 59.7788C93.1699 60.2857 92.9845 60.908 92.4395 61.1236C91.7293 61.2452 91.2286 60.4812 91.1289 59.8746C91.1513 59.324 91.1435 58.7258 91.4325 58.2408Z" fill="black"/>
<path d="M81.5 71C82.0104 70.793 82.1505 70.8609 82.6942 70.732C83.7854 71.0056 84.1315 71.4626 83.8549 72.3214C83.6384 72.9481 83.3987 73.7175 82.6942 73.9841C81.7761 74.1344 81.1289 73.1898 81 72.4398C81.029 71.759 81.1264 71.5998 81.5 71Z" fill="black"/>
</svg>
