<svg width="167" height="132" viewBox="0 0 167 132" fill="none" xmlns="http://www.w3.org/2000/svg">
<path d="M132 1H1.5L29.5 64.5L1.5 131H137L166 64.5L132 1Z" fill="#F4E6FF" stroke="#300C41"/>
<path d="M99 50L63 55.5L68 82.5L103.5 78L102.5 63.5L99 50Z" fill="#CB9DEF"/>
<path d="M93.9279 50.0613C95.5397 49.9998 97.1112 49.4884 98.7338 49.5842C99.2863 49.6041 99.5611 50.1801 99.8883 50.5476C100.115 51.2254 100.165 51.9509 100.353 52.6409C101.559 57.5949 102.236 62.6534 103.278 67.64C103.672 69.514 103.798 71.4283 103.954 73.3334C104.083 74.5686 104.146 75.8098 104.206 77.0506C104.223 77.4736 104.177 77.9754 103.83 78.2684C103.462 78.5107 103.02 78.5956 102.599 78.6931C100.495 79.107 98.4018 79.5807 96.279 79.888C93.7719 80.2585 91.2279 80.2785 88.7238 80.6893C86.9746 80.9749 85.2055 81.1201 83.4317 81.1383C80.5835 81.1491 77.7755 81.6662 74.9425 81.8933C72.6316 82.0675 70.3546 82.8055 68.0217 82.4983C67.5788 82.3995 67.3456 81.9565 67.1913 81.5721C66.9569 80.9051 66.9257 80.1905 66.8052 79.5005C66.575 77.8875 66.1152 76.319 65.8404 74.7151C65.7572 74.0854 65.4144 73.5185 65.4205 72.8736C65.3711 70.7678 64.8125 68.7269 64.3895 66.677C64.2074 65.6889 63.7658 64.7645 63.6839 63.7564C63.6085 62.7821 63.3428 61.833 63.3025 60.8557C63.244 60.1766 63.3056 59.4958 63.2622 58.8197C63.0707 57.7067 62.4332 56.7125 62.3114 55.587C62.2312 55.3105 62.5554 55.2243 62.7188 55.099C62.8067 54.9738 62.8934 54.849 62.9814 54.7255C63.2683 54.7302 63.5587 54.7346 63.8412 54.6713C65.4205 54.3411 67.0167 54.0615 68.6315 54C69.2967 53.9844 69.9667 53.9891 70.6246 53.8782C73.8308 53.2701 77.0695 52.8641 80.2714 52.2296C83.413 51.7247 86.5222 51.01 89.6915 50.6828C91.1074 50.4952 92.5354 50.3842 93.9279 50.0613ZM98.1023 50.6559C97.3322 50.8891 96.5555 50.5095 95.7776 50.6468C94.0224 50.8211 92.3088 51.2722 90.5583 51.4881C88.0295 51.8031 85.5041 52.1594 82.9987 52.6352C79.9269 53.2125 76.8359 53.691 73.7376 54.1096C71.4715 54.4152 69.2113 54.8368 66.9187 54.8785C65.7824 54.9911 64.6681 55.2689 63.5565 55.522C63.6752 56.1673 63.7741 56.8157 63.8607 57.4671C66.4944 57.2417 69.074 56.6133 71.7059 56.368C78.5045 55.6503 85.1795 54.1109 91.9538 53.2233C93.7554 52.975 95.554 52.6968 97.366 52.5316C98.0698 52.4792 98.7229 52.1936 99.4085 52.0515C99.2772 51.5466 99.3253 50.8735 98.8144 50.5758C98.5764 50.509 98.3355 50.6265 98.1023 50.6559ZM96.3965 53.3143C90.4578 54.0988 84.562 55.1714 78.6432 56.0902C75.8257 56.5149 72.9948 56.8218 70.1574 57.0658C68.075 57.2803 66.0138 57.6803 63.9192 57.7605C64.0783 59.3736 64.4194 60.9624 64.7392 62.5507C65.7642 67.4489 66.1534 72.4693 67.4206 77.3197C67.7153 78.5025 67.8635 79.7142 68.0442 80.9181C68.1075 81.1526 68.1075 81.5327 68.4334 81.5479C70.414 81.9444 72.3759 81.2761 74.3474 81.1405C77.5398 80.9043 80.7078 80.3469 83.9171 80.3686C86.6141 80.3812 89.2538 79.7571 91.9369 79.5877C93.439 79.478 94.9442 79.3714 96.4355 79.1447C98.5101 78.8314 100.562 78.385 102.618 77.9793C102.941 77.8714 103.423 77.8636 103.554 77.4883C103.471 76.6163 103.333 75.7487 103.271 74.8732C102.969 72.4588 102.924 70.0119 102.436 67.6209C101.448 62.6963 100.854 57.6898 99.5711 52.8255C98.5236 53.0643 97.4631 53.2138 96.3965 53.3143Z" fill="#1F1D1E"/>
<path d="M92.4274 55.2271C94.164 54.9059 95.8884 54.4197 97.6653 54.398C98.2443 54.3503 98.6595 54.8795 98.7614 55.4013C99.1241 56.9914 99.1969 58.6262 99.3959 60.241C99.5072 61.2057 99.6459 62.1847 99.5393 63.1572C99.5237 63.5308 99.1965 63.7934 98.8537 63.8719C95.6613 64.5961 92.4239 65.1577 89.1527 65.3541C88.2911 65.3848 87.4252 65.3168 86.5684 65.4234C86.2256 65.4451 85.7658 65.5686 85.579 65.1842C85.1759 64.4184 85.2826 63.5122 85.2037 62.6788C85.2098 62.1492 84.9133 61.6755 84.9055 61.1489C84.8886 60.6349 84.8513 60.1209 84.7434 59.619C84.4994 58.52 84.7772 57.404 84.759 56.2954C87.3329 56.0761 89.8804 55.6518 92.4274 55.2271ZM92.1154 55.8369C89.798 56.1875 87.4842 56.5749 85.1486 56.8003C85.3554 57.3485 85.5066 57.9197 85.5487 58.5061C85.7168 60.5872 85.6908 62.6957 86.0921 64.7504C87.6172 64.7582 89.1627 64.7781 90.6895 64.6147C90.5968 64.2381 90.4425 63.8567 90.5227 63.4662C90.7185 62.3546 91.0306 61.2586 91.5169 60.2366C91.1355 59.8661 90.7155 59.3984 90.8486 58.8194C90.8702 58.0138 91.721 57.6294 92.394 57.4595C92.9605 57.2774 93.6769 57.5089 93.9269 58.0723C94.154 58.8641 93.9469 59.8323 93.2244 60.306C93.8203 61.493 94.7387 62.7403 94.4071 64.1423C95.94 63.8181 97.4963 63.6175 99.0214 63.2547C99.0816 62.4395 99.0231 61.623 98.9118 60.8174C98.6773 59.076 98.6292 57.3082 98.2742 55.5855C98.2279 55.2596 98.0211 54.9124 97.6489 54.928C95.7745 55.0078 93.9603 55.5404 92.1154 55.8369ZM91.2018 59.1514C91.5277 59.6888 92.1773 60.1903 92.8227 59.8474C93.5252 59.6546 93.7445 58.2898 92.8703 58.2049C92.2176 58.2669 91.5598 58.5832 91.2018 59.1514ZM91.9286 60.4355C91.3821 61.7509 91.1953 63.1663 91.0176 64.5683C91.9502 64.4695 92.8777 64.3477 93.8056 64.2225C93.5924 63.6249 93.8272 62.983 93.6387 62.3841C93.4459 61.7266 93.1477 61.106 92.8591 60.4867C92.5479 60.4711 92.2376 60.4559 91.9286 60.4355Z" fill="#1F1D1E"/>
<path d="M68.6346 55.278C68.9619 55.0665 69.3571 55.1961 69.6982 55.2919C69.6505 55.6902 69.5162 56.0854 69.2258 56.3741C68.7811 56.2934 68.4912 55.6776 68.6346 55.278Z" fill="#1F1D1E"/>
<path d="M66.8887 55.5603C67.0816 55.3163 67.398 55.5048 67.6407 55.5404C67.5991 55.8706 67.4725 56.1766 67.2424 56.4236C67.0695 56.167 66.7995 55.8953 66.8887 55.5603Z" fill="#1F1D1E"/>
<path d="M64.6504 56.0003C65.0131 55.7624 65.4422 55.7442 65.8374 55.9141C65.7802 56.2894 65.6723 56.6691 65.3958 56.9486C64.8957 56.9326 64.8029 56.3644 64.6504 56.0003Z" fill="#1F1D1E"/>
<path d="M79.755 57.3587C80.5221 57.2582 81.2819 57.087 82.0537 57.0315C82.543 57.0189 82.8165 57.5069 82.9305 57.9208C83.2841 59.1603 83.2469 60.4665 83.48 61.729C83.6915 62.8666 83.9121 64.006 84.0127 65.1593C84.059 65.4696 83.9013 65.8137 83.5897 65.9172C82.9244 66.1981 82.208 66.3264 81.5085 66.4976C79.2268 66.9886 77.0039 67.7604 74.6744 68.0213C72.5131 68.2575 70.3349 68.5479 68.2724 69.2673C67.7584 68.7178 67.6301 67.9442 67.4928 67.2343C67.2752 65.7924 67.1716 64.3354 66.8999 62.9026C66.7456 61.592 66.3703 60.3135 66.2637 58.9986C67.4477 58.798 68.6486 58.7455 69.8404 58.6064C73.1558 58.2727 76.4717 57.9238 79.755 57.3587ZM74.5219 58.6866C71.9454 59.0693 69.3351 59.182 66.7586 59.5651C66.896 60.8696 67.0706 62.1723 67.3714 63.4521C67.7649 65.1627 67.7342 66.9782 68.4397 68.6099C70.2937 68.0448 72.2063 67.7024 74.1301 67.4722C73.6607 65.9099 74.2012 64.2842 74.791 62.8363C74.6012 62.5875 74.277 62.5091 74.0083 62.3778C73.6811 61.7511 73.5143 60.8943 73.9433 60.2828C74.541 59.8412 75.2942 59.5248 76.0461 59.5542C76.8565 59.6717 77.1313 60.6069 77.1699 61.3082C77.2024 61.8638 76.8535 62.318 76.4938 62.7006C77.6484 63.6779 78.1177 65.1892 78.4805 66.6003C80.12 66.0941 81.818 65.8115 83.4527 65.291C83.3106 63.5375 82.8412 61.8282 82.7532 60.07C82.67 59.2409 82.6635 58.3733 82.3211 57.6001C82.0971 57.4735 81.8301 57.5724 81.5939 57.5923C79.241 57.9871 76.8977 58.4426 74.5219 58.6866ZM75.3492 60.3213C74.9093 60.5068 74.1899 60.5575 74.1327 61.1504C74.0044 61.7433 74.5605 62.2309 75.0606 62.4332C75.5451 62.6894 76.0994 62.3622 76.405 61.9764C76.766 61.5197 76.5731 60.8683 76.2814 60.4314C76.05 60.1515 75.6517 60.2303 75.3492 60.3213ZM75.1932 63.0292C74.9106 63.8166 74.6099 64.6084 74.5323 65.4496C74.4274 66.1179 74.6172 66.8083 74.404 67.4658C75.5989 67.2742 76.7876 67.0488 77.9578 66.7385C77.4932 65.4033 77.3233 63.8517 76.1688 62.8883C75.845 62.9455 75.5191 62.9871 75.1932 63.0292Z" fill="#1F1D1E"/>
<path d="M68.0098 62.6753C68.2971 61.8619 68.6256 60.937 69.4408 60.514C68.9624 61.2335 68.4947 61.9607 68.0098 62.6753Z" fill="#1F1D1E"/>
<path d="M68.4883 63.5306C68.7895 62.6521 69.2294 61.8013 69.8929 61.1426C69.876 61.6349 69.5423 62.0133 69.2848 62.4068C69.0287 62.7864 68.783 63.1756 68.4883 63.5306Z" fill="#1F1D1E"/>
<path d="M68.8027 64.8861C69.0974 63.9691 69.4866 62.9224 70.3837 62.444C69.9577 63.3177 69.3029 64.054 68.8027 64.8861Z" fill="#1F1D1E"/>
<path d="M98.8119 66.1861C99.244 66.0795 99.823 65.9655 100.113 66.4101C100.28 66.8856 100.319 67.4013 100.503 67.875C100.958 69.1054 100.907 70.4393 101.159 71.7144C101.386 73.1792 101.671 74.8049 100.953 76.1804C100.637 76.8552 99.8078 76.7378 99.192 76.7993C96.9197 76.9614 94.6223 76.9597 92.3839 77.426C91.2402 77.6605 90.0869 77.8815 88.9861 78.278C88.5818 78.4986 88.4552 77.9461 88.392 77.6635C88.1683 76.4379 87.9568 75.2105 87.8099 73.9741C87.6556 72.8364 87.6387 71.6741 87.3158 70.5642C87.0411 69.6532 86.8803 68.7101 86.791 67.7653C87.0133 67.4845 87.4363 67.517 87.7588 67.449C89.156 67.3471 90.5606 67.3272 91.9501 67.1339C94.2362 66.8114 96.5457 66.6355 98.8119 66.1861ZM91.8001 67.7159C90.3275 67.9305 88.8362 67.9257 87.3635 68.1203C87.4038 68.8874 87.5317 69.6484 87.754 70.3865C88.1228 71.6385 88.1323 72.9521 88.3252 74.235C88.4643 75.4129 88.7157 76.5739 88.8856 77.7484C89.9599 77.4009 91.0638 77.1556 92.1659 76.9163C92.1689 75.6118 92.6816 74.3554 93.265 73.2069C92.5304 72.631 92.0484 71.6572 92.2924 70.7232C92.4948 70.0532 92.9456 69.4464 93.5458 69.0837C94.0923 68.7366 94.7563 69.0204 95.3444 69.0651C96.0638 69.1392 96.4807 69.8833 96.4742 70.5516C96.4928 71.4608 96.0651 72.3224 95.4215 72.9491C95.8722 73.4691 96.479 73.9138 96.6736 74.6085C96.817 75.1719 97.1057 75.7492 96.9375 76.3438C97.9889 76.2034 99.0537 76.2173 100.105 76.0877C100.541 76.0599 100.652 75.5581 100.75 75.217C100.996 73.8787 100.781 72.5122 100.553 71.1878C100.371 70.1533 100.357 69.0759 99.9647 68.0882C99.7918 67.6466 99.7056 67.1802 99.582 66.7265C99.2839 66.5523 98.9073 66.6788 98.5861 66.7048C96.3373 67.1308 94.0633 67.3948 91.8001 67.7159ZM93.7023 69.5049C93.0907 69.9973 92.5473 70.8341 92.8485 71.6398C93.0322 72.1647 93.486 72.7281 94.1018 72.6743C95.2334 72.5491 96.0499 71.3685 95.8202 70.2629C95.646 69.8075 95.1346 69.6176 94.7103 69.4724C94.3861 69.4278 93.9844 69.2657 93.7023 69.5049ZM93.5371 73.3738C93.1159 74.4542 92.8194 75.6062 92.855 76.7746C94.0607 76.5475 95.2833 76.4257 96.5076 76.3625C96.2853 75.7683 96.1743 75.1412 95.9719 74.544C95.7158 74.0499 95.3543 73.6191 95.0735 73.1406C94.5868 73.3474 94.062 73.4262 93.5371 73.3738Z" fill="#1F1D1E"/>
<path d="M82.0321 68.2317C82.6558 68.1021 83.2825 67.9552 83.9234 67.9353C84.1505 67.9166 84.4283 68.0263 84.4821 68.2733C84.6411 68.7149 84.7399 69.1765 84.8496 69.635C85.1798 71.1865 85.7294 72.6887 85.904 74.2723C86.0215 75.4129 86.4614 76.509 86.4349 77.664C86.4627 77.9543 86.2698 78.3201 85.9348 78.2707C84.32 78.3539 82.7251 78.6274 81.1198 78.7986C78.7548 79.0564 76.3881 79.3251 74.0171 79.5288C72.9873 79.6168 71.9671 79.8916 70.9279 79.8036C70.5573 79.7945 70.3692 79.4083 70.2778 79.1028C70.0645 78.3231 70.179 77.5019 70.0229 76.7148C69.8301 75.699 69.3915 74.7512 69.183 73.7401C68.9516 72.5886 68.354 71.463 68.5824 70.2621C69.4283 70.2249 70.2695 70.12 71.1155 70.0723C72.1574 70.0199 73.1702 69.7499 74.1982 69.5891C76.8124 69.1578 79.4496 68.8337 82.0321 68.2317ZM80.9963 69.1253C78.1464 69.6068 75.263 69.8465 72.4083 70.2972C71.2858 70.4792 70.1421 70.484 69.0292 70.7232C69.1263 71.7265 69.4998 72.667 69.7191 73.6456C70 74.8946 70.5946 76.0708 70.6609 77.3675C70.7289 77.9881 70.5928 78.6659 70.9062 79.2372C71.4154 79.404 71.9806 79.2757 72.5071 79.2311C73.5754 79.0629 74.6559 78.9979 75.732 78.9069C75.6193 77.3645 76.0362 75.8195 76.5979 74.3932C76.1099 73.9329 75.5001 73.4532 75.4247 72.7398C75.6639 72.3181 76.1133 72.0637 76.3924 71.6667C76.7769 71.1324 77.6259 70.9009 78.1524 71.3582C78.617 71.7794 79.0708 72.3723 78.9707 73.0393C78.9152 73.4497 78.6357 73.7804 78.4164 74.1184C78.9707 74.9241 79.3503 75.8303 79.8058 76.6932C80.0897 77.2241 80.2518 77.8091 80.3289 78.4068C82.2233 78.2369 84.0925 77.8403 85.9929 77.7446C85.9079 76.6624 85.553 75.6266 85.4095 74.5535C85.1564 72.5391 84.4816 70.6123 84.014 68.6443C82.9921 68.6807 81.9996 68.9446 80.9963 69.1253ZM75.8633 73.0497C76.2616 73.451 76.6646 73.9667 77.2636 74.0378C77.9197 73.8818 78.7271 73.0761 78.2252 72.4013C78.0649 72.1422 77.8564 71.8904 77.557 71.7946C76.8588 71.9718 76.3049 72.5014 75.8633 73.0497ZM76.9611 74.6103C76.4393 75.9672 76.2754 77.4182 76.2434 78.8618C77.355 78.7431 78.4679 78.6148 79.5809 78.5039C79.5393 77.8928 79.3815 77.2969 79.1302 76.7408C78.7891 75.9781 78.5668 75.1598 78.1438 74.4374C77.7511 74.5067 77.3637 74.6242 76.9611 74.6103Z" fill="#1F1D1E"/>
</svg>
