<svg width="167" height="132" viewBox="0 0 167 132" fill="none" xmlns="http://www.w3.org/2000/svg">
<path d="M131.5 1H1L29 64.5L1 131H136.5L165.5 64.5L131.5 1Z" fill="#F4E6FF" stroke="#300C41"/>
<path d="M78.2474 49.1059C81.439 49.0528 84.6308 49.0302 87.8227 49.0379C90.7097 49.0311 94.7208 48.8178 97.4698 49.4818C98.4491 49.7183 99.1828 50.3471 99.6979 51.1945C100.154 51.9449 100.407 52.8073 100.512 53.6751C100.677 55.0386 100.59 56.4695 100.571 57.8413C100.545 60.5233 100.464 63.2035 100.328 65.8821C100.275 67.1232 100.388 68.613 100.085 69.8071C101.324 71.2018 105.372 76.2067 105.448 77.7565C105.479 78.3945 104.932 79.0246 104.51 79.4549C103.963 80.0119 103.25 80.5623 102.488 80.7771C100.717 81.2763 96.3424 81.1344 94.3172 81.1452L86.8917 81.2349L71.7164 81.7442C69.4897 81.821 66.8782 82.1126 64.6877 81.9529C63.992 81.9023 63.3753 81.7451 62.7569 81.4152C62.034 81.0292 61.2535 80.3882 61.0399 79.5651C60.5217 77.5685 65.2034 73.3418 66.2913 71.435L66.3655 71.3031C65.2853 68.8816 65.3342 65.7815 65.2323 63.1632C65.1329 60.6116 64.8662 55.247 65.3787 52.9175C65.5758 52.0212 65.967 51.1165 66.6038 50.4441C66.662 50.3818 66.7225 50.3216 66.7852 50.2635C66.8478 50.2055 66.9125 50.15 66.9794 50.0969C67.0462 50.0437 67.1148 49.993 67.1854 49.945C67.2558 49.8969 67.3279 49.8514 67.4019 49.8087C67.4759 49.7658 67.5511 49.7259 67.628 49.6886C67.7048 49.6514 67.7828 49.6171 67.8621 49.5857C67.9416 49.5542 68.022 49.5257 68.1034 49.5003C68.1848 49.4747 68.2672 49.4522 68.3502 49.4328C69.7109 49.101 71.2407 49.2635 72.6374 49.2451C74.5073 49.2203 76.3781 49.1572 78.2474 49.1059Z" fill="#0B0B0B"/>
<path d="M82.8624 75.607C83.8842 75.5573 84.911 75.5708 85.934 75.5659C86.2994 76.1524 86.6391 76.7573 86.9889 77.3533L84.6545 77.3396C83.2282 77.3684 81.8149 77.4883 80.3945 77.6114C80.691 76.9399 81.0075 76.3029 81.3789 75.6696L82.8624 75.607Z" fill="#CB9DEF"/>
<path d="M102.539 78.2473C103.06 78.2172 103.585 78.2167 104.107 78.2036C103.73 78.6391 103.288 79.1228 102.795 79.4258C102.433 79.6478 102.046 79.7729 101.624 79.8054C96.4648 80.2029 91.2662 79.97 86.0973 80.1082L71.0813 80.6095C69.1999 80.6701 65.5027 81.0353 63.7852 80.633C63.0093 80.3582 62.5487 79.9394 62.0762 79.285C70.4148 79.0107 78.7783 79.0387 87.1211 78.859C92.2645 78.7482 97.3994 78.4546 102.539 78.2473Z" fill="#CB9DEF"/>
<path d="M98.7703 70.7501C98.919 70.7258 99.0687 70.732 99.219 70.731C100.624 71.5704 103.04 75.4762 103.882 77.0666C98.7755 77.1045 93.6429 77.5358 88.5354 77.7117C87.8455 76.7137 87.4527 75.3872 86.5136 74.5977C85.257 74.2514 81.9866 74.4005 80.6433 74.6719C80.1264 74.9768 79.2887 77.2053 78.9466 77.8722L70.8867 78.042C68.1408 78.0395 65.3953 78.0732 62.6504 78.1431C63.221 76.9404 64.2213 75.9419 65.0557 74.9188C65.8753 73.9001 66.6859 72.8741 67.4876 71.8411C77.9229 71.6992 88.3505 71.3354 98.7703 70.7501Z" fill="#CB9DEF"/>
<path d="M73.4058 75.2014C74.0384 75.1886 75.0031 75.0827 75.535 75.5118C75.6808 75.6296 75.6489 75.6216 75.6713 75.7838C75.484 75.9746 75.2497 76.0612 75.0102 76.1693C74.3399 76.2026 73.4782 76.3568 72.8663 76.0638C72.7261 75.816 72.7401 75.8074 72.7854 75.5232C73.0008 75.3017 73.1155 75.2888 73.4058 75.2014Z" fill="#0B0B0B"/>
<path d="M91.0853 74.6972C91.7828 74.652 92.6397 74.5122 93.3253 74.6263C93.598 74.6714 93.6962 74.7156 93.859 74.9354C93.8681 75.2066 93.7849 75.3382 93.6504 75.5602C93.0248 75.6892 92.1304 75.7659 91.5004 75.6335C91.2067 75.5717 91.1227 75.5185 90.9532 75.2804C90.9508 75.0354 90.9885 74.9147 91.0853 74.6972Z" fill="#0B0B0B"/>
<path d="M67.5733 75.266L68.7108 75.2237C69.3033 75.2048 70.0232 75.0996 70.4815 75.5293C70.4997 75.8474 70.444 75.9177 70.3022 76.1937C69.6348 76.286 68.854 76.3486 68.1818 76.3099C67.8037 76.2883 67.584 76.2434 67.3301 75.9656C67.3315 75.6273 67.404 75.5498 67.5733 75.266Z" fill="#0B0B0B"/>
<path d="M96.3352 74.2453C96.9958 74.2317 97.6574 74.17 98.3181 74.1737C98.7589 74.176 99.1248 74.1731 99.4478 74.4985C99.4869 74.7758 99.444 74.8931 99.3156 75.1391C98.7004 75.2588 97.9784 75.3154 97.3502 75.3151C96.9529 75.315 96.5875 75.2724 96.2959 74.9871C96.1826 74.7031 96.2509 74.5306 96.3352 74.2453Z" fill="#0B0B0B"/>
<path d="M68.1221 72.8408C68.7417 72.8244 69.3609 72.7916 69.9807 72.7782C70.4592 72.7678 70.9962 72.7356 71.363 73.0861C71.4341 73.4121 71.3878 73.4658 71.2689 73.7661C70.6638 73.9043 69.903 73.9327 69.2793 73.9275C68.86 73.9239 68.4087 73.8941 68.0973 73.5881C68.0064 73.2619 68.0464 73.1627 68.1221 72.8408Z" fill="#0B0B0B"/>
<path d="M89.2694 72.355C90.1151 72.3406 91.2554 72.2053 92.0629 72.4693C92.3081 72.5494 92.3718 72.6324 92.471 72.8598C92.4131 73.1378 92.3005 73.2467 92.1071 73.4372C91.3256 73.4614 90.4088 73.5513 89.6427 73.3983C89.3228 73.3344 89.17 73.2444 88.9922 72.9752C89.0197 72.6604 89.087 72.6031 89.2694 72.355Z" fill="#0B0B0B"/>
<path d="M95.8489 72.0781C96.4454 72.0314 97.0739 71.9556 97.6695 72.028C97.9515 72.0623 98.2569 72.0995 98.4398 72.3387C98.4299 72.5777 98.426 72.6355 98.2671 72.8177C97.9981 73.1263 97.5196 73.0973 97.1437 73.1112C96.4276 73.1292 95.6 73.2134 94.8967 73.0876C94.6339 73.0407 94.5322 72.9832 94.3926 72.7627C94.4105 72.6194 94.4659 72.5445 94.5612 72.4405C94.935 72.0325 95.3357 72.0843 95.8489 72.0781Z" fill="#0B0B0B"/>
<path d="M73.8609 72.8769C74.6898 72.8308 75.5584 72.7516 76.3863 72.7978C76.7884 72.8201 77.1246 72.852 77.3979 73.164L77.3697 73.3951C77.1462 73.6794 77.0789 73.7132 76.7402 73.8472C75.9845 73.873 73.8495 74.1359 73.2733 73.638C73.1639 73.5436 73.2099 73.4614 73.2154 73.3311C73.4611 73.0305 73.4925 72.9868 73.8609 72.8769Z" fill="#0B0B0B"/>
<path d="M82.3822 50.2162C84.7625 50.1801 96.9488 49.7248 98.396 51.1849C98.9569 51.7509 99.2807 52.683 99.4015 53.4538C99.6279 54.8993 99.4604 56.4786 99.4419 57.9439C99.3935 61.806 99.2108 65.6582 99.1215 69.5183C97.3454 69.8709 95.3266 69.8099 93.5148 69.8891L83.0552 70.3258C81.0299 70.4634 78.9831 70.464 76.9534 70.5152C73.7332 70.617 70.512 70.6785 67.2901 70.7C66.7218 68.7643 66.5583 66.9122 66.4725 64.9057C66.3784 62.5182 66.3305 60.1299 66.329 57.7407C66.324 56.3242 66.2317 54.7573 66.4855 53.3591C66.6289 52.5691 66.9017 51.7425 67.4733 51.1547C67.8604 50.7566 68.3352 50.5545 68.8762 50.4659C69.9867 50.2842 71.2054 50.4655 72.3364 50.4396L82.3822 50.2162Z" fill="#CB9DEF"/>
<path d="M85.9975 51.5317C87.8602 51.5044 95.5715 51.4637 96.8249 52.6055C97.7816 53.4771 97.9236 56.7417 97.9938 58.0287C98.1142 60.242 98.0444 62.452 97.9912 64.666C97.97 65.5562 98.0341 66.5425 97.8635 67.4156C97.7794 67.8466 97.6478 68.2029 97.3531 68.5314C95.9055 69.1135 90.0179 68.8368 87.9549 68.8897C85.3334 68.9569 82.7111 69.0697 80.0908 69.1736C78.4479 69.2197 70.0861 69.6951 69.2621 69.2721C68.6753 68.971 68.4565 67.4252 68.3829 66.8405C68.0901 64.5166 67.3777 53.9215 68.5248 52.6161C68.8611 52.2336 70.0295 52.1374 70.5197 52.0863C72.8018 51.8484 75.1917 51.9413 77.4892 51.8879C80.3261 51.8217 83.1618 51.6435 85.9975 51.5317Z" fill="#0B0B0B"/>
<path d="M72.8755 53.1485C77.8283 52.9862 82.8062 53.1897 87.7611 53.2461C90.0936 53.2724 92.4679 53.0444 94.792 53.1896C95.1868 53.2142 95.6705 53.2534 95.9767 53.5338C97.4555 54.8883 96.782 65.2203 96.8179 67.5534C95.5498 67.647 94.2866 67.7322 93.0151 67.7612C89.0444 67.7513 85.0752 67.8198 81.1073 67.9667C77.3641 68.0989 73.5725 68.3265 69.8281 68.1936C69.4474 67.0765 69.4271 65.8312 69.3363 64.661C69.0449 60.9053 68.9546 57.2133 69.3579 53.4628C70.5287 53.1796 71.6778 53.1755 72.8755 53.1485Z" fill="#CB9DEF"/>
<path d="M70.4554 54.0752L70.9172 54.1718C71.0415 54.2864 71.1375 54.3356 71.188 54.5026C71.3963 55.193 70.9655 56.7253 70.6169 57.3438C70.4586 57.3343 70.3008 57.2963 70.1448 57.2674C69.8862 57.0257 69.8234 56.8818 69.7982 56.5193C69.7469 55.7825 69.9715 54.635 70.4554 54.0752Z" fill="#0B0B0B"/>
<path d="M88.3139 54.841C89.4729 54.7577 90.4797 54.8701 91.4375 55.5817C91.4908 55.6213 91.543 55.6623 91.5943 55.7045C91.6455 55.7468 91.6956 55.7903 91.7447 55.8351C91.7937 55.8799 91.8415 55.9259 91.8882 55.9732C91.935 56.0204 91.9805 56.0688 92.0247 56.1183C92.0688 56.1678 92.1119 56.2185 92.1536 56.2701C92.1954 56.3217 92.2358 56.3745 92.2748 56.4282C92.3138 56.482 92.3514 56.5367 92.3878 56.5922C92.424 56.6478 92.4588 56.7043 92.4923 56.7618C92.5258 56.8192 92.5577 56.8773 92.5883 56.9364C92.6187 56.9954 92.6477 57.0552 92.6752 57.1155C92.7027 57.1759 92.7286 57.2371 92.753 57.2989C92.7775 57.3607 92.8003 57.423 92.8215 57.4859C92.8427 57.5489 92.8624 57.6123 92.8804 57.6763C92.8985 57.7402 92.915 57.8044 92.9298 57.8692C92.9445 57.9339 92.9578 57.9989 92.9692 58.0645C92.9807 58.1299 92.9906 58.1956 92.9989 58.2614C93.1466 59.386 92.8822 60.5215 92.1666 61.4134C91.3021 62.4908 90.0583 62.9839 88.7188 63.1367C88.2414 63.7509 87.8373 64.4477 87.3207 65.0264C87.089 65.286 86.9438 65.364 86.5985 65.3782C85.9297 65.0189 85.7419 64.2202 85.4756 63.5531C85.4089 63.4994 85.3553 63.4233 85.2757 63.3918C84.7028 63.1657 82.8227 63.5652 81.4096 62.943C80.5865 62.5807 79.995 61.8408 79.6824 61.0078C79.3306 60.07 79.3971 59.0405 79.8131 58.1347C80.3588 56.9466 81.4316 56.0481 82.6471 55.6016C83.8783 55.1491 85.4445 55.0473 86.6525 55.6147C87.1944 55.2886 87.7135 55.0413 88.3139 54.841Z" fill="#CB9DEF"/>
</svg>
